<?xml version="1.0" encoding="UTF-8"?>
<svg width="154px" height="31px" viewBox="0 0 154 31" version="1.1" xmlns="http://www.w3.org/2000/svg" xmlns:xlink="http://www.w3.org/1999/xlink">
    <!-- Generator: Sketch 52.4 (67378) - http://www.bohemiancoding.com/sketch -->
    <title>TestRail Logo</title>
    <desc>Created with Sketch.</desc>
    <defs>
        <polygon id="path-1" points="0.6294 0.6353 16.7954 0.6353 16.7954 21 0.6294 21"></polygon>
        <polygon id="path-3" points="0.9299 0.6361 15.4939 0.6361 15.4939 21 0.9299 21"></polygon>
        <polygon id="path-5" points="0.6979 0.6361 17.1579 0.6361 17.1579 21 0.6979 21"></polygon>
        <polygon id="path-7" points="0 28 150.173 28 150.173 0.615 0 0.615"></polygon>
    </defs>
    <g id="TestRail-Logo" stroke="none" stroke-width="1" fill="none" fill-rule="evenodd">
        <g id="Group-25" transform="translate(2.000000, 1.000000)">
            <polygon id="Fill-1" fill="#0B3754" points="0 1.0491 0 4.2221 7.976 4.2221 7.976 27.9451 11.179 27.9451 11.179 4.2221 19.188 4.2221 19.188 1.0491"></polygon>
            <g id="Group-24" transform="translate(0.000000, 0.384800)">
                <g id="Group-4" transform="translate(17.000000, 7.000000)">
                    <mask id="mask-2" fill="white">
                        <use xlink:href="#path-1"></use>
                    </mask>
                    <g id="Clip-3"></g>
                    <path d="M3.8654,8.9463 L13.6574,8.9463 C13.5254,7.3073 13.1504,6.0783 12.5344,5.2583 C11.5884,3.9873 10.3604,3.3503 8.8514,3.3503 C7.4874,3.3503 6.3404,3.8583 5.4104,4.8733 C4.4794,5.8883 3.9654,7.2463 3.8654,8.9463 M13.6244,14.2853 L16.6954,14.7073 C16.2114,16.7013 15.3144,18.2483 14.0044,19.3483 C12.6934,20.4493 11.0204,21.0003 8.9844,21.0003 C6.4204,21.0003 4.3864,20.1223 2.8834,18.3673 C1.3814,16.6123 0.6294,14.1503 0.6294,10.9823 C0.6294,7.7053 1.3884,5.1613 2.9084,3.3503 C4.4274,1.5413 6.3974,0.6353 8.8194,0.6353 C11.1644,0.6353 13.0794,1.5223 14.5654,3.2963 C16.0514,5.0693 16.7954,7.5643 16.7954,10.7813 C16.7954,10.9763 16.7894,11.2703 16.7774,11.6623 L3.7014,11.6623 C3.8104,13.8013 4.3554,15.4413 5.3364,16.5783 C6.3144,17.7163 7.5374,18.2843 9.0014,18.2843 C10.0914,18.2843 11.0204,17.9673 11.7914,17.3313 C12.5614,16.6943 13.1734,15.6793 13.6244,14.2853" id="Fill-2" fill="#0B3754" mask="url(#mask-2)"></path>
                </g>
                <g id="Group-7" transform="translate(35.000000, 7.000000)">
                    <mask id="mask-4" fill="white">
                        <use xlink:href="#path-3"></use>
                    </mask>
                    <g id="Clip-6"></g>
                    <path d="M0.9299,14.7441 L3.8689,14.2301 C4.0349,15.5391 4.4939,16.5421 5.2479,17.2391 C6.0019,17.9361 7.0569,18.2841 8.4099,18.2841 C9.7759,18.2841 10.7869,17.9751 11.4489,17.3581 C12.1099,16.7401 12.4399,16.0151 12.4399,15.1841 C12.4399,14.4381 12.1469,13.8511 11.5649,13.4231 C11.1569,13.1291 10.1449,12.7571 8.5259,12.3041 C6.3459,11.6921 4.8359,11.1631 3.9929,10.7171 C3.1519,10.2701 2.5129,9.6521 2.0779,8.8641 C1.6429,8.0751 1.4259,7.2031 1.4259,6.2491 C1.4259,5.3811 1.6049,4.5771 1.9629,3.8371 C2.3209,3.0971 2.8069,2.4821 3.4239,1.9931 C3.8859,1.6141 4.5159,1.2931 5.3149,1.0301 C6.1129,0.7671 6.9679,0.6361 7.8819,0.6361 C9.2579,0.6361 10.4659,0.8551 11.5059,1.2961 C12.5469,1.7361 13.3149,2.3331 13.8099,3.0851 C14.3049,3.8371 14.6469,4.8431 14.8329,6.1021 L11.9279,6.5431 C11.7949,5.5401 11.4119,4.7581 10.7799,4.1941 C10.1469,3.6321 9.2519,3.3501 8.0959,3.3501 C6.7319,3.3501 5.7579,3.6011 5.1739,4.1021 C4.5899,4.6041 4.2989,5.1911 4.2989,5.8641 C4.2989,6.2921 4.4199,6.6781 4.6619,7.0201 C4.9049,7.3751 5.2839,7.6681 5.8009,7.9001 C6.0989,8.0231 6.9739,8.3051 8.4269,8.7441 C10.5299,9.3681 11.9959,9.8791 12.8269,10.2761 C13.6589,10.6741 14.3109,11.2521 14.7839,12.0101 C15.2569,12.7681 15.4939,13.7101 15.4939,14.8361 C15.4939,15.9361 15.2049,16.9731 14.6269,17.9451 C14.0489,18.9181 13.2149,19.6701 12.1249,20.2021 C11.0349,20.7331 9.8029,21.0001 8.4269,21.0001 C6.1489,21.0001 4.4119,20.4741 3.2169,19.4221 C2.0239,18.3701 1.2609,16.8101 0.9299,14.7441" id="Fill-5" fill="#0B3754" mask="url(#mask-4)"></path>
                </g>
                <path d="M59.9318,24.6055 L60.3608,27.5225 C59.5238,27.7185 58.7758,27.8165 58.1158,27.8165 C57.0358,27.8165 56.1998,27.6265 55.6058,27.2485 C55.0108,26.8695 54.5918,26.3705 54.3498,25.7525 C54.1078,25.1345 53.9868,23.8345 53.9868,21.8535 L53.9868,10.6445 L51.8068,10.6445 L51.8068,8.0765 L53.9868,8.0765 L53.9868,3.2515 L56.9428,1.2695 L56.9428,8.0765 L59.9318,8.0765 L59.9318,10.6445 L56.9428,10.6445 L56.9428,22.0375 C56.9428,22.9795 56.9938,23.5845 57.0998,23.8535 C57.2028,24.1235 57.3748,24.3365 57.6118,24.4965 C57.8478,24.6555 58.1858,24.7345 58.6268,24.7345 C58.9568,24.7345 59.3918,24.6915 59.9318,24.6055" id="Fill-8" fill="#0B3754"></path>
                <path d="M67.8302,12.0391 L71.4472,12.0391 C73.7912,12.0391 75.2552,11.9291 75.8392,11.7081 C76.4222,11.4881 76.8792,11.1091 77.2092,10.5711 C77.5392,10.0331 77.7052,9.3601 77.7052,8.5531 C77.7052,7.6471 77.4862,6.9171 77.0532,6.3601 C76.6172,5.8041 76.0042,5.4521 75.2112,5.3061 C74.8142,5.2441 73.6262,5.2141 71.6442,5.2141 L67.8302,5.2141 L67.8302,12.0391 Z M62.9432,27.5601 L62.9432,0.6641 L73.2302,0.6641 C75.8162,0.6641 77.6962,0.9051 78.8692,1.3891 C80.0412,1.8721 80.9782,2.7311 81.6842,3.9661 C82.3892,5.2021 82.7402,6.6141 82.7402,8.2041 C82.7402,10.2231 82.2072,11.8891 81.1392,13.2041 C80.0702,14.5181 78.4752,15.3481 76.3512,15.6891 C77.4072,16.3751 78.2792,17.1271 78.9682,17.9461 C79.6552,18.7661 80.5832,20.2211 81.7502,22.3121 L84.7052,27.5601 L78.8602,27.5601 L75.3262,21.7071 C74.0722,19.6151 73.2132,18.2981 72.7512,17.7541 C72.2892,17.2091 71.7992,16.8361 71.2812,16.6351 C70.7642,16.4331 69.9432,16.3321 68.8212,16.3321 L67.8302,16.3321 L67.8302,27.5601 L62.9432,27.5601 Z" id="Fill-10" fill="#0B3754"></path>
                <g id="Group-14" transform="translate(85.000000, 7.000000)">
                    <mask id="mask-6" fill="white">
                        <use xlink:href="#path-5"></use>
                    </mask>
                    <g id="Clip-13"></g>
                    <path d="M11.5939,11.2031 C10.9999,11.4231 10.0589,11.6861 8.7719,11.9921 C7.4829,12.2981 6.6409,12.5981 6.2439,12.8901 C5.6389,13.3681 5.3359,13.9741 5.3359,14.7071 C5.3359,15.4291 5.5779,16.0531 6.0629,16.5781 C6.5469,17.1041 7.1639,17.3671 7.9119,17.3671 C8.7479,17.3671 9.5469,17.0611 10.3069,16.4501 C10.8669,15.9851 11.2369,15.4171 11.4119,14.7441 C11.5329,14.3041 11.5939,13.4661 11.5939,12.2301 L11.5939,11.2031 Z M5.3859,7.0201 L1.1759,6.1761 C1.6489,4.2931 2.4629,2.8981 3.6189,1.9931 C4.7759,1.0881 6.4919,0.6361 8.7719,0.6361 C10.8399,0.6361 12.3809,0.9081 13.3949,1.4521 C14.4069,1.9961 15.1189,2.6871 15.5319,3.5251 C15.9459,4.3631 16.1519,5.9011 16.1519,8.1391 L16.1019,14.1561 C16.1019,15.8691 16.1759,17.1321 16.3239,17.9451 C16.4739,18.7591 16.7519,19.6301 17.1579,20.5591 L12.5689,20.5591 C12.4479,20.2181 12.2989,19.7101 12.1229,19.0371 C12.0449,18.7311 11.9899,18.5291 11.9569,18.4321 C11.1649,19.2881 10.3179,19.9301 9.4139,20.3571 C8.5119,20.7861 7.5489,21.0001 6.5259,21.0001 C4.7199,21.0001 3.2969,20.4561 2.2569,19.3671 C1.2169,18.2781 0.6979,16.9021 0.6979,15.2391 C0.6979,14.1391 0.9339,13.1571 1.4059,12.2951 C1.8799,11.4321 2.5429,10.7711 3.3969,10.3131 C4.2489,9.8541 5.4799,9.4541 7.0859,9.1111 C9.2549,8.6591 10.7579,8.2371 11.5939,7.8461 L11.5939,7.3321 C11.5939,6.3411 11.3739,5.6351 10.9339,5.2131 C10.4929,4.7911 9.6619,4.5801 8.4409,4.5801 C7.6149,4.5801 6.9709,4.7611 6.5089,5.1211 C6.0469,5.4821 5.6719,6.1151 5.3859,7.0201 Z" id="Fill-12" fill="#0B3754" mask="url(#mask-6)"></path>
                </g>
                <mask id="mask-8" fill="white">
                    <use xlink:href="#path-7"></use>
                </mask>
                <g id="Clip-16"></g>
                <path d="M105.475,27.559 L110.116,27.559 L110.116,8.076 L105.475,8.076 L105.475,27.559 Z M105.475,5.434 L110.116,5.434 L110.116,0.664 L105.475,0.664 L105.475,5.434 Z" id="Fill-15" fill="#0B3754" mask="url(#mask-8)"></path>
                <polygon id="Fill-17" fill="#0B3754" mask="url(#mask-8)" points="114.508 27.56 119.149 27.56 119.149 0.664 114.508 0.664"></polygon>
                <polygon id="Fill-18" fill="#75BC54" mask="url(#mask-8)" points="123.244 27.545 130.33 27.545 130.33 20.458 123.244 20.458"></polygon>
                <polygon id="Fill-19" fill="#F4ED64" mask="url(#mask-8)" points="133.165 17.623 140.252 17.623 140.252 10.536 133.165 10.536"></polygon>
                <polygon id="Fill-20" fill="#75BC54" mask="url(#mask-8)" points="123.244 17.623 130.33 17.623 130.33 10.536 123.244 10.536"></polygon>
                <polygon id="Fill-21" fill="#75BC54" mask="url(#mask-8)" points="123.327 7.701 130.413 7.701 130.413 0.615 123.327 0.615"></polygon>
                <polygon id="Fill-22" fill="#75BC54" mask="url(#mask-8)" points="133.165 27.545 140.252 27.545 140.252 20.457 133.165 20.457"></polygon>
                <polygon id="Fill-23" fill="#CD465C" mask="url(#mask-8)" points="143.087 27.545 150.173 27.545 150.173 20.457 143.087 20.457"></polygon>
            </g>
        </g>
    </g>
</svg>