<svg xmlns="http://www.w3.org/2000/svg" width="62" height="66" viewBox="0 0 62 66">
  <g fill="none" fill-rule="evenodd">
    <rect width="61" height="21" x=".5" y=".5" fill="#202020" stroke="#303030" rx="2"/>
    <rect width="29" height="20" x="21" y="1" fill="#000"/>
    <polyline stroke="#F0F0F0" stroke-linecap="round" stroke-linejoin="round" points="53 5 55.5 7 58 5" transform="matrix(1 0 0 -1 0 12)"/>
    <polyline stroke="#F0F0F0" stroke-linecap="round" stroke-linejoin="round" points="53 15 55.5 17 58 15"/>
    <rect width="61" height="21" x=".5" y="22.5" fill="#202020" stroke="#303030" rx="2"/>
    <rect width="28" height="19" x="21.5" y="23.5" fill="#000" stroke="#303030"/>
    <polyline stroke="#979797" stroke-linecap="round" stroke-linejoin="round" points="53 27 55.5 29 58 27" transform="matrix(1 0 0 -1 0 56)"/>
    <polyline stroke="#979797" stroke-linecap="round" stroke-linejoin="round" points="53 37 55.5 39 58 37"/>
    <rect width="61" height="21" x=".5" y="44.5" fill="#202020" stroke="#303030" rx="2"/>
    <rect width="28" height="19" x="21.5" y="45.5" fill="#000" stroke="#303030"/>
    <path fill="#303030" d="M50,45 L60,45 C60.5522847,45 61,45.4477153 61,46 L61,64 C61,64.5522847 60.5522847,65 60,65 L50,65 L50,45 Z"/>
    <polyline stroke="#FFF" stroke-linecap="round" stroke-linejoin="round" points="53 49 55.5 51 58 49" transform="matrix(1 0 0 -1 0 100)"/>
    <polyline stroke="#FFF" stroke-linecap="round" stroke-linejoin="round" points="53 59 55.5 61 58 59"/>
    <path fill="#F0F0F0" fill-rule="nonzero" d="M11.628 15C11.5159994 15 11.4400002 14.9520005 11.4 14.856L9.828 11.424C9.81999996 11.3919998 9.79200024 11.376 9.744 11.376L8.34 11.376C8.29199976 11.376 8.268 11.3999998 8.268 11.448L8.268 14.808C8.268 14.9360006 8.20400064 15 8.076 15L7.068 15C6.93999936 15 6.876 14.9360006 6.876 14.808L6.876 6.78C6.876 6.65199936 6.93999936 6.588 7.068 6.588L10.32 6.588C10.8080024 6.588 11.2399981 6.68999898 11.616 6.894 11.9920019 7.09800102 12.283999 7.38599814 12.492 7.758 12.700001 8.13000186 12.804 8.5559976 12.804 9.036 12.804 9.58800276 12.6620014 10.0579981 12.378 10.446 12.0939986 10.8340019 11.7040025 11.0999993 11.208 11.244 11.1839999 11.252 11.168 11.2659999 11.16 11.286 11.152 11.3060001 11.1559999 11.3239999 11.172 11.34L12.828 14.772 12.852 14.868C12.852 14.9560004 12.7960006 15 12.684 15L11.628 15zM8.34 7.788C8.29199976 7.788 8.268 7.81199976 8.268 7.86L8.268 10.224C8.268 10.2720002 8.29199976 10.296 8.34 10.296L10.128 10.296C10.5120019 10.296 10.8219988 10.1820011 11.058 9.954 11.2940012 9.72599886 11.412 9.42800184 11.412 9.06 11.412 8.68399812 11.2940012 8.37800118 11.058 8.142 10.8219988 7.90599882 10.5120019 7.788 10.128 7.788L8.34 7.788zM11.628 37C11.5159994 37 11.4400002 36.9520005 11.4 36.856L9.828 33.424C9.81999996 33.3919998 9.79200024 33.376 9.744 33.376L8.34 33.376C8.29199976 33.376 8.268 33.3999998 8.268 33.448L8.268 36.808C8.268 36.9360006 8.20400064 37 8.076 37L7.068 37C6.93999936 37 6.876 36.9360006 6.876 36.808L6.876 28.78C6.876 28.6519994 6.93999936 28.588 7.068 28.588L10.32 28.588C10.8080024 28.588 11.2399981 28.689999 11.616 28.894 11.9920019 29.098001 12.283999 29.3859981 12.492 29.758 12.700001 30.1300019 12.804 30.5559976 12.804 31.036 12.804 31.5880028 12.6620014 32.0579981 12.378 32.446 12.0939986 32.8340019 11.7040025 33.0999993 11.208 33.244 11.1839999 33.252 11.168 33.2659999 11.16 33.286 11.152 33.3060001 11.1559999 33.3239999 11.172 33.34L12.828 36.772 12.852 36.868C12.852 36.9560004 12.7960006 37 12.684 37L11.628 37zM8.34 29.788C8.29199976 29.788 8.268 29.8119998 8.268 29.86L8.268 32.224C8.268 32.2720002 8.29199976 32.296 8.34 32.296L10.128 32.296C10.5120019 32.296 10.8219988 32.1820011 11.058 31.954 11.2940012 31.7259989 11.412 31.4280018 11.412 31.06 11.412 30.6839981 11.2940012 30.3780012 11.058 30.142 10.8219988 29.9059988 10.5120019 29.788 10.128 29.788L8.34 29.788zM11.628 59C11.5159994 59 11.4400002 58.9520005 11.4 58.856L9.828 55.424C9.81999996 55.3919998 9.79200024 55.376 9.744 55.376L8.34 55.376C8.29199976 55.376 8.268 55.3999998 8.268 55.448L8.268 58.808C8.268 58.9360006 8.20400064 59 8.076 59L7.068 59C6.93999936 59 6.876 58.9360006 6.876 58.808L6.876 50.78C6.876 50.6519994 6.93999936 50.588 7.068 50.588L10.32 50.588C10.8080024 50.588 11.2399981 50.689999 11.616 50.894 11.9920019 51.098001 12.283999 51.3859981 12.492 51.758 12.700001 52.1300019 12.804 52.5559976 12.804 53.036 12.804 53.5880028 12.6620014 54.0579981 12.378 54.446 12.0939986 54.8340019 11.7040025 55.0999993 11.208 55.244 11.1839999 55.252 11.168 55.2659999 11.16 55.286 11.152 55.3060001 11.1559999 55.3239999 11.172 55.34L12.828 58.772 12.852 58.868C12.852 58.9560004 12.7960006 59 12.684 59L11.628 59zM8.34 51.788C8.29199976 51.788 8.268 51.8119998 8.268 51.86L8.268 54.224C8.268 54.2720002 8.29199976 54.296 8.34 54.296L10.128 54.296C10.5120019 54.296 10.8219988 54.1820011 11.058 53.954 11.2940012 53.7259989 11.412 53.4280018 11.412 53.06 11.412 52.6839981 11.2940012 52.3780012 11.058 52.142 10.8219988 51.9059988 10.5120019 51.788 10.128 51.788L8.34 51.788z"/>
  </g>
</svg>
