<svg xmlns="http://www.w3.org/2000/svg" width="62" height="66" viewBox="0 0 62 66">
  <g fill="none" fill-rule="evenodd">
    <rect width="61" height="21" x=".5" y=".5" fill="#202020" stroke="#303030" rx="2"/>
    <rect width="29" height="20" x="21" y="1" fill="#000"/>
    <polyline stroke="#F0F0F0" stroke-linecap="round" stroke-linejoin="round" points="53 5 55.5 7 58 5" transform="matrix(1 0 0 -1 0 12)"/>
    <polyline stroke="#F0F0F0" stroke-linecap="round" stroke-linejoin="round" points="53 15 55.5 17 58 15"/>
    <rect width="61" height="21" x=".5" y="22.5" fill="#202020" stroke="#303030" rx="2"/>
    <rect width="28" height="19" x="21.5" y="23.5" fill="#000" stroke="#303030"/>
    <polyline stroke="#979797" stroke-linecap="round" stroke-linejoin="round" points="53 27 55.5 29 58 27" transform="matrix(1 0 0 -1 0 56)"/>
    <polyline stroke="#979797" stroke-linecap="round" stroke-linejoin="round" points="53 37 55.5 39 58 37"/>
    <rect width="61" height="21" x=".5" y="44.5" fill="#202020" stroke="#303030" rx="2"/>
    <rect width="28" height="19" x="21.5" y="45.5" fill="#000" stroke="#303030"/>
    <path fill="#303030" d="M50,45 L60,45 C60.5522847,45 61,45.4477153 61,46 L61,64 C61,64.5522847 60.5522847,65 60,65 L50,65 L50,45 Z"/>
    <polyline stroke="#FFF" stroke-linecap="round" stroke-linejoin="round" points="53 49 55.5 51 58 49" transform="matrix(1 0 0 -1 0 100)"/>
    <polyline stroke="#FFF" stroke-linecap="round" stroke-linejoin="round" points="53 59 55.5 61 58 59"/>
    <path fill="#F0F0F0" fill-rule="nonzero" d="M11.592 10.608C11.5599998 10.616 11.544 10.6299999 11.544 10.65 11.544 10.6700001 11.5599998 10.6879999 11.592 10.704 12.392004 11.0880019 12.792 11.7439954 12.792 12.672 12.792 13.4320038 12.5380025 14.009998 12.03 14.406 11.5219975 14.802002 10.8600041 15 10.044 15L7.068 15C6.93999936 15 6.876 14.9360006 6.876 14.808L6.876 6.792C6.876 6.66399936 6.93999936 6.6 7.068 6.6L9.948 6.6C10.8200044 6.6 11.4919976 6.78799812 11.964 7.164 12.4360024 7.54000188 12.672 8.1079962 12.672 8.868 12.672 9.69200412 12.3120036 10.2719983 11.592 10.608zM8.34 7.8C8.29199976 7.8 8.268 7.82399976 8.268 7.872L8.268 10.068C8.268 10.1160002 8.29199976 10.14 8.34 10.14L9.948 10.14C10.3720021 10.14 10.7059988 10.038001 10.95 9.834 11.1940012 9.62999898 11.316 9.3480018 11.316 8.988 11.316 8.61999816 11.1940012 8.33000106 10.95 8.118 10.7059988 7.90599894 10.3720021 7.8 9.948 7.8L8.34 7.8zM10.044 13.788C10.4600021 13.788 10.7899988 13.6760011 11.034 13.452 11.2780012 13.2279989 11.4 12.9240019 11.4 12.54 11.4 12.147998 11.2760012 11.8420011 11.028 11.622 10.7799988 11.4019989 10.4440021 11.292 10.02 11.292L8.34 11.292C8.29199976 11.292 8.268 11.3159998 8.268 11.364L8.268 13.716C8.268 13.7640002 8.29199976 13.788 8.34 13.788L10.044 13.788zM11.592 32.608C11.5599998 32.616 11.544 32.6299999 11.544 32.65 11.544 32.6700001 11.5599998 32.6879999 11.592 32.704 12.392004 33.0880019 12.792 33.7439954 12.792 34.672 12.792 35.4320038 12.5380025 36.009998 12.03 36.406 11.5219975 36.802002 10.8600041 37 10.044 37L7.068 37C6.93999936 37 6.876 36.9360006 6.876 36.808L6.876 28.792C6.876 28.6639994 6.93999936 28.6 7.068 28.6L9.948 28.6C10.8200044 28.6 11.4919976 28.7879981 11.964 29.164 12.4360024 29.5400019 12.672 30.1079962 12.672 30.868 12.672 31.6920041 12.3120036 32.2719983 11.592 32.608zM8.34 29.8C8.29199976 29.8 8.268 29.8239998 8.268 29.872L8.268 32.068C8.268 32.1160002 8.29199976 32.14 8.34 32.14L9.948 32.14C10.3720021 32.14 10.7059988 32.038001 10.95 31.834 11.1940012 31.629999 11.316 31.3480018 11.316 30.988 11.316 30.6199982 11.1940012 30.3300011 10.95 30.118 10.7059988 29.9059989 10.3720021 29.8 9.948 29.8L8.34 29.8zM10.044 35.788C10.4600021 35.788 10.7899988 35.6760011 11.034 35.452 11.2780012 35.2279989 11.4 34.9240019 11.4 34.54 11.4 34.147998 11.2760012 33.8420011 11.028 33.622 10.7799988 33.4019989 10.4440021 33.292 10.02 33.292L8.34 33.292C8.29199976 33.292 8.268 33.3159998 8.268 33.364L8.268 35.716C8.268 35.7640002 8.29199976 35.788 8.34 35.788L10.044 35.788zM11.592 54.608C11.5599998 54.616 11.544 54.6299999 11.544 54.65 11.544 54.6700001 11.5599998 54.6879999 11.592 54.704 12.392004 55.0880019 12.792 55.7439954 12.792 56.672 12.792 57.4320038 12.5380025 58.009998 12.03 58.406 11.5219975 58.802002 10.8600041 59 10.044 59L7.068 59C6.93999936 59 6.876 58.9360006 6.876 58.808L6.876 50.792C6.876 50.6639994 6.93999936 50.6 7.068 50.6L9.948 50.6C10.8200044 50.6 11.4919976 50.7879981 11.964 51.164 12.4360024 51.5400019 12.672 52.1079962 12.672 52.868 12.672 53.6920041 12.3120036 54.2719983 11.592 54.608zM8.34 51.8C8.29199976 51.8 8.268 51.8239998 8.268 51.872L8.268 54.068C8.268 54.1160002 8.29199976 54.14 8.34 54.14L9.948 54.14C10.3720021 54.14 10.7059988 54.038001 10.95 53.834 11.1940012 53.629999 11.316 53.3480018 11.316 52.988 11.316 52.6199982 11.1940012 52.3300011 10.95 52.118 10.7059988 51.9059989 10.3720021 51.8 9.948 51.8L8.34 51.8zM10.044 57.788C10.4600021 57.788 10.7899988 57.6760011 11.034 57.452 11.2780012 57.2279989 11.4 56.9240019 11.4 56.54 11.4 56.147998 11.2760012 55.8420011 11.028 55.622 10.7799988 55.4019989 10.4440021 55.292 10.02 55.292L8.34 55.292C8.29199976 55.292 8.268 55.3159998 8.268 55.364L8.268 57.716C8.268 57.7640002 8.29199976 57.788 8.34 57.788L10.044 57.788z"/>
  </g>
</svg>
