<svg xmlns="http://www.w3.org/2000/svg" width="62" height="66" viewBox="0 0 62 66">
  <g fill="none" fill-rule="evenodd">
    <rect width="61" height="21" x=".5" y=".5" fill="#202020" stroke="#303030" rx="2"/>
    <rect width="29" height="20" x="21" y="1" fill="#000"/>
    <polyline stroke="#F0F0F0" stroke-linecap="round" stroke-linejoin="round" points="53 5 55.5 7 58 5" transform="matrix(1 0 0 -1 0 12)"/>
    <polyline stroke="#F0F0F0" stroke-linecap="round" stroke-linejoin="round" points="53 15 55.5 17 58 15"/>
    <rect width="61" height="21" x=".5" y="22.5" fill="#202020" stroke="#303030" rx="2"/>
    <rect width="28" height="19" x="21.5" y="23.5" fill="#000" stroke="#303030"/>
    <polyline stroke="#979797" stroke-linecap="round" stroke-linejoin="round" points="53 27 55.5 29 58 27" transform="matrix(1 0 0 -1 0 56)"/>
    <polyline stroke="#979797" stroke-linecap="round" stroke-linejoin="round" points="53 37 55.5 39 58 37"/>
    <rect width="61" height="21" x=".5" y="44.5" fill="#202020" stroke="#303030" rx="2"/>
    <rect width="28" height="19" x="21.5" y="45.5" fill="#000" stroke="#303030"/>
    <path fill="#303030" d="M50,45 L60,45 C60.5522847,45 61,45.4477153 61,46 L61,64 C61,64.5522847 60.5522847,65 60,65 L50,65 L50,45 Z"/>
    <polyline stroke="#FFF" stroke-linecap="round" stroke-linejoin="round" points="53 49 55.5 51 58 49" transform="matrix(1 0 0 -1 0 100)"/>
    <polyline stroke="#FFF" stroke-linecap="round" stroke-linejoin="round" points="53 59 55.5 61 58 59"/>
    <path fill="#F0F0F0" fill-rule="nonzero" d="M9.576 15.096C8.96799696 15.096 8.4340023 14.996001 7.974 14.796 7.5139977 14.595999 7.16000124 14.3140018 6.912 13.95 6.66399876 13.5859982 6.54 13.1640024 6.54 12.684L6.54 12.432C6.54 12.3039994 6.60399936 12.24 6.732 12.24L7.716 12.24C7.84400064 12.24 7.908 12.2999994 7.908 12.42L7.908 12.612C7.908 12.9800018 8.06999838 13.2859988 8.394 13.53 8.71800162 13.7740012 9.14799732 13.896 9.684 13.896 10.1720024 13.896 10.5399988 13.792001 10.788 13.584 11.0360012 13.375999 11.16 13.1080016 11.16 12.78 11.16 12.5559989 11.0920007 12.3660008 10.956 12.21 10.8199993 12.0539992 10.6260013 11.9120006 10.374 11.784 10.1219987 11.6559994 9.74400252 11.496001 9.24 11.304 8.67199716 11.095999 8.21200176 10.9000009 7.86 10.716 7.50799824 10.5319991 7.21400118 10.2820016 6.978 9.966 6.74199882 9.64999842 6.624 9.25600236 6.624 8.784 6.624 8.07999648 6.87999744 7.52400204 7.392 7.116 7.90400256 6.70799796 8.58799572 6.504 9.444 6.504 10.044003 6.504 10.5739977 6.60799896 11.034 6.816 11.4940023 7.02400104 11.8519987 7.31399814 12.108 7.686 12.3640013 8.05800186 12.492 8.48799756 12.492 8.976L12.492 9.132C12.492 9.26000064 12.4280006 9.324 12.3 9.324L11.316 9.324C11.2599997 9.324 11.2140002 9.31000014 11.178 9.282 11.1419998 9.25399986 11.124 9.2200002 11.124 9.18L11.124 9.048C11.124 8.67199812 10.9700015 8.3540013 10.662 8.094 10.3539985 7.8339987 9.92800272 7.704 9.384 7.704 8.9439978 7.704 8.60200122 7.79599908 8.358 7.98 8.11399878 8.16400092 7.992 8.42399832 7.992 8.76 7.992 9.0000012 8.05599936 9.19599924 8.184 9.348 8.31200064 9.50000076 8.50399872 9.63799938 8.76 9.762 9.01600128 9.88600062 9.41199732 10.043999 9.948 10.236 10.5160028 10.4520011 10.9699983 10.6479991 11.31 10.824 11.6500017 11.0000009 11.9419988 11.2459984 12.186 11.562 12.4300012 11.8780016 12.552 12.2719976 12.552 12.744 12.552 13.2080023 12.4320012 13.6179982 12.192 13.974 11.9519988 14.3300018 11.6080022 14.605999 11.16 14.802 10.7119978 14.998001 10.184003 15.096 9.576 15.096zM9.576 37.096C8.96799696 37.096 8.4340023 36.996001 7.974 36.796 7.5139977 36.595999 7.16000124 36.3140018 6.912 35.95 6.66399876 35.5859982 6.54 35.1640024 6.54 34.684L6.54 34.432C6.54 34.3039994 6.60399936 34.24 6.732 34.24L7.716 34.24C7.84400064 34.24 7.908 34.2999994 7.908 34.42L7.908 34.612C7.908 34.9800018 8.06999838 35.2859988 8.394 35.53 8.71800162 35.7740012 9.14799732 35.896 9.684 35.896 10.1720024 35.896 10.5399988 35.792001 10.788 35.584 11.0360012 35.375999 11.16 35.1080016 11.16 34.78 11.16 34.5559989 11.0920007 34.3660008 10.956 34.21 10.8199993 34.0539992 10.6260013 33.9120006 10.374 33.784 10.1219987 33.6559994 9.74400252 33.496001 9.24 33.304 8.67199716 33.095999 8.21200176 32.9000009 7.86 32.716 7.50799824 32.5319991 7.21400118 32.2820016 6.978 31.966 6.74199882 31.6499984 6.624 31.2560024 6.624 30.784 6.624 30.0799965 6.87999744 29.524002 7.392 29.116 7.90400256 28.707998 8.58799572 28.504 9.444 28.504 10.044003 28.504 10.5739977 28.607999 11.034 28.816 11.4940023 29.024001 11.8519987 29.3139981 12.108 29.686 12.3640013 30.0580019 12.492 30.4879976 12.492 30.976L12.492 31.132C12.492 31.2600006 12.4280006 31.324 12.3 31.324L11.316 31.324C11.2599997 31.324 11.2140002 31.3100001 11.178 31.282 11.1419998 31.2539999 11.124 31.2200002 11.124 31.18L11.124 31.048C11.124 30.6719981 10.9700015 30.3540013 10.662 30.094 10.3539985 29.8339987 9.92800272 29.704 9.384 29.704 8.9439978 29.704 8.60200122 29.7959991 8.358 29.98 8.11399878 30.1640009 7.992 30.4239983 7.992 30.76 7.992 31.0000012 8.05599936 31.1959992 8.184 31.348 8.31200064 31.5000008 8.50399872 31.6379994 8.76 31.762 9.01600128 31.8860006 9.41199732 32.043999 9.948 32.236 10.5160028 32.4520011 10.9699983 32.6479991 11.31 32.824 11.6500017 33.0000009 11.9419988 33.2459984 12.186 33.562 12.4300012 33.8780016 12.552 34.2719976 12.552 34.744 12.552 35.2080023 12.4320012 35.6179982 12.192 35.974 11.9519988 36.3300018 11.6080022 36.605999 11.16 36.802 10.7119978 36.998001 10.184003 37.096 9.576 37.096zM9.576 59.096C8.96799696 59.096 8.4340023 58.996001 7.974 58.796 7.5139977 58.595999 7.16000124 58.3140018 6.912 57.95 6.66399876 57.5859982 6.54 57.1640024 6.54 56.684L6.54 56.432C6.54 56.3039994 6.60399936 56.24 6.732 56.24L7.716 56.24C7.84400064 56.24 7.908 56.2999994 7.908 56.42L7.908 56.612C7.908 56.9800018 8.06999838 57.2859988 8.394 57.53 8.71800162 57.7740012 9.14799732 57.896 9.684 57.896 10.1720024 57.896 10.5399988 57.792001 10.788 57.584 11.0360012 57.375999 11.16 57.1080016 11.16 56.78 11.16 56.5559989 11.0920007 56.3660008 10.956 56.21 10.8199993 56.0539992 10.6260013 55.9120006 10.374 55.784 10.1219987 55.6559994 9.74400252 55.496001 9.24 55.304 8.67199716 55.095999 8.21200176 54.9000009 7.86 54.716 7.50799824 54.5319991 7.21400118 54.2820016 6.978 53.966 6.74199882 53.6499984 6.624 53.2560024 6.624 52.784 6.624 52.0799965 6.87999744 51.524002 7.392 51.116 7.90400256 50.707998 8.58799572 50.504 9.444 50.504 10.044003 50.504 10.5739977 50.607999 11.034 50.816 11.4940023 51.024001 11.8519987 51.3139981 12.108 51.686 12.3640013 52.0580019 12.492 52.4879976 12.492 52.976L12.492 53.132C12.492 53.2600006 12.4280006 53.324 12.3 53.324L11.316 53.324C11.2599997 53.324 11.2140002 53.3100001 11.178 53.282 11.1419998 53.2539999 11.124 53.2200002 11.124 53.18L11.124 53.048C11.124 52.6719981 10.9700015 52.3540013 10.662 52.094 10.3539985 51.8339987 9.92800272 51.704 9.384 51.704 8.9439978 51.704 8.60200122 51.7959991 8.358 51.98 8.11399878 52.1640009 7.992 52.4239983 7.992 52.76 7.992 53.0000012 8.05599936 53.1959992 8.184 53.348 8.31200064 53.5000008 8.50399872 53.6379994 8.76 53.762 9.01600128 53.8860006 9.41199732 54.043999 9.948 54.236 10.5160028 54.4520011 10.9699983 54.6479991 11.31 54.824 11.6500017 55.0000009 11.9419988 55.2459984 12.186 55.562 12.4300012 55.8780016 12.552 56.2719976 12.552 56.744 12.552 57.2080023 12.4320012 57.6179982 12.192 57.974 11.9519988 58.3300018 11.6080022 58.605999 11.16 58.802 10.7119978 58.998001 10.184003 59.096 9.576 59.096z"/>
  </g>
</svg>
