<svg xmlns="http://www.w3.org/2000/svg" width="62" height="66" viewBox="0 0 62 66">
  <g fill="none" fill-rule="evenodd">
    <rect width="61" height="21" x=".5" y=".5" fill="#202020" stroke="#303030" rx="2"/>
    <rect width="29" height="20" x="21" y="1" fill="#000"/>
    <polyline stroke="#F0F0F0" stroke-linecap="round" stroke-linejoin="round" points="53 5 55.5 7 58 5" transform="matrix(1 0 0 -1 0 12)"/>
    <polyline stroke="#F0F0F0" stroke-linecap="round" stroke-linejoin="round" points="53 15 55.5 17 58 15"/>
    <rect width="61" height="21" x=".5" y="22.5" fill="#202020" stroke="#303030" rx="2"/>
    <rect width="28" height="19" x="21.5" y="23.5" fill="#000" stroke="#303030"/>
    <polyline stroke="#979797" stroke-linecap="round" stroke-linejoin="round" points="53 27 55.5 29 58 27" transform="matrix(1 0 0 -1 0 56)"/>
    <polyline stroke="#979797" stroke-linecap="round" stroke-linejoin="round" points="53 37 55.5 39 58 37"/>
    <rect width="61" height="21" x=".5" y="44.5" fill="#202020" stroke="#303030" rx="2"/>
    <rect width="28" height="19" x="21.5" y="45.5" fill="#000" stroke="#303030"/>
    <path fill="#303030" d="M50,45 L60,45 C60.5522847,45 61,45.4477153 61,46 L61,64 C61,64.5522847 60.5522847,65 60,65 L50,65 L50,45 Z"/>
    <polyline stroke="#FFF" stroke-linecap="round" stroke-linejoin="round" points="53 49 55.5 51 58 49" transform="matrix(1 0 0 -1 0 100)"/>
    <polyline stroke="#FFF" stroke-linecap="round" stroke-linejoin="round" points="53 59 55.5 61 58 59"/>
    <path fill="#F0F0F0" fill-rule="nonzero" d="M11.448 6.792C11.448 6.66399936 11.5119994 6.6 11.64 6.6L12.648 6.6C12.7760006 6.6 12.84 6.66399936 12.84 6.792L12.84 14.808C12.84 14.9360006 12.7760006 15 12.648 15L11.64 15C11.5119994 15 11.448 14.9360006 11.448 14.808L11.448 11.436C11.448 11.3879998 11.4240002 11.364 11.376 11.364L8.34 11.364C8.29199976 11.364 8.268 11.3879998 8.268 11.436L8.268 14.808C8.268 14.9360006 8.20400064 15 8.076 15L7.068 15C6.93999936 15 6.876 14.9360006 6.876 14.808L6.876 6.792C6.876 6.66399936 6.93999936 6.6 7.068 6.6L8.076 6.6C8.20400064 6.6 8.268 6.66399936 8.268 6.792L8.268 10.092C8.268 10.1400002 8.29199976 10.164 8.34 10.164L11.376 10.164C11.4240002 10.164 11.448 10.1400002 11.448 10.092L11.448 6.792zM11.448 28.792C11.448 28.6639994 11.5119994 28.6 11.64 28.6L12.648 28.6C12.7760006 28.6 12.84 28.6639994 12.84 28.792L12.84 36.808C12.84 36.9360006 12.7760006 37 12.648 37L11.64 37C11.5119994 37 11.448 36.9360006 11.448 36.808L11.448 33.436C11.448 33.3879998 11.4240002 33.364 11.376 33.364L8.34 33.364C8.29199976 33.364 8.268 33.3879998 8.268 33.436L8.268 36.808C8.268 36.9360006 8.20400064 37 8.076 37L7.068 37C6.93999936 37 6.876 36.9360006 6.876 36.808L6.876 28.792C6.876 28.6639994 6.93999936 28.6 7.068 28.6L8.076 28.6C8.20400064 28.6 8.268 28.6639994 8.268 28.792L8.268 32.092C8.268 32.1400002 8.29199976 32.164 8.34 32.164L11.376 32.164C11.4240002 32.164 11.448 32.1400002 11.448 32.092L11.448 28.792zM11.448 50.792C11.448 50.6639994 11.5119994 50.6 11.64 50.6L12.648 50.6C12.7760006 50.6 12.84 50.6639994 12.84 50.792L12.84 58.808C12.84 58.9360006 12.7760006 59 12.648 59L11.64 59C11.5119994 59 11.448 58.9360006 11.448 58.808L11.448 55.436C11.448 55.3879998 11.4240002 55.364 11.376 55.364L8.34 55.364C8.29199976 55.364 8.268 55.3879998 8.268 55.436L8.268 58.808C8.268 58.9360006 8.20400064 59 8.076 59L7.068 59C6.93999936 59 6.876 58.9360006 6.876 58.808L6.876 50.792C6.876 50.6639994 6.93999936 50.6 7.068 50.6L8.076 50.6C8.20400064 50.6 8.268 50.6639994 8.268 50.792L8.268 54.092C8.268 54.1400002 8.29199976 54.164 8.34 54.164L11.376 54.164C11.4240002 54.164 11.448 54.1400002 11.448 54.092L11.448 50.792z"/>
  </g>
</svg>
