<svg xmlns="http://www.w3.org/2000/svg" width="36" height="36" viewBox="0 0 36 36">
  <g fill="none" fill-rule="evenodd">
    <path fill="#FFF" fill-opacity=".2" d="M4,0 L32,0 C34.209139,-4.05812251e-16 36,1.790861 36,4 L36,32 C36,34.209139 34.209139,36 32,36 L4,36 C1.790861,36 2.705415e-16,34.209139 0,32 L0,4 C-2.705415e-16,1.790861 1.790861,4.05812251e-16 4,0 Z M6,3 C4.34314575,3 3,4.34314575 3,6 L3,30 C3,31.6568542 4.34314575,33 6,33 L30,33 C31.6568542,33 33,31.6568542 33,30 L33,6 C33,4.34314575 31.6568542,3 30,3 L6,3 Z"/>
    <path fill="#EAF1F7" stroke="#D2E2ED" d="M5.5,3.5 L30.5,3.5 C31.6045695,3.5 32.5,4.3954305 32.5,5.5 L32.5,30.5 C32.5,31.6045695 31.6045695,32.5 30.5,32.5 L5.5,32.5 C4.3954305,32.5 3.5,31.6045695 3.5,30.5 L3.5,5.5 C3.5,4.3954305 4.3954305,3.5 5.5,3.5 Z M6.5,6.5 L6.5,29.5 L21.5,29.5 L21.5,21.5 L29.5,21.5 L29.5,6.5 L6.5,6.5 Z"/>
    <polyline stroke="#376789" stroke-linecap="round" stroke-linejoin="round" points="24.5 25 26.5 26.5 28.5 25" transform="matrix(1 0 0 -1 0 51.5)"/>
  </g>
</svg>
