<svg xmlns="http://www.w3.org/2000/svg" width="10" height="10" viewBox="0 0 10 10">
  <g fill="none" fill-rule="evenodd">
    <path stroke="#F0F0F0" d="M.5 4.5L8.5 4.5M4.5.5L4.5 8.5"/>
    <path stroke="#F0F0F0" stroke-linecap="round" stroke-linejoin="round" d="M8.5 4.5L7.5 3.5M8.5 4.5L7.5 5.5"/>
    <path stroke="#F0F0F0" stroke-linecap="round" stroke-linejoin="round" d="M1.5 4.5L.5 3.5M1.5 4.5L.5 5.5" transform="matrix(-1 0 0 1 2 0)"/>
    <path stroke="#F0F0F0" stroke-linecap="round" stroke-linejoin="round" d="M5.5,1.5 L4.5,0.5" transform="matrix(0 -1 -1 0 6 6)"/>
    <path stroke="#F0F0F0" stroke-linecap="round" stroke-linejoin="round" d="M4.5,0.5 L3.5,1.5" transform="matrix(0 -1 -1 0 5 5)"/>
    <path stroke="#F0F0F0" stroke-linecap="round" stroke-linejoin="round" d="M5.5,8.5 L4.5,7.5" transform="rotate(90 5 8)"/>
    <path stroke="#F0F0F0" stroke-linecap="round" stroke-linejoin="round" d="M4.5,7.5 L3.5,8.5" transform="rotate(90 4 8)"/>
  </g>
</svg>
