<svg xmlns="http://www.w3.org/2000/svg" width="16" height="16" viewBox="0 0 16 16">
  <g fill="none" fill-rule="evenodd">
    <path stroke="#F0F0F0" stroke-linecap="square" d="M5.5 3.5L14.5 3.5M5.5 11.5L5.69479852 11.5"/>
    <path stroke="#F0F0F0" d="M1.5,11.4146471 L1.5,3.58535285 C0.917403814,3.79127106 0.5,4.34689059 0.5,5 L0.5,10 C0.5,10.6531094 0.917403814,11.2087289 1.5,11.4146471 Z"/>
    <path stroke="#FFF" d="M2.5,1.58535285 L2.5,13.4146471 C3.08259619,13.2087289 3.5,12.6531094 3.5,12 L3.5,3 C3.5,2.34689059 3.08259619,1.79127106 2.5,1.58535285 Z"/>
    <path stroke="#FFF" d="M3.5,1.58535285 L3.5,13.4146471 C4.08259619,13.2087289 4.5,12.6531094 4.5,12 L4.5,3 C4.5,2.34689059 4.08259619,1.79127106 3.5,1.58535285 Z" transform="matrix(-1 0 0 1 8 0)"/>
    <path fill="#AECADE" d="M6,5 L7,5 C7.55228475,5 8,5.44771525 8,6 L8,9 C8,9.55228475 7.55228475,10 7,10 L6,10 C5.44771525,10 5,9.55228475 5,9 L5,6 C5,5.44771525 5.44771525,5 6,5 Z"/>
    <path fill="#EE7D00" d="M11.2354261,11.7645739 L9,14 L7.9629687,14 L7.9629687,15 L7,15 L7,16 L5,16 L5,14 L9.23542608,9.76457392 C9.08339,9.37235533 9,8.94591605 9,8.5 C9,6.56700338 10.5670034,5 12.5,5 C14.4329966,5 16,6.56700338 16,8.5 C16,10.4329966 14.4329966,12 12.5,12 C12.0540839,12 11.6276447,11.91661 11.2354261,11.7645739 Z M13.5,9 C14.3284271,9 15,8.32842712 15,7.5 C15,6.67157288 14.3284271,6 13.5,6 C12.6715729,6 12,6.67157288 12,7.5 C12,8.32842712 12.6715729,9 13.5,9 Z"/>
  </g>
</svg>
