<svg xmlns="http://www.w3.org/2000/svg" width="16" height="16" viewBox="0 0 16 16">
  <path fill="#FFF" fill-rule="evenodd" d="M9.23542608,8.76457392 L7,11 L5.9629687,11 L5.9629687,12 L5,12 L5,13 L3,13 L3,11 L7.23542608,6.76457392 C7.08339,6.37235533 7,5.94591605 7,5.5 C7,3.56700338 8.56700338,2 10.5,2 C12.4329966,2 14,3.56700338 14,5.5 C14,7.43299662 12.4329966,9 10.5,9 C10.0540839,9 9.62764467,8.91661 9.23542608,8.76457392 Z M11.5,6 C12.3284271,6 13,5.32842712 13,4.5 C13,3.67157288 12.3284271,3 11.5,3 C10.6715729,3 10,3.67157288 10,4.5 C10,5.32842712 10.6715729,6 11.5,6 Z"/>
</svg>
