<svg xmlns="http://www.w3.org/2000/svg" width="16" height="16" viewBox="0 0 16 16">
  <g fill="none" fill-rule="evenodd" transform="translate(1 3)">
    <path stroke="#D8D8D8" stroke-linejoin="round" d="M12.571,10.5 C13.351,10.5 13.5,10.3672727 13.5,9.66636364 L13.5,1.33363636 C13.5,0.633636364 13.358,0.5 12.571,0.5 L1.428,0.5 C0.64,0.5 0.5,0.633636364 0.5,1.33363636 L0.5,9.66636364 C0.5,10.3672727 0.64,10.5 1.428,10.5 L12.571,10.5 Z"/>
    <polygon fill="#F0F0F0" points="11.832 5.588 8.608 6.902 6.975 5 2 6.977 2 9 12 9 12 5.948"/>
    <path fill="#3CB850" d="M4.0001,2.9998 C4.0001,3.5518 3.5521,3.9998 3.0001,3.9998 C2.4481,3.9998 2.0001,3.5518 2.0001,2.9998 C2.0001,2.4478 2.4481,1.9998 3.0001,1.9998 C3.5521,1.9998 4.0001,2.4478 4.0001,2.9998"/>
  </g>
</svg>
