<svg xmlns="http://www.w3.org/2000/svg" width="16" height="16" viewBox="0 0 16 16">
  <g fill="none" fill-rule="evenodd">
    <path stroke="#D8D8D8" stroke-linejoin="round" d="M13.571,13.5 C14.351,13.5 14.5,13.3672727 14.5,12.6663636 L14.5,4.33363636 C14.5,3.63363636 14.358,3.5 13.571,3.5 L2.428,3.5 C1.64,3.5 1.5,3.63363636 1.5,4.33363636 L1.5,12.6663636 C1.5,13.3672727 1.64,13.5 2.428,13.5 L13.571,13.5 Z"/>
    <path stroke="#FFF" stroke-linecap="square" d="M3.4996 5.50532695L3.4996 11.5302293M3.4996 5.5002L12.5193754 5.5002M3.4996 8.5002L12.5193754 8.5002M3.4996 11.5002L12.5193754 11.5002M12.4996 5.50532695L12.4996 11.5302293M9.4996 5.50532695L9.4996 11.5302293M6.4996 5.50532695L6.4996 11.5302293"/>
  </g>
</svg>
