<svg xmlns="http://www.w3.org/2000/svg" xmlns:xlink="http://www.w3.org/1999/xlink" width="24" height="24" viewBox="0 0 24 24">
  <defs>
    <polygon id="notificationwebinar24-a" points="0 .059 1.712 .059 1.712 3.694 0 3.694"/>
  </defs>
  <g fill="none" fill-rule="evenodd" transform="translate(1 3.174)">
    <path fill="#FFF" fill-opacity=".2" d="M10.5,0.826416016 C15.1944775,0.826416016 19,4.63205344 19,9.32641602 C19,14.0208935 15.1944775,17.826416 10.5,17.826416 C5.80552251,17.826416 2,14.0208935 2,9.32641602 C2,4.63205344 5.80552251,0.826416016 10.5,0.826416016"/>
    <path fill="#FCC200" d="M7.8062875,15.6663719 L6.96639167,15.912726 C6.77744375,15.9676115 6.57543333,15.888549 6.47368333,15.7203406 L4.06743333,11.7166844 L3.83826667,11.3454344 L5.36337083,10.1916948 L8.08014167,14.991476 C8.2064125,15.2152573 8.12735,15.4989656 7.90356875,15.625351 C7.87286042,15.6426531 7.84020417,15.6564031 7.8062875,15.6663719"/>
    <polygon fill="#FCC200" points="14.923 11.295 1.523 11.785 1.112 10.382 .709 9.006 12.251 2.165"/>
    <polygon fill="#202020" fill-opacity=".2" points="13.397 6.08 12.251 2.165 .709 9.006 .922 9.732"/>
    <g transform="translate(0 8.585)">
      <mask id="notificationwebinar24-b" fill="#fff">
        <use xlink:href="#notificationwebinar24-a"/>
      </mask>
      <path fill="#FCC200" d="M0.329667708,0.0779854167 L0.329667708,0.0779854167 C0.572584375,0.00682916667 0.827188542,0.1461625 0.898344792,0.389079167 L1.69389688,3.10642292 C1.76505313,3.34933958 1.62583438,3.60382917 1.38280313,3.6751 C1.13988646,3.74614167 0.885396875,3.60692292 0.814240625,3.36400625 L0.0185739583,0.6466625 C-0.0525822917,0.403745833 0.0867510417,0.149141667 0.329667708,0.0779854167" mask="url(#notificationwebinar24-b)"/>
    </g>
    <path fill="#FCC200" d="M12.5092458,1.41759063 L12.5092458,1.41759063 C12.7521625,1.34643438 13.0068812,1.48576771 13.0779229,1.72868438 L15.8549646,11.2133198 C15.9261208,11.4562365 15.7867875,11.7108406 15.5438708,11.7819969 C15.3009542,11.8531531 15.0464646,11.7138198 14.9753083,11.4709031 L12.1981521,1.98626771 C12.1271104,1.74335104 12.2663292,1.48874688 12.5092458,1.41759063"/>
    <path fill="#202020" fill-opacity=".2" d="M6.16889167,11.6158969 L6.78420417,12.701001 C6.73951667,12.6230844 4.39170417,12.2644385 4.39170417,12.2644385 L4.06170417,11.7167302 L6.16889167,11.6158969 Z"/>
    <path stroke="#FFF" stroke-linecap="round" d="M15.6350375 4.24859375L20.1049333.51203125M16.6319354 7.65514479L22.5 8.32641602M16.445176 5.83440417L22.3450719 4.1064875"/>
  </g>
</svg>
