<svg xmlns="http://www.w3.org/2000/svg" width="16" height="16" viewBox="0 0 16 16">
  <g fill="none" fill-rule="evenodd">
    <path stroke="#F0F0F0" stroke-linecap="round" stroke-linejoin="round" d="M2.5,15.5 L2.5,0.5 L8.51953125,0.5 L8.51953125,4.50488281 M13.5,13 L13.5,15.5 L9,15.5"/>
    <path stroke="#F0F0F0" stroke-linecap="round" d="M11.5153076,3.51530762 L8.5,0.5"/>
    <path fill="#EE7D00" d="M10.2354261,11.7645739 L8,14 L6.9629687,14 L6.9629687,15 L6,15 L6,16 L4,16 L4,14 L8.23542608,9.76457392 C8.08339,9.37235533 8,8.94591605 8,8.5 C8,6.56700338 9.56700338,5 11.5,5 C13.4329966,5 15,6.56700338 15,8.5 C15,10.4329966 13.4329966,12 11.5,12 C11.0540839,12 10.6276447,11.91661 10.2354261,11.7645739 Z M12.5,9 C13.3284271,9 14,8.32842712 14,7.5 C14,6.67157288 13.3284271,6 12.5,6 C11.6715729,6 11,6.67157288 11,7.5 C11,8.32842712 11.6715729,9 12.5,9 Z"/>
  </g>
</svg>
