<svg xmlns="http://www.w3.org/2000/svg" width="16" height="16" viewBox="0 0 16 16">
  <g fill="none" fill-rule="evenodd">
    <path fill="#2D1DBD" fill-rule="nonzero" d="M5.61261261,1 L5.61261261,4.46033578 L7.46367518,7.91563461 C7.78892004,8.52275519 7.57100186,9 6.91228333,9 L1.32205188,9 C0.657196327,9 0.434116116,8.52202532 0.761908592,7.91014922 L2.61261261,4.45551966 L2.61261261,1 L1.61261261,1 C1.4285177,1 1.11261261,0.776142375 1.11261261,0.5 C1.11261261,0.223857625 1.4285177,0 1.61261261,0 L6.61261261,0 C6.79670753,0 7.13330353,0.223857625 7.13330353,0.5 C7.13330353,0.776142375 6.79670753,1 6.61261261,1 L5.61261261,1 Z" transform="translate(6.387 4)"/>
    <rect width="1" height="4" x="10" y="5" fill="#FFF"/>
    <circle cx="13" cy="13" r="3" fill="#3CB850"/>
    <path fill="#2D1DBD" d="M6.53144048,11 L1,11 C0.44771525,11 -4.54679716e-13,10.5522847 -4.54747351e-13,10 L-4.54747351e-13,8 C-4.54814986e-13,7.44771525 0.44771525,7 1,7 L4,7 L4,5 C4,4.44771525 4.44771525,4 5,4 L6.5943369,4 C6.53387738,4.15637798 6.5,4.32466772 6.5,4.5 C6.5,5.32093086 7.27839551,5.98747192 8.01559974,5.99982546 L8.00519931,7 L8.03639515,7 L8.03639515,6.5 L8.03639515,8.5 L6.53144048,11 Z M8.03639515,3 L8.03639515,1 C8.03639515,0.44771525 8.4841104,1.01453063e-16 9.03639515,0 L11.0363951,0 C11.5886799,-1.01453063e-16 12.0363951,0.44771525 12.0363951,1 L12.0363951,3 L8.03639515,3 Z"/>
  </g>
</svg>
