<svg xmlns="http://www.w3.org/2000/svg" width="16" height="16" viewBox="0 0 16 16">
  <g fill="none" fill-rule="evenodd" stroke-linecap="round" stroke-linejoin="round">
    <path stroke="#F0F0F0" d="M9.42365546 7.85379513L9.93925284 6.74013185C9.40245168 6.26469323 9.07020251 5.55928702 9.04300774 4.79703489L8.97915914 2.99088493C8.97915914 1.61107938 10.0113781.5 11.2800734.5L11.7175545.5C12.9874321.5 14.0196511 1.61237133 14.0196511 2.9779654L13.9558025 4.79703489C13.9286077 5.56057898 13.5963585 6.26598519 13.058375 6.7414238L13.5838311 7.49908178 14.7361742 7.49908178C15.4999926 7.49908178 15.4999926 7.49908178 15.4999926 9.48852539M8.4999926 14.53125L8.4999926 15.1561567C8.50117498 15.3455949 8.3604716 15.5 8.18784391 15.5L.813331073 15.5C.640703387 15.5.5 15.3455949.5 15.1561567L.5 14.2349163C.5 12.5074056.5 12.4983229 1.27918935 12.4983229L2.42365546 12.4983229 2.93925284 11.76703C2.40245168 11.289542 2.07020251 10.5810951 2.04300774 9.81555729L1.97915914 8.0016219C1.97915914 6.61586869 3.01137811 5.5 4.28007336 5.5L4.71755448 5.5C5.98743211 5.5 7.01965108 6.61716621 7.01965108 7.98864668L6.95580248 9.50419108"/>
    <path stroke="#049474" stroke-width="2" d="M14 12L12 9M14 12L12 15M13 12L7 12"/>
  </g>
</svg>
