<svg xmlns="http://www.w3.org/2000/svg" width="16" height="16" viewBox="0 0 16 16">
  <g fill="none" fill-rule="evenodd">
    <path fill="#0E3754" stroke="#D2E2ED" d="M4.5,2.5 L10.5,2.5 L12.5,2.5 C13.0522847,2.5 13.5,2.94771525 13.5,3.5 L13.5,10.5 C13.5,11.0522847 13.0522847,11.5 12.5,11.5 L10.5,11.5 L10.5,14.5 L7,11.5 L4.5,11.5 L2.5,11.5 C1.94771525,11.5 1.5,11.0522847 1.5,10.5 L1.5,3.5 C1.5,2.94771525 1.94771525,2.5 2.5,2.5 L4.5,2.5"/>
    <polygon fill="#FCC200" points="7.5 9.109 5.419 10.203 5.816 7.885 4.133 6.244 6.459 5.906 7.5 3.798 8.541 5.906 10.867 6.244 9.184 7.885 9.581 10.203"/>
  </g>
</svg>
