<svg xmlns="http://www.w3.org/2000/svg" width="24" height="24" viewBox="0 0 24 24">
  <g fill="none" fill-rule="evenodd" transform="translate(1.5 3.5)">
    <g stroke="#D8D8D8" stroke-linecap="round">
      <path d="M7.5,5.45775958 C7.5,2.44281584 9.85057366,0 12.7495181,0 C15.6494263,0 18,2.44281584 18,5.45775958 C18,6.40663021 17.7667737,7.29939023 17.3571822,8.07692308"/>
      <path d="M18.0299413 4.5C19.7603994 5.17496821 21 6.98390018 21 9.10910549 21 11.8101075 18.9987692 14 16.5304615 14L16.1660281 14M8.33997246 1.87775833C7.87414656 1.63617857 7.34535245 1.5 6.78503218 1.5 4.91197841 1.5 3.39298318 3.02635927 3.39298318 4.90849354 3.39298318 4.96293932 3.40606186 5.01175278 3.40886444 5.06432112 1.45266764 5.56559778 0 7.33320817 0 9.45471613 0 11.9648543 2.02532697 14 4.52335479 14"/>
    </g>
    <g stroke="#E4006D" transform="translate(6.272 9.885)">
      <circle cx="3.728" cy="4.038" r="2.485"/>
      <path stroke-linecap="round" d="M3.72781065 7.76627219L3.72781065 6.52366864M3.72781065 1.55325444L3.72781065.310650888M5.59171598 2.17455621L6.51987651 1.24639568M.950761603 6.81551059L1.86390533 5.90236686M6.51987651 6.81551059L5.59171598 5.90236686M1.86390533 2.17455621L.950761603 1.24639568M7.4556213 4.11538462L6.21301775 4.11538462M3.33066907e-15 4.11538462L1.22781065 4.11538462"/>
    </g>
  </g>
</svg>
