<svg xmlns="http://www.w3.org/2000/svg" width="16" height="16" viewBox="0 0 16 16">
  <g fill="none" fill-rule="evenodd">
    <g stroke="#D8D8D8" stroke-linecap="round" transform="translate(1.5 3.5)">
      <path d="M4.64285714,3.37861308 C4.64285714,1.51221933 6.09797417,0 7.89255884,0 C9.68774012,0 11.1428571,1.51221933 11.1428571,3.37861308 C11.1428571,3.96600918 10.998479,4.51867014 10.7449223,5"/>
      <path d="M11.1613922 3.0799236C12.2326282 3.5005408 13 4.62780558 13 5.95216114 13 7.63533361 11.7611429 9 10.2331429 9L10.0075412 9M5.1628401 1.24176533C4.87447168 1.08715428 4.54712294 1 4.20025801 1 3.04074854 1 2.10041816 1.97686993 2.10041816 3.18143587 2.10041816 3.21628117 2.10851449 3.24752178 2.11024941 3.28116552.899270441 3.60198258 0 4.73325323 0 6.09101832 0 7.69750676 1.25377384 9 2.80017201 9L3.00260417 9"/>
    </g>
    <g stroke="#E4006D" transform="translate(5.5 9)">
      <circle cx="2.5" cy="2.5" r="1.538"/>
      <path stroke-linecap="round" d="M2.5 4.80769231L2.5 4.03846154M2.5.961538462L2.5.192307692M3.65384615 1.34615385L4.22842172.771578275M.780874399 4.2191256L1.34615385 3.65384615M4.22842172 4.2191256L3.65384615 3.65384615M1.34615385 1.34615385L.780874399.771578275M4.80769231 2.5L4.03846154 2.5M.192307692 2.5L.961538462 2.5"/>
    </g>
  </g>
</svg>
