<svg xmlns="http://www.w3.org/2000/svg" width="24" height="24" viewBox="0 0 24 24">
  <g fill="none" fill-rule="evenodd">
    <g stroke-linecap="round" stroke-linejoin="round" transform="translate(1.5 8.5)">
      <path stroke="#D8D8D8" d="M13.117327,9 C12.6390979,9 9.68711778,9 8.73065962,9 C8.56422613,9 8.42857143,8.85683477 8.42857143,8.68118668 L8.42857143,8.22671148 C10.0883125,6.94945309 10.918183,6.31082389 10.918183,6.31082389 C10.4006432,5.86809446 9.94243225,5.21121871 9.91621328,4.50140792 L9.85465568,2.81951728 C9.85465568,1.53463945 10.8498368,0.5 12.073009,0.5 L12.4947925,0.5 C13.7191046,0.5 14.7142857,1.53584252 14.7142857,2.80748659 L14.6527281,4.50140792 C14.6265091,5.21242178 14.1667274,5.86929752 13.6480477,6.31202696" transform="matrix(-1 0 0 1 23.143 0)"/>
      <path stroke="#049474" stroke-width="2" d="M6.8576298 3.5L4.5.5M6.8576298 3.5L4.5 6.5M6.5 3.5L0 3.5" transform="translate(0 6)"/>
    </g>
    <path stroke="#979797" d="M1,6.5 L23,6.5"/>
    <path stroke="#FFF" stroke-linecap="round" stroke-width="2" d="M1,15.1764706 L1,4.05882353 C1,3.47405144 1.46903502,3 2.04761905,3 L2.04761905,3 L21.952381,3 C22.530965,3 23,3.47405144 23,4.05882353 L23,19.9411765 C23,20.5259486 22.530965,21 21.952381,21 L9.9047619,21"/>
  </g>
</svg>
