<svg xmlns="http://www.w3.org/2000/svg" width="24" height="24" viewBox="0 0 24 24">
  <g fill="none" fill-rule="evenodd">
    <g stroke-linecap="round" stroke-linejoin="round" transform="translate(1.5 8.5)">
      <path stroke="#D8D8D8" d="M13.117327,9 C12.6390979,9 9.68711778,9 8.73065962,9 C8.56422613,9 8.42857143,8.85683477 8.42857143,8.68118668 L8.42857143,8.22671148 C10.0883125,6.94945309 10.918183,6.31082389 10.918183,6.31082389 C10.4006432,5.86809446 9.94243225,5.21121871 9.91621328,4.50140792 L9.85465568,2.81951728 C9.85465568,1.53463945 10.8498368,0.5 12.073009,0.5 L12.4947925,0.5 C13.7191046,0.5 14.7142857,1.53584252 14.7142857,2.80748659 L14.6527281,4.50140792 C14.6265091,5.21242178 14.1667274,5.86929752 13.6480477,6.31202696" transform="matrix(-1 0 0 1 23.143 0)"/>
      <path stroke="#049474" d="M6.8576298 3L4.5 0M6.8576298 3L4.5 6M6.5 3L0 3" transform="translate(0 7)"/>
    </g>
    <path stroke="#979797" d="M1.5,6.5 L22.5,6.5"/>
    <path stroke="#D8D8D8" stroke-linecap="round" d="M1.5,15 L1.5,4.5 C1.5,3.94771525 1.94771525,3.5 2.5,3.5 L2.5,3.5 L21.5,3.5 C22.0522847,3.5 22.5,3.94771525 22.5,4.5 L22.5,19.5 C22.5,20.0522847 22.0522847,20.5 21.5,20.5 L10,20.5"/>
  </g>
</svg>
