<svg xmlns="http://www.w3.org/2000/svg" width="16" height="16" viewBox="0 0 16 16">
  <g fill="none" fill-rule="evenodd">
    <path stroke="#F0F0F0" stroke-linecap="round" stroke-linejoin="round" d="M9.48375355,11.5003995 C9.17942595,11.5003995 7.30089314,11.5003995 6.69223794,11.5003995 C6.58632572,11.5003995 6.5,11.4077565 6.5,11.2940935 L6.5,11 C7.55619885,10.1734787 8.08429828,9.76021798 8.08429828,9.76021798 C7.75495479,9.47372518 7.46336598,9.04865707 7.44668118,8.58933437 L7.40750816,7.50097314 C7.40750816,6.66952121 8.04080522,6 8.81918752,6 L9.08759521,6 C9.86670294,6 10.5,6.67029973 10.5,7.49318801 L10.460827,8.58933437 C10.4441422,9.04943558 10.1515538,9.4745037 9.8214849,9.7609965" transform="matrix(-1 0 0 1 17 0)"/>
    <path stroke="#049474" stroke-linecap="round" stroke-linejoin="round" d="M5 3L3.51181265.767718975M5 3L3.49969013 5.25046481M4 3L.0123901367 3" transform="translate(.5 9.5)"/>
    <path stroke="#979797" stroke-linecap="square" d="M2.5,4.5 L13.5,4.5"/>
    <path stroke="#D8D8D8" stroke-linecap="round" d="M1.5,10.4977805 L1.5,3.5 C1.5,2.94771525 1.94771525,2.5 2.5,2.5 L13.5,2.5 C14.0522847,2.5 14.5,2.94771525 14.5,3.5 L14.5,12.5 C14.5,13.0522847 14.0522847,13.5 13.5,13.5 L8.5,13.5"/>
  </g>
</svg>
