<svg xmlns="http://www.w3.org/2000/svg" width="24" height="24" viewBox="0 0 24 24">
  <g fill="none" fill-rule="evenodd" transform="translate(.5 1.5)">
    <path stroke="#FFF" stroke-linecap="round" stroke-linejoin="round" stroke-width="2" d="M11.4319849,20.5 C10.3668383,20.5 3.30312598,20.5 1.17283279,20.5 C0.802140007,20.5 0.5,20.1913763 0.5,19.8125 L0.5,18.5 C0.5,17.1840135 0.5,16.5 2.1731955,16.5 L4.93787378,16.5 L6.04504397,13.0340599 C4.89234176,12.0790839 3.87178092,10.6621902 3.81338411,9.13111457 L3.67627856,5.5032438 C3.67627856,2.73173738 5.89281828,0.5 8.61715633,0.5 L9.55658324,0.5 C12.2834603,0.5 14.5,2.73433243 14.5,5.47729337 L14.3628945,9.13111457 C14.3044976,10.6647853 13.2804384,12.081679 12.1251972,13.036655"/>
    <rect width="9" height="7" x="14" y="15" fill="#FFF" stroke="#FFF" rx="1"/>
    <path stroke="#FFF" stroke-width="2" d="M16.5,14.5 L16.5,12.5 C16.5,11.9477153 16.9477153,11.5 17.5,11.5 L19.5,11.5 C20.0522847,11.5 20.5,11.9477153 20.5,12.5 L20.5,14.5"/>
    <path stroke="#282828" stroke-linecap="round" stroke-width="2" d="M18.5,17.5 L18.5,19.5"/>
  </g>
</svg>
