<svg xmlns="http://www.w3.org/2000/svg" width="24" height="24" viewBox="0 0 24 24">
  <g fill="none" fill-rule="evenodd" transform="translate(.5 1.5)">
    <path stroke="#D8D8D8" stroke-linecap="round" stroke-linejoin="round" d="M10.9319849,20 C9.86683832,20 2.80312598,20 0.672832789,20 C0.302140007,20 2.32702746e-13,19.6913763 2.32702746e-13,19.3125 L-1.65201186e-13,18 C-1.65201186e-13,16.6840135 -1.65201186e-13,16 1.6731955,16 L4.43787378,16 L5.54504397,12.5340599 C4.39234176,11.5790839 3.37178092,10.1621902 3.31338411,8.63111457 L3.17627856,5.0032438 C3.17627856,2.23173738 5.39281828,5.32907052e-15 8.11715633,5.32907052e-15 L9.05658324,5.32907052e-15 C11.7834603,5.32907052e-15 14,2.23433243 14,4.97729337 L13.8628945,8.63111457 C13.8044976,10.1647853 12.7804384,11.581679 11.6251972,12.536655"/>
    <path stroke="#D8D8D8" d="M16 14L22 14C22.5522847 14 23 14.4477153 23 15L23 20C23 20.5522847 22.5522847 21 22 21L16 21C15.4477153 21 15 20.5522847 15 20L15 15C15 14.4477153 15.4477153 14 16 14zM18 13.5L18 12.5C18 12.2238576 18.2238576 12 18.5 12L19.5 12C19.7761424 12 20 12.2238576 20 12.5L20 13.5"/>
    <path stroke="#F0F0F0" stroke-linecap="round" d="M19,16.8666667 L19,18.4124783"/>
  </g>
</svg>
