<svg xmlns="http://www.w3.org/2000/svg" width="16" height="16" viewBox="0 0 16 16">
  <g fill="none" fill-rule="evenodd">
    <path stroke="#D8D8D8" stroke-linecap="round" stroke-linejoin="round" d="M7.5,14.5 C7.39983487,14.5 3.09457542,14.5 1.93083023,14.5 C1.69346716,14.5 1.5,14.2992734 1.5,14.0530038 L1.5,12.8553912 C1.5,12 1.5,11.5082935 2.57138535,11.5082935 L4.34167209,11.5082935 L5.05061849,9.64713896 C4.3125169,9.02640457 3.65902845,8.10542364 3.62163564,7.11022447 L3.53384382,4.75210847 C3.53384382,2.9506293 4.9531449,1.5 6.69760087,1.5 L7.29913741,1.5 C9.04521915,1.5 10.4645202,2.95231608 10.4645202,4.73524069 L10.3767284,7.11022447"/>
    <polygon fill="#EE7D00" points="9.5 15.5 13.5 15.5 13.5 14.5 11.5 12.5 9.5 14.5"/>
    <polygon fill="#EE7D00" points="13 12.5 11.5 11 10 12.5" transform="matrix(1 0 0 -1 0 23.5)"/>
    <polygon stroke="#FFF" stroke-linecap="round" stroke-linejoin="round" points="9.5 9.5 13.5 9.5 13.5 10.5 9.5 14.5 9.5 15.5 13.5 15.5 13.5 14.5 9.5 10.5"/>
  </g>
</svg>
