<svg xmlns="http://www.w3.org/2000/svg" width="24" height="24" viewBox="0 0 24 24">
  <g fill="none" fill-rule="evenodd" stroke-linecap="round" stroke-linejoin="round">
    <g transform="translate(14 14)">
      <polygon stroke="#EE7D00" points="3.514 5 .5 8 .5 9.5 6.5 9.5 6.5 8 3.5 5"/>
      <polygon stroke="#D8D8D8" points="3.514 .5 .5 3.5 .5 5 6.5 5 6.5 3.5 3.5 .5" transform="matrix(1 0 0 -1 0 5.5)"/>
    </g>
    <path stroke="#D8D8D8" d="M11.4319849,21.5 C10.3668383,21.5 3.30312598,21.5 1.17283279,21.5 C0.802140007,21.5 0.5,21.1913763 0.5,20.8125 L0.5,19.5 C0.5,18.1840135 0.5,17.5 2.1731955,17.5 L4.93787378,17.5 L6.04504397,14.0340599 C4.89234176,13.0790839 3.87178092,11.6621902 3.81338411,10.1311146 L3.67627856,6.5032438 C3.67627856,3.73173738 5.89281828,1.5 8.61715633,1.5 L9.55658324,1.5 C12.2834603,1.5 14.5,3.73433243 14.5,6.47729337 L14.3628945,10.1311146 C14.3044976,11.6647853 13.2804384,13.081679 12.1251972,14.036655"/>
  </g>
</svg>
