<svg xmlns="http://www.w3.org/2000/svg" width="32" height="32" viewBox="0 0 32 32">
  <defs>
    <linearGradient id="jiralogo32-a" x1="67.68%" x2="40.821%" y1="40.328%" y2="81.66%">
      <stop offset="18%" stop-color="#0052CC"/>
      <stop offset="100%" stop-color="#2684FF"/>
    </linearGradient>
    <linearGradient id="jiralogo32-b" x1="32.656%" x2="59.343%" y1="59.166%" y2="17.99%">
      <stop offset="18%" stop-color="#0052CC"/>
      <stop offset="100%" stop-color="#2684FF"/>
    </linearGradient>
  </defs>
  <g fill="none" transform="translate(1 1)">
    <path fill="#2684FF" d="M28.5779053,14.1157895 L15.7094843,1.24736842 L14.4621158,-7.10542736e-15 L14.4621158,-7.10542736e-15 L4.77527374,9.68684211 L4.77527374,9.68684211 L0.346326369,14.1157895 C-0.115442123,14.578133 -0.115442123,15.3271302 0.346326369,15.7894737 L9.19632637,24.6394737 L14.4621158,29.9052632 L24.1489579,20.2184211 L24.2989579,20.0684211 L28.5779053,15.7894737 C29.0396738,15.3271302 29.0396738,14.578133 28.5779053,14.1157895 Z M14.4621158,19.3736842 L10.0410632,14.9526316 L14.4621158,10.5315789 L18.8831685,14.9526316 L14.4621158,19.3736842 Z"/>
    <path fill="url(#jiralogo32-a)" d="M14.4621158,10.5315789 C11.5675415,7.63666262 11.5534343,2.9478076 14.4305369,0.0355263158 L4.7555369,9.70657895 L10.0213264,14.9723684 L14.4621158,10.5315789 Z"/>
    <path fill="url(#jiralogo32-b)" d="M18.8950106,14.9407895 L14.4621158,19.3736842 C15.8592328,20.7699703 16.6441948,22.6642394 16.6441948,24.6394737 C16.6441948,26.614708 15.8592328,28.5089771 14.4621158,29.9052632 L14.4621158,29.9052632 L24.1608001,20.2065789 L18.8950106,14.9407895 Z"/>
  </g>
</svg>
