<svg xmlns="http://www.w3.org/2000/svg" width="10" height="10" viewBox="0 0 10 10">
  <g fill="none" fill-rule="evenodd">
    <polyline stroke="#F0F0F0" stroke-linecap="round" stroke-linejoin="round" points="8.5 9.5 1.5 9.5 1.5 .5 1.5 .5 5.75 .5 8.5 3.3 8.5 5"/>
    <polyline stroke="#F0F0F0" stroke-linejoin="round" points="5.5 .5 5.5 3.5 8.5 3.5"/>
    <path stroke="#E40046" d="M6.56528577,5.62053799 C6.30318848,6.4917521 6.26954443,7.30895977 5.60297137,7.80311652 C4.9363983,8.29727328 4.70573785,7.74153733 5.51980558,7.44087404 C6.33387331,7.14021075 6.58995799,6.94441875 7.46141166,6.94441875 C8.33286533,6.94441875 8.04707261,7.96494053 7.31205734,7.44087404 C6.57704208,6.91680755 6.26360986,6.40289998 6.26657715,5.62053799 C6.26954443,4.83817599 6.82738306,4.74932388 6.56528577,5.62053799 Z"/>
  </g>
</svg>
