<svg xmlns="http://www.w3.org/2000/svg" width="12" height="12" viewBox="0 0 12 12">
  <defs>
    <linearGradient id="run10-a" x1="27.778%" x2="72.222%" y1="100%" y2="0%">
      <stop offset="0%" stop-color="#00F"/>
      <stop offset="92.94%" stop-color="#A429DE"/>
      <stop offset="100%" stop-color="#FF40CB"/>
    </linearGradient>
  </defs>
  <g fill="none" fill-rule="evenodd">
    <g transform="translate(2)">
      <path fill="url(#run10-a)" d="M3,1 L3,0.666666667 C3,0.298476833 3.30995671,-2.5243549e-29 3.69230769,2.5243549e-29 L4.38461538,-1.13686838e-13 C4.76696637,-1.13686838e-13 5,0.298476833 5,0.666666667 L5,1 L6,1 C7.1045695,1 8,1.8954305 8,3 L8,10 C8,11.1045695 7.1045695,12 6,12 L2,12 C0.8954305,12 1.3527075e-16,11.1045695 0,10 L0,3 C-1.3527075e-16,1.8954305 0.8954305,1 2,1 L3,1 Z"/>
      <path fill="#282828" d="M3,2 L5,2 C5.55228475,2 6,2.44771525 6,3 L6,3 L2,3 L2,3 C2,2.44771525 2.44771525,2 3,2 Z" transform="matrix(1 0 0 -1 0 5)"/>
    </g>
    <polygon fill="#FFF" stroke="#FFF" stroke-linecap="round" stroke-linejoin="round" points="4.5 5.5 4.5 9.5 7.5 7.5"/>
  </g>
</svg>
