<svg xmlns="http://www.w3.org/2000/svg" width="12" height="12" viewBox="0 0 12 12">
  <defs>
    <linearGradient id="runassigned10-a" x1="27.778%" x2="72.222%" y1="100%" y2="0%">
      <stop offset="0%" stop-color="#00F"/>
      <stop offset="92.94%" stop-color="#A429DE"/>
      <stop offset="100%" stop-color="#FF40CB"/>
    </linearGradient>
  </defs>
  <g fill="none" fill-rule="evenodd" transform="translate(2)">
    <path fill="url(#runassigned10-a)" fill-rule="nonzero" d="M3,1 L3,0.666666667 C3,0.298476833 3.29847683,0 3.66666667,0 L4.40740741,0 C4.77559724,0 5,0.298476833 5,0.666666667 L5,1 L6.54545455,1 C7.34877782,1 8,1.70355254 8,2.57142857 L8,7 C6.34314575,7 5,8.34314575 5,10 C5,10.7683544 5.28885357,11.4692435 5.76389349,12 L1.45454545,12 C0.651222182,12 0,11.2964475 0,10.4285714 L0,2.57142857 C0,1.70355254 0.651222182,1 1.45454545,1 L3,1 Z"/>
    <circle cx="8" cy="10" r="2" fill="#3CB850"/>
    <polygon fill="#FFF" stroke="#FFF" stroke-linecap="round" stroke-linejoin="round" points="2.5 5.5 2.5 9.5 5.5 7.5"/>
    <path fill="#282828" d="M3,2 L5,2 C5.55228475,2 6,2.44771525 6,3 L6,3 L2,3 L2,3 C2,2.44771525 2.44771525,2 3,2 Z" transform="matrix(1 0 0 -1 0 5)"/>
  </g>
</svg>
