<svg width="18" height="16" viewBox="0 0 18 16" fill="none" xmlns="http://www.w3.org/2000/svg">
  <path d="M15.5 14L9.5 11" stroke="#244358" stroke-linecap="square"/>
  <path d="M15.5 8L9.5 11" stroke="#244358" stroke-linecap="square"/>
  <path fill-rule="evenodd" clip-rule="evenodd" d="M15.5 16C16.6046 16 17.5 15.1046 17.5 14C17.5 12.8954 16.6046 12 15.5 12C14.3954 12 13.5 12.8954 13.5 14C13.5 15.1046 14.3954 16 15.5 16Z" fill="#244358"/>
  <path fill-rule="evenodd" clip-rule="evenodd" d="M15.5 10C16.6046 10 17.5 9.10457 17.5 8C17.5 6.89543 16.6046 6 15.5 6C14.3954 6 13.5 6.89543 13.5 8C13.5 9.10457 14.3954 10 15.5 10Z" fill="#244358"/>
  <path fill-rule="evenodd" clip-rule="evenodd" d="M9.5 13C10.6046 13 11.5 12.1046 11.5 11C11.5 9.89543 10.6046 9 9.5 9C8.39543 9 7.5 9.89543 7.5 11C7.5 12.1046 8.39543 13 9.5 13Z" fill="#244358"/>
  <path d="M1.2 1.424C1.22667 1.408 1.26667 1.4 1.32 1.4H2.288C2.31467 1.4 2.336 1.41067 2.352 1.432C2.37333 1.448 2.384 1.46933 2.384 1.496V6.904C2.384 6.93067 2.37333 6.95467 2.352 6.976C2.336 6.992 2.31467 7 2.288 7H1.352C1.32533 7 1.30133 6.992 1.28 6.976C1.264 6.95467 1.256 6.93067 1.256 6.904V2.52C1.256 2.50933 1.25067 2.49867 1.24 2.488C1.22933 2.47733 1.21867 2.47467 1.208 2.48L0.416 2.696L0.384 2.704C0.336 2.704 0.312 2.67467 0.312 2.616L0.288 1.928C0.288 1.87467 0.312 1.83733 0.36 1.816L1.2 1.424ZM5.19213 5.984C5.18146 5.99467 5.17879 6.00533 5.18413 6.016C5.18946 6.02667 5.20013 6.032 5.21613 6.032H7.38413C7.41079 6.032 7.43213 6.04267 7.44813 6.064C7.46946 6.08 7.48013 6.10133 7.48013 6.128V6.904C7.48013 6.93067 7.46946 6.95467 7.44813 6.976C7.43213 6.992 7.41079 7 7.38413 7H3.78413C3.75746 7 3.73346 6.992 3.71213 6.976C3.69613 6.95467 3.68813 6.93067 3.68813 6.904V6.168C3.68813 6.12 3.70413 6.08 3.73613 6.048C3.99746 5.792 4.26413 5.51467 4.53613 5.216C4.80813 4.912 4.97879 4.72267 5.04813 4.648C5.19746 4.472 5.34946 4.304 5.50413 4.144C5.98946 3.60533 6.23213 3.20533 6.23213 2.944C6.23213 2.75733 6.16546 2.60533 6.03213 2.488C5.89879 2.36533 5.72546 2.304 5.51213 2.304C5.29879 2.304 5.12546 2.36533 4.99213 2.488C4.85879 2.60533 4.79213 2.76267 4.79213 2.96V3.16C4.79213 3.18667 4.78146 3.21067 4.76013 3.232C4.74413 3.248 4.72279 3.256 4.69613 3.256H3.75213C3.72546 3.256 3.70146 3.248 3.68013 3.232C3.66413 3.21067 3.65613 3.18667 3.65613 3.16V2.784C3.67213 2.496 3.76279 2.24267 3.92813 2.024C4.09346 1.8 4.31213 1.62933 4.58413 1.512C4.86146 1.39467 5.17079 1.336 5.51213 1.336C5.89079 1.336 6.21879 1.408 6.49613 1.552C6.77879 1.69067 6.99479 1.88 7.14413 2.12C7.29879 2.36 7.37613 2.62667 7.37613 2.92C7.37613 3.144 7.32013 3.37333 7.20813 3.608C7.09613 3.84267 6.92813 4.096 6.70413 4.368C6.53879 4.576 6.36013 4.78133 6.16813 4.984C5.97613 5.18667 5.69079 5.48 5.31213 5.864L5.19213 5.984ZM12.0113 4.328C12.118 4.57333 12.1713 4.856 12.1713 5.176C12.1713 5.464 12.1233 5.73067 12.0273 5.976C11.8993 6.31733 11.6833 6.584 11.3793 6.776C11.0806 6.968 10.726 7.064 10.3153 7.064C9.90998 7.064 9.55265 6.96267 9.24331 6.76C8.93931 6.55733 8.72065 6.28267 8.58731 5.936C8.51265 5.728 8.46998 5.504 8.45931 5.264C8.45931 5.2 8.49131 5.168 8.55531 5.168H9.49931C9.56331 5.168 9.59531 5.2 9.59531 5.264C9.61665 5.44 9.64598 5.57067 9.68331 5.656C9.73131 5.79467 9.80865 5.904 9.91531 5.984C10.0273 6.05867 10.158 6.096 10.3073 6.096C10.606 6.096 10.8113 5.96533 10.9233 5.704C10.998 5.544 11.0353 5.35733 11.0353 5.144C11.0353 4.89333 10.9953 4.688 10.9153 4.528C10.7926 4.27733 10.5873 4.152 10.2993 4.152C10.2406 4.152 10.1793 4.17067 10.1153 4.208C10.0513 4.24 9.97398 4.288 9.88331 4.352C9.86198 4.368 9.84065 4.376 9.81931 4.376C9.78731 4.376 9.76331 4.36 9.74731 4.328L9.27531 3.664C9.26465 3.648 9.25931 3.62933 9.25931 3.608C9.25931 3.576 9.26998 3.54933 9.29131 3.528L10.5633 2.416C10.574 2.40533 10.5766 2.39467 10.5713 2.384C10.5713 2.37333 10.5633 2.368 10.5473 2.368H8.66731C8.64065 2.368 8.61665 2.36 8.59531 2.344C8.57931 2.32267 8.57131 2.29867 8.57131 2.272V1.496C8.57131 1.46933 8.57931 1.448 8.59531 1.432C8.61665 1.41067 8.64065 1.4 8.66731 1.4H12.0033C12.03 1.4 12.0513 1.41067 12.0673 1.432C12.0886 1.448 12.0993 1.46933 12.0993 1.496V2.376C12.0993 2.41867 12.0806 2.45867 12.0433 2.496L10.9953 3.456C10.9846 3.46667 10.9793 3.47733 10.9793 3.488C10.9846 3.49867 10.998 3.504 11.0193 3.504C11.4833 3.59467 11.814 3.86933 12.0113 4.328Z" fill="#049474"/>
</svg>
