<svg xmlns="http://www.w3.org/2000/svg" width="22" height="20" viewBox="0 0 22 20">
  <defs>
    <linearGradient id="assigned-a" x1="23.111%" x2="76.889%" y1="100%" y2="0%">
      <stop offset="0%" stop-color="#2D1DBD"/>
      <stop offset="100%" stop-color="#66267B"/>
    </linearGradient>
  </defs>
  <g fill="none" fill-rule="evenodd">
    <rect width="22" height="19" y=".5" fill="#D2E2ED"/>
    <path fill="#D2E2ED" stroke="#7DABCB" d="M22,19.5 L0,19.5 M0,0.5 L22,0.5"/>
    <path fill="url(#assigned-a)" fill-rule="nonzero" d="M9,3 C9,2.44771525 9.44771525,2 10,2 L11.1111111,2 C11.6633959,2 12,2.44771525 12,3 L14,3 C15.1045695,3 16,3.8954305 16,5 L16,11 C13.790861,11 12,12.790861 12,15 C12,15.7285743 12.1947886,16.4116533 12.5351288,17 L7,17 C5.8954305,17 5,16.1045695 5,15 L5,5 C5,3.8954305 5.8954305,3 7,3 L9,3 Z"/>
    <circle cx="16" cy="15" r="3" fill="#3CB850"/>
    <path fill="#FFF" d="M9,5 L12,5 C12.5522847,5 13,5.44771525 13,6 L13,6 L8,6 L8,6 C8,5.44771525 8.44771525,5 9,5 Z" transform="matrix(1 0 0 -1 0 11)"/>
    <polygon fill="#FFF" stroke="#FFF" stroke-linecap="round" stroke-linejoin="round" points="9.5 8.5 9.5 12.5 12.5 10.5"/>
  </g>
</svg>
