<svg xmlns="http://www.w3.org/2000/svg" width="22" height="20" viewBox="0 0 22 20">
  <g fill="none" fill-rule="evenodd">
    <rect width="22" height="19" y=".5" fill="#D2E2ED"/>
    <path stroke="#376789" stroke-linecap="round" stroke-linejoin="round" d="M8.43164062,12.5 L4.7349983,12.5 C4.60552754,12.5 4.5,12.3919164 4.5,12.2593097 L4.5,11.6144414 C4.5,11.2129882 4.7287908,10.842416 5.08439201,10.6698456 L5.9427416,10.6698456 L6.32943963,9.88692098 C5.92683876,9.55267938 5.67765188,9.05676658 5.6572558,8.5208901 L5.60936936,7.25113533 C5.60936936,6.28110808 6.38353358,5.5 7.33505502,5.5 L7.66316586,5.5 C8.61557408,5.5 9.38973831,6.28201635 9.38973831,7.24205268 L9.34185186,8.5208901 C9.32145578,9.05767484 9.0722689,9.55358765 8.66878125,9.88782925 L9.06287335,10.6762035"/>
    <rect width="7" height="7" x="10.5" y="9.5" fill="#FFF" stroke="#5993BC" rx="2"/>
    <polyline stroke="#244358" stroke-linecap="round" stroke-linejoin="round" points="12.5 13.54 13.5 14.5 15.5 11.5"/>
    <path fill="#D2E2ED" stroke="#7DABCB" d="M22,19.5 L0,19.5 M0,0.5 L22,0.5"/>
  </g>
</svg>
