<svg width="24" height="24" viewBox="0 0 24 24" fill="none" xmlns="http://www.w3.org/2000/svg">
<rect width="24" height="24" rx="3" fill="#EAF1F7"/>
<path d="M12 19.5L9 17.5" stroke="#3F51B5" stroke-width="2" stroke-linecap="round" stroke-linejoin="round"/>
<path d="M12 19.5L15 17.5" stroke="#3F51B5" stroke-width="2" stroke-linecap="round" stroke-linejoin="round"/>
<path d="M12 19.625V14.375" stroke="#3F51B5" stroke-width="2" stroke-linecap="round" stroke-linejoin="round"/>
<path d="M7.18238 11.064C6.75571 11.064 6.37971 10.9813 6.05438 10.816C5.73438 10.6507 5.48371 10.416 5.30238 10.112C5.12638 9.808 5.03838 9.456 5.03838 9.056V7.328C5.03838 6.93333 5.12638 6.58667 5.30238 6.288C5.48371 5.984 5.73438 5.74933 6.05438 5.584C6.37971 5.41867 6.75571 5.336 7.18238 5.336C7.60904 5.336 7.98238 5.416 8.30238 5.576C8.62771 5.73067 8.87838 5.952 9.05438 6.24C9.23571 6.52267 9.32638 6.85067 9.32638 7.224C9.32638 7.25067 9.31571 7.272 9.29438 7.288C9.27838 7.304 9.25704 7.312 9.23038 7.312L8.09438 7.384C8.03038 7.384 7.99838 7.35467 7.99838 7.296C7.99838 7.04533 7.92371 6.84533 7.77438 6.696C7.62504 6.54667 7.42771 6.472 7.18238 6.472C6.93704 6.472 6.73971 6.54933 6.59038 6.704C6.44104 6.85333 6.36638 7.05067 6.36638 7.296V9.112C6.36638 9.35733 6.44104 9.55467 6.59038 9.704C6.73971 9.85333 6.93704 9.928 7.18238 9.928C7.42771 9.928 7.62504 9.85333 7.77438 9.704C7.92371 9.55467 7.99838 9.35733 7.99838 9.112C7.99838 9.05333 8.03038 9.024 8.09438 9.024L9.23038 9.08C9.25704 9.08 9.27838 9.088 9.29438 9.104C9.31571 9.12 9.32638 9.13867 9.32638 9.16C9.32638 9.53867 9.23571 9.872 9.05438 10.16C8.87838 10.448 8.62771 10.672 8.30238 10.832C7.98238 10.9867 7.60904 11.064 7.18238 11.064ZM12.0334 11.064C11.5907 11.064 11.204 10.9947 10.8734 10.856C10.548 10.712 10.2947 10.5093 10.1134 10.248C9.93738 9.98133 9.84938 9.67467 9.84938 9.328V9.176C9.84938 9.14933 9.85738 9.128 9.87337 9.112C9.89471 9.09067 9.91871 9.08 9.94538 9.08H11.0574C11.084 9.08 11.1054 9.09067 11.1214 9.112C11.1427 9.128 11.1534 9.14933 11.1534 9.176V9.272C11.1534 9.448 11.2414 9.60267 11.4174 9.736C11.5934 9.864 11.8307 9.928 12.1294 9.928C12.364 9.928 12.5374 9.87733 12.6494 9.776C12.7614 9.67467 12.8174 9.55733 12.8174 9.424C12.8174 9.31733 12.7827 9.232 12.7134 9.168C12.6494 9.09867 12.5614 9.04267 12.4494 9C12.3374 8.952 12.164 8.888 11.9294 8.808C11.8974 8.792 11.8654 8.78133 11.8334 8.776C11.8014 8.76533 11.772 8.75467 11.7454 8.744C11.3987 8.632 11.0974 8.512 10.8414 8.384C10.5854 8.25067 10.3667 8.06933 10.1854 7.84C10.004 7.60533 9.91338 7.31733 9.91338 6.976C9.91338 6.64533 9.99871 6.35733 10.1694 6.112C10.3454 5.86133 10.588 5.66933 10.8974 5.536C11.2067 5.40267 11.556 5.336 11.9454 5.336C12.356 5.336 12.724 5.41067 13.0494 5.56C13.38 5.70933 13.6387 5.92 13.8254 6.192C14.012 6.464 14.1054 6.776 14.1054 7.128V7.24C14.1054 7.26667 14.0947 7.29067 14.0734 7.312C14.0574 7.328 14.036 7.336 14.0094 7.336H12.8974C12.8707 7.336 12.8467 7.328 12.8254 7.312C12.8094 7.29067 12.8014 7.26667 12.8014 7.24V7.184C12.8014 6.99733 12.7187 6.832 12.5534 6.688C12.388 6.544 12.1667 6.472 11.8894 6.472C11.6814 6.472 11.5187 6.51467 11.4014 6.6C11.284 6.68533 11.2254 6.80533 11.2254 6.96C11.2254 7.07733 11.2627 7.176 11.3374 7.256C11.412 7.33067 11.5267 7.40267 11.6814 7.472C11.8414 7.536 12.084 7.62133 12.4094 7.728C12.7827 7.856 13.0734 7.968 13.2814 8.064C13.4894 8.16 13.684 8.31733 13.8654 8.536C14.052 8.74933 14.1454 9.032 14.1454 9.384C14.1454 9.73067 14.0574 10.0293 13.8814 10.28C13.7054 10.5307 13.4574 10.7253 13.1374 10.864C12.8227 10.9973 12.4547 11.064 12.0334 11.064ZM16.1153 11C16.062 11 16.0273 10.9733 16.0113 10.92L14.3953 5.512L14.3873 5.48C14.3873 5.42667 14.4166 5.4 14.4753 5.4H15.6993C15.758 5.4 15.7953 5.42667 15.8113 5.48L16.7313 9.12C16.7366 9.136 16.7446 9.144 16.7553 9.144C16.766 9.144 16.774 9.136 16.7793 9.12L17.6833 5.48C17.6993 5.42667 17.7366 5.4 17.7953 5.4H18.9953C19.0273 5.4 19.0513 5.41067 19.0673 5.432C19.0833 5.45333 19.086 5.48 19.0753 5.512L17.4353 10.92C17.4193 10.9733 17.3846 11 17.3313 11H16.1153Z" fill="#00BCD4"/>
</svg>
