<svg width="24" height="24" viewBox="0 0 24 24" fill="none" xmlns="http://www.w3.org/2000/svg">
<rect x="0.5" y="0.5" width="23" height="23" rx="2.5" fill="white" stroke="#EAF1F7"/>
<path d="M12.7345 8.866C12.4732 8.866 12.2632 8.78667 12.1045 8.628C11.9552 8.46933 11.8805 8.264 11.8805 8.012C11.8805 7.68533 11.9878 7.41467 12.2025 7.2C12.4172 6.98533 12.6785 6.878 12.9865 6.878C13.2385 6.878 13.4438 6.95733 13.6025 7.116C13.7612 7.26533 13.8405 7.47067 13.8405 7.732C13.8405 8.04933 13.7332 8.32 13.5185 8.544C13.3038 8.75867 13.0425 8.866 12.7345 8.866ZM11.0825 17C11.0358 17 10.9985 16.986 10.9705 16.958C10.9425 16.9207 10.9332 16.8787 10.9425 16.832L11.7825 10C11.7918 9.95333 11.8105 9.916 11.8385 9.888C11.8758 9.85067 11.9178 9.832 11.9645 9.832H13.2105C13.2572 9.832 13.2945 9.85067 13.3225 9.888C13.3505 9.916 13.3598 9.95333 13.3505 10L12.5245 16.832C12.5152 16.8787 12.4918 16.9207 12.4545 16.958C12.4172 16.986 12.3752 17 12.3285 17H11.0825Z" fill="#00BCD4"/>
</svg>
