<svg xmlns="http://www.w3.org/2000/svg" width="32" height="32" viewBox="0 0 32 32">
  <g fill="none" fill-rule="evenodd">
    <path stroke="#F0F0F0" stroke-linecap="round" stroke-linejoin="round" stroke-width="2" d="M13,26 C10.7296284,26 7.32407093,26 2.78332768,26 C2.35175847,26 2,25.6294278 2,25.1747762 L2,22.9637991 C2,21.5873881 2.76263601,20.3168548 3.94797337,19.7251849 L6.80913866,19.7251849 L8.09813211,17.0408719 C6.75612921,15.8949007 5.92550627,14.1946283 5.85751934,12.3573375 L5.69789785,8.00389257 C5.69789785,4.67808486 8.27844527,2 11.4501834,2 L12.5438862,2 C15.7185803,2 18.2991277,4.68119891 18.2991277,7.97275204 L18.1395062,12.3573375 C18.0715193,14.1977423 17.2408963,15.8980148 15.8959375,17.043986"/>
    <circle cx="23.5" cy="23.5" r="7.5" fill="#3CB850"/>
    <polyline stroke="#FFF" stroke-linecap="round" stroke-linejoin="round" stroke-width="2" points="27 21 22.333 26 20 23.5"/>
  </g>
</svg>
