<svg xmlns="http://www.w3.org/2000/svg" width="32" height="32" viewBox="0 0 32 32">
  <g fill="none" fill-rule="evenodd">
    <path stroke="#AECADE" d="M5 15.5L26 15.5M5 20.5L26 20.5M12.5 10L12.5 26.151718M19.5 10L19.5 26.151718"/>
    <path stroke="#FFF" stroke-width="2" d="M5,10 L26,10"/>
    <path stroke="#F0F0F0" stroke-linecap="round" stroke-linejoin="round" stroke-width="2" d="M6,5 L25,5 C26.1045695,5 27,5.8954305 27,7 L27,24 C27,25.1045695 26.1045695,26 25,26 L6,26 C4.8954305,26 4,25.1045695 4,24 L4,7 C4,5.8954305 4.8954305,5 6,5 Z"/>
    <rect width="7" height="4" x="5" y="21" fill="#E4006D"/>
  </g>
</svg>
