<svg xmlns="http://www.w3.org/2000/svg" xmlns:xlink="http://www.w3.org/1999/xlink" width="245" height="173" viewBox="0 0 245 173">
  <defs>
    <rect id="finish-b" width="225" height="92" x="10" y="10" rx="4"/>
    <filter id="finish-a" width="110.7%" height="126.1%" x="-5.3%" y="-6.5%" filterUnits="objectBoundingBox">
      <feOffset dy="6" in="SourceAlpha" result="shadowOffsetOuter1"/>
      <feGaussianBlur in="shadowOffsetOuter1" result="shadowBlurOuter1" stdDeviation="3"/>
      <feColorMatrix in="shadowBlurOuter1" values="0 0 0 0 0   0 0 0 0 0   0 0 0 0 0  0 0 0 0.3 0"/>
    </filter>
  </defs>
  <g fill="none" fill-rule="evenodd">
    <use fill="#000" filter="url(#finish-a)" xlink:href="#finish-b"/>
    <use fill="#049474" xlink:href="#finish-b"/>
    <path fill="#FFF" fill-rule="nonzero" d="M30.14 42.16C29.139995 42.16 28.2600038 41.9633353 27.5 41.57 26.7399962 41.1766647 26.1533354 40.6266702 25.74 39.92 25.3266646 39.2133298 25.12 38.393338 25.12 37.46L25.12 32.52C25.12 31.586662 25.3266646 30.7666702 25.74 30.06 26.1533354 29.3533298 26.7399962 28.8066686 27.5 28.42 28.2600038 28.0333314 29.139995 27.84 30.14 27.84 31.1266716 27.84 31.9999962 28.0266648 32.76 28.4 33.5200038 28.7733352 34.1066646 29.2999966 34.52 29.98 34.9333354 30.6600034 35.14 31.4466622 35.14 32.34 35.14 32.473334 35.040001 32.5533332 34.84 32.58L33.14 32.68 33.06 32.68C32.8999992 32.68 32.82 32.646667 32.82 32.58L32.82 32.46C32.82 31.6733294 32.5766691 31.0400024 32.09 30.56 31.6033309 30.0799976 30.9533374 29.84 30.14 29.84 29.3266626 29.84 28.6733358 30.0799976 28.18 30.56 27.6866642 31.0400024 27.44 31.6733294 27.44 32.46L27.44 37.56C27.44 38.3333372 27.6866642 38.9599976 28.18 39.44 28.6733358 39.9200024 29.3266626 40.16 30.14 40.16 30.9533374 40.16 31.6033309 39.9233357 32.09 39.45 32.5766691 38.9766643 32.82 38.3466706 32.82 37.56 32.82 37.493333 32.8499997 37.4366669 32.91 37.39 32.9700003 37.3433331 33.0466662 37.3266666 33.14 37.34L34.82 37.42C35.0333344 37.4466668 35.14 37.4799998 35.14 37.52L35.14 37.62C35.14 38.5266712 34.9333354 39.3233299 34.52 40.01 34.1066646 40.6966701 33.5200038 41.2266648 32.76 41.6 31.9999962 41.9733352 31.1266716 42.16 30.14 42.16zM41.74 42.16C40.6866614 42.16 39.7800038 41.893336 39.02 41.36 38.2599962 40.826664 37.7333348 40.0866714 37.44 39.14 37.2133322 38.4866634 37.1 37.726671 37.1 36.86 37.1 36.0066624 37.2066656 35.24667 37.42 34.58 37.7266682 33.646662 38.2599962 32.9200026 39.02 32.4 39.7800038 31.8799974 40.693328 31.62 41.76 31.62 42.7733384 31.62 43.6499963 31.8799974 44.39 32.4 45.1300037 32.9200026 45.6533318 33.6399954 45.96 34.56 46.2000012 35.2000032 46.32 35.9599956 46.32 36.84 46.32 37.6800042 46.2066678 38.4399966 45.98 39.12 45.6733318 40.0666714 45.1466704 40.8099973 44.4 41.35 43.6533296 41.8900027 42.7666718 42.16 41.74 42.16zM41.74 40.16C42.2333358 40.16 42.6566649 40.0200014 43.01 39.74 43.3633351 39.4599986 43.6133326 39.0666692 43.76 38.56 43.9066674 38.1333312 43.98 37.5733368 43.98 36.88 43.98 36.2266634 43.913334 35.666669 43.78 35.2 43.6333326 34.6933308 43.3766685 34.3033347 43.01 34.03 42.6433315 33.7566653 42.2066692 33.62 41.7 33.62 41.1933308 33.62 40.7600018 33.7566653 40.4 34.03 40.0399982 34.3033347 39.7866674 34.6933308 39.64 35.2 39.506666 35.666669 39.44 36.2266634 39.44 36.88 39.44 37.5333366 39.506666 38.093331 39.64 38.56 39.7866674 39.0666692 40.0433315 39.4599986 40.41 39.74 40.7766685 40.0200014 41.2199974 40.16 41.74 40.16zM53.42 31.62C54.5133388 31.62 55.3833301 31.9399968 56.03 32.58 56.6766699 33.2200032 57 34.0933278 57 35.2L57 41.68C57 41.8933344 56.8933344 42 56.68 42L55 42C54.7866656 42 54.68 41.8933344 54.68 41.68L54.68 35.68C54.68 35.0666636 54.5033351 34.5700019 54.15 34.19 53.7966649 33.8099981 53.3333362 33.62 52.76 33.62 52.1866638 33.62 51.7233351 33.8066648 51.37 34.18 51.0166649 34.5533352 50.84 35.0466636 50.84 35.66L50.84 41.68C50.84 41.8933344 50.7333344 42 50.52 42L48.84 42C48.6266656 42 48.52 41.8933344 48.52 41.68L48.52 32.1C48.52 31.8866656 48.6266656 31.78 48.84 31.78L50.52 31.78C50.7333344 31.78 50.84 31.8866656 50.84 32.1L50.84 32.64C50.84 32.6933336 50.8533332 32.7266666 50.88 32.74 50.9066668 32.7533334 50.9333332 32.7400002 50.96 32.7 51.5200028 31.9799964 52.3399946 31.62 53.42 31.62zM65.66 32.1C65.66 31.8866656 65.7666656 31.78 65.98 31.78L67.66 31.78C67.8733344 31.78 67.98 31.8866656 67.98 32.1L67.98 41.32C67.98 42.986675 67.5000048 44.1799964 66.54 44.9 65.5799952 45.6200036 64.3266744 45.98 62.78 45.98 62.4066648 45.98 62.0266686 45.9600002 61.64 45.92 61.4533324 45.9066666 61.36 45.7866678 61.36 45.56L61.42 44.08C61.42 43.9866662 61.453333 43.9133336 61.52 43.86 61.586667 43.8066664 61.6733328 43.7866666 61.78 43.8 62.2333356 43.8266668 62.5466658 43.84 62.72 43.84 63.7333384 43.84 64.4766643 43.6433353 64.95 43.25 65.4233357 42.8566647 65.66 42.193338 65.66 41.26L65.66 41.14C65.66 41.0866664 65.6466668 41.0533334 65.62 41.04 65.5933332 41.0266666 65.5600002 41.0399998 65.52 41.08 64.9733306 41.6533362 64.2066716 41.94 63.22 41.94 62.353329 41.94 61.5600036 41.7200022 60.84 41.28 60.1199964 40.8399978 59.6200014 40.1666712 59.34 39.26 59.1666658 38.6333302 59.08 37.8266716 59.08 36.84 59.08 35.7333278 59.1866656 34.8866696 59.4 34.3 59.666668 33.4866626 60.1266634 32.8366691 60.78 32.35 61.4333366 31.8633309 62.1999956 31.62 63.08 31.62 64.1066718 31.62 64.919997 31.919997 65.52 32.52 65.5600002 32.5600002 65.5933332 32.5733334 65.62 32.56 65.6466668 32.5466666 65.66 32.5133336 65.66 32.46L65.66 32.1zM65.52 38.6C65.5733336 38.399999 65.6099999 38.1833345 65.63 37.95 65.6500001 37.7166655 65.66 37.3400026 65.66 36.82 65.66 36.3133308 65.6500001 35.9500011 65.63 35.73 65.6099999 35.5099989 65.566667 35.2933344 65.5 35.08 65.3933328 34.6399978 65.1766683 34.286668 64.85 34.02 64.5233317 33.753332 64.1066692 33.62 63.6 33.62 63.1199976 33.62 62.713335 33.753332 62.38 34.02 62.046665 34.286668 61.8066674 34.6399978 61.66 35.08 61.4999992 35.4533352 61.42 36.039996 61.42 36.84 61.42 37.6666708 61.486666 38.246665 61.62 38.58 61.753334 39.0066688 61.9966649 39.3566653 62.35 39.63 62.7033351 39.9033347 63.1266642 40.04 63.62 40.04 64.1400026 40.04 64.5599984 39.906668 64.88 39.64 65.2000016 39.373332 65.4133328 39.0266688 65.52 38.6zM75.14 31.66C75.5266686 31.66 75.8799984 31.7333326 76.2 31.88 76.3600008 31.9600004 76.4200002 32.0933324 76.38 32.28L76.06 33.94C76.0466666 34.0466672 76.0100003 34.1133332 75.95 34.14 75.8899997 34.1666668 75.8000006 34.1666668 75.68 34.14 75.5199992 34.0866664 75.306668 34.06 75.04 34.06 74.8799992 34.06 74.7533338 34.0666666 74.66 34.08 74.0999972 34.1066668 73.6333352 34.3033315 73.26 34.67 72.8866648 35.0366685 72.7 35.5133304 72.7 36.1L72.7 41.68C72.7 41.8933344 72.5933344 42 72.38 42L70.7 42C70.4866656 42 70.38 41.8933344 70.38 41.68L70.38 32.1C70.38 31.8866656 70.4866656 31.78 70.7 31.78L72.38 31.78C72.5933344 31.78 72.7 31.8866656 72.7 32.1L72.7 32.88C72.7 32.9333336 72.7133332 32.9666666 72.74 32.98 72.7666668 32.9933334 72.7933332 32.9733336 72.82 32.92 73.3800028 32.0799958 74.1533284 31.66 75.14 31.66zM81.7 31.62C82.5400042 31.62 83.2833301 31.7666652 83.93 32.06 84.5766699 32.3533348 85.0733316 32.7566641 85.42 33.27 85.7666684 33.7833359 85.94 34.3666634 85.94 35.02L85.94 41.68C85.94 41.8933344 85.8333344 42 85.62 42L83.94 42C83.7266656 42 83.62 41.8933344 83.62 41.68L83.62 41.18C83.62 41.1266664 83.6066668 41.0966667 83.58 41.09 83.5533332 41.0833333 83.5200002 41.0933332 83.48 41.12 82.7599964 41.8133368 81.800006 42.16 80.6 42.16 79.6133284 42.16 78.8033365 41.9066692 78.17 41.4 77.5366635 40.8933308 77.22 40.140005 77.22 39.14 77.22 38.0999948 77.5833297 37.2900029 78.31 36.71 79.0366703 36.1299971 80.0599934 35.84 81.38 35.84L83.5 35.84C83.5800004 35.84 83.62 35.8000004 83.62 35.72L83.62 35.26C83.62 34.7399974 83.4633349 34.3366681 83.15 34.05 82.8366651 33.7633319 82.3733364 33.62 81.76 33.62 81.293331 33.62 80.9066682 33.7033325 80.6 33.87 80.2933318 34.0366675 80.0866672 34.2666652 79.98 34.56 79.9266664 34.7466676 79.8066676 34.8333334 79.62 34.82L77.82 34.6C77.7133328 34.5866666 77.6333336 34.5566669 77.58 34.51 77.5266664 34.4633331 77.5066666 34.406667 77.52 34.34 77.6400006 33.539996 78.0833295 32.8866692 78.85 32.38 79.6166705 31.8733308 80.566661 31.62 81.7 31.62zM81.24 40.32C81.8933366 40.32 82.453331 40.1466684 82.92 39.8 83.386669 39.4533316 83.62 39.013336 83.62 38.48L83.62 37.56C83.62 37.4799996 83.5800004 37.44 83.5 37.44L81.84 37.44C81.1333298 37.44 80.5733354 37.573332 80.16 37.84 79.7466646 38.106668 79.54 38.4866642 79.54 38.98 79.54 39.4066688 79.6999984 39.7366655 80.02 39.97 80.3400016 40.2033345 80.7466642 40.32 81.24 40.32zM93.5 33.34C93.5 33.5533344 93.3933344 33.66 93.18 33.66L91.24 33.66C91.1599996 33.66 91.12 33.6999996 91.12 33.78L91.12 38.5C91.12 39.0200026 91.2299989 39.3933322 91.45 39.62 91.6700011 39.8466678 92.0199976 39.96 92.5 39.96L93.02 39.96C93.2333344 39.96 93.34 40.0666656 93.34 40.28L93.34 41.62C93.34 41.8333344 93.2333344 41.9466666 93.02 41.96L92.06 41.98C91.0066614 41.98 90.2200026 41.7966685 89.7 41.43 89.1799974 41.0633315 88.9133334 40.380005 88.9 39.38L88.9 33.78C88.9 33.6999996 88.8600004 33.66 88.78 33.66L87.74 33.66C87.5266656 33.66 87.42 33.5533344 87.42 33.34L87.42 32.1C87.42 31.8866656 87.5266656 31.78 87.74 31.78L88.78 31.78C88.8600004 31.78 88.9 31.7400004 88.9 31.66L88.9 29.42C88.9 29.2066656 89.0066656 29.1 89.22 29.1L90.8 29.1C91.0133344 29.1 91.12 29.2066656 91.12 29.42L91.12 31.66C91.12 31.7400004 91.1599996 31.78 91.24 31.78L93.18 31.78C93.3933344 31.78 93.5 31.8866656 93.5 32.1L93.5 33.34zM101.6 32.1C101.6 31.8866656 101.706666 31.78 101.92 31.78L103.58 31.78C103.793334 31.78 103.9 31.8866656 103.9 32.1L103.9 41.68C103.9 41.8933344 103.793334 42 103.58 42L101.92 42C101.706666 42 101.6 41.8933344 101.6 41.68L101.6 41.16C101.6 41.1066664 101.583334 41.0733334 101.55 41.06 101.516667 41.0466666 101.486667 41.0666664 101.46 41.12 100.926664 41.8000034 100.113339 42.14 99.02 42.14 98.0066616 42.14 97.1566701 41.8466696 96.47 41.26 95.7833299 40.6733304 95.44 39.8400054 95.44 38.76L95.44 32.1C95.44 31.8866656 95.5466656 31.78 95.76 31.78L97.44 31.78C97.6533344 31.78 97.76 31.8866656 97.76 32.1L97.76 38.1C97.76 38.7266698 97.9233317 39.2266648 98.25 39.6 98.5766683 39.9733352 99.0333304 40.16 99.62 40.16 100.220003 40.16 100.699998 39.9733352 101.06 39.6 101.420002 39.2266648 101.6 38.7266698 101.6 38.1L101.6 32.1zM106.72 42C106.506666 42 106.4 41.8933344 106.4 41.68L106.4 28.32C106.4 28.1066656 106.506666 28 106.72 28L108.4 28C108.613334 28 108.72 28.1066656 108.72 28.32L108.72 41.68C108.72 41.8933344 108.613334 42 108.4 42L106.72 42zM115.14 31.62C115.980004 31.62 116.72333 31.7666652 117.37 32.06 118.01667 32.3533348 118.513332 32.7566641 118.86 33.27 119.206668 33.7833359 119.38 34.3666634 119.38 35.02L119.38 41.68C119.38 41.8933344 119.273334 42 119.06 42L117.38 42C117.166666 42 117.06 41.8933344 117.06 41.68L117.06 41.18C117.06 41.1266664 117.046667 41.0966667 117.02 41.09 116.993333 41.0833333 116.96 41.0933332 116.92 41.12 116.199996 41.8133368 115.240006 42.16 114.04 42.16 113.053328 42.16 112.243337 41.9066692 111.61 41.4 110.976664 40.8933308 110.66 40.140005 110.66 39.14 110.66 38.0999948 111.02333 37.2900029 111.75 36.71 112.47667 36.1299971 113.499993 35.84 114.82 35.84L116.94 35.84C117.02 35.84 117.06 35.8000004 117.06 35.72L117.06 35.26C117.06 34.7399974 116.903335 34.3366681 116.59 34.05 116.276665 33.7633319 115.813336 33.62 115.2 33.62 114.733331 33.62 114.346668 33.7033325 114.04 33.87 113.733332 34.0366675 113.526667 34.2666652 113.42 34.56 113.366666 34.7466676 113.246668 34.8333334 113.06 34.82L111.26 34.6C111.153333 34.5866666 111.073334 34.5566669 111.02 34.51 110.966666 34.4633331 110.946667 34.406667 110.96 34.34 111.080001 33.539996 111.52333 32.8866692 112.29 32.38 113.056671 31.8733308 114.006661 31.62 115.14 31.62zM114.68 40.32C115.333337 40.32 115.893331 40.1466684 116.36 39.8 116.826669 39.4533316 117.06 39.013336 117.06 38.48L117.06 37.56C117.06 37.4799996 117.02 37.44 116.94 37.44L115.28 37.44C114.57333 37.44 114.013335 37.573332 113.6 37.84 113.186665 38.106668 112.98 38.4866642 112.98 38.98 112.98 39.4066688 113.139998 39.7366655 113.46 39.97 113.780002 40.2033345 114.186664 40.32 114.68 40.32zM126.94 33.34C126.94 33.5533344 126.833334 33.66 126.62 33.66L124.68 33.66C124.6 33.66 124.56 33.6999996 124.56 33.78L124.56 38.5C124.56 39.0200026 124.669999 39.3933322 124.89 39.62 125.110001 39.8466678 125.459998 39.96 125.94 39.96L126.46 39.96C126.673334 39.96 126.78 40.0666656 126.78 40.28L126.78 41.62C126.78 41.8333344 126.673334 41.9466666 126.46 41.96L125.5 41.98C124.446661 41.98 123.660003 41.7966685 123.14 41.43 122.619997 41.0633315 122.353333 40.380005 122.34 39.38L122.34 33.78C122.34 33.6999996 122.3 33.66 122.22 33.66L121.18 33.66C120.966666 33.66 120.86 33.5533344 120.86 33.34L120.86 32.1C120.86 31.8866656 120.966666 31.78 121.18 31.78L122.22 31.78C122.3 31.78 122.34 31.7400004 122.34 31.66L122.34 29.42C122.34 29.2066656 122.446666 29.1 122.66 29.1L124.24 29.1C124.453334 29.1 124.56 29.2066656 124.56 29.42L124.56 31.66C124.56 31.7400004 124.6 31.78 124.68 31.78L126.62 31.78C126.833334 31.78 126.94 31.8866656 126.94 32.1L126.94 33.34zM130.32 30.5C129.879998 30.5 129.520001 30.3633347 129.24 30.09 128.959999 29.8166653 128.82 29.4666688 128.82 29.04 128.82 28.6133312 128.959999 28.266668 129.24 28 129.520001 27.733332 129.879998 27.6 130.32 27.6 130.760002 27.6 131.116665 27.733332 131.39 28 131.663335 28.266668 131.8 28.6133312 131.8 29.04 131.8 29.4666688 131.663335 29.8166653 131.39 30.09 131.116665 30.3633347 130.760002 30.5 130.32 30.5zM129.48 42C129.266666 42 129.16 41.8933344 129.16 41.68L129.16 32.1C129.16 31.8866656 129.266666 31.78 129.48 31.78L131.16 31.78C131.373334 31.78 131.48 31.8866656 131.48 32.1L131.48 41.68C131.48 41.8933344 131.373334 42 131.16 42L129.48 42zM138.46 42.16C137.406661 42.16 136.500004 41.893336 135.74 41.36 134.979996 40.826664 134.453335 40.0866714 134.16 39.14 133.933332 38.4866634 133.82 37.726671 133.82 36.86 133.82 36.0066624 133.926666 35.24667 134.14 34.58 134.446668 33.646662 134.979996 32.9200026 135.74 32.4 136.500004 31.8799974 137.413328 31.62 138.48 31.62 139.493338 31.62 140.369996 31.8799974 141.11 32.4 141.850004 32.9200026 142.373332 33.6399954 142.68 34.56 142.920001 35.2000032 143.04 35.9599956 143.04 36.84 143.04 37.6800042 142.926668 38.4399966 142.7 39.12 142.393332 40.0666714 141.86667 40.8099973 141.12 41.35 140.37333 41.8900027 139.486672 42.16 138.46 42.16zM138.46 40.16C138.953336 40.16 139.376665 40.0200014 139.73 39.74 140.083335 39.4599986 140.333333 39.0666692 140.48 38.56 140.626667 38.1333312 140.7 37.5733368 140.7 36.88 140.7 36.2266634 140.633334 35.666669 140.5 35.2 140.353333 34.6933308 140.096668 34.3033347 139.73 34.03 139.363331 33.7566653 138.926669 33.62 138.42 33.62 137.913331 33.62 137.480002 33.7566653 137.12 34.03 136.759998 34.3033347 136.506667 34.6933308 136.36 35.2 136.226666 35.666669 136.16 36.2266634 136.16 36.88 136.16 37.5333366 136.226666 38.093331 136.36 38.56 136.506667 39.0666692 136.763331 39.4599986 137.13 39.74 137.496668 40.0200014 137.939997 40.16 138.46 40.16zM150.14 31.62C151.233339 31.62 152.10333 31.9399968 152.75 32.58 153.39667 33.2200032 153.72 34.0933278 153.72 35.2L153.72 41.68C153.72 41.8933344 153.613334 42 153.4 42L151.72 42C151.506666 42 151.4 41.8933344 151.4 41.68L151.4 35.68C151.4 35.0666636 151.223335 34.5700019 150.87 34.19 150.516665 33.8099981 150.053336 33.62 149.48 33.62 148.906664 33.62 148.443335 33.8066648 148.09 34.18 147.736665 34.5533352 147.56 35.0466636 147.56 35.66L147.56 41.68C147.56 41.8933344 147.453334 42 147.24 42L145.56 42C145.346666 42 145.24 41.8933344 145.24 41.68L145.24 32.1C145.24 31.8866656 145.346666 31.78 145.56 31.78L147.24 31.78C147.453334 31.78 147.56 31.8866656 147.56 32.1L147.56 32.64C147.56 32.6933336 147.573333 32.7266666 147.6 32.74 147.626667 32.7533334 147.653333 32.7400002 147.68 32.7 148.240003 31.9799964 149.059995 31.62 150.14 31.62zM159.94 42.12C159.099996 42.12 158.363337 41.9966679 157.73 41.75 157.096664 41.5033321 156.606668 41.1633355 156.26 40.73 155.913332 40.2966645 155.74 39.813336 155.74 39.28L155.74 39.18C155.74 38.9666656 155.846666 38.86 156.06 38.86L157.66 38.86C157.873334 38.86 157.98 38.9066662 157.98 39L157.98 39.14C157.98 39.473335 158.163332 39.7633321 158.53 40.01 158.896669 40.2566679 159.359997 40.38 159.92 40.38 160.453336 40.38 160.886665 40.2700011 161.22 40.05 161.553335 39.8299989 161.72 39.553335 161.72 39.22 161.72 38.9133318 161.583335 38.6833341 161.31 38.53 161.036665 38.3766659 160.593336 38.2133342 159.98 38.04L159.22 37.8C158.539997 37.599999 157.966669 37.3866678 157.5 37.16 157.033331 36.9333322 156.640002 36.6233353 156.32 36.23 155.999998 35.8366647 155.84 35.3333364 155.84 34.72 155.84 33.786662 156.20333 33.0433361 156.93 32.49 157.65667 31.9366639 158.619994 31.66 159.82 31.66 160.633337 31.66 161.346664 31.7899987 161.96 32.05 162.573336 32.3100013 163.049998 32.6699977 163.39 33.13 163.730002 33.5900023 163.9 34.1133304 163.9 34.7 163.9 34.766667 163.87 34.8233331 163.81 34.87 163.75 34.9166669 163.673334 34.94 163.58 34.94L162.04 34.94C161.826666 34.94 161.72 34.9000004 161.72 34.82L161.72 34.7C161.72 34.3533316 161.550002 34.0633345 161.21 33.83 160.869998 33.5966655 160.40667 33.48 159.82 33.48 159.299997 33.48 158.876668 33.5766657 158.55 33.77 158.223332 33.9633343 158.06 34.2333316 158.06 34.58 158.06 34.9000016 158.213332 35.1433325 158.52 35.31 158.826668 35.4766675 159.339996 35.659999 160.06 35.86L160.52 35.98C161.240004 36.1933344 161.839998 36.4066656 162.32 36.62 162.800002 36.8333344 163.206665 37.139998 163.54 37.54 163.873335 37.940002 164.04 38.4533302 164.04 39.08 164.04 40.0266714 163.66667 40.7699973 162.92 41.31 162.17333 41.8500027 161.180006 42.12 159.94 42.12zM167.52 37.28C167.306666 37.28 167.2 37.1733344 167.2 36.96L166.98 28.32C166.98 28.1066656 167.086666 28 167.3 28L168.98 28C169.193334 28 169.3 28.1066656 169.3 28.32L169.08 36.96C169.08 37.1733344 168.973334 37.28 168.76 37.28L167.52 37.28zM168.08 41.96C167.626664 41.96 167.246668 41.8100015 166.94 41.51 166.633332 41.2099985 166.48 40.8466688 166.48 40.42 166.48 39.9933312 166.643332 39.6300015 166.97 39.33 167.296668 39.0299985 167.666665 38.88 168.08 38.88 168.506669 38.88 168.886665 39.0299985 169.22 39.33 169.553335 39.6300015 169.72 39.9933312 169.72 40.42 169.72 40.8466688 169.563335 41.2099985 169.25 41.51 168.936665 41.8100015 168.546669 41.96 168.08 41.96zM27.654 67.986C27.5326661 67.986 27.472 67.9253339 27.472 67.804L27.472 63.702C27.472 63.6833332 27.4626668 63.6553335 27.444 63.618L24.574 58.424C24.5553332 58.3679997 24.546 58.3353334 24.546 58.326 24.546 58.2886665 24.5599999 58.2583334 24.588 58.235 24.6160001 58.2116666 24.6533331 58.2 24.7 58.2L25.372 58.2C25.4746672 58.2 25.5446665 58.2419996 25.582 58.326L27.92 62.554C27.9480001 62.5913335 27.9759999 62.5913335 28.004 62.554L30.356 58.326C30.4026669 58.2419996 30.4726662 58.2 30.566 58.2L31.238 58.2C31.312667 58.2 31.3616666 58.2209998 31.385 58.263 31.4083335 58.3050002 31.4013335 58.3586663 31.364 58.424L28.494 63.618C28.4753332 63.6553335 28.466 63.6833332 28.466 63.702L28.466 67.804C28.466 67.9253339 28.4053339 67.986 28.284 67.986L27.654 67.986zM34.906 68.112C34.2246633 68.112 33.6436691 67.9393351 33.163 67.594 32.6823309 67.2486649 32.3486676 66.7726697 32.162 66.166 32.0313327 65.7366645 31.966 65.1626703 31.966 64.444 31.966 63.7346631 32.0266661 63.1653355 32.148 62.736 32.3346676 62.1386637 32.6683309 61.6673351 33.149 61.322 33.6296691 60.9766649 34.2153299 60.804 34.906 60.804 35.5780034 60.804 36.1543309 60.9766649 36.635 61.322 37.1156691 61.6673351 37.4446658 62.1339971 37.622 62.722 37.7526673 63.1700022 37.818 63.7439965 37.818 64.444 37.818 65.1626703 37.7526673 65.7366645 37.622 66.166 37.4353324 66.7726697 37.1016691 67.2486649 36.621 67.594 36.1403309 67.9393351 35.56867 68.112 34.906 68.112zM34.906 67.244C35.3540022 67.244 35.7366651 67.1203346 36.054 66.873 36.3713349 66.6256654 36.5859994 66.2920021 36.698 65.872 36.772667 65.5733318 36.81 65.1020032 36.81 64.458 36.81 63.7859966 36.772667 63.314668 36.698 63.044 36.5953328 62.6239979 36.3830016 62.2903346 36.061 62.043 35.7389984 61.7956654 35.344669 61.672 34.878 61.672 34.4299978 61.672 34.0473349 61.7956654 33.73 62.043 33.4126651 62.2903346 33.1980006 62.6239979 33.086 63.044 33.011333 63.314668 32.974 63.7859966 32.974 64.458 32.974 65.1300034 33.011333 65.601332 33.086 65.872 33.1886672 66.2920021 33.4009984 66.6256654 33.723 66.873 34.0450016 67.1203346 34.439331 67.244 34.906 67.244zM44.118 61.098C44.118 60.9766661 44.1786661 60.916 44.3 60.916L44.93 60.916C45.0513339 60.916 45.112 60.9766661 45.112 61.098L45.112 67.818C45.112 67.9393339 45.0513339 68 44.93 68L44.3 68C44.1786661 68 44.118 67.9393339 44.118 67.818L44.118 67.286C44.118 67.2579999 44.1086668 67.2393334 44.09 67.23 44.0713332 67.2206666 44.0526668 67.2299999 44.034 67.258 43.6326647 67.8180028 43.0166708 68.098 42.186 68.098 41.7379978 68.098 41.3250019 68.0070009 40.947 67.825 40.5689981 67.6429991 40.2703344 67.3793351 40.051 67.034 39.8316656 66.6886649 39.722 66.2733358 39.722 65.788L39.722 61.098C39.722 60.9766661 39.7826661 60.916 39.904 60.916L40.534 60.916C40.6553339 60.916 40.716 60.9766661 40.716 61.098L40.716 65.494C40.716 66.0260027 40.8653318 66.4483318 41.164 66.761 41.4626682 67.0736682 41.8686641 67.23 42.382 67.23 42.9140027 67.23 43.3363318 67.0713349 43.649 66.754 43.9616682 66.4366651 44.118 66.0166693 44.118 65.494L44.118 61.098zM47.954 58.2C48.0193337 58.2 48.0636666 58.2186665 48.087 58.256 48.1103334 58.2933335 48.1126668 58.3446663 48.094 58.41L47.086 60.93C47.0486665 61.0233338 46.9786672 61.07 46.876 61.07L46.442 61.07C46.3766663 61.07 46.3300001 61.0513335 46.302 61.014 46.2739999 60.9766665 46.2693332 60.9253337 46.288 60.86L47.1 58.354C47.1280001 58.2513328 47.1933328 58.2 47.296 58.2L47.954 58.2zM51.006 68C50.8939994 68 50.8240001 67.9486672 50.796 67.846L48.528 61.126C48.5186666 61.1073332 48.514 61.0840001 48.514 61.056 48.514 61.0186665 48.5303332 60.9860001 48.563 60.958 48.5956668 60.9299999 48.6353331 60.916 48.682 60.916L49.396 60.916C49.4986672 60.916 49.5639999 60.9673328 49.592 61.07L51.342 66.516C51.3513334 66.5533335 51.3653332 66.572 51.384 66.572 51.4026668 66.572 51.4166666 66.5533335 51.426 66.516L53.176 61.07C53.2040001 60.9673328 53.2693328 60.916 53.372 60.916L54.086 60.93C54.1513337 60.93 54.1956665 60.9486665 54.219 60.986 54.2423335 61.0233335 54.2446668 61.0746663 54.226 61.14L51.972 67.846C51.9439999 67.9486672 51.8740006 68 51.762 68L51.006 68zM58.342 67.258C58.7620021 67.2486666 59.1236652 67.1530009 59.427 66.971 59.7303348 66.7889991 59.9659992 66.5346683 60.134 66.208 60.1526668 66.1613331 60.1853331 66.1286668 60.232 66.11 60.2786669 66.0913332 60.3253331 66.0959999 60.372 66.124L60.778 66.348C60.8900006 66.4133337 60.9180003 66.4926662 60.862 66.586 60.6379989 67.052669 60.3020022 67.4236653 59.854 67.699 59.4059978 67.9743347 58.8740031 68.112 58.258 68.112 57.6046634 68.112 57.0540022 67.9580015 56.606 67.65 56.1579978 67.3419985 55.836001 66.9126694 55.64 66.362 55.4626658 65.895331 55.374 65.2513374 55.374 64.43 55.374 64.0286647 55.3809999 63.7090012 55.395 63.471 55.4090001 63.2329988 55.4439997 63.0113344 55.5 62.806 55.6586675 62.1993303 55.9783309 61.7140018 56.459 61.35 56.9396691 60.9859982 57.5206633 60.804 58.202 60.804 59.0140041 60.804 59.6509977 61.0139979 60.113 61.434 60.5750023 61.8540021 60.8713327 62.4466628 61.002 63.212 61.0580003 63.5106682 61.086 63.9773302 61.086 64.612 61.086 64.7333339 61.0253339 64.794 60.904 64.794L56.424 64.794C56.3773331 64.794 56.354 64.8173331 56.354 64.864 56.354 65.330669 56.3819997 65.6713323 56.438 65.886 56.5406672 66.3060021 56.757665 66.6396654 57.089 66.887 57.420335 67.1343346 57.8379975 67.258 58.342 67.258zM58.202 61.672C57.735331 61.672 57.3526682 61.7909988 57.054 62.029 56.7553318 62.2670012 56.5593338 62.5866647 56.466 62.988 56.4099997 63.1746676 56.3726668 63.4919978 56.354 63.94 56.354 63.9866669 56.3773331 64.01 56.424 64.01L60.022 64.01C60.0686669 64.01 60.092 63.9866669 60.092 63.94 60.0733332 63.5293313 60.0453335 63.2306676 60.008 63.044 59.9053328 62.6239979 59.6976682 62.2903346 59.385 62.043 59.0723318 61.7956654 58.6780024 61.672 58.202 61.672zM68.534 68.112C67.8619966 68.112 67.2856691 67.9370018 66.805 67.587 66.3243309 67.2369982 65.9953342 66.7633363 65.818 66.166 65.6966661 65.7553313 65.636 65.1766704 65.636 64.43 65.636 63.7579966 65.6966661 63.188669 65.818 62.722 65.9860008 62.1433304 66.3126642 61.6790017 66.798 61.329 67.2833358 60.9789983 67.8619966 60.804 68.534 60.804 69.2153367 60.804 69.8056642 60.9766649 70.305 61.322 70.8043358 61.6673351 71.1286659 62.0966641 71.278 62.61 71.3153335 62.7406673 71.3433332 62.8666661 71.362 62.988L71.362 63.016C71.362 63.1186672 71.3060006 63.1793332 71.194 63.198L70.578 63.268 70.536 63.268C70.4519996 63.268 70.3960001 63.2166672 70.368 63.114 70.368 63.0766665 70.3586668 63.020667 70.34 62.946 70.2559996 62.5913316 70.0506683 62.2903346 69.724 62.043 69.3973317 61.7956654 69.000669 61.672 68.534 61.672 68.067331 61.672 67.6776682 61.7956654 67.365 62.043 67.0523318 62.2903346 66.8493338 62.6193313 66.756 63.03 66.6719996 63.3846684 66.63 63.8559971 66.63 64.444 66.63 65.0600031 66.6719996 65.5359983 66.756 65.872 66.8493338 66.2920021 67.0523318 66.6256654 67.365 66.873 67.6776682 67.1203346 68.067331 67.244 68.534 67.244 68.9913356 67.244 69.385665 67.1250012 69.717 66.887 70.048335 66.6489988 70.251333 66.3480018 70.326 65.984 70.3353334 65.9653332 70.34 65.9420001 70.34 65.914L70.354 65.9C70.3633334 65.7786661 70.4333327 65.7273332 70.564 65.746L71.166 65.844C71.2873339 65.8626668 71.3433334 65.9326661 71.334 66.054L71.278 66.292C71.1379993 66.833336 70.8160025 67.2719983 70.312 67.608 69.8079975 67.9440017 69.2153367 68.112 68.534 68.112zM75.814 68.112C75.1326633 68.112 74.5516691 67.9393351 74.071 67.594 73.5903309 67.2486649 73.2566676 66.7726697 73.07 66.166 72.9393327 65.7366645 72.874 65.1626703 72.874 64.444 72.874 63.7346631 72.9346661 63.1653355 73.056 62.736 73.2426676 62.1386637 73.5763309 61.6673351 74.057 61.322 74.5376691 60.9766649 75.1233299 60.804 75.814 60.804 76.4860034 60.804 77.0623309 60.9766649 77.543 61.322 78.0236691 61.6673351 78.3526658 62.1339971 78.53 62.722 78.6606673 63.1700022 78.726 63.7439965 78.726 64.444 78.726 65.1626703 78.6606673 65.7366645 78.53 66.166 78.3433324 66.7726697 78.0096691 67.2486649 77.529 67.594 77.0483309 67.9393351 76.47667 68.112 75.814 68.112zM75.814 67.244C76.2620022 67.244 76.6446651 67.1203346 76.962 66.873 77.2793349 66.6256654 77.4939994 66.2920021 77.606 65.872 77.680667 65.5733318 77.718 65.1020032 77.718 64.458 77.718 63.7859966 77.680667 63.314668 77.606 63.044 77.5033328 62.6239979 77.2910016 62.2903346 76.969 62.043 76.6469984 61.7956654 76.252669 61.672 75.786 61.672 75.3379978 61.672 74.9553349 61.7956654 74.638 62.043 74.3206651 62.2903346 74.1060006 62.6239979 73.994 63.044 73.919333 63.314668 73.882 63.7859966 73.882 64.458 73.882 65.1300034 73.919333 65.601332 73.994 65.872 74.0966672 66.2920021 74.3089984 66.6256654 74.631 66.873 74.9530016 67.1203346 75.347331 67.244 75.814 67.244zM87.91 60.818C88.6100035 60.818 89.162998 61.0279979 89.569 61.448 89.975002 61.8680021 90.178 62.4419964 90.178 63.17L90.178 67.818C90.178 67.9393339 90.1173339 68 89.996 68L89.38 68C89.2586661 68 89.198 67.9393339 89.198 67.818L89.198 63.366C89.198 62.8526641 89.0510015 62.4443348 88.757 62.141 88.4629985 61.8376651 88.0780024 61.686 87.602 61.686 87.1073309 61.686 86.7083348 61.8353318 86.405 62.134 86.1016652 62.4326682 85.95 62.8339975 85.95 63.338L85.95 67.818C85.95 67.9393339 85.8893339 68 85.768 68L85.138 68C85.0166661 68 84.956 67.9393339 84.956 67.818L84.956 63.366C84.956 62.8526641 84.8113348 62.4443348 84.522 62.141 84.2326652 61.8376651 83.8453358 61.686 83.36 61.686 82.8653309 61.686 82.4710015 61.8353318 82.177 62.134 81.8829985 62.4326682 81.736 62.8339975 81.736 63.338L81.736 67.818C81.736 67.9393339 81.6753339 68 81.554 68L80.924 68C80.8026661 68 80.742 67.9393339 80.742 67.818L80.742 61.098C80.742 60.9766661 80.8026661 60.916 80.924 60.916L81.554 60.916C81.6753339 60.916 81.736 60.9766661 81.736 61.098L81.736 61.588C81.736 61.6160001 81.7453332 61.6346666 81.764 61.644 81.7826668 61.6533334 81.8013332 61.6440001 81.82 61.616 82.0253344 61.345332 82.2866651 61.1446673 82.604 61.014 82.9213349 60.8833327 83.275998 60.818 83.668 60.818 84.1440024 60.818 84.5546649 60.915999 84.9 61.112 85.2453351 61.308001 85.5066658 61.5833316 85.684 61.938 85.7120001 61.9940003 85.7399999 61.9986669 85.768 61.952 85.9733344 61.5693314 86.2626648 61.2846676 86.636 61.098 87.0093352 60.9113324 87.4339976 60.818 87.91 60.818zM97.822 62.68C97.9526673 63.1000021 98.018 63.6926628 98.018 64.458 98.018 65.2326705 97.9620006 65.8113314 97.85 66.194 97.6819992 66.7913363 97.3740022 67.2603316 96.926 67.601 96.4779978 67.9416684 95.92267 68.112 95.26 68.112 94.8959982 68.112 94.5600015 68.0396674 94.252 67.895 93.9439985 67.7503326 93.6873344 67.542668 93.482 67.272 93.4633332 67.2439999 93.4446668 67.2346666 93.426 67.244 93.4073332 67.2533334 93.398 67.2719999 93.398 67.3L93.398 70.534C93.398 70.6553339 93.3373339 70.716 93.216 70.716L92.586 70.716C92.4646661 70.716 92.404 70.6553339 92.404 70.534L92.404 61.098C92.404 60.9766661 92.4646661 60.916 92.586 60.916L93.216 60.916C93.3373339 60.916 93.398 60.9766661 93.398 61.098L93.398 61.63C93.398 61.6580001 93.4073332 61.6743333 93.426 61.679 93.4446668 61.6836667 93.4633332 61.6766668 93.482 61.658 93.6873344 61.387332 93.9416651 61.1773341 94.245 61.028 94.5483348 60.8786659 94.8866648 60.804 95.26 60.804 95.9133366 60.804 96.4616645 60.9719983 96.905 61.308 97.3483356 61.6440017 97.6539992 62.1013304 97.822 62.68zM96.702 66.222C96.8140006 66.0166656 96.8956664 65.785668 96.947 65.529 96.9983336 65.2723321 97.024 64.9153356 97.024 64.458 97.024 64.0193311 97.0053335 63.6763346 96.968 63.429 96.9306665 63.1816654 96.8653338 62.960001 96.772 62.764 96.6599994 62.4279983 96.4616681 62.162001 96.177 61.966 95.8923319 61.769999 95.554002 61.672 95.162 61.672 94.7886648 61.672 94.4760013 61.769999 94.224 61.966 93.9719987 62.162001 93.7853339 62.4233317 93.664 62.75 93.5799996 62.9366676 93.5193335 63.1559987 93.482 63.408 93.4446665 63.6600013 93.426 64.0099978 93.426 64.458 93.426 64.9060022 93.4446665 65.2583321 93.482 65.515 93.5193335 65.7716679 93.5846662 65.997999 93.678 66.194 93.7900006 66.5113349 93.974332 66.7656657 94.231 66.957 94.4876679 67.1483343 94.7933316 67.244 95.148 67.244 95.5213352 67.244 95.843332 67.1506676 96.114 66.964 96.384668 66.7773324 96.5806661 66.5300015 96.702 66.222zM100.174 68C100.052666 68 99.992 67.9393339 99.992 67.818L99.992 58.382C99.992 58.2606661 100.052666 58.2 100.174 58.2L100.804 58.2C100.925334 58.2 100.986 58.2606661 100.986 58.382L100.986 67.818C100.986 67.9393339 100.925334 68 100.804 68L100.174 68zM105.998 67.258C106.418002 67.2486666 106.779665 67.1530009 107.083 66.971 107.386335 66.7889991 107.621999 66.5346683 107.79 66.208 107.808667 66.1613331 107.841333 66.1286668 107.888 66.11 107.934667 66.0913332 107.981333 66.0959999 108.028 66.124L108.434 66.348C108.546001 66.4133337 108.574 66.4926662 108.518 66.586 108.293999 67.052669 107.958002 67.4236653 107.51 67.699 107.061998 67.9743347 106.530003 68.112 105.914 68.112 105.260663 68.112 104.710002 67.9580015 104.262 67.65 103.813998 67.3419985 103.492001 66.9126694 103.296 66.362 103.118666 65.895331 103.03 65.2513374 103.03 64.43 103.03 64.0286647 103.037 63.7090012 103.051 63.471 103.065 63.2329988 103.1 63.0113344 103.156 62.806 103.314667 62.1993303 103.634331 61.7140018 104.115 61.35 104.595669 60.9859982 105.176663 60.804 105.858 60.804 106.670004 60.804 107.306998 61.0139979 107.769 61.434 108.231002 61.8540021 108.527333 62.4466628 108.658 63.212 108.714 63.5106682 108.742 63.9773302 108.742 64.612 108.742 64.7333339 108.681334 64.794 108.56 64.794L104.08 64.794C104.033333 64.794 104.01 64.8173331 104.01 64.864 104.01 65.330669 104.038 65.6713323 104.094 65.886 104.196667 66.3060021 104.413665 66.6396654 104.745 66.887 105.076335 67.1343346 105.493997 67.258 105.998 67.258zM105.858 61.672C105.391331 61.672 105.008668 61.7909988 104.71 62.029 104.411332 62.2670012 104.215334 62.5866647 104.122 62.988 104.066 63.1746676 104.028667 63.4919978 104.01 63.94 104.01 63.9866669 104.033333 64.01 104.08 64.01L107.678 64.01C107.724667 64.01 107.748 63.9866669 107.748 63.94 107.729333 63.5293313 107.701334 63.2306676 107.664 63.044 107.561333 62.6239979 107.353668 62.2903346 107.041 62.043 106.728332 61.7956654 106.334002 61.672 105.858 61.672zM113.796 61.56C113.796 61.6813339 113.735334 61.742 113.614 61.742L112.088 61.742C112.041333 61.742 112.018 61.7653331 112.018 61.812L112.018 65.9C112.018 66.3480022 112.118332 66.6629991 112.319 66.845 112.519668 67.0270009 112.834665 67.118 113.264 67.118L113.572 67.118C113.693334 67.118 113.754 67.1786661 113.754 67.3L113.754 67.79C113.754 67.9113339 113.693334 67.9766666 113.572 67.986L113.096 67.986C112.423997 67.986 111.915335 67.8600013 111.57 67.608 111.224665 67.3559987 111.052 66.8893367 111.052 66.208L111.052 61.812C111.052 61.7653331 111.028667 61.742 110.982 61.742L110.184 61.742C110.062666 61.742 110.002 61.6813339 110.002 61.56L110.002 61.098C110.002 60.9766661 110.062666 60.916 110.184 60.916L110.982 60.916C111.028667 60.916 111.052 60.8926669 111.052 60.846L111.052 59.278C111.052 59.1566661 111.112666 59.096 111.234 59.096L111.836 59.096C111.957334 59.096 112.018 59.1566661 112.018 59.278L112.018 60.846C112.018 60.8926669 112.041333 60.916 112.088 60.916L113.614 60.916C113.735334 60.916 113.796 60.9766661 113.796 61.098L113.796 61.56zM118.262 67.258C118.682002 67.2486666 119.043665 67.1530009 119.347 66.971 119.650335 66.7889991 119.885999 66.5346683 120.054 66.208 120.072667 66.1613331 120.105333 66.1286668 120.152 66.11 120.198667 66.0913332 120.245333 66.0959999 120.292 66.124L120.698 66.348C120.810001 66.4133337 120.838 66.4926662 120.782 66.586 120.557999 67.052669 120.222002 67.4236653 119.774 67.699 119.325998 67.9743347 118.794003 68.112 118.178 68.112 117.524663 68.112 116.974002 67.9580015 116.526 67.65 116.077998 67.3419985 115.756001 66.9126694 115.56 66.362 115.382666 65.895331 115.294 65.2513374 115.294 64.43 115.294 64.0286647 115.301 63.7090012 115.315 63.471 115.329 63.2329988 115.364 63.0113344 115.42 62.806 115.578667 62.1993303 115.898331 61.7140018 116.379 61.35 116.859669 60.9859982 117.440663 60.804 118.122 60.804 118.934004 60.804 119.570998 61.0139979 120.033 61.434 120.495002 61.8540021 120.791333 62.4466628 120.922 63.212 120.978 63.5106682 121.006 63.9773302 121.006 64.612 121.006 64.7333339 120.945334 64.794 120.824 64.794L116.344 64.794C116.297333 64.794 116.274 64.8173331 116.274 64.864 116.274 65.330669 116.302 65.6713323 116.358 65.886 116.460667 66.3060021 116.677665 66.6396654 117.009 66.887 117.340335 67.1343346 117.757997 67.258 118.262 67.258zM118.122 61.672C117.655331 61.672 117.272668 61.7909988 116.974 62.029 116.675332 62.2670012 116.479334 62.5866647 116.386 62.988 116.33 63.1746676 116.292667 63.4919978 116.274 63.94 116.274 63.9866669 116.297333 64.01 116.344 64.01L119.942 64.01C119.988667 64.01 120.012 63.9866669 120.012 63.94 119.993333 63.5293313 119.965334 63.2306676 119.928 63.044 119.825333 62.6239979 119.617668 62.2903346 119.305 62.043 118.992332 61.7956654 118.598002 61.672 118.122 61.672zM127.334 58.382C127.334 58.2606661 127.394666 58.2 127.516 58.2L128.146 58.2C128.267334 58.2 128.328 58.2606661 128.328 58.382L128.328 67.818C128.328 67.9393339 128.267334 68 128.146 68L127.516 68C127.394666 68 127.334 67.9393339 127.334 67.818L127.334 67.286C127.334 67.2579999 127.324667 67.2416667 127.306 67.237 127.287333 67.2323333 127.268667 67.2393332 127.25 67.258 127.044666 67.528668 126.790335 67.7386659 126.487 67.888 126.183665 68.0373341 125.845335 68.112 125.472 68.112 124.818663 68.112 124.270336 67.9440017 123.827 67.608 123.383664 67.2719983 123.078001 66.8146696 122.91 66.236 122.779333 65.8159979 122.714 65.2233372 122.714 64.458 122.714 63.6833295 122.769999 63.1046686 122.882 62.722 123.050001 62.1246637 123.357998 61.6556684 123.806 61.315 124.254002 60.9743316 124.80933 60.804 125.472 60.804 125.836002 60.804 126.171998 60.8763326 126.48 61.021 126.788002 61.1656674 127.044666 61.373332 127.25 61.644 127.268667 61.6720001 127.287333 61.6813334 127.306 61.672 127.324667 61.6626666 127.334 61.6440001 127.334 61.616L127.334 58.382zM127.068 66.166C127.152 65.9793324 127.212666 65.7600013 127.25 65.508 127.287334 65.2559987 127.306 64.9060022 127.306 64.458 127.306 64.0099978 127.287334 63.657668 127.25 63.401 127.212666 63.1443321 127.147334 62.918001 127.054 62.722 126.941999 62.4046651 126.757668 62.1503343 126.501 61.959 126.244332 61.7676657 125.938668 61.672 125.584 61.672 125.210665 61.672 124.888668 61.7653324 124.618 61.952 124.347332 62.1386676 124.151334 62.3859985 124.03 62.694 123.917999 62.8993344 123.836334 63.130332 123.785 63.387 123.733666 63.643668 123.708 64.0006644 123.708 64.458 123.708 64.8966689 123.726666 65.2396654 123.764 65.487 123.801334 65.7343346 123.866666 65.955999 123.96 66.152 124.072001 66.4880017 124.270332 66.753999 124.555 66.95 124.839668 67.146001 125.177998 67.244 125.57 67.244 125.943335 67.244 126.255999 67.146001 126.508 66.95 126.760001 66.753999 126.946666 66.4926683 127.068 66.166zM135.818 60.804C136.658004 60.804 137.308998 61.0186645 137.771 61.448 138.233002 61.8773355 138.464 62.4466631 138.464 63.156L138.464 67.818C138.464 67.9393339 138.403334 68 138.282 68L137.652 68C137.530666 68 137.47 67.9393339 137.47 67.818L137.47 67.314C137.47 67.2859999 137.460667 67.2673334 137.442 67.258 137.423333 67.2486666 137.404667 67.2579999 137.386 67.286 137.133999 67.556668 136.819002 67.7619993 136.441 67.902 136.062998 68.0420007 135.650002 68.112 135.202 68.112 134.548663 68.112 134.000336 67.9440017 133.557 67.608 133.113664 67.2719983 132.892 66.7586701 132.892 66.068 132.892 65.3679965 133.146331 64.815002 133.655 64.409 134.163669 64.002998 134.870662 63.8 135.776 63.8L137.4 63.8C137.446667 63.8 137.47 63.7766669 137.47 63.73L137.47 63.212C137.47 62.7359976 137.337001 62.3603347 137.071 62.085 136.804999 61.8096653 136.392003 61.672 135.832 61.672 135.393331 61.672 135.034001 61.7559992 134.754 61.924 134.473999 62.0920008 134.296667 62.3253318 134.222 62.624 134.194 62.7360006 134.124001 62.7826668 134.012 62.764L133.326 62.68C133.204666 62.6613332 133.148667 62.6100004 133.158 62.526 133.251334 62.0126641 133.538331 61.5973349 134.019 61.28 134.499669 60.9626651 135.09933 60.804 135.818 60.804zM135.426 67.258C135.976669 67.258 136.454998 67.1203347 136.861 66.845 137.267002 66.5696653 137.47 66.198669 137.47 65.732L137.47 64.654C137.47 64.6073331 137.446667 64.584 137.4 64.584L135.93 64.584C135.313997 64.584 134.819335 64.7099987 134.446 64.962 134.072665 65.2140013 133.886 65.5639978 133.886 66.012 133.886 66.4226687 134.030665 66.7329989 134.32 66.943 134.609335 67.1530011 134.977998 67.258 135.426 67.258zM140.704 68C140.582666 68 140.522 67.9393339 140.522 67.818L140.522 58.382C140.522 58.2606661 140.582666 58.2 140.704 58.2L141.334 58.2C141.455334 58.2 141.516 58.2606661 141.516 58.382L141.516 67.818C141.516 67.9393339 141.455334 68 141.334 68L140.704 68zM143.952 68C143.830666 68 143.77 67.9393339 143.77 67.818L143.77 58.382C143.77 58.2606661 143.830666 58.2 143.952 58.2L144.582 58.2C144.703334 58.2 144.764 58.2606661 144.764 58.382L144.764 67.818C144.764 67.9393339 144.703334 68 144.582 68L143.952 68zM152.142 68.07C151.619331 68.07 151.155002 67.9860008 150.749 67.818 150.342998 67.6499992 150.030334 67.4260014 149.811 67.146 149.591666 66.8659986 149.482 66.5533351 149.482 66.208L149.482 66.082C149.482 65.9606661 149.542666 65.9 149.664 65.9L150.266 65.9C150.322 65.9 150.366333 65.9116666 150.399 65.935 150.431667 65.9583334 150.448 65.9886665 150.448 66.026L150.448 66.152C150.448 66.4600015 150.606665 66.7283322 150.924 66.957 151.241335 67.1856678 151.642664 67.3 152.128 67.3 152.613336 67.3 153.005332 67.1903344 153.304 66.971 153.602668 66.7516656 153.752 66.4740017 153.752 66.138 153.752 65.9046655 153.677334 65.7133341 153.528 65.564 153.378666 65.4146659 153.196668 65.2980004 152.982 65.214 152.767332 65.1299996 152.445335 65.0226673 152.016 64.892 151.493331 64.7426659 151.064002 64.5933341 150.728 64.444 150.391998 64.2946659 150.107335 64.0870013 149.874 63.821 149.640666 63.5549987 149.524 63.2166687 149.524 62.806 149.524 62.2086637 149.759664 61.7326684 150.231 61.378 150.702336 61.0233316 151.320663 60.846 152.086 60.846 152.599336 60.846 153.054331 60.9299992 153.451 61.098 153.847669 61.2660008 154.153332 61.4969985 154.368 61.791 154.582668 62.0850015 154.69 62.4139982 154.69 62.778 154.69 62.8993339 154.629334 62.96 154.508 62.96L153.934 62.96C153.812666 62.96 153.752 62.9273337 153.752 62.862L153.752 62.778C153.752 62.4606651 153.600335 62.1946677 153.297 61.98 152.993665 61.7653323 152.585336 61.658 152.072 61.658 151.595998 61.658 151.213335 61.7536657 150.924 61.945 150.634665 62.1363343 150.49 62.3999983 150.49 62.736 150.49 63.0533349 150.627665 63.2959992 150.903 63.464 151.178335 63.6320008 151.609997 63.7999992 152.198 63.968 152.739336 64.1173341 153.177998 64.2619993 153.514 64.402 153.850002 64.5420007 154.139332 64.747332 154.382 65.018 154.624668 65.288668 154.746 65.6386645 154.746 66.068 154.746 66.6746697 154.510336 67.1599982 154.039 67.524 153.567664 67.8880018 152.935337 68.07 152.142 68.07zM159.73 61.56C159.73 61.6813339 159.669334 61.742 159.548 61.742L158.022 61.742C157.975333 61.742 157.952 61.7653331 157.952 61.812L157.952 65.9C157.952 66.3480022 158.052332 66.6629991 158.253 66.845 158.453668 67.0270009 158.768665 67.118 159.198 67.118L159.506 67.118C159.627334 67.118 159.688 67.1786661 159.688 67.3L159.688 67.79C159.688 67.9113339 159.627334 67.9766666 159.506 67.986L159.03 67.986C158.357997 67.986 157.849335 67.8600013 157.504 67.608 157.158665 67.3559987 156.986 66.8893367 156.986 66.208L156.986 61.812C156.986 61.7653331 156.962667 61.742 156.916 61.742L156.118 61.742C155.996666 61.742 155.936 61.6813339 155.936 61.56L155.936 61.098C155.936 60.9766661 155.996666 60.916 156.118 60.916L156.916 60.916C156.962667 60.916 156.986 60.8926669 156.986 60.846L156.986 59.278C156.986 59.1566661 157.046666 59.096 157.168 59.096L157.77 59.096C157.891334 59.096 157.952 59.1566661 157.952 59.278L157.952 60.846C157.952 60.8926669 157.975333 60.916 158.022 60.916L159.548 60.916C159.669334 60.916 159.73 60.9766661 159.73 61.098L159.73 61.56zM164.196 67.258C164.616002 67.2486666 164.977665 67.1530009 165.281 66.971 165.584335 66.7889991 165.819999 66.5346683 165.988 66.208 166.006667 66.1613331 166.039333 66.1286668 166.086 66.11 166.132667 66.0913332 166.179333 66.0959999 166.226 66.124L166.632 66.348C166.744001 66.4133337 166.772 66.4926662 166.716 66.586 166.491999 67.052669 166.156002 67.4236653 165.708 67.699 165.259998 67.9743347 164.728003 68.112 164.112 68.112 163.458663 68.112 162.908002 67.9580015 162.46 67.65 162.011998 67.3419985 161.690001 66.9126694 161.494 66.362 161.316666 65.895331 161.228 65.2513374 161.228 64.43 161.228 64.0286647 161.235 63.7090012 161.249 63.471 161.263 63.2329988 161.298 63.0113344 161.354 62.806 161.512667 62.1993303 161.832331 61.7140018 162.313 61.35 162.793669 60.9859982 163.374663 60.804 164.056 60.804 164.868004 60.804 165.504998 61.0139979 165.967 61.434 166.429002 61.8540021 166.725333 62.4466628 166.856 63.212 166.912 63.5106682 166.94 63.9773302 166.94 64.612 166.94 64.7333339 166.879334 64.794 166.758 64.794L162.278 64.794C162.231333 64.794 162.208 64.8173331 162.208 64.864 162.208 65.330669 162.236 65.6713323 162.292 65.886 162.394667 66.3060021 162.611665 66.6396654 162.943 66.887 163.274335 67.1343346 163.691997 67.258 164.196 67.258zM164.056 61.672C163.589331 61.672 163.206668 61.7909988 162.908 62.029 162.609332 62.2670012 162.413334 62.5866647 162.32 62.988 162.264 63.1746676 162.226667 63.4919978 162.208 63.94 162.208 63.9866669 162.231333 64.01 162.278 64.01L165.876 64.01C165.922667 64.01 165.946 63.9866669 165.946 63.94 165.927333 63.5293313 165.899334 63.2306676 165.862 63.044 165.759333 62.6239979 165.551668 62.2903346 165.239 62.043 164.926332 61.7956654 164.532002 61.672 164.056 61.672zM174.416 62.68C174.546667 63.1000021 174.612 63.6926628 174.612 64.458 174.612 65.2326705 174.556001 65.8113314 174.444 66.194 174.275999 66.7913363 173.968002 67.2603316 173.52 67.601 173.071998 67.9416684 172.51667 68.112 171.854 68.112 171.489998 68.112 171.154002 68.0396674 170.846 67.895 170.537998 67.7503326 170.281334 67.542668 170.076 67.272 170.057333 67.2439999 170.038667 67.2346666 170.02 67.244 170.001333 67.2533334 169.992 67.2719999 169.992 67.3L169.992 70.534C169.992 70.6553339 169.931334 70.716 169.81 70.716L169.18 70.716C169.058666 70.716 168.998 70.6553339 168.998 70.534L168.998 61.098C168.998 60.9766661 169.058666 60.916 169.18 60.916L169.81 60.916C169.931334 60.916 169.992 60.9766661 169.992 61.098L169.992 61.63C169.992 61.6580001 170.001333 61.6743333 170.02 61.679 170.038667 61.6836667 170.057333 61.6766668 170.076 61.658 170.281334 61.387332 170.535665 61.1773341 170.839 61.028 171.142335 60.8786659 171.480665 60.804 171.854 60.804 172.507337 60.804 173.055664 60.9719983 173.499 61.308 173.942336 61.6440017 174.247999 62.1013304 174.416 62.68zM173.296 66.222C173.408001 66.0166656 173.489666 65.785668 173.541 65.529 173.592334 65.2723321 173.618 64.9153356 173.618 64.458 173.618 64.0193311 173.599334 63.6763346 173.562 63.429 173.524666 63.1816654 173.459334 62.960001 173.366 62.764 173.253999 62.4279983 173.055668 62.162001 172.771 61.966 172.486332 61.769999 172.148002 61.672 171.756 61.672 171.382665 61.672 171.070001 61.769999 170.818 61.966 170.565999 62.162001 170.379334 62.4233317 170.258 62.75 170.174 62.9366676 170.113334 63.1559987 170.076 63.408 170.038666 63.6600013 170.02 64.0099978 170.02 64.458 170.02 64.9060022 170.038666 65.2583321 170.076 65.515 170.113334 65.7716679 170.178666 65.997999 170.272 66.194 170.384001 66.5113349 170.568332 66.7656657 170.825 66.957 171.081668 67.1483343 171.387332 67.244 171.742 67.244 172.115335 67.244 172.437332 67.1506676 172.708 66.964 172.978668 66.7773324 173.174666 66.5300015 173.296 66.222zM178.91 68.07C178.387331 68.07 177.923002 67.9860008 177.517 67.818 177.110998 67.6499992 176.798334 67.4260014 176.579 67.146 176.359666 66.8659986 176.25 66.5533351 176.25 66.208L176.25 66.082C176.25 65.9606661 176.310666 65.9 176.432 65.9L177.034 65.9C177.09 65.9 177.134333 65.9116666 177.167 65.935 177.199667 65.9583334 177.216 65.9886665 177.216 66.026L177.216 66.152C177.216 66.4600015 177.374665 66.7283322 177.692 66.957 178.009335 67.1856678 178.410664 67.3 178.896 67.3 179.381336 67.3 179.773332 67.1903344 180.072 66.971 180.370668 66.7516656 180.52 66.4740017 180.52 66.138 180.52 65.9046655 180.445334 65.7133341 180.296 65.564 180.146666 65.4146659 179.964668 65.2980004 179.75 65.214 179.535332 65.1299996 179.213335 65.0226673 178.784 64.892 178.261331 64.7426659 177.832002 64.5933341 177.496 64.444 177.159998 64.2946659 176.875335 64.0870013 176.642 63.821 176.408666 63.5549987 176.292 63.2166687 176.292 62.806 176.292 62.2086637 176.527664 61.7326684 176.999 61.378 177.470336 61.0233316 178.088663 60.846 178.854 60.846 179.367336 60.846 179.822331 60.9299992 180.219 61.098 180.615669 61.2660008 180.921332 61.4969985 181.136 61.791 181.350668 62.0850015 181.458 62.4139982 181.458 62.778 181.458 62.8993339 181.397334 62.96 181.276 62.96L180.702 62.96C180.580666 62.96 180.52 62.9273337 180.52 62.862L180.52 62.778C180.52 62.4606651 180.368335 62.1946677 180.065 61.98 179.761665 61.7653323 179.353336 61.658 178.84 61.658 178.363998 61.658 177.981335 61.7536657 177.692 61.945 177.402665 62.1363343 177.258 62.3999983 177.258 62.736 177.258 63.0533349 177.395665 63.2959992 177.671 63.464 177.946335 63.6320008 178.377997 63.7999992 178.966 63.968 179.507336 64.1173341 179.945998 64.2619993 180.282 64.402 180.618002 64.5420007 180.907332 64.747332 181.15 65.018 181.392668 65.288668 181.514 65.6386645 181.514 66.068 181.514 66.6746697 181.278336 67.1599982 180.807 67.524 180.335664 67.8880018 179.703337 68.07 178.91 68.07zM184.104 67.958C183.851999 67.958 183.644334 67.8786675 183.481 67.72 183.317666 67.5613325 183.236 67.3653345 183.236 67.132 183.236 66.9079989 183.322332 66.7143341 183.495 66.551 183.667668 66.3876659 183.870666 66.306 184.104 66.306 184.328001 66.306 184.528666 66.3876659 184.706 66.551 184.883334 66.7143341 184.972 66.9079989 184.972 67.132 184.972 67.3653345 184.888001 67.5613325 184.72 67.72 184.551999 67.8786675 184.346668 67.958 184.104 67.958zM192.448 68.112C191.81333 68.112 191.255669 67.9906679 190.775 67.748 190.294331 67.5053321 189.921001 67.1623355 189.655 66.719 189.388999 66.2756644 189.256 65.7646696 189.256 65.186L189.256 64.542C189.256 64.4206661 189.316666 64.36 189.438 64.36L190.068 64.36C190.189334 64.36 190.25 64.4206661 190.25 64.542L190.25 65.186C190.25 65.8020031 190.452998 66.2989981 190.859 66.677 191.265002 67.0550019 191.794663 67.244 192.448 67.244 193.11067 67.244 193.644998 67.0550019 194.051 66.677 194.457002 66.2989981 194.66 65.8020031 194.66 65.186L194.66 58.382C194.66 58.2606661 194.720666 58.2 194.842 58.2L195.472 58.2C195.593334 58.2 195.654 58.2606661 195.654 58.382L195.654 65.186C195.654 65.7646696 195.521001 66.2756644 195.255 66.719 194.988999 67.1623355 194.613336 67.5053321 194.128 67.748 193.642664 67.9906679 193.08267 68.112 192.448 68.112zM202.374 61.098C202.374 60.9766661 202.434666 60.916 202.556 60.916L203.186 60.916C203.307334 60.916 203.368 60.9766661 203.368 61.098L203.368 67.818C203.368 67.9393339 203.307334 68 203.186 68L202.556 68C202.434666 68 202.374 67.9393339 202.374 67.818L202.374 67.286C202.374 67.2579999 202.364667 67.2393334 202.346 67.23 202.327333 67.2206666 202.308667 67.2299999 202.29 67.258 201.888665 67.8180028 201.272671 68.098 200.442 68.098 199.993998 68.098 199.581002 68.0070009 199.203 67.825 198.824998 67.6429991 198.526334 67.3793351 198.307 67.034 198.087666 66.6886649 197.978 66.2733358 197.978 65.788L197.978 61.098C197.978 60.9766661 198.038666 60.916 198.16 60.916L198.79 60.916C198.911334 60.916 198.972 60.9766661 198.972 61.098L198.972 65.494C198.972 66.0260027 199.121332 66.4483318 199.42 66.761 199.718668 67.0736682 200.124664 67.23 200.638 67.23 201.170003 67.23 201.592332 67.0713349 201.905 66.754 202.217668 66.4366651 202.374 66.0166693 202.374 65.494L202.374 61.098zM207.918 68.07C207.395331 68.07 206.931002 67.9860008 206.525 67.818 206.118998 67.6499992 205.806334 67.4260014 205.587 67.146 205.367666 66.8659986 205.258 66.5533351 205.258 66.208L205.258 66.082C205.258 65.9606661 205.318666 65.9 205.44 65.9L206.042 65.9C206.098 65.9 206.142333 65.9116666 206.175 65.935 206.207667 65.9583334 206.224 65.9886665 206.224 66.026L206.224 66.152C206.224 66.4600015 206.382665 66.7283322 206.7 66.957 207.017335 67.1856678 207.418664 67.3 207.904 67.3 208.389336 67.3 208.781332 67.1903344 209.08 66.971 209.378668 66.7516656 209.528 66.4740017 209.528 66.138 209.528 65.9046655 209.453334 65.7133341 209.304 65.564 209.154666 65.4146659 208.972668 65.2980004 208.758 65.214 208.543332 65.1299996 208.221335 65.0226673 207.792 64.892 207.269331 64.7426659 206.840002 64.5933341 206.504 64.444 206.167998 64.2946659 205.883334 64.0870013 205.65 63.821 205.416665 63.5549987 205.3 63.2166687 205.3 62.806 205.3 62.2086637 205.535664 61.7326684 206.007 61.378 206.478336 61.0233316 207.096663 60.846 207.862 60.846 208.375336 60.846 208.830331 60.9299992 209.227 61.098 209.623669 61.2660008 209.929332 61.4969985 210.144 61.791 210.358668 62.0850015 210.466 62.4139982 210.466 62.778 210.466 62.8993339 210.405334 62.96 210.284 62.96L209.71 62.96C209.588666 62.96 209.528 62.9273337 209.528 62.862L209.528 62.778C209.528 62.4606651 209.376335 62.1946677 209.073 61.98 208.769665 61.7653323 208.361336 61.658 207.848 61.658 207.371998 61.658 206.989335 61.7536657 206.7 61.945 206.410665 62.1363343 206.266 62.3999983 206.266 62.736 206.266 63.0533349 206.403665 63.2959992 206.679 63.464 206.954335 63.6320008 207.385997 63.7999992 207.974 63.968 208.515336 64.1173341 208.953998 64.2619993 209.29 64.402 209.626002 64.5420007 209.915332 64.747332 210.158 65.018 210.400668 65.288668 210.522 65.6386645 210.522 66.068 210.522 66.6746697 210.286336 67.1599982 209.815 67.524 209.343664 67.8880018 208.711337 68.07 207.918 68.07zM215.506 61.56C215.506 61.6813339 215.445334 61.742 215.324 61.742L213.798 61.742C213.751333 61.742 213.728 61.7653331 213.728 61.812L213.728 65.9C213.728 66.3480022 213.828332 66.6629991 214.029 66.845 214.229668 67.0270009 214.544665 67.118 214.974 67.118L215.282 67.118C215.403334 67.118 215.464 67.1786661 215.464 67.3L215.464 67.79C215.464 67.9113339 215.403334 67.9766666 215.282 67.986L214.806 67.986C214.133997 67.986 213.625335 67.8600013 213.28 67.608 212.934665 67.3559987 212.762 66.8893367 212.762 66.208L212.762 61.812C212.762 61.7653331 212.738667 61.742 212.692 61.742L211.894 61.742C211.772666 61.742 211.712 61.6813339 211.712 61.56L211.712 61.098C211.712 60.9766661 211.772666 60.916 211.894 60.916L212.692 60.916C212.738667 60.916 212.762 60.8926669 212.762 60.846L212.762 59.278C212.762 59.1566661 212.822666 59.096 212.944 59.096L213.546 59.096C213.667334 59.096 213.728 59.1566661 213.728 59.278L213.728 60.846C213.728 60.8926669 213.751333 60.916 213.798 60.916L215.324 60.916C215.445334 60.916 215.506 60.9766661 215.506 61.098L215.506 61.56zM27.794 85.112C27.1219966 85.112 26.5456691 84.9370018 26.065 84.587 25.5843309 84.2369982 25.2553342 83.7633363 25.078 83.166 24.9566661 82.7553313 24.896 82.1766704 24.896 81.43 24.896 80.7579966 24.9566661 80.188669 25.078 79.722 25.2460008 79.1433304 25.5726642 78.6790017 26.058 78.329 26.5433358 77.9789983 27.1219966 77.804 27.794 77.804 28.4753367 77.804 29.0656642 77.9766649 29.565 78.322 30.0643358 78.6673351 30.3886659 79.0966641 30.538 79.61 30.5753335 79.7406673 30.6033332 79.8666661 30.622 79.988L30.622 80.016C30.622 80.1186672 30.5660006 80.1793332 30.454 80.198L29.838 80.268 29.796 80.268C29.7119996 80.268 29.6560001 80.2166672 29.628 80.114 29.628 80.0766665 29.6186668 80.020667 29.6 79.946 29.5159996 79.5913316 29.3106683 79.2903346 28.984 79.043 28.6573317 78.7956654 28.260669 78.672 27.794 78.672 27.327331 78.672 26.9376682 78.7956654 26.625 79.043 26.3123318 79.2903346 26.1093338 79.6193313 26.016 80.03 25.9319996 80.3846684 25.89 80.8559971 25.89 81.444 25.89 82.0600031 25.9319996 82.5359983 26.016 82.872 26.1093338 83.2920021 26.3123318 83.6256654 26.625 83.873 26.9376682 84.1203346 27.327331 84.244 27.794 84.244 28.2513356 84.244 28.645665 84.1250012 28.977 83.887 29.308335 83.6489988 29.511333 83.3480018 29.586 82.984 29.5953334 82.9653332 29.6 82.9420001 29.6 82.914L29.614 82.9C29.6233334 82.7786661 29.6933327 82.7273332 29.824 82.746L30.426 82.844C30.5473339 82.8626668 30.6033334 82.9326661 30.594 83.054L30.538 83.292C30.3979993 83.833336 30.0760025 84.2719983 29.572 84.608 29.0679975 84.9440017 28.4753367 85.112 27.794 85.112zM32.582 85C32.4606661 85 32.4 84.9393339 32.4 84.818L32.4 75.382C32.4 75.2606661 32.4606661 75.2 32.582 75.2L33.212 75.2C33.3333339 75.2 33.394 75.2606661 33.394 75.382L33.394 84.818C33.394 84.9393339 33.3333339 85 33.212 85L32.582 85zM38.364 85.112C37.6826633 85.112 37.1016691 84.9393351 36.621 84.594 36.1403309 84.2486649 35.8066676 83.7726697 35.62 83.166 35.4893327 82.7366645 35.424 82.1626703 35.424 81.444 35.424 80.7346631 35.4846661 80.1653355 35.606 79.736 35.7926676 79.1386637 36.1263309 78.6673351 36.607 78.322 37.0876691 77.9766649 37.6733299 77.804 38.364 77.804 39.0360034 77.804 39.6123309 77.9766649 40.093 78.322 40.5736691 78.6673351 40.9026658 79.1339971 41.08 79.722 41.2106673 80.1700022 41.276 80.7439965 41.276 81.444 41.276 82.1626703 41.2106673 82.7366645 41.08 83.166 40.8933324 83.7726697 40.5596691 84.2486649 40.079 84.594 39.5983309 84.9393351 39.02667 85.112 38.364 85.112zM38.364 84.244C38.8120022 84.244 39.1946651 84.1203346 39.512 83.873 39.8293349 83.6256654 40.0439994 83.2920021 40.156 82.872 40.230667 82.5733318 40.268 82.1020032 40.268 81.458 40.268 80.7859966 40.230667 80.314668 40.156 80.044 40.0533328 79.6239979 39.8410016 79.2903346 39.519 79.043 39.1969984 78.7956654 38.802669 78.672 38.336 78.672 37.8879978 78.672 37.5053349 78.7956654 37.188 79.043 36.8706651 79.2903346 36.6560006 79.6239979 36.544 80.044 36.469333 80.314668 36.432 80.7859966 36.432 81.458 36.432 82.1300034 36.469333 82.601332 36.544 82.872 36.6466672 83.2920021 36.8589984 83.6256654 37.181 83.873 37.5030016 84.1203346 37.897331 84.244 38.364 84.244zM45.616 85.07C45.0933307 85.07 44.629002 84.9860008 44.223 84.818 43.816998 84.6499992 43.5043344 84.4260014 43.285 84.146 43.0656656 83.8659986 42.956 83.5533351 42.956 83.208L42.956 83.082C42.956 82.9606661 43.0166661 82.9 43.138 82.9L43.74 82.9C43.7960003 82.9 43.8403332 82.9116666 43.873 82.935 43.9056668 82.9583334 43.922 82.9886665 43.922 83.026L43.922 83.152C43.922 83.4600015 44.0806651 83.7283322 44.398 83.957 44.7153349 84.1856678 45.1166642 84.3 45.602 84.3 46.0873358 84.3 46.4793318 84.1903344 46.778 83.971 47.0766682 83.7516656 47.226 83.4740017 47.226 83.138 47.226 82.9046655 47.1513341 82.7133341 47.002 82.564 46.8526659 82.4146659 46.6706677 82.2980004 46.456 82.214 46.2413323 82.1299996 45.9193355 82.0226673 45.49 81.892 44.9673307 81.7426659 44.5380017 81.5933341 44.202 81.444 43.8659983 81.2946659 43.5813345 81.0870013 43.348 80.821 43.1146655 80.5549987 42.998 80.2166687 42.998 79.806 42.998 79.2086637 43.2336643 78.7326684 43.705 78.378 44.1763357 78.0233316 44.7946628 77.846 45.56 77.846 46.0733359 77.846 46.5283314 77.9299992 46.925 78.098 47.3216686 78.2660008 47.6273323 78.4969985 47.842 78.791 48.0566677 79.0850015 48.164 79.4139982 48.164 79.778 48.164 79.8993339 48.1033339 79.96 47.982 79.96L47.408 79.96C47.2866661 79.96 47.226 79.9273337 47.226 79.862L47.226 79.778C47.226 79.4606651 47.0743348 79.1946677 46.771 78.98 46.4676652 78.7653323 46.0593359 78.658 45.546 78.658 45.0699976 78.658 44.6873348 78.7536657 44.398 78.945 44.1086652 79.1363343 43.964 79.3999983 43.964 79.736 43.964 80.0533349 44.1016653 80.2959992 44.377 80.464 44.6523347 80.6320008 45.0839971 80.7999992 45.672 80.968 46.213336 81.1173341 46.6519983 81.2619993 46.988 81.402 47.3240017 81.5420007 47.6133321 81.747332 47.856 82.018 48.0986679 82.288668 48.22 82.6386645 48.22 83.068 48.22 83.6746697 47.9843357 84.1599982 47.513 84.524 47.0416643 84.8880018 46.4093373 85.07 45.616 85.07zM52.798 84.258C53.2180021 84.2486666 53.5796652 84.1530009 53.883 83.971 54.1863349 83.7889991 54.4219992 83.5346683 54.59 83.208 54.6086668 83.1613331 54.6413331 83.1286668 54.688 83.11 54.7346669 83.0913332 54.7813331 83.0959999 54.828 83.124L55.234 83.348C55.3460006 83.4133337 55.3740003 83.4926662 55.318 83.586 55.0939989 84.052669 54.7580022 84.4236653 54.31 84.699 53.8619978 84.9743347 53.3300031 85.112 52.714 85.112 52.0606634 85.112 51.5100022 84.9580015 51.062 84.65 50.6139978 84.3419985 50.292001 83.9126694 50.096 83.362 49.9186658 82.895331 49.83 82.2513374 49.83 81.43 49.83 81.0286647 49.8369999 80.7090012 49.851 80.471 49.8650001 80.2329988 49.8999997 80.0113344 49.956 79.806 50.1146675 79.1993303 50.4343309 78.7140018 50.915 78.35 51.3956691 77.9859982 51.9766633 77.804 52.658 77.804 53.4700041 77.804 54.1069977 78.0139979 54.569 78.434 55.0310023 78.8540021 55.3273327 79.4466628 55.458 80.212 55.5140003 80.5106682 55.542 80.9773302 55.542 81.612 55.542 81.7333339 55.4813339 81.794 55.36 81.794L50.88 81.794C50.8333331 81.794 50.81 81.8173331 50.81 81.864 50.81 82.330669 50.8379997 82.6713323 50.894 82.886 50.9966672 83.3060021 51.213665 83.6396654 51.545 83.887 51.876335 84.1343346 52.2939975 84.258 52.798 84.258zM52.658 78.672C52.191331 78.672 51.8086682 78.7909988 51.51 79.029 51.2113318 79.2670012 51.0153338 79.5866647 50.922 79.988 50.8659997 80.1746676 50.8286668 80.4919978 50.81 80.94 50.81 80.9866669 50.8333331 81.01 50.88 81.01L54.478 81.01C54.5246669 81.01 54.548 80.9866669 54.548 80.94 54.5293332 80.5293313 54.5013335 80.2306676 54.464 80.044 54.3613328 79.6239979 54.1536682 79.2903346 53.841 79.043 53.5283318 78.7956654 53.1340024 78.672 52.658 78.672zM63.494 78.56C63.494 78.6813339 63.4333339 78.742 63.312 78.742L61.786 78.742C61.7393331 78.742 61.716 78.7653331 61.716 78.812L61.716 82.9C61.716 83.3480022 61.8163323 83.6629991 62.017 83.845 62.2176677 84.0270009 62.5326645 84.118 62.962 84.118L63.27 84.118C63.3913339 84.118 63.452 84.1786661 63.452 84.3L63.452 84.79C63.452 84.9113339 63.3913339 84.9766666 63.27 84.986L62.794 84.986C62.1219966 84.986 61.6133351 84.8600013 61.268 84.608 60.9226649 84.3559987 60.75 83.8893367 60.75 83.208L60.75 78.812C60.75 78.7653331 60.7266669 78.742 60.68 78.742L59.882 78.742C59.7606661 78.742 59.7 78.6813339 59.7 78.56L59.7 78.098C59.7 77.9766661 59.7606661 77.916 59.882 77.916L60.68 77.916C60.7266669 77.916 60.75 77.8926669 60.75 77.846L60.75 76.278C60.75 76.1566661 60.8106661 76.096 60.932 76.096L61.534 76.096C61.6553339 76.096 61.716 76.1566661 61.716 76.278L61.716 77.846C61.716 77.8926669 61.7393331 77.916 61.786 77.916L63.312 77.916C63.4333339 77.916 63.494 77.9766661 63.494 78.098L63.494 78.56zM68.352 77.818C69.089337 77.818 69.6796645 78.0373311 70.123 78.476 70.5663356 78.9146689 70.788 79.502663 70.788 80.24L70.788 84.818C70.788 84.9393339 70.7273339 85 70.606 85L69.976 85C69.8546661 85 69.794 84.9393339 69.794 84.818L69.794 80.436C69.794 79.9133307 69.6400015 79.4910016 69.332 79.169 69.0239985 78.8469984 68.6226691 78.686 68.128 78.686 67.6519976 78.686 67.2576682 78.821332 66.945 79.092 66.6323318 79.362668 66.4526669 79.7173311 66.406 80.156L66.406 84.818C66.406 84.9393339 66.3453339 85 66.224 85L65.594 85C65.4726661 85 65.412 84.9393339 65.412 84.818L65.412 75.382C65.412 75.2606661 65.4726661 75.2 65.594 75.2L66.224 75.2C66.3453339 75.2 66.406 75.2606661 66.406 75.382L66.406 78.616C66.406 78.6440001 66.4153332 78.6649999 66.434 78.679 66.4526668 78.6930001 66.4666666 78.6860001 66.476 78.658 66.8866687 78.0979972 67.5119958 77.818 68.352 77.818zM75.716 84.258C76.1360021 84.2486666 76.4976652 84.1530009 76.801 83.971 77.1043349 83.7889991 77.3399992 83.5346683 77.508 83.208 77.5266668 83.1613331 77.5593331 83.1286668 77.606 83.11 77.6526669 83.0913332 77.6993331 83.0959999 77.746 83.124L78.152 83.348C78.2640006 83.4133337 78.2920003 83.4926662 78.236 83.586 78.0119989 84.052669 77.6760022 84.4236653 77.228 84.699 76.7799978 84.9743347 76.2480031 85.112 75.632 85.112 74.9786634 85.112 74.4280022 84.9580015 73.98 84.65 73.5319978 84.3419985 73.210001 83.9126694 73.014 83.362 72.8366658 82.895331 72.748 82.2513374 72.748 81.43 72.748 81.0286647 72.7549999 80.7090012 72.769 80.471 72.7830001 80.2329988 72.8179997 80.0113344 72.874 79.806 73.0326675 79.1993303 73.3523309 78.7140018 73.833 78.35 74.3136691 77.9859982 74.8946633 77.804 75.576 77.804 76.3880041 77.804 77.0249977 78.0139979 77.487 78.434 77.9490023 78.8540021 78.2453327 79.4466628 78.376 80.212 78.4320003 80.5106682 78.46 80.9773302 78.46 81.612 78.46 81.7333339 78.3993339 81.794 78.278 81.794L73.798 81.794C73.7513331 81.794 73.728 81.8173331 73.728 81.864 73.728 82.330669 73.7559997 82.6713323 73.812 82.886 73.9146672 83.3060021 74.131665 83.6396654 74.463 83.887 74.794335 84.1343346 75.2119975 84.258 75.716 84.258zM75.576 78.672C75.109331 78.672 74.7266682 78.7909988 74.428 79.029 74.1293318 79.2670012 73.9333338 79.5866647 73.84 79.988 73.7839997 80.1746676 73.7466668 80.4919978 73.728 80.94 73.728 80.9866669 73.7513331 81.01 73.798 81.01L77.396 81.01C77.4426669 81.01 77.466 80.9866669 77.466 80.94 77.4473332 80.5293313 77.4193335 80.2306676 77.382 80.044 77.2793328 79.6239979 77.0716682 79.2903346 76.759 79.043 76.4463318 78.7956654 76.0520024 78.672 75.576 78.672zM86.412 78.56C86.412 78.6813339 86.3513339 78.742 86.23 78.742L84.704 78.742C84.6573331 78.742 84.634 78.7653331 84.634 78.812L84.634 82.9C84.634 83.3480022 84.7343323 83.6629991 84.935 83.845 85.1356677 84.0270009 85.4506645 84.118 85.88 84.118L86.188 84.118C86.3093339 84.118 86.37 84.1786661 86.37 84.3L86.37 84.79C86.37 84.9113339 86.3093339 84.9766666 86.188 84.986L85.712 84.986C85.0399966 84.986 84.5313351 84.8600013 84.186 84.608 83.8406649 84.3559987 83.668 83.8893367 83.668 83.208L83.668 78.812C83.668 78.7653331 83.6446669 78.742 83.598 78.742L82.8 78.742C82.6786661 78.742 82.618 78.6813339 82.618 78.56L82.618 78.098C82.618 77.9766661 82.6786661 77.916 82.8 77.916L83.598 77.916C83.6446669 77.916 83.668 77.8926669 83.668 77.846L83.668 76.278C83.668 76.1566661 83.7286661 76.096 83.85 76.096L84.452 76.096C84.5733339 76.096 84.634 76.1566661 84.634 76.278L84.634 77.846C84.634 77.8926669 84.6573331 77.916 84.704 77.916L86.23 77.916C86.3513339 77.916 86.412 77.9766661 86.412 78.098L86.412 78.56zM90.836 85.112C90.1546633 85.112 89.5736691 84.9393351 89.093 84.594 88.6123309 84.2486649 88.2786676 83.7726697 88.092 83.166 87.9613327 82.7366645 87.896 82.1626703 87.896 81.444 87.896 80.7346631 87.9566661 80.1653355 88.078 79.736 88.2646676 79.1386637 88.5983309 78.6673351 89.079 78.322 89.5596691 77.9766649 90.1453299 77.804 90.836 77.804 91.5080034 77.804 92.0843309 77.9766649 92.565 78.322 93.0456691 78.6673351 93.3746658 79.1339971 93.552 79.722 93.6826673 80.1700022 93.748 80.7439965 93.748 81.444 93.748 82.1626703 93.6826673 82.7366645 93.552 83.166 93.3653324 83.7726697 93.0316691 84.2486649 92.551 84.594 92.0703309 84.9393351 91.49867 85.112 90.836 85.112zM90.836 84.244C91.2840022 84.244 91.6666651 84.1203346 91.984 83.873 92.3013349 83.6256654 92.5159994 83.2920021 92.628 82.872 92.702667 82.5733318 92.74 82.1020032 92.74 81.458 92.74 80.7859966 92.702667 80.314668 92.628 80.044 92.5253328 79.6239979 92.3130016 79.2903346 91.991 79.043 91.6689984 78.7956654 91.274669 78.672 90.808 78.672 90.3599978 78.672 89.9773349 78.7956654 89.66 79.043 89.3426651 79.2903346 89.1280006 79.6239979 89.016 80.044 88.941333 80.314668 88.904 80.7859966 88.904 81.458 88.904 82.1300034 88.941333 82.601332 89.016 82.872 89.1186672 83.2920021 89.3309984 83.6256654 89.653 83.873 89.9750016 84.1203346 90.369331 84.244 90.836 84.244zM100.048 78.098C100.048 77.9766661 100.108666 77.916 100.23 77.916L100.86 77.916C100.981334 77.916 101.042 77.9766661 101.042 78.098L101.042 84.818C101.042 84.9393339 100.981334 85 100.86 85L100.23 85C100.108666 85 100.048 84.9393339 100.048 84.818L100.048 84.286C100.048 84.2579999 100.038667 84.2393334 100.02 84.23 100.001333 84.2206666 99.9826668 84.2299999 99.964 84.258 99.5626647 84.8180028 98.9466708 85.098 98.116 85.098 97.6679978 85.098 97.2550019 85.0070009 96.877 84.825 96.4989981 84.6429991 96.2003344 84.3793351 95.981 84.034 95.7616656 83.6886649 95.652 83.2733358 95.652 82.788L95.652 78.098C95.652 77.9766661 95.7126661 77.916 95.834 77.916L96.464 77.916C96.5853339 77.916 96.646 77.9766661 96.646 78.098L96.646 82.494C96.646 83.0260027 96.7953318 83.4483318 97.094 83.761 97.3926682 84.0736682 97.7986641 84.23 98.312 84.23 98.8440027 84.23 99.2663318 84.0713349 99.579 83.754 99.8916682 83.4366651 100.048 83.0166693 100.048 82.494L100.048 78.098zM106.124 77.846C106.432002 77.846 106.688666 77.9019994 106.894 78.014 106.987334 78.0513335 107.02 78.1259994 106.992 78.238L106.852 78.854C106.824 78.9660006 106.749334 79.0033335 106.628 78.966 106.450666 78.9099997 106.222001 78.8866666 105.942 78.896 105.456664 78.9146668 105.055335 79.0943316 104.738 79.435 104.420665 79.7756684 104.262 80.2073307 104.262 80.73L104.262 84.818C104.262 84.9393339 104.201334 85 104.08 85L103.45 85C103.328666 85 103.268 84.9393339 103.268 84.818L103.268 78.098C103.268 77.9766661 103.328666 77.916 103.45 77.916L104.08 77.916C104.201334 77.916 104.262 77.9766661 104.262 78.098L104.262 78.882C104.262 78.9193335 104.269 78.9403333 104.283 78.945 104.297 78.9496667 104.313333 78.9380001 104.332 78.91 104.528001 78.5739983 104.777665 78.3126676 105.081 78.126 105.384335 77.9393324 105.731998 77.846 106.124 77.846zM118.36 84.776C118.388 84.8133335 118.402 84.8506665 118.402 84.888 118.402 84.962667 118.350667 85 118.248 85L117.548 85C117.454666 85 117.38 84.9673337 117.324 84.902L116.526 83.978C116.498 83.9406665 116.465334 83.9359999 116.428 83.964 115.989331 84.3653353 115.541336 84.6569991 115.084 84.839 114.626664 85.0210009 114.127336 85.112 113.586 85.112 112.764663 85.112 112.102003 84.9183353 111.598 84.531 111.093997 84.1436647 110.842 83.581337 110.842 82.844 110.842 82.1999968 111.023998 81.6470023 111.388 81.185 111.752002 80.7229977 112.260663 80.2773355 112.914 79.848 112.951334 79.8106665 112.956 79.7780001 112.928 79.75 112.386664 79.08733 112.027334 78.5926683 111.85 78.266 111.672666 77.9393317 111.584 77.6126683 111.584 77.286 111.584 76.62333 111.798665 76.0913353 112.228 75.69 112.657335 75.2886647 113.226663 75.088 113.936 75.088 114.65467 75.088 115.240331 75.283998 115.693 75.676 116.145669 76.068002 116.372 76.5859968 116.372 77.23 116.372 77.7993362 116.197002 78.2893313 115.847 78.7 115.496998 79.1106687 115.00467 79.5259979 114.37 79.946 114.342 79.9740001 114.337333 80.0066665 114.356 80.044L115.994 81.962 116.456 82.522C116.493334 82.5593335 116.526 82.5593335 116.554 82.522 116.852668 82.1673316 117.151332 81.7800021 117.45 81.36 117.515334 81.2666662 117.599333 81.2479997 117.702 81.304L118.15 81.57C118.215334 81.6073335 118.248 81.6539997 118.248 81.71 118.248 81.7380001 118.234 81.7753331 118.206 81.822 117.729998 82.4940034 117.370668 82.9699986 117.128 83.25L117.114 83.278C117.114 83.3153335 117.142 83.3619997 117.198 83.418L117.8 84.132 118.36 84.776zM113.964 76.012C113.543998 76.012 113.208001 76.1263322 112.956 76.355 112.703999 76.5836678 112.578 76.893998 112.578 77.286 112.578 77.5100011 112.647999 77.7479987 112.788 78 112.928001 78.2520013 113.231331 78.6626638 113.698 79.232 113.726 79.2693335 113.758666 79.2740001 113.796 79.246 114.309336 78.8913316 114.701332 78.5623348 114.972 78.259 115.242668 77.9556652 115.378 77.6126686 115.378 77.23 115.378 76.8659982 115.247335 76.5720011 114.986 76.348 114.724665 76.1239989 114.384002 76.012 113.964 76.012zM113.614 84.258C114.024669 84.258 114.407332 84.1786675 114.762 84.02 115.116668 83.8613325 115.475998 83.6140017 115.84 83.278 115.877334 83.2499999 115.882 83.2173335 115.854 83.18L115.238 82.466C115.051332 82.2419989 114.897334 82.0646673 114.776 81.934 114.16933 81.2339965 113.772668 80.7720011 113.586 80.548 113.558 80.5106665 113.525334 80.5059999 113.488 80.534 112.955997 80.9166686 112.547668 81.2829982 112.263 81.633 111.978332 81.9830017 111.836 82.3819978 111.836 82.83 111.836 83.2780022 111.996998 83.6279987 112.319 83.88 112.641002 84.1320013 113.072664 84.258 113.614 84.258zM126.172 77.818C126.909337 77.818 127.499664 78.0373311 127.943 78.476 128.386336 78.9146689 128.608 79.502663 128.608 80.24L128.608 84.818C128.608 84.9393339 128.547334 85 128.426 85L127.796 85C127.674666 85 127.614 84.9393339 127.614 84.818L127.614 80.436C127.614 79.9133307 127.460002 79.4910016 127.152 79.169 126.843998 78.8469984 126.442669 78.686 125.948 78.686 125.471998 78.686 125.077668 78.821332 124.765 79.092 124.452332 79.362668 124.272667 79.7173311 124.226 80.156L124.226 84.818C124.226 84.9393339 124.165334 85 124.044 85L123.414 85C123.292666 85 123.232 84.9393339 123.232 84.818L123.232 75.382C123.232 75.2606661 123.292666 75.2 123.414 75.2L124.044 75.2C124.165334 75.2 124.226 75.2606661 124.226 75.382L124.226 78.616C124.226 78.6440001 124.235333 78.6649999 124.254 78.679 124.272667 78.6930001 124.286667 78.6860001 124.296 78.658 124.706669 78.0979972 125.331996 77.818 126.172 77.818zM133.228 77.804C134.068004 77.804 134.718998 78.0186645 135.181 78.448 135.643002 78.8773355 135.874 79.4466631 135.874 80.156L135.874 84.818C135.874 84.9393339 135.813334 85 135.692 85L135.062 85C134.940666 85 134.88 84.9393339 134.88 84.818L134.88 84.314C134.88 84.2859999 134.870667 84.2673334 134.852 84.258 134.833333 84.2486666 134.814667 84.2579999 134.796 84.286 134.543999 84.556668 134.229002 84.7619993 133.851 84.902 133.472998 85.0420007 133.060002 85.112 132.612 85.112 131.958663 85.112 131.410336 84.9440017 130.967 84.608 130.523664 84.2719983 130.302 83.7586701 130.302 83.068 130.302 82.3679965 130.556331 81.815002 131.065 81.409 131.573669 81.002998 132.280662 80.8 133.186 80.8L134.81 80.8C134.856667 80.8 134.88 80.7766669 134.88 80.73L134.88 80.212C134.88 79.7359976 134.747001 79.3603347 134.481 79.085 134.214999 78.8096653 133.802003 78.672 133.242 78.672 132.803331 78.672 132.444001 78.7559992 132.164 78.924 131.883999 79.0920008 131.706667 79.3253318 131.632 79.624 131.604 79.7360006 131.534001 79.7826668 131.422 79.764L130.736 79.68C130.614666 79.6613332 130.558667 79.6100004 130.568 79.526 130.661334 79.0126641 130.948331 78.5973349 131.429 78.28 131.909669 77.9626651 132.50933 77.804 133.228 77.804zM132.836 84.258C133.386669 84.258 133.864998 84.1203347 134.271 83.845 134.677002 83.5696653 134.88 83.198669 134.88 82.732L134.88 81.654C134.88 81.6073331 134.856667 81.584 134.81 81.584L133.34 81.584C132.723997 81.584 132.229335 81.7099987 131.856 81.962 131.482665 82.2140013 131.296 82.5639978 131.296 83.012 131.296 83.4226687 131.440665 83.7329989 131.73 83.943 132.019335 84.1530011 132.387998 84.258 132.836 84.258zM143.434 79.68C143.564667 80.1000021 143.63 80.6926628 143.63 81.458 143.63 82.2326705 143.574001 82.8113314 143.462 83.194 143.293999 83.7913363 142.986002 84.2603316 142.538 84.601 142.089998 84.9416684 141.53467 85.112 140.872 85.112 140.507998 85.112 140.172002 85.0396674 139.864 84.895 139.555998 84.7503326 139.299334 84.542668 139.094 84.272 139.075333 84.2439999 139.056667 84.2346666 139.038 84.244 139.019333 84.2533334 139.01 84.2719999 139.01 84.3L139.01 87.534C139.01 87.6553339 138.949334 87.716 138.828 87.716L138.198 87.716C138.076666 87.716 138.016 87.6553339 138.016 87.534L138.016 78.098C138.016 77.9766661 138.076666 77.916 138.198 77.916L138.828 77.916C138.949334 77.916 139.01 77.9766661 139.01 78.098L139.01 78.63C139.01 78.6580001 139.019333 78.6743333 139.038 78.679 139.056667 78.6836667 139.075333 78.6766668 139.094 78.658 139.299334 78.387332 139.553665 78.1773341 139.857 78.028 140.160335 77.8786659 140.498665 77.804 140.872 77.804 141.525337 77.804 142.073664 77.9719983 142.517 78.308 142.960336 78.6440017 143.265999 79.1013304 143.434 79.68zM142.314 83.222C142.426001 83.0166656 142.507666 82.785668 142.559 82.529 142.610334 82.2723321 142.636 81.9153356 142.636 81.458 142.636 81.0193311 142.617334 80.6763346 142.58 80.429 142.542666 80.1816654 142.477334 79.960001 142.384 79.764 142.271999 79.4279983 142.073668 79.162001 141.789 78.966 141.504332 78.769999 141.166002 78.672 140.774 78.672 140.400665 78.672 140.088001 78.769999 139.836 78.966 139.583999 79.162001 139.397334 79.4233317 139.276 79.75 139.192 79.9366676 139.131334 80.1559987 139.094 80.408 139.056666 80.6600013 139.038 81.0099978 139.038 81.458 139.038 81.9060022 139.056666 82.2583321 139.094 82.515 139.131334 82.7716679 139.196666 82.997999 139.29 83.194 139.402001 83.5113349 139.586332 83.7656657 139.843 83.957 140.099668 84.1483343 140.405332 84.244 140.76 84.244 141.133335 84.244 141.455332 84.1506676 141.726 83.964 141.996668 83.7773324 142.192666 83.5300015 142.314 83.222zM151.106 79.68C151.236667 80.1000021 151.302 80.6926628 151.302 81.458 151.302 82.2326705 151.246001 82.8113314 151.134 83.194 150.965999 83.7913363 150.658002 84.2603316 150.21 84.601 149.761998 84.9416684 149.20667 85.112 148.544 85.112 148.179998 85.112 147.844002 85.0396674 147.536 84.895 147.227998 84.7503326 146.971334 84.542668 146.766 84.272 146.747333 84.2439999 146.728667 84.2346666 146.71 84.244 146.691333 84.2533334 146.682 84.2719999 146.682 84.3L146.682 87.534C146.682 87.6553339 146.621334 87.716 146.5 87.716L145.87 87.716C145.748666 87.716 145.688 87.6553339 145.688 87.534L145.688 78.098C145.688 77.9766661 145.748666 77.916 145.87 77.916L146.5 77.916C146.621334 77.916 146.682 77.9766661 146.682 78.098L146.682 78.63C146.682 78.6580001 146.691333 78.6743333 146.71 78.679 146.728667 78.6836667 146.747333 78.6766668 146.766 78.658 146.971334 78.387332 147.225665 78.1773341 147.529 78.028 147.832335 77.8786659 148.170665 77.804 148.544 77.804 149.197337 77.804 149.745664 77.9719983 150.189 78.308 150.632336 78.6440017 150.937999 79.1013304 151.106 79.68zM149.986 83.222C150.098001 83.0166656 150.179666 82.785668 150.231 82.529 150.282334 82.2723321 150.308 81.9153356 150.308 81.458 150.308 81.0193311 150.289334 80.6763346 150.252 80.429 150.214666 80.1816654 150.149334 79.960001 150.056 79.764 149.943999 79.4279983 149.745668 79.162001 149.461 78.966 149.176332 78.769999 148.838002 78.672 148.446 78.672 148.072665 78.672 147.760001 78.769999 147.508 78.966 147.255999 79.162001 147.069334 79.4233317 146.948 79.75 146.864 79.9366676 146.803334 80.1559987 146.766 80.408 146.728666 80.6600013 146.71 81.0099978 146.71 81.458 146.71 81.9060022 146.728666 82.2583321 146.766 82.515 146.803334 82.7716679 146.868666 82.997999 146.962 83.194 147.074001 83.5113349 147.258332 83.7656657 147.515 83.957 147.771668 84.1483343 148.077332 84.244 148.432 84.244 148.805335 84.244 149.127332 84.1506676 149.398 83.964 149.668668 83.7773324 149.864666 83.5300015 149.986 83.222zM152.87 87.8C152.804666 87.8 152.772 87.7393339 152.772 87.618L152.772 87.128C152.772 87.0066661 152.804666 86.946 152.87 86.946L152.968 86.946C153.332002 86.946 153.614332 86.8946672 153.815 86.792 154.015668 86.6893328 154.188333 86.5073346 154.333 86.246 154.477667 85.9846654 154.633999 85.583336 154.802 85.042 154.811333 85.0233332 154.811333 84.9953335 154.802 84.958L152.45 78.126C152.440667 78.1073332 152.436 78.0840001 152.436 78.056 152.436 78.0186665 152.452333 77.9860001 152.485 77.958 152.517667 77.9299999 152.557333 77.916 152.604 77.916L153.262 77.916C153.374001 77.916 153.444 77.9673328 153.472 78.07L155.278 83.558C155.287333 83.5953335 155.301333 83.614 155.32 83.614 155.338667 83.614 155.352667 83.5953335 155.362 83.558L157.126 78.07C157.154 77.9673328 157.219333 77.916 157.322 77.916L157.994 77.916C158.059334 77.916 158.106 77.9346665 158.134 77.972 158.162 78.0093335 158.166667 78.0606663 158.148 78.126L155.572 85.616C155.347999 86.2413365 155.138001 86.7033318 154.942 87.002 154.745999 87.3006682 154.501001 87.5083327 154.207 87.625 153.912999 87.7416673 153.500003 87.8 152.968 87.8L152.87 87.8zM165.624 78.56C165.624 78.6813339 165.563334 78.742 165.442 78.742L163.916 78.742C163.869333 78.742 163.846 78.7653331 163.846 78.812L163.846 82.9C163.846 83.3480022 163.946332 83.6629991 164.147 83.845 164.347668 84.0270009 164.662665 84.118 165.092 84.118L165.4 84.118C165.521334 84.118 165.582 84.1786661 165.582 84.3L165.582 84.79C165.582 84.9113339 165.521334 84.9766666 165.4 84.986L164.924 84.986C164.251997 84.986 163.743335 84.8600013 163.398 84.608 163.052665 84.3559987 162.88 83.8893367 162.88 83.208L162.88 78.812C162.88 78.7653331 162.856667 78.742 162.81 78.742L162.012 78.742C161.890666 78.742 161.83 78.6813339 161.83 78.56L161.83 78.098C161.83 77.9766661 161.890666 77.916 162.012 77.916L162.81 77.916C162.856667 77.916 162.88 77.8926669 162.88 77.846L162.88 76.278C162.88 76.1566661 162.940666 76.096 163.062 76.096L163.664 76.096C163.785334 76.096 163.846 76.1566661 163.846 76.278L163.846 77.846C163.846 77.8926669 163.869333 77.916 163.916 77.916L165.442 77.916C165.563334 77.916 165.624 77.9766661 165.624 78.098L165.624 78.56zM170.09 84.258C170.510002 84.2486666 170.871665 84.1530009 171.175 83.971 171.478335 83.7889991 171.713999 83.5346683 171.882 83.208 171.900667 83.1613331 171.933333 83.1286668 171.98 83.11 172.026667 83.0913332 172.073333 83.0959999 172.12 83.124L172.526 83.348C172.638001 83.4133337 172.666 83.4926662 172.61 83.586 172.385999 84.052669 172.050002 84.4236653 171.602 84.699 171.153998 84.9743347 170.622003 85.112 170.006 85.112 169.352663 85.112 168.802002 84.9580015 168.354 84.65 167.905998 84.3419985 167.584001 83.9126694 167.388 83.362 167.210666 82.895331 167.122 82.2513374 167.122 81.43 167.122 81.0286647 167.129 80.7090012 167.143 80.471 167.157 80.2329988 167.192 80.0113344 167.248 79.806 167.406667 79.1993303 167.726331 78.7140018 168.207 78.35 168.687669 77.9859982 169.268663 77.804 169.95 77.804 170.762004 77.804 171.398998 78.0139979 171.861 78.434 172.323002 78.8540021 172.619333 79.4466628 172.75 80.212 172.806 80.5106682 172.834 80.9773302 172.834 81.612 172.834 81.7333339 172.773334 81.794 172.652 81.794L168.172 81.794C168.125333 81.794 168.102 81.8173331 168.102 81.864 168.102 82.330669 168.13 82.6713323 168.186 82.886 168.288667 83.3060021 168.505665 83.6396654 168.837 83.887 169.168335 84.1343346 169.585997 84.258 170.09 84.258zM169.95 78.672C169.483331 78.672 169.100668 78.7909988 168.802 79.029 168.503332 79.2670012 168.307334 79.5866647 168.214 79.988 168.158 80.1746676 168.120667 80.4919978 168.102 80.94 168.102 80.9866669 168.125333 81.01 168.172 81.01L171.77 81.01C171.816667 81.01 171.84 80.9866669 171.84 80.94 171.821333 80.5293313 171.793334 80.2306676 171.756 80.044 171.653333 79.6239979 171.445668 79.2903346 171.133 79.043 170.820332 78.7956654 170.426002 78.672 169.95 78.672zM177.132 85.07C176.609331 85.07 176.145002 84.9860008 175.739 84.818 175.332998 84.6499992 175.020334 84.4260014 174.801 84.146 174.581666 83.8659986 174.472 83.5533351 174.472 83.208L174.472 83.082C174.472 82.9606661 174.532666 82.9 174.654 82.9L175.256 82.9C175.312 82.9 175.356333 82.9116666 175.389 82.935 175.421667 82.9583334 175.438 82.9886665 175.438 83.026L175.438 83.152C175.438 83.4600015 175.596665 83.7283322 175.914 83.957 176.231335 84.1856678 176.632664 84.3 177.118 84.3 177.603336 84.3 177.995332 84.1903344 178.294 83.971 178.592668 83.7516656 178.742 83.4740017 178.742 83.138 178.742 82.9046655 178.667334 82.7133341 178.518 82.564 178.368666 82.4146659 178.186668 82.2980004 177.972 82.214 177.757332 82.1299996 177.435335 82.0226673 177.006 81.892 176.483331 81.7426659 176.054002 81.5933341 175.718 81.444 175.381998 81.2946659 175.097334 81.0870013 174.864 80.821 174.630665 80.5549987 174.514 80.2166687 174.514 79.806 174.514 79.2086637 174.749664 78.7326684 175.221 78.378 175.692336 78.0233316 176.310663 77.846 177.076 77.846 177.589336 77.846 178.044331 77.9299992 178.441 78.098 178.837669 78.2660008 179.143332 78.4969985 179.358 78.791 179.572668 79.0850015 179.68 79.4139982 179.68 79.778 179.68 79.8993339 179.619334 79.96 179.498 79.96L178.924 79.96C178.802666 79.96 178.742 79.9273337 178.742 79.862L178.742 79.778C178.742 79.4606651 178.590335 79.1946677 178.287 78.98 177.983665 78.7653323 177.575336 78.658 177.062 78.658 176.585998 78.658 176.203335 78.7536657 175.914 78.945 175.624665 79.1363343 175.48 79.3999983 175.48 79.736 175.48 80.0533349 175.617665 80.2959992 175.893 80.464 176.168335 80.6320008 176.599997 80.7999992 177.188 80.968 177.729336 81.1173341 178.167998 81.2619993 178.504 81.402 178.840002 81.5420007 179.129332 81.747332 179.372 82.018 179.614668 82.288668 179.736 82.6386645 179.736 83.068 179.736 83.6746697 179.500336 84.1599982 179.029 84.524 178.557664 84.8880018 177.925337 85.07 177.132 85.07zM184.72 78.56C184.72 78.6813339 184.659334 78.742 184.538 78.742L183.012 78.742C182.965333 78.742 182.942 78.7653331 182.942 78.812L182.942 82.9C182.942 83.3480022 183.042332 83.6629991 183.243 83.845 183.443668 84.0270009 183.758665 84.118 184.188 84.118L184.496 84.118C184.617334 84.118 184.678 84.1786661 184.678 84.3L184.678 84.79C184.678 84.9113339 184.617334 84.9766666 184.496 84.986L184.02 84.986C183.347997 84.986 182.839335 84.8600013 182.494 84.608 182.148665 84.3559987 181.976 83.8893367 181.976 83.208L181.976 78.812C181.976 78.7653331 181.952667 78.742 181.906 78.742L181.108 78.742C180.986666 78.742 180.926 78.6813339 180.926 78.56L180.926 78.098C180.926 77.9766661 180.986666 77.916 181.108 77.916L181.906 77.916C181.952667 77.916 181.976 77.8926669 181.976 77.846L181.976 76.278C181.976 76.1566661 182.036666 76.096 182.158 76.096L182.76 76.096C182.881334 76.096 182.942 76.1566661 182.942 76.278L182.942 77.846C182.942 77.8926669 182.965333 77.916 183.012 77.916L184.538 77.916C184.659334 77.916 184.72 77.9766661 184.72 78.098L184.72 78.56zM187.24 76.642C187.015999 76.642 186.834001 76.574334 186.694 76.439 186.553999 76.303666 186.484 76.1286677 186.484 75.914 186.484 75.6993323 186.553999 75.5266673 186.694 75.396 186.834001 75.2653327 187.015999 75.2 187.24 75.2 187.464001 75.2 187.645999 75.2653327 187.786 75.396 187.926001 75.5266673 187.996 75.6993323 187.996 75.914 187.996 76.1286677 187.926001 76.303666 187.786 76.439 187.645999 76.574334 187.464001 76.642 187.24 76.642zM186.932 85C186.810666 85 186.75 84.9393339 186.75 84.818L186.75 78.098C186.75 77.9766661 186.810666 77.916 186.932 77.916L187.562 77.916C187.683334 77.916 187.744 77.9766661 187.744 78.098L187.744 84.818C187.744 84.9393339 187.683334 85 187.562 85L186.932 85zM193.008 77.818C193.745337 77.818 194.335664 78.0373311 194.779 78.476 195.222336 78.9146689 195.444 79.502663 195.444 80.24L195.444 84.818C195.444 84.9393339 195.383334 85 195.262 85L194.632 85C194.510666 85 194.45 84.9393339 194.45 84.818L194.45 80.436C194.45 79.9133307 194.296002 79.4910016 193.988 79.169 193.679998 78.8469984 193.278669 78.686 192.784 78.686 192.307998 78.686 191.913668 78.821332 191.601 79.092 191.288332 79.362668 191.108667 79.7173311 191.062 80.156L191.062 84.818C191.062 84.9393339 191.001334 85 190.88 85L190.25 85C190.128666 85 190.068 84.9393339 190.068 84.818L190.068 78.098C190.068 77.9766661 190.128666 77.916 190.25 77.916L190.88 77.916C191.001334 77.916 191.062 77.9766661 191.062 78.098L191.062 78.616C191.062 78.6440001 191.071333 78.6649999 191.09 78.679 191.108667 78.6930001 191.122667 78.6860001 191.132 78.658 191.542669 78.0979972 192.167996 77.818 193.008 77.818zM201.982 78.098C201.982 77.9766661 202.042666 77.916 202.164 77.916L202.794 77.916C202.915334 77.916 202.976 77.9766661 202.976 78.098L202.976 84.762C202.976 85.8073386 202.67267 86.5726642 202.066 87.058 201.45933 87.5433358 200.633339 87.786 199.588 87.786 199.391999 87.786 199.242667 87.7813334 199.14 87.772 199.018666 87.7626666 198.958 87.6973339 198.958 87.576L198.986 87.016C198.986 86.8853327 199.046666 86.8293332 199.168 86.848 200.157338 86.8946669 200.873664 86.7500017 201.317 86.414 201.760336 86.0779983 201.982 85.5180039 201.982 84.734L201.982 84.244C201.982 84.2159999 201.972667 84.1973334 201.954 84.188 201.935333 84.1786666 201.916667 84.1879999 201.898 84.216 201.468665 84.7666694 200.862004 85.042 200.078 85.042 199.47133 85.042 198.932336 84.8786683 198.461 84.552 197.989664 84.2253317 197.674667 83.7633363 197.516 83.166 197.403999 82.7833314 197.348 82.2140038 197.348 81.458 197.348 81.0473313 197.359667 80.7020014 197.383 80.422 197.406333 80.1419986 197.455333 79.8900011 197.53 79.666 197.698001 79.1059972 198.001331 78.6556684 198.44 78.315 198.878669 77.9743316 199.405997 77.804 200.022 77.804 200.834004 77.804 201.459331 78.0699973 201.898 78.602 201.916667 78.6300001 201.935333 78.6393334 201.954 78.63 201.972667 78.6206666 201.982 78.6020001 201.982 78.574L201.982 78.098zM201.912 82.858C201.94 82.7179993 201.958667 82.5453344 201.968 82.34 201.977333 82.1346656 201.982 81.836002 201.982 81.444 201.982 80.9679976 201.977333 80.6483341 201.968 80.485 201.958667 80.3216659 201.935334 80.1700007 201.898 80.03 201.823333 79.637998 201.639001 79.3136679 201.345 79.057 201.050999 78.8003321 200.680002 78.672 200.232 78.672 199.793331 78.672 199.422335 78.7979987 199.119 79.05 198.815665 79.3020013 198.603334 79.6286647 198.482 80.03 198.388666 80.3286682 198.342 80.7953302 198.342 81.43 198.342 82.1113367 198.388666 82.5826654 198.482 82.844 198.575334 83.236002 198.778332 83.560332 199.091 83.817 199.403668 84.073668 199.783998 84.202 200.232 84.202 200.689336 84.202 201.064999 84.0760013 201.359 83.824 201.653001 83.5719987 201.837333 83.250002 201.912 82.858zM206 81.808C205.878666 81.808 205.818 81.7473339 205.818 81.626L205.748 75.382C205.748 75.2606661 205.808666 75.2 205.93 75.2L206.56 75.2C206.681334 75.2 206.742 75.2606661 206.742 75.382L206.658 81.626C206.658 81.7473339 206.597334 81.808 206.476 81.808L206 81.808zM206.21 84.944C205.957999 84.944 205.750334 84.8646675 205.587 84.706 205.423666 84.5473325 205.342 84.3513345 205.342 84.118 205.342 83.8939989 205.430666 83.7003342 205.608 83.537 205.785334 83.3736659 205.985999 83.292 206.21 83.292 206.434001 83.292 206.634666 83.3736659 206.812 83.537 206.989334 83.7003342 207.078 83.8939989 207.078 84.118 207.078 84.3513345 206.994001 84.5473325 206.826 84.706 206.657999 84.8646675 206.452668 84.944 206.21 84.944z"/>
    <g stroke="#5993BC" stroke-linecap="round" stroke-linejoin="round" stroke-width="4" transform="rotate(90 62 171)">
      <path d="M61 17L49 3.18323146e-11M61 17L49 34"/>
      <path d="M60,33.4663636 C28.6486486,34.7130303 8.64864865,29.1030303 0,16.6363636" transform="matrix(1 0 0 -1 0 50.273)"/>
    </g>
  </g>
</svg>
