<svg xmlns="http://www.w3.org/2000/svg" width="52" height="52" viewBox="0 0 52 52">
  <g fill="none" fill-rule="evenodd">
    <circle cx="26" cy="26" r="26" fill="#EAF1F7"/>
    <rect width="19" height="24" x="16.5" y="14" stroke="#5993BC" rx="3"/>
    <path stroke="#5993BC" d="M25.5,11 L26.5,11 C27.6045695,11 28.5,11.8954305 28.5,13 L28.5,14 L23.5,14 L23.5,13 C23.5,11.8954305 24.3954305,11 25.5,11 Z"/>
    <path stroke="#5993BC" d="M22.5,14 L29.5,14 C30.6045695,14 31.5,14.8954305 31.5,16 L31.5,17 L20.5,17 L20.5,16 C20.5,14.8954305 21.3954305,14 22.5,14 Z" transform="matrix(1 0 0 -1 0 31)"/>
    <polygon fill="#376789" stroke="#376789" stroke-linecap="round" stroke-linejoin="round" stroke-width="2" points="24 24 24 31 30 27.5"/>
  </g>
</svg>
