<svg xmlns="http://www.w3.org/2000/svg" width="32" height="32" viewBox="0 0 32 32">
  <g fill="none" fill-rule="evenodd">
    <path fill="#376789" d="M18,10 L9,10 C7.8954305,10 7,10.8954305 7,12 L7,14 L4,14 C3.44771525,14 3,13.5522847 3,13 L3,5 C3,4.44771525 3.44771525,4 4,4 L17,4 C17.5522847,4 18,4.44771525 18,5 L18,10 Z"/>
    <polyline stroke="#FFF" stroke-linecap="round" stroke-linejoin="round" points="4.5 5.5 10.5 8.5 16.5 5.5"/>
    <path fill="#376789" d="M23,17 L14,17 C12.8954305,17 12,17.8954305 12,19 L12,21 L9,21 C8.44771525,21 8,20.5522847 8,20 L8,12 C8,11.4477153 8.44771525,11 9,11 L22,11 C22.5522847,11 23,11.4477153 23,12 L23,17 Z"/>
    <polyline stroke="#FFF" stroke-linecap="round" stroke-linejoin="round" points="9.5 12.5 15.5 15.5 21.5 12.5"/>
    <rect width="15" height="10" x="13" y="18" fill="#376789" rx="1"/>
    <polyline stroke="#FFF" stroke-linecap="round" stroke-linejoin="round" points="14.5 19.5 20.5 22.5 26.5 19.5"/>
  </g>
</svg>
