<svg width="38" height="48" viewBox="0 0 38 48" fill="none" xmlns="http://www.w3.org/2000/svg">
  <path fill-rule="evenodd" clip-rule="evenodd" d="M2 2H21.4207V16.5793H36V45.7379H2V2Z" stroke="white" stroke-width="3" stroke-linecap="round" stroke-linejoin="round"/>
  <path d="M35.9993 16.5793L21.4199 2" stroke="white" stroke-width="3" stroke-linecap="round"/>
  <path fill-rule="evenodd" clip-rule="evenodd" d="M18.4413 37.9999C18.8474 37.9999 19.1766 37.6707 19.1766 37.2646C19.1766 36.8585 18.8474 36.5293 18.4413 36.5293C18.0353 36.5293 17.7061 36.8585 17.7061 37.2646C17.7061 37.6707 18.0353 37.9999 18.4413 37.9999Z" fill="white"/>
  <path d="M15.5 28.4412C15.5 28.4412 15.5 25.5 18.4412 25.5C21.3824 25.5 21.3824 28.4412 21.3824 28.4412C21.3824 31.3824 18.4412 32.0764 18.4412 32.0764V34.3235" stroke="white" stroke-width="2" stroke-linecap="round" stroke-linejoin="round"/>
</svg>
