<svg xmlns="http://www.w3.org/2000/svg" width="14" height="14" viewBox="0 0 14 14">
  <g fill="none" fill-rule="evenodd">
    <rect width="9" height="10" x="2.5" y="2.5" stroke="#5993BC" rx="1"/>
    <path stroke="#5993BC" d="M6,2.5 L8,2.5 C8.55228475,2.5 9,2.94771525 9,3.5 L9,4.5 L5,4.5 L5,3.5 C5,2.94771525 5.44771525,2.5 6,2.5 Z" transform="matrix(1 0 0 -1 0 7)"/>
    <path stroke="#5993BC" d="M8,2 C8,1.44771525 7.55228475,1 7,1 C6.44771525,1 6,1.44771525 6,2"/>
    <path stroke="#244358" stroke-linecap="round" d="M9.5 6.5L7.5 6.5M9.5 8.5L7.5 8.5M9.5 10.5L7.5 10.5"/>
    <path stroke="#E40046" stroke-linecap="round" d="M5.5 6.5L4.5 6.5M5.5 8.5L4.5 8.5M5.5 10.5L4.5 10.5"/>
  </g>
</svg>
