<svg xmlns="http://www.w3.org/2000/svg" width="16" height="16" viewBox="0 0 16 16">
  <path fill="none" stroke="#EAF1F7" stroke-linecap="round" stroke-linejoin="round" d="M15,1.47894669 C14.4479158,1.72991779 13.8555373,1.90012351 13.2331344,1.97611135 C13.8686501,1.58568673 14.3551215,0.966418503 14.5856856,0.230779753 C13.9895572,0.592338052 13.3315414,0.854875794 12.6304128,0.997195842 C12.0689658,0.382730292 11.2703616,0 10.3845758,0 C8.68521027,0 7.30734037,1.41356999 7.30734037,3.15600993 C7.30734037,3.40313386 7.33452179,3.64449961 7.38702187,3.8753045 C4.83000789,3.74354531 2.56262674,2.48672853 1.04509975,0.576949382 C0.779829706,1.0423812 0.628922596,1.58470608 0.628922596,2.16361676 C0.628922596,3.2589028 1.17257545,4.2253213 1.99742973,4.79072918 C1.49313969,4.7734295 1.0188497,4.63110945 0.603628437,4.39454638 L0.603628437,4.43397356 C0.603628437,5.96293342 1.66468409,7.23898604 3.07159816,7.52940946 C2.81382813,7.60056948 2.54201396,7.63999666 2.26081252,7.63999666 C2.06211121,7.63999666 1.86995404,7.61980532 1.68154687,7.58133364 C2.07333672,8.83623941 3.2093925,9.74882272 4.5553996,9.77381673 C3.50277533,10.6200427 2.17551826,11.1229655 0.733922768,11.1229655 C0.485540009,11.1229655 0.240882747,11.1075769 0,11.0796912 C1.3619385,11.9768858 2.9788284,12.5 4.71662535,12.5 C10.3771248,12.5 13.4712475,7.69000984 13.4712475,3.51854888 L13.4609289,3.10986907 C14.0654887,2.66749511 14.5885042,2.11169257 15,1.47894669" transform="translate(.5 2)"/>
</svg>
