<svg id="Layer_1" data-name="Layer 1" xmlns="http://www.w3.org/2000/svg" viewBox="0 0 11.5 11.5"><defs><style>.cls-1{fill:#d0021b;}.cls-2{fill:#fff;}</style></defs><title>error-icon-small</title><path class="cls-1" d="M11.77,6.05A5.75,5.75,0,1,1,6,.3,5.75,5.75,0,0,1,11.77,6.05Z" transform="translate(-0.27 -0.3)"/><path class="cls-2" d="M7.1,2.41A.15.15,0,0,0,7,2.28a.3.3,0,0,0-.18-.06H5.2A.26.26,0,0,0,5,2.28a.16.16,0,0,0-.08.13l.13,4.65c0,.11.11.19.26.19H6.71A.24.24,0,0,0,7,7.06Z" transform="translate(-0.27 -0.3)"/><path class="cls-2" d="M7,8.21A.23.23,0,0,0,6.75,8H5.31a.25.25,0,0,0-.25.24V9.64a.25.25,0,0,0,.25.24H6.75A.23.23,0,0,0,7,9.64Z" transform="translate(-0.27 -0.3)"/></svg>