<svg id="Layer_1" data-name="Layer 1" xmlns="http://www.w3.org/2000/svg" viewBox="0 0 16 17"><defs><style>.cls-1{fill:#d0021b;}.cls-2{fill:#fff;}</style></defs><title>Artboard 1</title><path class="cls-1" d="M15.73,8.57A7.71,7.71,0,1,1,8,.86,7.72,7.72,0,0,1,15.73,8.57Z"/><path class="cls-2" d="M9.47,3.69a.2.2,0,0,0-.1-.18.38.38,0,0,0-.24-.08H6.92a.38.38,0,0,0-.24.08.2.2,0,0,0-.1.18l.17,6.24c0,.14.15.25.34.25H9a.32.32,0,0,0,.34-.25Z"/><path class="cls-2" d="M9.31,11.48A.33.33,0,0,0,9,11.14H7.07a.34.34,0,0,0-.33.34v1.9a.33.33,0,0,0,.33.33H9a.32.32,0,0,0,.31-.33Z"/></svg>