<?xml version="1.0" encoding="utf-8"?>
<!-- Generator: Adobe Illustrator 24.0.0, SVG Export Plug-In . SVG Version: 6.00 Build 0)  -->
<svg version="1.1" id="Ebene_1" xmlns="http://www.w3.org/2000/svg" xmlns:xlink="http://www.w3.org/1999/xlink" x="0px" y="0px"
	 viewBox="0 0 586.7 138.8" style="enable-background:new 0 0 586.7 138.8;" xml:space="preserve">
<style type="text/css">
	.st0{fill-rule:evenodd;clip-rule:evenodd;}
	.st1{fill:#FFFFFF;}
	.st2{fill:#39AAAA;}
	.st3{fill:url(#SVGID_1_);}
	.st4{opacity:0.5;fill:url(#SVGID_2_);enable-background:new    ;}
	.st5{opacity:0.5;fill:url(#SVGID_3_);enable-background:new    ;}
	.st6{fill:url(#SVGID_4_);}
	.st7{fill:url(#SVGID_5_);}
	.st8{fill:url(#SVGID_6_);}
	.st9{opacity:0.9;}
	.st10{fill:url(#SVGID_7_);}
	.st11{fill:#D9FF02;}
	.st12{enable-background:new    ;}
</style>
<title>Ranorex Webtestit</title>
<g>
	<g id="Ebene_2_1_">
		<g id="Layer_1">
			<polygon class="st0" points="136.8,27.9 88.5,27.9 64.3,69.8 88.5,111.6 136.8,111.6 160.9,69.8 			"/>
			<path class="st1" d="M80.2,51.6h6.6l3,18c0.6,3.8,1.2,7.6,1.8,11.4h0.2c0.7-3.8,1.5-7.6,2.3-11.4l4.4-18h5.5l4.4,18
				c0.8,3.7,1.6,7.6,2.3,11.4h0.2c0.6-3.8,1.1-7.6,1.7-11.4l3.1-18h6.1L115,87.3h-7.8l-4.4-18.8c-0.6-2.8-1.1-5.5-1.6-8.2H101
				c-0.5,2.7-1,5.5-1.6,8.2L95,87.3h-7.7L80.2,51.6z"/>
			<path class="st1" d="M127.7,68.2h-3.8v-4.7l4.1-0.3l0.8-7.3h5.2v7.3h6.8v5H134v10c0,3.2,1.2,4.7,3.8,4.7c1,0,1.9-0.2,2.8-0.6
				l1.1,4.7c-1.8,0.6-3.6,1-5.4,1c-6.2,0-8.5-3.9-8.5-9.7L127.7,68.2z"/>
			<path class="st2" d="M77.6,0.7c13.5-3.1,33.2,4.5,35.9,21.6c0.6,3.8,0.2,7.9-3,10c-3.3,2.2-6.7,4.5-10,6.9
				c-6.4,4.6-12.7,9.4-18.8,14.5c-6.2,4.9-12,10.3-17.4,16.1c7.5,8,16.2,14.8,24.8,21.3c4.7,3.6,9.5,7,14.4,10.3
				c2.7,1.8,5.4,3.5,8,5.3c2.2,1.5,2.8,4.4,2.8,7.1c-0.1,13.3-11.8,21.5-22.1,24c-2.9,0.7-5.8,1-8.7,1c-2.4,0-5.3-0.2-7.5-1.4
				c-1.7-0.9-2.6-3.4-3.5-5.1c-1.3-2.4-2.7-4.8-4.1-7.2c-6-10.4-12.5-20.3-19-30.3c-1.3-2-4-2.5-6-1.3c-0.4,0.3-0.8,0.6-1.1,1.1
				c-2.1,2.8-4,5.7-5.9,8.5c-2.8,4.2-5.5,8.4-8.1,12.7c-1.2,2.1-2.5,4.1-3.6,6.2c-0.8,1.4-1.5,3.8-3.3,3.8c-4.4-0.1-9-3.8-12.2-6.9
				c-3.9-3.9-6.7-8.7-8-14c-0.7-2.4-0.9-5-0.5-7.5C1.4,95,4.2,93.9,6,92.6C23.1,79.6,29.6,70,29.6,70s-1.3-1.5-1.6-1.8
				c-1.7-1.8-3.4-3.6-5.1-5.4c-3.8-3.8-7.8-7.4-12-10.8c-2.1-1.7-4.2-3.3-6.4-4.9c-1.2-0.7-2.3-1.5-3.3-2.3c-0.6-0.9-1-1.9-1-3
				c-0.5-5.3,1.5-10.9,4-15.1c2.7-4.5,6.5-8.2,11.1-10.8c1.6-0.9,4.1-2.2,5.9-1.9c1.4,0.3,2.5,3.2,3.2,4.5
				c5.4,9,11.2,17.8,17.6,26.2c1.5,1.9,4.2,2.3,6.1,0.8c0.3-0.3,0.6-0.6,0.9-0.9c3.5-4.9,8.7-12.2,10.5-15c2.8-4.4,5.5-8.9,7.9-13.5
				c2.2-4.2,4.1-8.5,6.2-12.7C74.4,1.5,75.9,1.1,77.6,0.7z"/>
			
				<linearGradient id="SVGID_1_" gradientUnits="userSpaceOnUse" x1="-6.5971" y1="713.9906" x2="119.3407" y2="663.1017" gradientTransform="matrix(1 0 0 1 0 -628)">
				<stop  offset="0" style="stop-color:#FFFFFF;stop-opacity:0"/>
				<stop  offset="0.44" style="stop-color:#FFFFFF;stop-opacity:0.5"/>
				<stop  offset="1" style="stop-color:#FFFFFF;stop-opacity:0"/>
			</linearGradient>
			<path class="st3" d="M64.3,69.8c0.5-0.5,1-1.1,1.5-1.6c5-5.1,10.3-10,15.9-14.5c6.1-5.1,12.4-9.9,18.8-14.5
				c3.3-2.3,6.7-4.6,10-6.9c3.2-2.1,3.6-6.2,3-10C110.8,5.2,91.2-2.5,77.6,0.7c-1.7,0.4-3.2,0.9-4.1,2.7c-2.1,4.2-4,8.6-6.2,12.7
				c-2.5,4.6-5.1,9.1-7.9,13.5c-1.8,2.9-7,10.2-10.5,15c-1.4,1.9-4.1,2.4-6.1,1c-0.3-0.3-0.7-0.6-0.9-0.9c-1.9-2.5-4.4-5.9-7-9.8
				c4.7,10.6,3.1,24.2-5.2,35c0,0-6.5,9.6-23.6,22.6c-1.8,1.4-4.6,2.5-5.2,5c-0.4,2.5-0.2,5.1,0.5,7.5c1.3,5.3,4.1,10.1,8,14
				c3.2,3.1,7.8,6.8,12.2,6.9c1.7,0,2.5-2.3,3.3-3.8c1.2-2.1,2.4-4.2,3.6-6.2c2.6-4.3,5.3-8.5,8.1-12.7c1.9-2.9,3.8-5.7,5.9-8.5
				c1.4-1.9,4.1-2.3,6-0.9c0.4,0.3,0.8,0.7,1.1,1.1l5.3,8.1C52.5,92.1,55.7,79.6,64.3,69.8z"/>
			
				<linearGradient id="SVGID_2_" gradientUnits="userSpaceOnUse" x1="-9.094947e-13" y1="669.9128" x2="37.4" y2="669.9128" gradientTransform="matrix(1 0 0 1 0 -628)">
				<stop  offset="0" style="stop-color:#FFFFFF;stop-opacity:0.25"/>
				<stop  offset="1" style="stop-color:#000000"/>
			</linearGradient>
			<path class="st4" d="M29.6,69.9c0,0-1.3-1.5-1.6-1.8c-1.7-1.8-3.4-3.6-5.1-5.4c-3.8-3.7-7.8-7.3-12-10.7
				c-2.1-1.7-4.2-3.3-6.4-4.9c-1.2-0.7-2.3-1.5-3.3-2.3c-0.7-0.9-1-1.9-1-3C-0.3,36.6,1.7,31,4.3,26.7c2.7-4.5,6.5-8.3,11-10.9
				c1.6-0.9,4-2.2,5.8-1.8c1.4,0.4,2.5,3.2,3.2,4.5c3.3,5.7,7.1,11.5,10.5,16.4l0,0C39.5,45.5,37.9,59.1,29.6,69.9z"/>
			
				<linearGradient id="SVGID_3_" gradientUnits="userSpaceOnUse" x1="54.1276" y1="732.2" x2="114.4" y2="732.2" gradientTransform="matrix(1 0 0 1 0 -628)">
				<stop  offset="0" style="stop-color:#000000"/>
				<stop  offset="1" style="stop-color:#FFFFFF;stop-opacity:0.25"/>
			</linearGradient>
			<path class="st5" d="M114.4,113.8c-0.1,13.3-11.8,21.5-22,24c-2.9,0.7-5.8,1-8.7,1c-2.4,0-5.3-0.2-7.5-1.4
				c-1.7-0.9-2.6-3.4-3.5-5.1c-1.3-2.4-2.7-4.8-4.1-7.2c-4.4-7.6-9-14.9-13.7-22.2c-2.4-10.9,0.8-23.5,9.5-33.3
				c7.5,8,16.2,14.8,24.8,21.3c4.7,3.6,9.5,7,14.4,10.3c2.7,1.8,5.4,3.5,8,5.3C113.8,108.1,114.4,111,114.4,113.8z"/>
			
				<linearGradient id="SVGID_4_" gradientUnits="userSpaceOnUse" x1="5.5875" y1="742.9583" x2="6.2175" y2="742.6983" gradientTransform="matrix(1 0 0 1 0 -628)">
				<stop  offset="0" style="stop-color:#FFFFFF;stop-opacity:0"/>
				<stop  offset="0.44" style="stop-color:#FFFFFF;stop-opacity:0.5"/>
				<stop  offset="1" style="stop-color:#FFFFFF;stop-opacity:0"/>
			</linearGradient>
			<path class="st6" d="M5,113.6c0.5,0.9,1.1,1.7,1.7,2.5C6.1,115.3,5.6,114.4,5,113.6z"/>
			
				<linearGradient id="SVGID_5_" gradientUnits="userSpaceOnUse" x1="7.3251" y1="745.4421" x2="8.2151" y2="745.0821" gradientTransform="matrix(1 0 0 1 0 -628)">
				<stop  offset="0" style="stop-color:#FFFFFF;stop-opacity:0"/>
				<stop  offset="0.44" style="stop-color:#FFFFFF;stop-opacity:0.5"/>
				<stop  offset="1" style="stop-color:#FFFFFF;stop-opacity:0"/>
			</linearGradient>
			<path class="st7" d="M6.8,116.1c0.6,0.8,1.3,1.6,2,2.3C8,117.6,7.4,116.8,6.8,116.1z"/>
			
				<linearGradient id="SVGID_6_" gradientUnits="userSpaceOnUse" x1="53.2385" y1="729.2869" x2="54.0285" y2="728.9669" gradientTransform="matrix(1 0 0 1 0 -628)">
				<stop  offset="0" style="stop-color:#FFFFFF;stop-opacity:0"/>
				<stop  offset="0.44" style="stop-color:#FFFFFF;stop-opacity:0.5"/>
				<stop  offset="1" style="stop-color:#FFFFFF;stop-opacity:0"/>
			</linearGradient>
			<path class="st8" d="M54.9,103L54.9,103l-2.4-3.8L54.9,103z"/>
			<g class="st9">
				
					<linearGradient id="SVGID_7_" gradientUnits="userSpaceOnUse" x1="63.4861" y1="674.0727" x2="100.6619" y2="636.8968" gradientTransform="matrix(1 0 0 1 0 -628)">
					<stop  offset="0.17" style="stop-color:#FFFFFF;stop-opacity:0"/>
					<stop  offset="0.25" style="stop-color:#FFFFFF;stop-opacity:3.000000e-02"/>
					<stop  offset="0.36" style="stop-color:#FFFFFF;stop-opacity:0.11"/>
					<stop  offset="0.5" style="stop-color:#FFFFFF;stop-opacity:0.24"/>
					<stop  offset="0.66" style="stop-color:#FFFFFF;stop-opacity:0.42"/>
					<stop  offset="0.83" style="stop-color:#FFFFFF;stop-opacity:0.65"/>
					<stop  offset="1" style="stop-color:#FFFFFF;stop-opacity:0.9"/>
				</linearGradient>
				<path class="st10" d="M64.6,47.1c1.8,2.3,4.7,3.5,7.6,3.4c3.5-0.2,5.9-2.6,8.5-4.7c6.4-4.9,13-9.4,19.9-13.6l5.2-3.2
					c0.7-0.5,2.2-1,2.6-1.7c1.3-2,0.4-5.7-0.2-7.9c-1.5-5.1-5.5-9.3-10.1-11.9c-2.8-1.6-5.9-2.7-9.1-3.3c-2-0.2-4.1-0.3-6.2-0.1
					c-1.3,0.2-2.6,0.4-3.8,0.7c-0.9,0.3-1.6,1-1.9,2s-0.8,2.2-1,2.7c-0.3,0.9-0.7,1.8-1,2.7c-0.7,1.9-1.4,3.8-2.2,5.6
					c-2.5,6.3-5.4,12.5-8.7,18.4C62.2,39.7,61.9,43.8,64.6,47.1z"/>
			</g>
			<path class="st1" d="M189.9,87.3L183,74.7h-4.9v12.6h-5.7V55.1h10.8c6.7,0,11.9,2.4,11.9,9.6c0,4.9-2.6,7.9-6.4,9.2l7.7,13.4
				L189.9,87.3z M178.1,70.2h4.5c4.4,0,6.8-1.9,6.8-5.5s-2.4-5-6.8-5h-4.5V70.2z"/>
			<path class="st1" d="M214,71.9c0-2.6-1.1-4.7-4.4-4.7c-2.4,0.2-4.8,1-6.8,2.4l-2.1-3.8c2.9-2,6.4-3.1,9.9-3.2c6.1,0,9,3.7,9,10.4
				v14.3H215l-0.4-2.7h-0.1c-2.2,1.8-4.6,3.2-7.5,3.2c-3.7,0.2-7-2.6-7.2-6.4c0-0.2,0-0.5,0-0.7C199.8,75.7,204.1,73,214,71.9z
				 M208.7,83.5c2,0,3.5-1,5.3-2.7v-5.4c-6.6,0.8-8.7,2.6-8.7,5C205.3,82.6,206.7,83.5,208.7,83.5z"/>
			<path class="st1" d="M226.6,63.2h4.7l0.4,3.3h0.2c2.2-2.1,4.6-3.8,7.9-3.8c5.2,0,7.4,3.5,7.4,9.6v15.2h-5.7V72.9
				c0-4-1.1-5.5-3.8-5.5c-2.1,0-3.5,1-5.5,3v16.9h-5.7L226.6,63.2z"/>
			<path class="st1" d="M264,62.6c6.1,0,11.5,4.6,11.5,12.7S270.1,88,264,88s-11.5-4.6-11.5-12.7S258,62.6,264,62.6z M264,83.3
				c3.5,0,5.7-3.2,5.7-8s-2.1-8.1-5.7-8.1s-5.7,3.2-5.7,8.1S260.5,83.3,264,83.3z"/>
			<path class="st1" d="M281.2,63.2h4.7l0.4,4.3h0.2c1.7-3.2,4.3-4.9,6.9-4.9c0.9,0,1.9,0.1,2.8,0.5l-1,4.9
				c-0.8-0.3-1.7-0.4-2.5-0.4c-1.9,0-4.2,1.3-5.7,5v14.7h-5.7L281.2,63.2z"/>
			<path class="st1" d="M308.6,62.6c6.5,0,10,4.7,10,11.5c0,0.9-0.1,1.8-0.2,2.7H303c0.5,4.4,3.2,6.8,7.1,6.8c2,0,4-0.6,5.6-1.8
				l1.9,3.6c-2.5,1.6-5.3,2.5-8.3,2.6c-6.7,0-11.9-4.7-11.9-12.7S303,62.6,308.6,62.6z M313.7,73.1c0-3.8-1.6-6.2-4.9-6.2
				c-2.9,0-5.3,2.1-5.8,6.2H313.7z"/>
			<path class="st1" d="M328.2,74.7L321,63.2h6.1l2.7,4.6c0.7,1.3,1.5,2.8,2.2,4.1h0.2c0.6-1.3,1.3-2.8,1.9-4.1l2.3-4.6h5.9
				l-7.1,12.2l7.7,12h-6.1l-3-4.8c-0.8-1.4-1.6-2.9-2.5-4.3H331c-0.7,1.4-1.4,2.8-2.1,4.3l-2.6,4.8h-5.9L328.2,74.7z"/>
			<path class="st1" d="M354.8,54.9h2.4l4,19.1c0.8,3.5,1.5,7.1,2.3,10.6h0.2c0.7-3.5,1.6-7,2.5-10.6l5.1-19.1h2.3l5.2,19.1
				c0.8,3.5,1.7,7,2.6,10.6h0.2c0.7-3.6,1.4-7,2.2-10.6l4-19.1h2.3l-7.3,32.4h-2.5L374.4,65c-0.6-2.6-1.1-4.8-1.7-7.3h-0.2
				c-0.5,2.6-1.2,4.8-1.8,7.3l-5.8,22.3h-2.5L354.8,54.9z"/>
			<path class="st1" d="M404.1,63.1c5.6,0,9.1,4,9.1,10.9c0,0.6,0,1.2-0.1,1.8h-17c0.1,6,3.6,10.2,8.9,10.2c2.3,0,4.5-0.7,6.3-2.1
				l0.9,1.7c-2.2,1.5-4.8,2.3-7.4,2.3c-6,0-10.9-4.6-10.9-12.4S398.8,63.1,404.1,63.1z M411.1,74.1c0-6.1-2.7-9.2-7-9.2
				c-4,0-7.6,3.5-8.1,9.2H411.1z"/>
			<path class="st1" d="M419.5,51.9h2.2v10.2l-0.1,4.6c2.4-2,5.3-3.7,8.2-3.7c6.3,0,9.5,4.7,9.5,12.1c0,8-4.9,12.8-10.4,12.8
				c-2.6-0.2-5.1-1.1-7.1-2.8h-0.1l-0.2,2.2h-1.8V51.9H419.5z M428.7,86c4.8,0,8.2-4.4,8.2-10.8c0-5.8-2.1-10.2-7.5-10.2
				c-2.4,0-4.9,1.4-7.7,3.9V83C423.6,84.8,426.1,85.8,428.7,86z"/>
			<path class="st1" d="M446.9,65.6h-3.7v-1.7l3.7-0.2l0.3-6.8h1.9v6.8h6.8v1.9h-6.8V81c0,3,0.7,5,4,5c1-0.1,2-0.3,3-0.7l0.6,1.8
				c-1.2,0.5-2.5,0.8-3.8,0.9c-4.6,0-5.9-2.9-5.9-7.1L446.9,65.6z"/>
			<path class="st1" d="M469.5,63.1c5.6,0,9.1,4,9.1,10.9c0,0.6,0,1.2-0.1,1.8h-17c0.1,6,3.6,10.2,8.9,10.2c2.3,0,4.5-0.7,6.3-2.1
				l0.9,1.7c-2.2,1.5-4.8,2.3-7.4,2.3c-6.1,0-10.9-4.6-10.9-12.4S464.2,63.1,469.5,63.1z M476.5,74.1c0-6.1-2.7-9.2-6.9-9.2
				c-4,0-7.6,3.5-8.1,9.2H476.5z"/>
			<path class="st1" d="M483.3,83.1c2,1.9,4.7,3,7.5,3c3.7,0,5.6-2.2,5.6-4.7c0-3-3.1-4.2-5.8-5.2c-3.6-1.3-7.5-2.7-7.5-6.8
				c0-3.4,2.7-6.3,7.6-6.3c2.5,0,4.8,0.9,6.8,2.5l-1.2,1.5c-1.6-1.3-3.6-2.1-5.7-2.1c-3.6,0-5.3,2.1-5.3,4.3c0,2.6,2.8,3.7,5.6,4.8
				c3.7,1.4,7.7,2.6,7.7,7.2c0,3.5-2.9,6.6-8,6.6c-3.2,0-6.2-1.2-8.7-3.3L483.3,83.1z"/>
			<path class="st1" d="M505.5,65.6h-3.7v-1.7l3.7-0.2l0.3-6.8h1.9v6.8h6.8v1.9h-6.8V81c0,3,0.7,5,4,5c1-0.1,2-0.3,2.9-0.7l0.6,1.8
				c-1.2,0.5-2.5,0.8-3.8,0.9c-4.6,0-5.9-2.9-5.9-7.1L505.5,65.6z"/>
			<path class="st1" d="M532.3,65.6h-3.7v-1.7l3.8-0.2l0.3-6.8h1.9v6.8h6.8v1.9h-6.8V81c0,3,0.7,5,4,5c1,0,2.1-0.3,3-0.7l0.6,1.8
				c-1.2,0.5-2.5,0.8-3.8,0.9c-4.6,0-5.9-2.9-5.9-7.1L532.3,65.6z"/>
			<path class="st1" d="M519.5,56.1c0.2-1.1,1.2-1.8,2.3-1.6c0.8,0.1,1.5,0.8,1.6,1.6c-0.2,1.1-1.2,1.8-2.3,1.6
				C520.3,57.5,519.6,56.9,519.5,56.1z M520.3,63.7h2.2v23.6h-2.2V63.7z"/>
		</g>
	</g>
</g>
<path class="st11" d="M565.8,43.9h-66.9c-11.6,0-21-9.4-21-21l0,0c0-11.6,9.4-21,21-21h66.9c11.6,0,21,9.4,21,21l0,0
	C586.8,34.5,577.4,43.9,565.8,43.9z"/>
<g class="st12">
	<path d="M497,11.5h4.4l7.5,13.6l2.5,5.1h0.1c-0.2-2.5-0.6-5.5-0.6-8.2V11.5h4.1v24.1h-4.4L503.2,22l-2.5-5.1h-0.1
		c0.2,2.5,0.6,5.5,0.6,8.1v10.5H497V11.5z"/>
	<path d="M521.2,11.5h14.5v3.6h-10.2v6.2h8.7v3.6h-8.7V32h10.6v3.6h-14.9V11.5z"/>
	<path d="M538.6,11.5h4.4l2.1,12.2c0.4,2.6,0.8,5.2,1.2,7.7h0.1c0.5-2.5,1-5.2,1.6-7.7l2.9-12.2h3.7l2.9,12.2
		c0.6,2.5,1.1,5.1,1.6,7.7h0.1c0.4-2.6,0.8-5.2,1.1-7.7l2.1-12.2h4.1l-4.6,24.1h-5.3l-3-12.7c-0.4-1.9-0.8-3.7-1.1-5.6h-0.1
		c-0.3,1.8-0.7,3.7-1.1,5.6l-2.9,12.7h-5.2L538.6,11.5z"/>
</g>
</svg>
