<?xml version="1.0" encoding="UTF-8"?>
<svg width="50px" height="50px" viewBox="0 0 50 50" version="1.1" xmlns="http://www.w3.org/2000/svg" xmlns:xlink="http://www.w3.org/1999/xlink">
    <!-- Generator: Sketch 54 (76480) - https://sketchapp.com -->
    <title>TestRail Glyphe</title>
    <desc>Created with Sketch.</desc>
    <g id="TestRail-Glyphe" stroke="none" stroke-width="1" fill="none" fill-rule="evenodd">
        <g id="Glyphe">
            <polygon id="BG" fill="#0B3754" points="0 50 50 50 50 0 0 0"></polygon>
            <g id="Group" transform="translate(9.000000, 9.000000)">
                <polygon id="Fill-2" fill="#75BC54" points="0.873 31.8032 9.058 31.8032 9.058 23.6162 0.873 23.6162"></polygon>
                <polygon id="Fill-3" fill="#F4ED64" points="12.333 20.3422 20.519 20.3422 20.519 12.1552 12.333 12.1552"></polygon>
                <polygon id="Fill-4" fill="#75BC54" points="0.873 20.3422 9.058 20.3422 9.058 12.1552 0.873 12.1552"></polygon>
                <polygon id="Fill-5" fill="#75BC54" points="0.969 8.8812 9.154 8.8812 9.154 0.6962 0.969 0.6962"></polygon>
                <polygon id="Fill-6" fill="#75BC54" points="12.333 31.8032 20.519 31.8032 20.519 23.6152 12.333 23.6152"></polygon>
                <polygon id="Fill-7" fill="#CD465C" points="23.793 31.8032 31.979 31.8032 31.979 23.6152 23.793 23.6152"></polygon>
            </g>
        </g>
    </g>
</svg>