<svg xmlns="http://www.w3.org/2000/svg" width="52" height="52" viewBox="0 0 52 52">
  <g fill="none" fill-rule="evenodd">
    <circle cx="26" cy="26" r="26" fill="#282828"/>
    <path stroke="#5993BC" stroke-linecap="round" stroke-linejoin="round" d="M31.5,21.5 L31.5,19.5 L26.5,19.5 L26.5,17.8510328 C26.5,16.5579979 25.293035,15.5 24,15.5 C22.706965,15.5 21.5,16.5579979 21.5,17.8510328 L21.5,19.5 L16.5,19.5 L16.5,24.5 L18.1489672,24.4854343 C19.4420021,24.4854343 20.5,25.706965 20.5,27 C20.5,28.293035 19.4420021,29.5 18.1489672,29.5 L16.5,29.5145657 L16.5,34.5 L21.5,34.5"/>
    <g stroke="#FCC200" stroke-width="2" transform="translate(24.5 25.5)">
      <circle cx="6.5" cy="6.5" r="4"/>
      <path stroke-linecap="round" d="M6.5 12.5L6.5 10.5M6.5 2.5L6.5.5M9.5 3.5L10.9938965 2.00610352M2.03027344 10.9697266L3.5 9.5M10.9938965 10.9697266L9.5 9.5M3.5 3.5L2.03027344 2.00610352M12.5 6.5L10.5 6.5M.5 6.5L2.5 6.5"/>
    </g>
  </g>
</svg>
