<svg xmlns="http://www.w3.org/2000/svg" width="52" height="52" viewBox="0 0 52 52">
  <g fill="none" fill-rule="evenodd">
    <circle cx="26" cy="26" r="26" fill="#282828"/>
    <path fill="#049474" stroke="#049474" stroke-linecap="round" stroke-linejoin="round" stroke-width="2" d="M27.7142857,19 L24.2857143,16 L16.0262857,16 C14.9051429,16 14,16.8816667 14,17.97 L14,34.3333333 C14,35.7333333 14.2588571,36 15.7142857,36 L36.2857143,36 C37.7257143,36 38,35.7333333 38,34.3333333 L38,19 L27.7142857,19 Z"/>
    <path fill="#FCC200" stroke="#FCC200" stroke-linecap="round" stroke-linejoin="round" d="M30.2578204 43.3533417L32 43.0007566 30.2578204 42.6466583C29.80222 42.5543506 29.4465187 42.1972257 29.3526741 41.7432535L29 40 28.6473259 41.7432535C28.5534813 42.1972257 28.19778 42.5543506 27.7421796 42.6466583L26 43.0007566 27.7421796 43.3533417C28.19778 43.4456494 28.5534813 43.801261 28.6473259 44.2582598L29 46 29.3526741 44.2582598C29.4465187 43.801261 29.80222 43.4456494 30.2578204 43.3533417M45.2063937 27.3628716L47 27.0005609 45.2063937 26.6371284C44.7812675 26.5496354 44.4492428 26.2176108 44.3628716 25.7936063L44.0005609 24 43.6371284 25.7936063C43.5496354 26.2176108 43.2187325 26.5496354 42.7936063 26.6371284L41 27.0005609 42.7936063 27.3628716C43.2187325 27.4492428 43.5496354 27.7812675 43.6371284 28.2063937L44.0005609 30 44.3628716 28.2063937C44.4492428 27.7812675 44.7812675 27.4492428 45.2063937 27.3628716M34.5136054 12.7055823L38 11.9982998 34.5136054 11.2944177C33.6020408 11.1073959 32.8911565 10.3967129 32.707483 9.48540663L32 6 31.2959184 9.48540663C31.1088435 10.3967129 30.3945578 11.1073959 29.4829932 11.2944177L26 11.9982998 29.4829932 12.7055823C30.3945578 12.8926041 31.1088435 13.6032871 31.2959184 14.5145934L32 18 32.707483 14.5145934C32.8911565 13.6032871 33.6020408 12.8926041 34.5136054 12.7055823"/>
    <polygon fill="#FFF" stroke="#FFF" stroke-linecap="round" stroke-linejoin="round" stroke-width="2" points="22.999 23 22.999 31 29.999 27"/>
  </g>
</svg>
