<svg xmlns="http://www.w3.org/2000/svg" width="52" height="52" viewBox="0 0 52 52">
  <g fill="none" fill-rule="evenodd">
    <circle cx="26" cy="26" r="26" fill="#282828"/>
    <path stroke="#5993BC" stroke-linecap="round" stroke-linejoin="round" d="M23.5,35.5 C21.2296284,35.5 17.8240709,35.5 13.2833277,35.5 C12.8517585,35.5 12.5,35.1294278 12.5,34.6747762 L12.5,32.4637991 C12.5,31.0873881 13.262636,29.8168548 14.4479734,29.2251849 L17.3091387,29.2251849 L18.5981321,26.5408719 C17.2561292,25.3949007 16.4255063,23.6946283 16.3575193,21.8573375 L16.1978979,17.5038926 C16.1978979,14.1780849 18.7784453,11.5 21.9501834,11.5 L23.0438862,11.5 C26.2185803,11.5 28.7991277,14.1811989 28.7991277,17.472752 L28.6395062,21.8573375 C28.5715193,23.6977423 27.7408963,25.3980148 26.3959375,26.543986"/>
    <rect width="14" height="9" x="27" y="31" fill="#FFF" stroke="#FFF" stroke-width="2" rx="1"/>
    <polyline stroke="#282828" stroke-linecap="round" stroke-linejoin="round" stroke-width="2" points="28 33 34 35.5 40 33"/>
  </g>
</svg>
