<svg xmlns="http://www.w3.org/2000/svg" width="48" height="48" viewBox="0 0 48 48">
  <g fill="none" fill-rule="evenodd" stroke-linecap="round">
    <g stroke="#F0F0F0" stroke-width="2" transform="translate(5 12)">
      <path d="M14,9 C14,4.03 18.03,0 23,0 C27.97,0 32,4.03 32,9 C32,10.564 31.6,12.038 30.898,13.318"/>
      <path d="M15.916,2.455 C14.866,1.549 13.498,0.999 12,0.999 C8.686,0.999 6,3.685 6,6.999 C6,7.093 6.024,7.181 6.028,7.273 C2.568,8.157 0,11.265 0,14.999 C0,19.417 3.582,22.999 8,22.999 C11.3031047,22.999 13.6295207,22.999 15.0441895,22.999 M23,22.999 C24.3333333,22.999 27.3333333,22.999 30,22.999 C34.418,22.999 38,19.417 38,14.999 C38,11.271 35.45,8.141 32,7.251"/>
    </g>
    <path stroke="#EE7D00" stroke-width="2" d="M24 40L24 28.1933594M24 28.1933594L20.5 30.2"/>
    <path stroke="#EE7D00" stroke-width="2" d="M28,28.1933594 L24.5,30.2" transform="matrix(-1 0 0 1 52 0)"/>
  </g>
</svg>
