<svg xmlns="http://www.w3.org/2000/svg" width="48" height="48" viewBox="0 0 48 48">
  <g fill="none" fill-rule="evenodd">
    <path stroke="#D8D8D8" stroke-linecap="round" stroke-linejoin="round" stroke-width="2" d="M30 13L12 13M36.9782185 18L12 18M36.9782185 23.0856695L26 23.0856695"/>
    <g stroke="#049474" stroke-width="2" transform="translate(11 22)">
      <path d="M0,6.9672 C0,10.2807 2.6865,12.9672 6,12.9672 C9.3135,12.9672 12,10.2807 12,6.9672 C12,3.6537 9.3135,0.9672 6,0.9672 C2.6865,0.9672 0,3.6537 0,6.9672 Z"/>
      <path d="M4,7 C4,8.104 4.896,9 6,9 C7.104,9 8,8.104 8,7 C8,5.896 7.104,5 6,5 C4.896,5 4,5.896 4,7 Z"/>
      <polyline stroke-linejoin="round" points="3 12.125 3 20.465 5.476 18.729 9 21.942 9 12.125"/>
    </g>
    <path stroke="#F0F0F0" stroke-linecap="round" stroke-width="2" d="M8,32 C6.8954305,32 6,31.1045695 6,30 L6,9 C6,7.8954305 6.8954305,7 8,7 L41,7 C42.1045695,7 43,7.8954305 43,9 L43,20.0234375 L43,30 L43,30 C43,31.1045695 42.1045695,32 41,32 C34.3333333,32 29.3333333,32 26,32"/>
  </g>
</svg>
