<svg xmlns="http://www.w3.org/2000/svg" width="48" height="48" viewBox="0 0 48 48">
  <g fill="none" fill-rule="evenodd" stroke-width="2" transform="translate(6 8)">
    <path stroke="#7DABCB" stroke-linecap="round" d="M0,17 C0,17.8757539 0.70781125,18.5874548 1.57877899,18.5874548 L14.8832311,19.4125452 L14.8832311,20.2062726 C14.8832311,20.6453559 15.2359371,21 15.6726206,21 L20.4065583,21 C20.8432418,21 21.1959477,20.6453559 21.1959477,20.2062726 L21.1959477,19.4125452 L34.421221,18.5874548 C35.2897894,18.5874548 36,17.8757539 36,17"/>
    <path stroke="#F0F0F0" stroke-linecap="round" d="M32.876875,5.03975 L25.117875,5.03975 L25.117875,3.123125 C25.117875,1.40125 23.716625,0 21.99475,0 L14.093125,0 C12.37125,0 10.97,1.40125 10.97,3.123125 L10.97,5.03975 L3.123125,5.03975 C1.40125,5.03975 0,6.441 0,8.16525 L0,27.90625 C0,29.628125 1.40125,31.029375 3.123125,31.029375 L32.876875,31.029375 C34.601125,31.029375 36,29.628125 36,27.90625 L36,8.16525 C36,6.441 34.601125,5.03975 32.876875,5.03975 Z"/>
    <path stroke="#F0F0F0" d="M10,5 L25,5"/>
    <path stroke="#7DABCB" stroke-linecap="round" d="M21.1694375,18.539125 L21.1694375,17.75775 C21.1694375,17.3255 20.8203125,16.976375 20.3880625,16.976375 L15.7021875,16.976375 C15.2699375,16.976375 14.9208125,17.3255 14.9208125,17.75775 L14.9208125,18.539125"/>
  </g>
</svg>
