<svg xmlns="http://www.w3.org/2000/svg" width="48" height="48" viewBox="0 0 48 48">
  <g fill="none" fill-rule="evenodd">
    <g stroke="#F0F0F0" stroke-width="2" transform="translate(9 5)">
      <path d="M2.4423327,3 C1.09792938,3 0,4.08806679 0,5.42658373 L0,34.5761991 C0,35.9119332 1.09792938,37 2.4423327,37 L25.5576673,37 C26.9048715,37 28,35.9119332 28,34.5761991 L28,5.42658373 C28,4.08806679 26.9048715,3 25.5576673,3 L2.4423327,3 Z"/>
      <path stroke-linecap="round" stroke-linejoin="round" d="M5.02905946.366795367L5.02905946 5.57969112M11 .366795367L11 5.57969112M17 .366795367L17 5.57969112M23 .366795367L23 5.57969112"/>
    </g>
    <path stroke="#D8D8D8" stroke-linecap="round" stroke-linejoin="round" stroke-width="2" d="M32 33L23 33M32 37L23 37"/>
    <g transform="translate(16 15)">
      <path fill="#66267B" d="M7,1.33226763e-15 C4.88531746,1.33226763e-15 2.98964861,0.93770904 1.70611686,2.42000369 C5.23537229,5.47333456 7,7 7,7 C7,7 7,4.66666667 7,1.33226763e-15 Z"/>
      <path fill="#EE7D00" d="M12.6158963,2.82055878 C11.3397871,1.10864536 9.29936253,7.54951657e-14 7,7.54951657e-14 C3.13400675,7.54951657e-14 -3.2834846e-14,3.13400675 -6.21724894e-15,7 C-3.2834846e-14,10.8659932 3.13400675,14 7,14 C10.8659932,14 14,10.8659932 14,7 L7,7 L12.6158963,2.82055878 Z" transform="rotate(-90 7 7)"/>
    </g>
  </g>
</svg>
