<svg xmlns="http://www.w3.org/2000/svg" xmlns:xlink="http://www.w3.org/1999/xlink" width="220" height="120" viewBox="0 0 220 120">
  <defs>
    <rect id="suitessingle-a" width="63" height="22" x="139" y="14" rx="4"/>
    <mask id="suitessingle-c" width="63" height="22" x="0" y="0" fill="#fff" maskContentUnits="userSpaceOnUse" maskUnits="objectBoundingBox">
      <use xlink:href="#suitessingle-a"/>
    </mask>
    <rect id="suitessingle-b" width="63" height="22" x="139" y="48" rx="4"/>
    <mask id="suitessingle-d" width="63" height="22" x="0" y="0" fill="#fff" maskContentUnits="userSpaceOnUse" maskUnits="objectBoundingBox">
      <use xlink:href="#suitessingle-b"/>
    </mask>
  </defs>
  <g fill="none" fill-rule="evenodd">
    <rect width="156" height="100" x="50" y="10" fill="#202020" rx="4"/>
    <use stroke="#7DABCB" stroke-dasharray="2 2" stroke-width="2" mask="url(#suitessingle-c)" xlink:href="#suitessingle-a"/>
    <use stroke="#7DABCB" stroke-dasharray="2 2" stroke-width="2" mask="url(#suitessingle-d)" xlink:href="#suitessingle-b"/>
    <circle cx="128" cy="84" r="2" fill="#7DABCB"/>
    <circle cx="128" cy="91" r="2" fill="#7DABCB"/>
    <circle cx="128" cy="98" r="2" fill="#7DABCB"/>
    <path fill="#049474" stroke="#049474" stroke-linecap="round" stroke-linejoin="round" stroke-width="2" d="M74,38 L70.7142857,35 L64.5197143,35 C63.6788571,35 63,35.7053333 63,36.576 L63,49.6666667 C63,50.7866667 63.1941429,51 64.2857143,51 L79.7142857,51 C80.7942857,51 81,50.7866667 81,49.6666667 L81,38 L74,38 Z"/>
    <polygon fill="#FFF" stroke="#FFF" stroke-linecap="round" stroke-linejoin="round" stroke-width="2" points="70 41 70 47 75 44"/>
    <path fill="#FFF" stroke="#049474" stroke-linecap="round" stroke-linejoin="round" d="M127.136429,20.5 L124.785714,18.5 L120.344286,18.5 C119.877143,18.5 119.5,18.89675 119.5,19.3865 L119.5,28.75 C119.5,29.38 119.607857,29.5 120.214286,29.5 L130.785714,29.5 C131.385714,29.5 131.5,29.38 131.5,28.75 L131.5,20.5 L127.136429,20.5 Z"/>
    <polygon fill="#049474" stroke="#049474" stroke-linecap="round" stroke-linejoin="round" points="124.5 22.5 124.5 26.5 127.5 24.5"/>
    <path fill="#FFF" stroke="#049474" stroke-linecap="round" stroke-linejoin="round" d="M127.136429,55.5 L124.785714,53.5 L120.344286,53.5 C119.877143,53.5 119.5,53.89675 119.5,54.3865 L119.5,63.75 C119.5,64.38 119.607857,64.5 120.214286,64.5 L130.785714,64.5 C131.385714,64.5 131.5,64.38 131.5,63.75 L131.5,55.5 L127.136429,55.5 Z"/>
    <polygon fill="#049474" stroke="#049474" stroke-linecap="round" stroke-linejoin="round" points="124.5 57.5 124.5 61.5 127.5 59.5"/>
    <path stroke="#7DABCB" stroke-linecap="round" stroke-linejoin="round" d="M84.5,41.527832 L93.5393066,41.527832 C96.2059733,41.5092773 97.5393066,40.1666667 97.5393066,37.5 C97.5393066,33.5 97.5393066,31.472168 97.5393066,28 C97.5393066,25.6852214 98.7059733,24.527832 101.039307,24.527832 L115,24.527832"/>
    <path stroke="#7DABCB" stroke-linecap="round" stroke-linejoin="round" d="M84.5,59.5 L93.5476074,59.5 C96.2142741,59.5 97.5476074,58.1320801 97.5476074,55.3962402 C97.5476074,51.2924805 97.5476074,53.4599609 97.5476074,49.4799805 C97.5476074,46.8266602 98.7142741,45.5 101.047607,45.5 L115,45.5" transform="matrix(1 0 0 -1 0 105)"/>
    <path stroke="#7DABCB" stroke-linecap="round" stroke-linejoin="round" d="M97.5476074,90.5 C97.5476074,86.3962402 97.5476074,69.5637207 97.5476074,65.5837402 C97.5476074,62.9304199 98.7142741,61.6037598 101.047607,61.6037598 L115,61.6037598" opacity=".4" transform="matrix(1 0 0 -1 0 152.104)"/>
    <path fill="#979797" fill-opacity=".5" d="M21.4765192,82.020613 L2.7317366,81.5881433 C2.72491473,81.5047141 2.7215038,81.4246902 2.7010382,81.3463689 L60.0678157,59.4113011 L21.4765192,82.020613 Z M96.0787414,78.7345243 C95.9081947,78.5727738 95.7069497,78.4365629 95.459657,78.3786732 C94.9190241,78.2560834 94.3835077,78.4723182 94.0662909,78.8843563 L63.0199783,59.1814452 C63.0711423,59.0809896 63.1342445,58.9890472 63.1598265,58.8715653 C63.1700593,58.8255941 63.1564156,58.7830282 63.161532,58.7319491 L119.590303,58.605954 L96.0787414,78.7345243 Z M120.664747,58.2603188 L120.443036,58.2603188 L124.865311,54.4753575 L120.664747,58.2603188 Z M146.038678,49.2312367 L135.749598,46.3520781 C135.780297,46.1613828 135.77518,45.9757954 135.730838,45.7970186 L189.937386,25.6667457 L146.038678,49.2312367 Z M231.349524,2.17376536 C231.506427,2.39170285 231.729843,2.55175069 231.995896,2.64880098 L223.732911,33.8870753 C223.103594,33.7781066 222.510091,34.1203365 222.259388,34.6924225 L193.549564,24.9822857 C193.55127,24.9720699 193.556386,24.9652594 193.558092,24.9584488 C193.628016,24.6536769 193.571735,24.3574181 193.450647,24.0918068 L231.349524,2.17376536 Z M282.419719,32.1946545 L224.855108,35.0023023 C224.774951,34.5238614 224.430447,34.1271471 223.956327,33.9568834 L232.217607,2.71860908 C232.732658,2.80884883 233.232359,2.60453243 233.537638,2.212926 L282.535691,31.73324 C282.499876,31.8166692 282.447007,31.8898826 282.426541,31.9784197 C282.407781,32.051633 282.42313,32.1214411 282.419719,32.1946545 L282.419719,32.1946545 Z M340.835359,4.9269288 C340.961563,5.11932674 341.144048,5.26234822 341.353821,5.37131696 L320.235029,59.496433 C320.226501,59.4947303 320.216268,59.4845145 320.202625,59.4845145 C319.714861,59.3704378 319.245858,59.5509173 318.918408,59.8829315 L284.918228,33.0238386 C285.001796,32.8927355 285.075131,32.7565246 285.110946,32.5981794 C285.170637,32.337676 285.129706,32.0924963 285.051254,31.8558298 L340.835359,4.9269288 Z M391.354688,30.1327615 L356.457432,65.7382989 C356.302235,65.615709 356.126572,65.5203614 355.921916,65.4726875 C355.775246,65.4403374 355.630281,65.4505533 355.487022,65.4590664 L342.438497,5.45815143 C342.72331,5.35599323 342.970603,5.17891902 343.136033,4.92352353 L391.127861,28.8132182 C391.110806,28.8659999 391.074992,28.9102684 391.061348,28.9664554 C390.960725,29.3989252 391.095457,29.8143685 391.354688,30.1327615 L391.354688,30.1327615 Z M419.847917,22.4215202 C419.868383,22.4283308 419.883732,22.4215202 419.904198,22.4249255 L415.887824,81.622196 C415.773558,81.6290066 415.67123,81.6477356 415.563786,81.678383 L393.092559,30.4562625 C393.409775,30.2723777 393.657068,29.9710111 393.745752,29.5845125 C393.793505,29.3818988 393.783273,29.1826903 393.73893,28.9902924 L418.894562,21.5633914 C419.051465,21.9754294 419.384031,22.3159568 419.847917,22.4215202 L419.847917,22.4215202 Z M470.319494,61.3625227 L417.160102,82.3304929 C416.979323,81.9899655 416.670633,81.7243542 416.269849,81.6307092 C416.251089,81.6290066 416.234034,81.6341145 416.213568,81.6307092 L420.231647,22.4351413 C420.571035,22.4147097 420.876314,22.2750935 421.113374,22.038427 L470.466164,60.3222117 C470.39624,60.4413963 470.326316,60.5605808 470.292206,60.7036023 C470.239337,60.930053 470.263213,61.1496931 470.319494,61.3625227 L470.319494,61.3625227 Z M533.20175,77.334957 L486.850581,114.966632 C486.678329,114.796368 486.473673,114.656752 486.221264,114.600565 C486.050717,114.559702 485.881876,114.563107 485.718151,114.583539 L472.120466,62.2734333 C472.473498,62.1372224 472.753194,61.8682058 472.896454,61.4987336 L533.01756,76.4410727 C532.981745,76.7594658 533.038025,77.0761562 533.20175,77.334957 L533.20175,77.334957 Z M587.10302,57.6184247 C587.130307,57.6252353 587.1593,57.6184247 587.186587,57.62183 L584.415204,96.9016572 C583.935968,96.9152783 583.509602,97.1655659 583.269131,97.5810092 L535.666149,76.9995376 C535.676382,76.9654848 535.700258,76.9433505 535.70708,76.9092978 C535.75995,76.6862524 535.736073,76.4666123 535.683204,76.2605933 L586.204239,56.9067226 C586.383313,57.2523579 586.693708,57.5247797 587.10302,57.6184247 L587.10302,57.6184247 Z M631.295068,89.2738451 L585.747174,97.8636469 C585.610736,97.4073403 585.257705,97.0259497 584.758003,96.911873 C584.72901,96.9050625 584.701723,96.911873 584.671024,96.9084677 L587.445818,57.6320458 C587.822726,57.6184247 588.162114,57.4651874 588.412818,57.1961709 L631.472437,88.4923348 C631.405923,88.6047089 631.33941,88.7187855 631.305301,88.8515912 C631.276308,88.9946127 631.286541,89.1342289 631.295068,89.2738451 L631.295068,89.2738451 Z M540.160053,173.058891 C540.122533,173.048675 540.090129,173.058891 540.052609,173.055486 L542.022423,145.576633 C542.641507,145.569823 543.207722,145.168001 543.350981,144.539728 C543.390207,144.372869 543.385091,144.206011 543.364625,144.047666 L589.905101,132.806859 C589.937505,132.903909 589.957971,133.002662 590.01084,133.086091 L540.779138,173.414742 C540.606886,173.251289 540.405641,173.115078 540.160053,173.058891 L540.160053,173.058891 Z M480.622217,197.59729 L506.127469,139.952824 C506.156462,139.96304 506.176927,139.983472 506.207626,139.990283 C506.620349,140.087333 507.022839,139.973256 507.336645,139.733184 L538.824673,173.503279 C538.681414,173.670138 538.556915,173.85913 538.507456,174.088986 C538.454587,174.318842 538.478463,174.538482 538.538155,174.751312 L481.111686,198.096163 C480.99742,197.886739 480.828578,197.723286 480.622217,197.59729 L480.622217,197.59729 Z M409.094951,203.759132 L448.997751,161.492881 C449.147832,161.601849 449.316674,161.685279 449.507686,161.727844 C449.879477,161.814679 450.252975,161.741466 450.553137,161.552473 L478.979853,197.789688 C478.792251,197.970168 478.640465,198.182997 478.577363,198.452014 C478.560308,198.532038 478.577363,198.612062 478.570541,198.690383 L409.391702,204.334624 C409.345655,204.114983 409.234799,203.925991 409.094951,203.759132 L409.094951,203.759132 Z M367.413349,148.193586 L414.351199,156.894059 C414.30174,157.541061 414.700819,158.1472 415.347191,158.317463 L408.129657,203.277286 C407.867015,203.263665 407.616312,203.309636 407.396306,203.430524 L367.044968,148.779293 C367.212104,148.619245 367.34172,148.426847 367.413349,148.193586 L367.413349,148.193586 Z M306.287723,130.329522 L330.757757,127.300532 L364.844917,147.272459 L306.280902,130.545757 C306.291134,130.472544 306.287723,130.402736 306.287723,130.329522 L306.287723,130.329522 Z M259.153745,110.672582 L296.97076,111.920615 L304.239458,129.156406 C304.031391,129.278995 303.871077,129.461178 303.751695,129.677412 L259.112814,110.882007 C259.121341,110.853062 259.141807,110.829225 259.148629,110.798577 C259.158861,110.756011 259.146923,110.713446 259.153745,110.672582 L259.153745,110.672582 Z M220.045692,125.563842 L225.989243,114.925769 L256.48469,110.815604 C256.491512,110.842846 256.505156,110.86498 256.513683,110.892222 L220.443066,126.040581 C220.344149,125.856696 220.217944,125.686432 220.045692,125.563842 L220.045692,125.563842 Z M204.237723,117.273705 C204.101286,117.995622 204.549823,118.703919 205.272941,118.870778 C205.816985,118.996773 206.355912,118.777133 206.674835,118.361689 L218.011071,125.957151 L218.067351,125.999717 C218.060529,126.016744 218.055413,126.037175 218.046885,126.052499 L169.562178,107.28093 L204.237723,117.273705 Z M116.704654,113.132892 L156.634741,93.7756163 L165.631077,105.331411 C165.450298,105.508485 165.300217,105.71791 165.240525,105.983521 C165.211532,106.104408 165.226882,106.220187 165.228587,106.339372 L116.743879,113.243564 C116.735352,113.206106 116.716592,113.17035 116.704654,113.132892 L116.704654,113.132892 Z M83.0336279,92.8085187 L96.7660444,82.6591017 L114.623984,112.47908 C114.509718,112.560806 114.397157,112.654451 114.313589,112.768528 L83.0626209,94.0752804 C83.106963,93.9816354 83.1649488,93.9033141 83.1888254,93.7994532 C83.2689823,93.4470075 83.2007636,93.0979669 83.0336279,92.8085187 L83.0336279,92.8085187 Z M14.2555739,93.8658561 L24.3928669,87.9866518 L78.7426742,93.3567677 L14.3920112,94.264273 C14.3715456,94.1212516 14.3186762,93.9918512 14.2555739,93.8658561 L14.2555739,93.8658561 Z M2.59529927,82.2572795 L12.4119646,86.3112573 C12.3949099,86.3572285 12.3625061,86.3963891 12.3505678,86.4474682 C12.1800211,87.1847099 12.6422026,87.9236542 13.382375,88.0956205 C13.4267172,88.1058363 13.4676484,88.0922152 13.5119905,88.0990258 L13.0839184,93.1149933 C12.7479415,93.1013722 12.4392521,93.2035304 12.1885485,93.4044415 L2.35141756,82.6131305 C2.45033462,82.5058644 2.53049155,82.3900851 2.59529927,82.2572795 L2.59529927,82.2572795 Z M101.217312,75.7889629 L96.6057305,78.6647162 L120.038841,58.605954 L120.282722,58.605954 L101.217312,75.7889629 Z M14.7825631,85.9417852 C14.5949617,85.6880923 14.3340254,85.4888838 14.0048703,85.4156704 C13.3670258,85.2658384 12.7513524,85.6046631 12.4784778,86.1682358 L2.660107,82.114258 C2.67716167,82.0665842 2.70956553,82.0308288 2.71979833,81.9814524 C2.73344206,81.9235627 2.71979833,81.870781 2.72491473,81.814594 L21.1098439,82.2334426 L14.7825631,85.9417852 Z M29.1306529,82.4156247 L27.3740224,83.7096285 L14.9991573,86.3810654 C14.9803972,86.3197705 14.9565206,86.2635835 14.9326441,86.2073965 L21.6897025,82.2470637 L29.1306529,82.4156247 Z M29.4239932,82.1993898 L22.0546723,82.0342341 L59.315705,60.2047298 L29.4239932,82.1993898 Z M93.8019436,79.6164901 L74.519939,80.4644031 L62.6004335,59.6803177 C62.7146997,59.6002938 62.8153223,59.510054 62.9023011,59.4010853 L93.9469082,79.1039964 C93.8957442,79.204452 93.832642,79.2963944 93.80706,79.410471 C93.7900053,79.4802791 93.8053545,79.546682 93.8019436,79.6164901 L93.8019436,79.6164901 Z M127.957322,58.5855224 C127.976082,58.7421649 128.030657,58.8851864 128.098875,59.0213973 L102.948361,74.7077886 L120.818239,58.6025487 L127.957322,58.5855224 Z M133.817305,47.3327968 L129.758294,57.1331733 C129.710541,57.1161469 129.673021,57.0837968 129.621857,57.073581 C128.881685,56.8999121 128.141512,57.3630292 127.96926,58.1002709 C127.960733,58.1496474 127.970965,58.1973212 127.964144,58.2432924 L121.200263,58.2569135 L133.520553,47.1523173 C133.610943,47.2255307 133.711566,47.2800151 133.817305,47.3327968 L133.817305,47.3327968 Z M139.813725,52.5735124 L135.365868,47.0705908 C135.493778,46.9394878 135.594401,46.7879531 135.664325,46.6108789 L145.687352,49.4185267 L139.813725,52.5735124 Z M178.466418,58.5957382 C178.459596,58.6229804 178.466418,58.6485199 178.464713,58.6757621 L144.519107,58.3965297 L140.042257,52.8561501 L146.187053,49.5581429 L178.466418,58.5957382 Z M222.247449,35.7429493 L199.377143,48.100686 L192.746289,25.8931963 C193.061801,25.7569854 193.310799,25.5135084 193.454058,25.1848995 L222.167293,34.8984415 C222.163882,34.905252 222.158765,34.9120626 222.155354,34.9188731 C222.088841,35.2083214 222.140005,35.490959 222.247449,35.7429493 L222.247449,35.7429493 Z M282.793217,33.2264523 L265.235439,54.4651417 L224.7903,35.6510069 C224.803944,35.6101436 224.831231,35.5811988 224.839759,35.5403355 C224.856813,35.4671221 224.841464,35.397314 224.84658,35.3241006 L282.411192,32.5147502 C282.45724,32.7905773 282.600499,33.0272438 282.793217,33.2264523 L282.793217,33.2264523 Z M318.546617,60.7104129 L280.717664,61.079885 C280.659678,60.5112044 280.260599,60.0157371 279.673918,59.8795262 L283.669826,33.6350851 C284.082549,33.6657326 284.464574,33.5124953 284.740859,33.2298576 L318.744451,60.0889505 C318.660883,60.2183509 318.585843,60.3545618 318.548322,60.5146097 C318.536384,60.5810125 318.548322,60.64401 318.546617,60.7104129 L318.546617,60.7104129 Z M471.325719,62.3534572 C471.40076,62.3704836 471.474095,62.3534572 471.550841,62.3602678 L475.471708,117.898572 L435.306266,126.013338 C435.163007,125.567248 434.816797,125.19437 434.327328,125.081996 C434.085152,125.025809 433.848092,125.058159 433.624676,125.124562 L416.607531,84.1727457 C416.943508,83.9888609 417.209561,83.684089 417.303361,83.2839694 C417.35282,83.0575187 417.328943,82.8361759 417.276074,82.625049 L470.435465,61.6587815 C470.616245,61.9942009 470.921523,62.2615148 471.325719,62.3534572 L471.325719,62.3534572 Z M484.568667,115.63066 C484.536263,115.777087 484.546496,115.920108 484.555023,116.06313 L475.82474,117.825359 L471.941392,62.8029533 L485.424811,114.680589 C485.012088,114.838934 484.676111,115.169246 484.568667,115.63066 L484.568667,115.63066 Z M533.653699,77.7572109 L510.940295,128.374895 L487.186558,116.398549 C487.207023,116.345768 487.241133,116.306607 487.253071,116.25042 C487.34005,115.877542 487.263304,115.504665 487.077408,115.205001 L533.425166,77.5750287 C533.498501,77.6448368 533.568425,77.7078344 533.653699,77.7572109 L533.653699,77.7572109 Z M583.415801,99.1270033 L542.815465,143.112918 C542.672206,143.009057 542.50507,142.929033 542.319174,142.886467 C542.221962,142.866036 542.128162,142.883062 542.032656,142.879657 L534.690622,77.9240693 C535.050476,77.8338295 535.355754,77.6005683 535.543356,77.2719594 L583.146337,97.8500258 C583.136104,97.8823759 583.115639,97.9096181 583.107111,97.9436708 C583.006489,98.3812484 583.146337,98.8069076 583.415801,99.1270033 L583.415801,99.1270033 Z M543.040586,143.351287 L583.642628,99.367075 C583.789298,99.4692332 583.956434,99.5492572 584.138919,99.5918231 C584.295822,99.6258758 584.449314,99.6190653 584.599395,99.6054442 L590.800471,131.05144 C590.33829,131.184246 589.951149,131.540097 589.835177,132.042375 C589.794246,132.209233 589.797657,132.374389 589.821533,132.534437 L543.284468,143.775244 C543.228188,143.618601 543.148031,143.478985 543.040586,143.351287 L543.040586,143.351287 Z M480.228254,197.420216 C480.161741,197.404892 480.095228,197.420216 480.028715,197.413406 L477.774088,149.843441 L505.313961,139.285391 C505.428228,139.505031 505.60048,139.683808 505.817074,139.813208 L480.311822,197.457674 C480.282829,197.447458 480.262364,197.427027 480.228254,197.420216 L480.228254,197.420216 Z M451.139817,160.055855 L477.438111,149.972841 L479.682505,197.404892 C479.505136,197.437243 479.339706,197.503645 479.186214,197.59729 L450.759498,161.360075 C450.941983,161.179595 451.098886,160.966766 451.161988,160.697749 C451.213152,160.478109 451.192687,160.261874 451.139817,160.055855 L451.139817,160.055855 Z M359.559676,123.738616 L365.636253,146.542028 C365.397488,146.630565 365.182599,146.763371 365.023991,146.967687 L331.339321,127.230724 L359.559676,123.738616 Z M322.846098,122.252214 L333.500147,117.343513 L359.088967,121.959361 L359.477813,123.421925 L330.885667,126.961707 L322.846098,122.252214 Z M306.219505,129.910674 L322.452135,122.434396 L330.302398,127.033218 L306.25873,130.011129 C306.251909,129.973671 306.231443,129.943024 306.219505,129.910674 L306.219505,129.910674 Z M303.731229,112.141958 C303.770455,112.73107 304.167828,113.250374 304.773269,113.38999 C304.844899,113.407017 304.913117,113.38999 304.984747,113.396801 L304.860248,128.986142 C304.763036,128.989547 304.672647,128.999763 304.580551,129.025303 L297.371544,111.932533 L303.731229,112.141958 Z M294.828694,105.896687 L303.854023,111.491551 C303.816502,111.573277 303.763633,111.64649 303.741462,111.740135 C303.731229,111.782701 303.743167,111.823565 303.738051,111.869536 L297.255573,111.653301 L294.828694,105.896687 Z M258.485202,109.315581 L267.411614,88.9077782 L294.291472,105.564672 L296.854788,111.63968 L259.160567,110.396755 C259.129869,109.940449 258.879165,109.542032 258.485202,109.315581 L258.485202,109.315581 Z M236.28685,96.4930244 L256.597251,109.880856 C256.549498,109.981312 256.491512,110.071552 256.464224,110.18052 C256.436937,110.2963 256.452286,110.410376 256.455697,110.52275 L226.168317,114.607376 L236.28685,96.4930244 Z M216.917867,115.853706 L215.186818,108.278675 L230.80207,92.8783268 L236.025913,96.3193555 L225.782882,114.656752 L216.917867,115.853706 Z M219.554518,125.340797 C219.392498,125.305042 219.23389,125.311852 219.078693,125.328878 L216.982674,116.139749 L225.600397,114.97855 L219.760879,125.434442 C219.68925,125.4072 219.631264,125.357823 219.554518,125.340797 L219.554518,125.340797 Z M206.93236,117.552937 L215.744506,124.237488 L206.754992,118.215263 C206.824916,118.097781 206.89484,117.978596 206.925538,117.83898 C206.947709,117.74193 206.93236,117.649987 206.93236,117.552937 L206.93236,117.552937 Z M167.926635,106.548796 C167.988032,106.226998 167.928341,105.910308 167.77826,105.637886 L179.829086,97.3307216 L204.432146,116.795264 C204.387804,116.868477 204.357106,116.955311 204.324702,117.033633 L167.926635,106.548796 Z M159.06162,92.5990944 L165.503167,104.643546 L156.929787,93.6291896 L159.06162,92.5990944 Z M130.701417,59.9323079 L130.769636,59.6939388 L148.78789,73.38484 L158.91495,92.319862 L156.735364,93.3771994 L130.701417,59.9323079 Z M128.325702,59.3380877 C128.465551,59.4845145 128.636097,59.6002938 128.833931,59.6769124 L115.604628,112.235603 C115.333458,112.199847 115.072522,112.245819 114.837168,112.358193 L96.9672894,82.512675 L128.325702,59.3380877 Z M534.054483,77.9410956 C534.1534,77.9632299 534.247201,77.9462035 534.344413,77.9462035 L541.684741,142.906899 C541.352175,142.990328 541.062245,143.182726 540.872938,143.468769 L511.25069,128.533241 L533.970915,77.9036376 C534.001614,77.9104482 534.023785,77.9342851 534.054483,77.9410956 L534.054483,77.9410956 Z M367.004037,146.787208 L378.161199,131.872111 L390.239313,140.019227 L367.333192,147.233299 C367.253035,147.063035 367.145591,146.913203 367.004037,146.787208 L367.004037,146.787208 Z M305.394059,129.062761 L308.569638,114.300901 L322.131507,122.245403 L306.11206,129.624631 C305.953452,129.36583 305.697632,129.171729 305.394059,129.062761 L305.394059,129.062761 Z M216.697861,116.178909 L218.805818,125.403794 C218.601162,125.473603 218.423793,125.584274 218.275418,125.737511 L207.338261,117.440563 L216.697861,116.178909 Z M159.375426,92.4458571 L167.06708,88.7153802 C167.254681,89.0099364 167.551433,89.2329818 167.918108,89.3198162 C167.953923,89.3266268 167.984621,89.316411 168.020436,89.3232215 L166.615131,104.94321 C166.436057,104.939805 166.265511,104.967047 166.103491,105.030044 L159.375426,92.4458571 Z M131.088558,57.2557631 L130.416604,57.6150195 C130.286989,57.4362426 130.107915,57.2966264 129.899848,57.1961709 L133.651874,48.138144 L131.088558,57.2557631 Z M138.445941,53.3056461 L135.362457,47.5388159 L139.544261,52.7165339 L138.445941,53.3056461 Z M141.152516,58.3658822 L138.616487,53.6206339 L139.772794,52.9991716 L144.131966,58.3931244 L141.152516,58.3658822 Z M131.085147,58.5701986 L140.91034,58.6519252 L148.472378,72.7923224 L130.849793,59.4044906 L131.085147,58.5701986 Z M130.47459,59.1184476 C130.549631,58.9958578 130.62126,58.86816 130.657075,58.7217333 C130.667308,58.6689515 130.65537,58.6195751 130.658781,58.5667933 L130.718472,58.5667933 L130.547925,59.1746346 L130.47459,59.1184476 Z M130.263112,59.3738431 C130.275051,59.360222 130.288694,59.3517088 130.302338,59.3380877 L130.464357,59.4640829 L130.430248,59.5866727 L130.263112,59.3738431 Z M129.135799,59.7569364 C129.453016,59.796097 129.761705,59.7433153 130.022642,59.5866727 L130.322804,59.9731712 L118.503921,101.987433 L129.135799,59.7569364 Z M130.800334,58.2807504 L130.667308,58.2807504 C130.657075,58.1564579 130.62126,58.0474892 130.578624,57.9368178 L130.952121,57.734204 L130.800334,58.2807504 Z M138.309503,53.7874923 L140.753437,58.362477 L131.165304,58.2841557 L131.385309,57.5026455 L138.309503,53.7874923 Z M134.883221,47.378768 L138.138957,53.4708019 L131.520041,57.0225019 L134.211267,47.4587919 C134.444916,47.4962499 134.671743,47.4587919 134.883221,47.378768 L134.883221,47.378768 Z M167.26662,87.0246621 C167.258092,87.0348779 167.25127,87.0416884 167.241038,87.0519043 L149.13751,73.2980055 L141.307714,58.6519252 L144.36391,58.6791674 L167.26662,87.0246621 Z M178.759759,59.6871283 L168.547425,86.6432715 C168.544014,86.6432715 168.542309,86.6398662 168.538898,86.6398662 C168.163695,86.5530317 167.786787,86.6296504 167.486625,86.8220483 L144.749345,58.6825726 L178.456185,58.961805 C178.481767,59.2342269 178.589212,59.4777039 178.759759,59.6871283 L178.759759,59.6871283 Z M180.165063,57.509456 C180.148008,57.5060507 180.13607,57.4958349 180.120721,57.4890244 C180.066146,57.4788085 180.016687,57.4924296 179.965523,57.4856191 L184.952307,44.31913 L180.165063,57.509456 Z M180.939345,58.0611103 C180.804613,57.8619018 180.606779,57.715475 180.379952,57.6082089 L190.986248,28.387559 L191.895262,25.9834361 C191.898673,25.9868413 191.902084,25.9902466 191.905494,25.9902466 C192.094801,26.0328125 192.280697,26.0328125 192.459771,26.0004624 L199.102563,48.2471127 L180.939345,58.0611103 Z M204.082525,64.9210333 L181.157644,58.9958578 C181.186637,58.755786 181.149117,58.5293353 181.060433,58.3165058 L199.186131,48.5229398 L204.082525,64.9210333 Z M263.763621,56.244397 L229.371183,38.1419643 L265.02055,54.7256451 L263.763621,56.244397 Z M277.158355,60.3715882 L276.817262,61.8511794 C276.288567,61.7711555 275.776927,61.9942009 275.486998,62.4164548 L264.045023,56.3908237 L265.310479,54.861856 L277.158355,60.3715882 Z M283.357726,33.5857086 L277.233396,60.0497899 L265.525368,54.6013526 L283.023455,33.4324713 C283.124077,33.4954689 283.236638,33.5448454 283.357726,33.5857086 L283.357726,33.5857086 Z M278.205512,60.5009886 L277.438052,60.1417322 L283.234932,35.078921 L279.460735,59.8727156 C278.94739,59.8369603 278.469859,60.0753294 278.205512,60.5009886 L278.205512,60.5009886 Z M280.366338,62.855735 L280.115634,62.363673 C280.402152,62.1780857 280.623863,61.8886374 280.705726,61.5293811 C280.72278,61.459573 280.705726,61.3965754 280.710842,61.3301726 L314.199383,61.0032664 L280.366338,62.855735 Z M432.674731,126.112091 C432.669615,126.135928 432.674731,126.15636 432.67132,126.180197 L385.36509,123.748832 C385.336097,123.421925 385.186016,123.130775 384.952367,122.904324 L415.241452,84.1284771 C415.367657,84.2050958 415.497272,84.2783092 415.650764,84.3123619 C415.894646,84.3685489 416.126589,84.3379015 416.350006,84.2714986 L433.368856,125.225018 C433.031174,125.403794 432.765121,125.713674 432.674731,126.112091 L432.674731,126.112091 Z M476.164128,127.698949 L473.310882,131.214893 L435.367663,126.462834 C435.367663,126.40835 435.37619,126.352163 435.371074,126.299381 L475.492174,118.194831 L476.164128,127.698949 Z M484.945575,116.885503 L476.494988,127.290316 L475.848616,118.121618 L484.621536,116.349173 C484.686344,116.555192 484.795494,116.732266 484.945575,116.885503 L484.945575,116.885503 Z M506.913689,137.349493 C506.882991,137.339277 506.859114,137.317143 506.830121,137.310332 C506.410576,137.213282 506.004675,137.332467 505.690869,137.575944 L486.900039,116.868477 C486.951203,116.81229 487.007484,116.761211 487.05012,116.698213 L510.803858,128.676262 L506.913689,137.349493 Z M476.987868,133.263165 C477.214695,133.222302 477.414235,133.109928 477.593308,132.970312 C477.78091,133.273381 478.079366,133.50494 478.456275,133.591774 C479.158927,133.755227 479.84623,133.336379 480.062824,132.660432 L505.174113,138.451099 C505.14512,138.636686 505.153648,138.815463 505.19799,138.985727 L477.757033,149.504616 L476.987868,133.263165 Z M450.829422,159.49058 L475.782103,132.847722 C475.961177,133.033309 476.17436,133.186547 476.442119,133.246139 C476.512043,133.263165 476.575145,133.246139 476.645069,133.252949 L477.421056,149.634016 L451.02214,159.756191 C450.972682,159.657438 450.902757,159.574009 450.829422,159.49058 L450.829422,159.49058 Z M417.010021,156.636961 L442.94164,145.896729 L449.134189,159.204537 C448.813561,159.386719 448.564563,159.693194 448.474173,160.079692 C448.470762,160.098421 448.477584,160.118853 448.474173,160.139284 L417.049247,157.016649 C417.052658,156.887248 417.042425,156.759551 417.010021,156.636961 L417.010021,156.636961 Z M397.456847,138.124193 L414.64795,156.092117 L391.011889,140.153736 L397.456847,138.124193 Z M378.353917,131.61331 L383.284421,125.025809 C383.410625,125.105833 383.543652,125.179046 383.700554,125.214802 C384.120099,125.311852 384.529411,125.189262 384.846628,124.94238 L397.180562,137.834745 L390.63157,139.896637 L378.353917,131.61331 Z M363.801171,123.212501 C363.922259,123.699455 364.292345,124.104683 364.814218,124.227273 C364.902902,124.247704 364.991587,124.230678 365.080271,124.234083 L365.95347,146.455194 C365.929593,146.458599 365.902306,146.448383 365.876724,146.451789 L359.818907,123.704563 L363.801171,123.212501 Z M363.773884,122.807274 C363.773884,122.834516 363.772178,122.863461 363.773884,122.890703 L359.735339,123.389575 L359.366958,122.008737 L363.773884,122.807274 Z M355.742842,108.411481 C355.804238,108.387644 355.86393,108.375725 355.921916,108.345078 L364.329866,121.780584 C364.094511,121.949145 363.913732,122.192622 363.821637,122.488881 L359.274863,121.666507 L355.742842,108.411481 Z M354.097066,107.853016 C354.284668,108.162896 354.58483,108.39786 354.965149,108.484694 C355.144223,108.52726 355.328413,108.52726 355.500665,108.501721 L358.995166,121.617131 L334.011787,117.106846 L354.097066,107.853016 Z M308.941429,112.581238 L309.10686,111.799728 L353.931636,107.420546 C353.941869,107.473328 353.970862,107.517597 353.987917,107.570378 L333.49162,117.014904 L308.941429,112.581238 Z M308.649795,113.931429 L308.871505,112.897928 L332.97998,117.246462 L322.527176,122.066627 L308.649795,113.931429 Z M306.16493,112.891118 L308.243893,114.108503 L305.042733,128.989547 L305.034205,128.989547 L305.16041,113.400206 C305.557784,113.379775 305.921048,113.199295 306.16493,112.891118 L306.16493,112.891118 Z M277.803021,65.5322798 L304.270156,110.962031 C304.181472,111.028433 304.096199,111.101647 304.024569,111.191886 L294.595045,105.345032 L277.803021,65.5322798 Z M277.519914,65.802999 L294.059528,105.013018 L267.551462,88.5876825 L277.519914,65.802999 Z M266.847105,88.1535102 L276.252752,64.5089952 C276.271513,64.5124005 276.286862,64.5294268 276.309033,64.5328321 C276.539271,64.5856139 276.762687,64.5617769 276.97587,64.5055899 L277.361306,65.4233111 L267.297348,88.4293373 L266.847105,88.1535102 Z M266.717489,88.4787138 L267.155794,88.7477303 L261.135497,102.511845 L266.717489,88.4787138 Z M246.872681,77.5443813 C246.94431,77.5750287 247.002296,77.6209999 247.080748,77.6380263 C247.281993,77.6839975 247.483238,77.6737817 247.675955,77.634621 L257.301608,109.235557 C257.095247,109.318986 256.911057,109.441576 256.766092,109.61184 L236.443753,96.213792 L246.872681,77.5443813 Z M246.536704,77.3621992 C246.557169,77.3775229 246.567402,77.3979545 246.587868,77.4149809 L236.182816,96.040123 L231.034013,92.6484709 L246.536704,77.3621992 Z M209.260322,78.295244 C209.311486,78.1998964 209.371177,78.1096566 209.396759,78.0006879 C209.413814,77.920664 209.398465,77.8440453 209.401876,77.7674267 L246.035297,76.4666123 C246.065995,76.7168999 246.170028,76.9399453 246.320109,77.1323432 L230.764549,92.4730993 L209.260322,78.295244 Z M208.492862,78.9677855 C208.726511,78.8877616 208.934578,78.7549559 209.094892,78.5693685 L230.534311,92.7012526 L215.10325,107.919419 L208.492862,78.9677855 Z M206.437775,116.464952 C206.279166,116.338957 206.101798,116.236799 205.893731,116.189125 C205.857916,116.178909 205.825512,116.19253 205.789697,116.18572 L208.093783,79.0409989 C208.134714,79.0375936 208.177351,79.0478094 208.216576,79.0444042 L214.864485,108.156085 L206.437775,116.464952 Z M207.005695,117.190275 L206.85732,117.074496 C206.807861,116.938285 206.743053,116.81229 206.654369,116.694808 L214.948053,108.515342 L216.633054,115.894569 L207.005695,117.190275 Z M204.64874,115.821355 L204.880684,116.352578 C204.778356,116.41217 204.698199,116.499005 204.612926,116.585839 L180.125837,97.2149423 L204.64874,115.821355 Z M167.077313,105.036855 L171.14144,90.4571775 L179.593732,97.1451342 L167.609418,105.411435 C167.467865,105.246279 167.288791,105.118582 167.077313,105.036855 L167.077313,105.036855 Z M167.06708,87.2715444 C166.990334,87.3941342 166.918704,87.5201293 166.888006,87.6699613 C166.826609,87.93387 166.869246,88.1858603 166.952814,88.4225267 L159.228756,92.1666247 L149.453022,73.8905231 L167.06708,87.2715444 Z M179.211707,60.039574 L174.59842,71.6515559 L179.027517,59.9561448 C179.082092,59.9953055 179.152016,60.0123319 179.211707,60.039574 L179.211707,60.039574 Z M223.188867,36.5721333 C223.494145,36.6419414 223.789191,36.5823491 224.056949,36.4614619 L243.567486,69.9982957 L232.657617,72.307071 L212.089691,66.9897368 L223.158169,36.5585122 C223.170107,36.5585122 223.178634,36.568728 223.188867,36.5721333 L223.188867,36.5721333 Z M254.265878,67.7371943 L243.854005,69.9387034 L224.299126,36.3320615 C224.42533,36.2384165 224.539596,36.1362583 224.628281,36.0068579 L263.555554,56.4980898 L254.265878,67.7371943 Z M319.378884,62.0708195 L305.319018,110.706635 C305.07002,110.665772 304.836371,110.70323 304.616366,110.783254 L280.494248,63.1128332 L318.536384,61.0271033 C318.606308,61.4953284 318.926936,61.8852321 319.378884,62.0708195 L319.378884,62.0708195 Z M473.116459,131.449857 L471.18246,133.831846 L443.021797,145.496609 L434.700825,127.608709 C435.019748,127.423122 435.270451,127.120052 435.360841,126.731851 C435.360841,126.728446 435.35743,126.72504 435.360841,126.721635 L473.116459,131.449857 Z M505.530556,137.725776 C505.394118,137.872203 505.288379,138.040764 505.221866,138.241675 L480.112283,132.451007 C480.214611,131.749521 479.779717,131.075277 479.075359,130.911824 C478.652403,130.814774 478.243091,130.937364 477.924169,131.191056 C477.893471,131.14168 477.847423,131.104222 477.809903,131.061656 C477.707575,130.887987 477.567726,130.74156 477.39718,130.625781 L485.305428,117.144304 C485.400934,117.193681 485.491324,117.253273 485.602179,117.280515 C486.021724,117.377565 486.424214,117.256678 486.741431,117.014904 L505.530556,137.725776 Z M475.282401,131.722279 C475.275579,131.85849 475.285812,131.989593 475.318216,132.118993 L471.78449,133.581558 L473.479723,131.497531 L475.282401,131.722279 Z M476.358551,130.419762 C475.845205,130.52192 475.415428,130.908419 475.289223,131.449857 L475.289223,131.460073 L473.674146,131.257459 L476.194826,128.15185 L476.358551,130.419762 Z M477.236866,130.552568 C477.14136,130.506596 477.05097,130.445302 476.94182,130.419762 C476.865074,130.402736 476.791739,130.416357 476.714993,130.412951 L476.527392,127.743217 L485.029143,117.273705 L477.236866,130.552568 Z M471.334246,134.136618 L475.442715,132.433981 C475.47853,132.496979 475.524578,132.551463 475.572331,132.604245 C475.585974,132.628082 475.597913,132.646811 475.611556,132.667242 L452.422328,157.428687 L471.334246,134.136618 Z M450.12677,159.047894 C449.860717,158.988302 449.599781,159.030868 449.361016,159.117702 L443.165056,145.806489 L470.732217,134.386905 L450.549726,159.241995 C450.423521,159.158566 450.287084,159.085352 450.12677,159.047894 L450.12677,159.047894 Z M416.503498,155.882693 L433.425136,127.635951 C433.518937,127.681922 433.600799,127.739812 433.704833,127.765351 C433.974297,127.824944 434.235233,127.782378 434.473998,127.692138 L442.79838,145.590254 L416.890638,156.321973 C416.790016,156.151709 416.667222,155.998472 416.503498,155.882693 L416.503498,155.882693 Z M397.743366,138.033953 L432.788997,126.997462 C432.887914,127.210292 433.019235,127.40269 433.211953,127.538901 L416.290314,155.782237 C416.196514,155.739671 416.114651,155.680079 416.010618,155.656242 C415.587662,155.559192 415.181761,155.683484 414.864544,155.928664 L397.743366,138.033953 Z M366.328672,123.501949 C366.378131,123.403196 366.442939,123.309551 366.466815,123.197177 C366.473637,123.17334 366.46511,123.152909 366.470226,123.130775 L382.656809,123.961661 C382.680685,124.327728 382.84441,124.656337 383.113874,124.893003 L378.176548,131.494126 L366.328672,123.501949 Z M306.328655,112.574427 C306.347415,112.531861 306.371291,112.490998 306.38664,112.448432 L308.520179,112.834931 L308.320639,113.742436 L306.328655,112.574427 Z M258.118527,109.150425 C257.913871,109.102751 257.714331,109.109562 257.521614,109.15383 L247.894255,77.5511918 C248.109144,77.4643574 248.301862,77.3383622 248.448532,77.1595854 L266.468491,88.3254765 L258.176513,109.175965 C258.154342,109.169154 258.138992,109.15383 258.118527,109.150425 L258.118527,109.150425 Z M169.197208,88.9248045 L169.277365,88.9843968 L170.900969,90.2681849 L166.809555,104.950021 C166.804438,104.946615 166.797616,104.950021 166.790794,104.950021 L168.194393,89.3266268 C168.581534,89.3368426 168.936271,89.1904159 169.197208,88.9248045 L169.197208,88.9248045 Z M207.524157,76.4478833 C207.31609,76.5364204 207.128489,76.6607129 206.983524,76.8394897 L180.995625,59.4845145 C181.022913,59.4368407 181.043378,59.3874642 181.063844,59.3380877 L204.201908,65.316045 L207.524157,76.4478833 Z M208.39565,76.3644541 C208.383712,76.3610488 208.375185,76.350833 208.363246,76.350833 C208.177351,76.3082671 207.986338,76.3048618 207.807264,76.3372119 L204.544707,65.4062847 L211.707666,67.2587534 L208.39565,76.3644541 Z M231.88163,72.4705241 L209.326835,77.2379067 C209.207452,76.9024873 208.970393,76.6334707 208.637827,76.4734228 L211.965192,67.3251562 L231.88163,72.4705241 Z M275.272109,63.0191881 L274.206193,63.521466 L254.75023,67.6350361 L263.836956,56.6445166 L275.355677,62.7093083 C275.3318,62.7689006 275.290869,62.8199797 275.27552,62.8829772 C275.266993,62.9289484 275.277226,62.9715143 275.272109,63.0191881 L275.272109,63.0191881 Z M278.094656,61.6894289 L277.345956,62.0418747 C277.25045,61.9805798 277.143006,61.9346086 277.032151,61.8988532 L277.363011,60.4686385 L278.072485,60.7972473 C278.058841,60.8381106 278.031554,60.8670554 278.021321,60.9079187 C277.958219,61.1803406 278.002561,61.4425466 278.094656,61.6894289 L278.094656,61.6894289 Z M278.770021,62.9425695 L278.959328,62.5169103 C278.990026,62.5271262 279.019019,62.5492604 279.053128,62.5594763 C279.324298,62.6224738 279.586939,62.5765026 279.829116,62.4862629 L280.028655,62.8761667 L278.770021,62.9425695 Z M248.620784,76.8565161 C248.658304,76.7730869 248.709468,76.6998735 248.731639,76.6062285 C248.793036,76.3406172 248.752105,76.0852217 248.666831,75.8451499 L275.42219,63.8500748 C275.551806,64.083336 275.747934,64.2621129 275.988405,64.3898106 L266.599812,87.9968676 L248.620784,76.8565161 Z M246.589573,75.1964454 C246.386623,75.3428721 246.236542,75.5488911 246.137625,75.7923682 L233.425077,72.5062795 L243.755088,70.3217967 L246.589573,75.1964454 Z M248.134726,75.1538794 C248.003405,75.067045 247.863557,74.9938316 247.699832,74.9580762 C247.396259,74.8882681 247.097802,74.9444551 246.83516,75.0636397 L244.039901,70.2622044 L253.902614,68.1764745 L248.134726,75.1538794 Z M272.814532,64.1786837 L248.574736,75.6084834 C248.518456,75.516541 248.440004,75.4399224 248.363258,75.3598985 L254.386966,68.0743163 L272.814532,64.1786837 Z M278.17993,61.9056638 C278.190162,61.9277981 278.200395,61.9482297 278.215744,61.9720666 L277.683639,62.350052 C277.642708,62.3006755 277.594955,62.251299 277.545496,62.2036252 L278.17993,61.9056638 Z M278.439161,62.9630011 L277.973568,62.9851354 C277.944575,62.7893322 277.874651,62.6071501 277.767207,62.4402917 L278.299312,62.0571984 C278.405051,62.1934094 278.534667,62.3040808 278.684748,62.3943205 L278.439161,62.9630011 Z M277.432935,64.2825445 C277.685344,64.0935519 277.886589,63.8330485 277.963335,63.5010343 C277.98039,63.4141998 277.966746,63.3341759 277.968452,63.2490441 L278.321483,63.2286125 L277.676817,64.7013931 L277.432935,64.2825445 Z M275.343739,63.6440558 L275.343739,63.6440558 L258.145814,71.3518918 L273.805408,63.9658541 L275.343739,63.6440558 Z M232.650795,72.6697326 L246.043824,76.1311929 C246.040413,76.1618403 246.043824,76.1907852 246.042118,76.2214326 L209.7839,77.5052206 L232.650795,72.6697326 Z M192.649078,88.4889296 L204.37416,115.19138 L180.352664,96.96806 L192.649078,88.4889296 Z M172.07433,87.1149018 L190.012427,82.4820275 L192.531401,88.2233183 L180.115604,96.7858779 L171.252295,90.0621658 L172.07433,87.1149018 Z M171.835564,86.9156933 L169.500781,87.5201293 C169.386514,87.2051415 169.16992,86.9497461 168.866347,86.7862929 L169.792416,84.3413067 L179.042866,61.0594534 L171.835564,86.9156933 Z M206.867552,77.0352929 C206.806156,77.1459643 206.741348,77.2515278 206.710649,77.3809282 C206.669718,77.5614076 206.669718,77.7401845 206.697006,77.9104482 L190.237548,82.1636345 L180.509567,60.0089266 C180.652826,59.9254974 180.773914,59.8131234 180.879653,59.683723 L206.867552,77.0352929 Z M206.855614,78.3429179 L192.812803,88.0258124 L190.341582,82.3968957 L206.780574,78.1505199 C206.806156,78.2169228 206.82321,78.2833256 206.855614,78.3429179 L206.855614,78.3429179 Z M180.197467,60.1298138 L189.908393,82.2470637 L172.152781,86.8356694 L179.583499,60.1723797 C179.796682,60.2081351 180.001338,60.1860008 180.197467,60.1298138 L180.197467,60.1298138 Z M169.400158,88.6574906 C169.470082,88.5417113 169.538301,88.425932 169.570705,88.2897211 C169.611636,88.1092416 169.611636,87.9304648 169.586054,87.7567958 L171.757113,87.198331 L171.010119,89.8782811 L169.400158,88.6574906 Z M204.921615,115.608526 L192.928774,88.2965316 L207.027866,78.5727738 C207.210351,78.7856034 207.445705,78.960975 207.744162,79.0307831 C207.778271,79.0375936 207.810675,79.0273778 207.84649,79.0341883 L205.549227,116.083562 L204.921615,115.608526 Z M302.588566,107.463112 L277.862713,65.0214888 L278.654049,63.2115861 L280.156565,63.1281569 L302.588566,107.463112 Z M306.425866,111.777593 C306.390051,111.593709 306.313305,111.42685 306.209272,111.275316 L309.483768,108.345078 L308.796465,111.544332 L306.425866,111.777593 Z M306.432688,112.130039 C306.432688,112.106202 306.434394,112.085771 306.434394,112.060231 L308.731657,111.837186 L308.586692,112.51824 L306.432688,112.130039 Z M309.608267,107.766182 L305.972212,111.021623 C305.864768,110.92968 305.736858,110.85817 305.598715,110.801983 L318.725691,65.3926636 L309.608267,107.766182 Z M354.334126,106.174216 C354.14823,106.352993 353.994738,106.565823 353.931636,106.834839 C353.90776,106.9387 353.924814,107.034048 353.924814,107.134503 L309.168256,111.506874 L309.937422,107.936445 L337.103798,83.6142809 L354.334126,106.174216 Z M355.29942,68.1526376 C355.357406,68.1662587 355.415392,68.1526376 355.473378,68.1594481 L355.159572,105.794528 C354.9498,105.811555 354.748555,105.864336 354.572892,105.966495 L337.337447,83.4031539 L354.719562,67.8410551 C354.886697,67.9840766 355.072593,68.0998559 355.29942,68.1526376 L355.29942,68.1526376 Z M362.11617,104.238318 L355.988429,68.1168822 C356.012305,68.1066664 356.034476,68.0964506 356.060058,68.0862348 L372.076095,100.271175 L362.11617,104.238318 Z M378.140734,112.455243 L372.381373,116.97404 L363.388448,111.740135 L362.174156,104.577143 L372.227881,100.572542 L378.140734,112.455243 Z M414.784387,83.684089 L378.406786,112.242413 L372.538276,100.449952 L414.763922,83.6330099 C414.770744,83.646631 414.774155,83.6670626 414.784387,83.684089 L414.784387,83.684089 Z M384.319639,122.531446 C384.056997,122.471854 383.799471,122.51442 383.564117,122.597849 L378.560278,112.552293 L415.007803,83.9326739 C415.011214,83.9360792 415.011214,83.9394845 415.018036,83.9428898 L384.728951,122.717034 C384.602746,122.640415 384.473131,122.567202 384.319639,122.531446 L384.319639,122.531446 Z M385.354857,124.101277 L432.662793,126.529237 C432.666204,126.571803 432.65256,126.62118 432.659382,126.665448 L397.46708,137.746207 L385.042757,124.760198 C385.186016,124.593339 385.301987,124.407752 385.351446,124.184707 C385.358268,124.154059 385.351446,124.126817 385.354857,124.101277 L385.354857,124.101277 Z M356.401152,107.93304 L363.091697,111.82697 L364.745999,121.583078 C364.653904,121.613725 364.561809,121.640967 364.476536,121.686939 L356.068586,108.251433 C356.19479,108.162896 356.310762,108.059035 356.401152,107.93304 L356.401152,107.93304 Z M356.46937,106.485799 C356.28518,106.15719 355.981607,105.893281 355.584233,105.804744 C355.526247,105.791123 355.468262,105.804744 355.410276,105.801339 L355.720671,68.3995199 L361.82283,104.354098 L356.46937,106.485799 Z M356.592164,106.802489 L361.882521,104.696328 L363.040533,111.537522 L356.493247,107.727021 C356.537589,107.636781 356.593869,107.556757 356.617746,107.454599 C356.66891,107.231554 356.645033,107.011914 356.592164,106.802489 L356.592164,106.802489 Z M366.076263,121.925308 C365.9006,121.749936 365.694239,121.606915 365.436713,121.547322 C365.305392,121.516675 365.179188,121.526891 365.051278,121.533701 L363.439612,112.029584 L372.192066,117.123872 L366.076263,121.925308 Z M382.789835,123.292525 C382.747199,123.382765 382.690918,123.462789 382.667042,123.561542 C382.663631,123.578568 382.670453,123.595594 382.667042,123.612621 L366.478753,122.780031 C366.461699,122.563797 366.408829,122.357778 366.299679,122.175595 L372.502461,117.307757 L382.789835,123.292525 Z M382.883636,123.086506 L372.695179,117.157925 L378.29252,112.761717 L383.253722,122.730655 C383.110463,122.8243 382.984258,122.943485 382.883636,123.086506 L382.883636,123.086506 Z M336.89232,83.3367511 L310.063626,107.360954 L319.786491,62.1712751 C320.07642,62.1917067 320.357822,62.1406276 320.594882,62.0010114 L336.89232,83.3367511 Z M366.415651,146.468815 C366.325261,146.444978 366.238283,146.46541 366.153009,146.458599 L365.2764,124.237488 C365.620904,124.20003 365.929593,124.031469 366.154715,123.774371 L377.982125,131.752926 L366.83349,146.654402 C366.705581,146.577784 366.572554,146.501165 366.415651,146.468815 L366.415651,146.468815 Z M540.736501,143.768433 C540.716036,143.814404 540.685337,143.85016 540.67681,143.901239 L507.865339,138.74225 C507.90286,138.231459 507.658978,137.754721 507.2292,137.492515 L511.117664,128.832905 L540.736501,143.768433 Z M414.612135,82.7816916 C414.588259,82.9689816 414.598491,83.1443532 414.641128,83.3146168 L372.38649,100.146883 L356.365337,67.9568344 C356.592164,67.8070024 356.755889,67.5822543 356.863333,67.3183457 L414.612135,82.7816916 Z M354.260791,66.7070991 C354.236915,67.0288974 354.306839,67.335372 354.485913,67.5873622 L337.125969,83.1273268 L320.831942,61.7949924 C321.011016,61.6247287 321.154275,61.4187097 321.220788,61.1667195 L354.260791,66.7070991 Z M222.368538,36.0000474 C222.503269,36.1958506 222.692576,36.3388721 222.912581,36.4444355 L211.828754,66.923334 L204.425324,65.011273 L199.459006,48.3765131 L222.368538,36.0000474 Z M96.0292828,80.9462493 L101.889266,75.6629678 L126.326896,60.4209646 L96.8035647,82.2402531 L96.0292828,80.9462493 Z M95.8416815,81.1165129 L96.6040251,82.3866799 L84.5395549,91.3016853 L95.8416815,81.1165129 Z M32.6797288,83.1818112 C32.8690356,83.4576383 33.1504375,83.6738732 33.5017636,83.7573024 C34.1958885,83.9156476 34.8678423,83.5104201 35.0946694,82.8549049 L79.414628,93.07413 L24.9096233,87.6869877 L32.6797288,83.1818112 Z M22.7948448,87.4775634 L27.7833344,83.8066788 L32.5074767,82.7885021 C32.5279423,82.8651208 32.5586407,82.9383341 32.59275,83.0081422 L24.5804682,87.6546376 L22.7948448,87.4775634 Z M22.3735946,87.7874433 L24.0637119,87.952599 L15.0281502,93.1933146 L22.3735946,87.7874433 Z M15.0366776,87.0655253 L15.0366776,87.0621201 L21.8977694,87.7397695 L14.021925,93.5372472 C13.8394401,93.3431466 13.6228458,93.1848014 13.3465602,93.1218039 C13.3022181,93.111588 13.2612869,93.1218039 13.2186503,93.1183986 L13.6467224,88.1024311 C14.2913887,88.1228627 14.8848911,87.7176352 15.0366776,87.0655253 L15.0366776,87.0655253 Z M15.0503213,86.5530317 L27.0175799,83.9718346 L22.3173142,87.4315922 L15.0452049,86.7130796 C15.0452049,86.6602978 15.0588486,86.6058135 15.0503213,86.5530317 L15.0503213,86.5530317 Z M94.1481533,80.6278562 L82.726644,92.4526677 C82.5612137,92.3130515 82.3770233,92.2006774 82.1553127,92.1495983 C81.8483287,92.076385 81.5515775,92.1359772 81.2821138,92.2568644 L74.702424,80.7793909 L93.7917108,79.9416937 C93.8360529,80.2056023 93.9724902,80.4337557 94.1481533,80.6278562 L94.1481533,80.6278562 Z M96.4812315,80.0591756 C96.4812315,80.0489598 96.4897588,80.038744 96.4914643,80.0285281 C96.5682103,79.7033245 96.5034025,79.3866341 96.3635543,79.110807 L100.158217,76.7424394 L96.4812315,80.0591756 Z M94.2709469,80.7572566 C94.4329662,80.8968728 94.618862,81.0092468 94.8405727,81.0603259 C95.0128248,81.0994866 95.1867824,81.0994866 95.3522126,81.0722444 L84.5941298,90.7704627 L94.2709469,80.7572566 Z M32.4597236,82.4922433 C32.4614291,82.5331066 32.4511963,82.5756725 32.4546072,82.6165358 L28.1397769,83.5461754 L29.6542312,82.4292458 L32.4597236,82.4922433 Z M34.7603979,81.4519324 C34.5864403,81.2765608 34.3800789,81.1335393 34.120848,81.0722444 C33.3806755,80.9036834 32.640503,81.3650979 32.4699564,82.1040422 C32.4563127,82.1602292 32.4699564,82.2164162 32.46484,82.2691979 L29.9475714,82.2130109 L58.7443737,61.023698 L34.7603979,81.4519324 Z M35.1697099,82.1908767 C35.137306,81.9848576 35.0452108,81.7941623 34.9241227,81.6256013 L60.8676795,59.5270804 C61.0433426,59.7007493 61.2479985,59.8471761 61.5072294,59.9033631 C61.812508,59.9765765 62.1109646,59.9169842 62.3787228,59.7926917 L74.2385371,80.4780242 L35.1697099,82.1908767 Z M81.0621086,92.3726437 C80.8301652,92.5360969 80.6579131,92.7676554 80.5641124,93.0485905 L35.1577716,82.5790778 C35.1611826,82.5586462 35.1577716,82.5399172 35.1611826,82.5160803 L74.4193165,80.793012 L81.0621086,92.3726437 Z M116.586976,112.841741 C116.442012,112.615291 116.21689,112.451838 115.957659,112.339464 L130.592267,60.3188064 L156.438613,93.5202208 L116.586976,112.841741 Z M367.452575,147.910948 C367.462808,147.795169 367.481568,147.67939 367.462808,147.568718 L390.617927,140.276325 L414.494458,156.381565 C414.458643,156.454779 414.417712,156.527992 414.39213,156.611421 L367.452575,147.910948 Z M408.409353,203.302826 L415.623477,158.343003 C416.280081,158.380461 416.890638,157.96672 417.042425,157.306097 C417.045836,157.285665 417.039014,157.265234 417.042425,157.246505 L448.467351,160.372546 C448.46394,160.70456 448.571385,161.007629 448.777746,161.256214 L408.874946,203.519061 C408.738508,203.420308 408.5799,203.347094 408.409353,203.302826 L408.409353,203.302826 Z M539.031035,173.314287 L507.543006,139.544192 C507.682854,139.384144 507.798826,139.198556 507.853401,138.978916 L540.659755,144.132797 C540.615413,144.795123 541.033252,145.41318 541.698384,145.569823 C541.735905,145.576633 541.768308,145.566417 541.805829,145.569823 L539.836015,173.048675 C539.540969,173.052081 539.261273,173.14232 539.031035,173.314287 L539.031035,173.314287 Z M631.602052,90.0178973 L592.002825,131.260864 C591.852744,131.14849 591.680492,131.058251 591.487774,131.010577 C591.330871,130.974822 591.177379,130.981632 591.027298,131.002064 L584.824516,99.5560677 C585.288403,99.4198568 585.673839,99.0640057 585.791516,98.5617279 C585.82392,98.4187064 585.813687,98.2756849 585.80516,98.139474 L631.353054,89.5496722 C631.402513,89.7216385 631.489491,89.8782811 631.602052,90.0178973 L631.602052,90.0178973 Z M392.09145,30.6163103 C392.337037,30.6724974 392.574097,30.6384446 392.800924,30.5686365 L415.267034,81.790757 C415.011214,81.9405891 414.821908,82.1806608 414.70423,82.4667038 L356.957134,67.0033579 C357.010003,66.6134541 356.894032,66.2439819 356.656972,65.9545337 L391.554228,30.3489964 C391.711131,30.4732889 391.886794,30.5686365 392.09145,30.6163103 L392.09145,30.6163103 Z M341.679565,5.52114899 C341.82794,5.55520172 341.971199,5.54839117 342.112753,5.53477008 L355.161278,65.5390904 C354.743438,65.6855171 354.40064,66.0124234 354.282962,66.4704326 L321.242959,60.930053 C321.283891,60.3852093 321.0059,59.8863367 320.53178,59.6309412 L341.647161,5.50752789 C341.657394,5.51093317 341.669332,5.51774371 341.679565,5.52114899 L341.679565,5.52114899 Z M191.110747,25.4437003 C191.23013,25.6139639 191.392149,25.739959 191.578045,25.8404146 L179.597143,57.4754033 C179.126434,57.5520219 178.734177,57.8772255 178.551692,58.3369374 L146.536674,49.3708529 L191.110747,25.4437003 Z M655.268811,121.673318 L592.476945,131.969161 C592.42237,131.792087 592.340507,131.637147 592.22283,131.494126 L631.822057,90.2545638 C631.972138,90.3669378 632.14439,90.4537722 632.342225,90.4997434 C632.705489,90.5831726 633.063637,90.5133645 633.360388,90.3345877 L655.722465,120.619386 C655.516104,120.801568 655.345557,121.028018 655.279044,121.317467 C655.251756,121.436651 655.2654,121.557538 655.268811,121.673318 L655.268811,121.673318 Z M1.06890673,83.0115475 C1.49527336,83.1085978 1.90799626,82.9809001 2.2269185,82.7289098 L12.062344,93.5202208 C11.8935028,93.6921871 11.751949,93.8999088 11.6922577,94.151899 C11.5217111,94.8908433 11.9838925,95.628085 12.7257704,95.8017539 C13.4676484,95.9703149 14.2078208,95.5123057 14.3783675,94.7699561 C14.3903058,94.7205797 14.376662,94.6677979 14.3817784,94.6167188 L80.4890719,93.6836739 C80.5658179,94.2285177 80.964897,94.6967427 81.5362283,94.8295484 C82.0905049,94.9572461 82.6413706,94.7307955 82.9585874,94.2983258 L114.207851,112.993276 C114.165214,113.083516 114.105523,113.166945 114.083351,113.270806 C113.911099,114.008047 114.376692,114.746992 115.115159,114.918958 C115.858742,115.089222 116.597209,114.626105 116.769461,113.888863 C116.796749,113.767976 116.783105,113.648791 116.777989,113.533012 L165.262696,106.625415 C165.38549,107.107261 165.753871,107.514191 166.272333,107.633376 C166.896533,107.776397 167.495152,107.459707 167.779965,106.921674 L217.918975,126.331731 C217.915564,126.348758 217.903626,126.358974 217.900215,126.372595 C217.727963,127.109836 218.19185,127.852186 218.932023,128.02245 C219.6739,128.194416 220.414073,127.733001 220.58462,126.990652 C220.642605,126.742067 220.608496,126.501995 220.536867,126.275544 L256.605778,111.132294 C256.788263,111.471119 257.095247,111.73673 257.499443,111.830375 C258.11,111.969991 258.701796,111.666922 258.993431,111.144213 L303.630607,129.941321 C303.623785,129.973671 303.598203,129.994103 303.591381,130.026453 C303.419129,130.765397 303.883016,131.502639 304.624894,131.676308 C305.286615,131.829545 305.921048,131.463478 306.180279,130.862448 L364.759643,147.59596 C364.652199,148.300852 365.088798,148.985312 365.796567,149.148765 C366.139366,149.228789 366.478753,149.158981 366.765272,149.002338 L407.11661,203.653569 C406.930714,203.82894 406.773811,204.045175 406.710709,204.314192 C406.540162,205.053136 407.004049,205.793783 407.742516,205.964047 C408.486099,206.136013 409.224566,205.674599 409.398524,204.932249 C409.415579,204.853928 409.398524,204.773904 409.405346,204.697285 L478.582479,199.049639 C478.693334,199.551917 479.073653,199.977576 479.60917,200.101869 C480.352753,200.27043 481.09122,199.809015 481.261767,199.070071 C481.314636,198.840215 481.29076,198.61717 481.231069,198.407745 L538.657537,175.062895 C538.840022,175.393206 539.143595,175.648602 539.540969,175.738841 C540.282847,175.909105 541.019609,175.445988 541.191861,174.708746 C541.278839,174.335869 541.202093,173.962991 541.012787,173.663327 L590.2479,133.336379 C590.418446,133.501534 590.617986,133.63434 590.866984,133.695635 C591.607157,133.864196 592.345624,133.402781 592.519581,132.663837 C592.546869,132.541247 592.533225,132.425468 592.529814,132.304581 L655.321681,122.012142 C655.458118,122.471854 655.811149,122.84984 656.310851,122.967321 C657.054435,123.135882 657.792902,122.677873 657.963448,121.935524 C658.137406,121.194877 657.673519,120.455932 656.931641,120.287371 C656.568377,120.203942 656.208523,120.27375 655.908361,120.452527 L633.5514,90.1677293 C633.757762,89.9855472 633.926603,89.7590965 633.993116,89.4696483 C634.163663,88.7272987 633.701481,87.990057 632.961309,87.8197934 C632.461607,87.7040141 631.975549,87.8930067 631.651511,88.2454525 L588.591892,56.9492885 C588.654994,56.8369145 588.724918,56.7245405 588.755617,56.5900322 C588.926163,55.8493853 588.462276,55.110441 587.723809,54.9384747 C586.980226,54.768211 586.240053,55.2313282 586.071212,55.9719751 C586.018343,56.1950205 586.040514,56.4112554 586.093383,56.6206797 L535.572348,75.971145 C535.393274,75.6289151 535.08288,75.3564932 534.673568,75.2594429 C534.001614,75.104503 533.34842,75.4858936 533.104538,76.1141665 L472.980022,61.1769353 C473.063589,60.4890701 472.637223,59.833555 471.944803,59.6735072 C471.465567,59.5645384 471.00168,59.7365047 470.679347,60.0600057 L421.326557,21.7762209 C421.396481,21.6570364 421.466405,21.5344465 421.500514,21.3914251 C421.672767,20.6524808 421.210585,19.9135365 420.467002,19.7415702 C419.725124,19.5713065 418.988362,20.0344237 418.814405,20.7716653 C418.768357,20.9776844 418.77859,21.1785955 418.817816,21.3675881 L393.665595,28.7927865 C393.506987,28.3807484 393.176126,28.0419238 392.713945,27.9346576 C392.134086,27.801852 391.56105,28.0623554 391.257477,28.5339857 L343.263943,4.64429112 C343.282703,4.58980675 343.320224,4.54724083 343.333867,4.49105382 C343.504414,3.75210952 343.043938,3.01486786 342.298649,2.84119892 C341.560182,2.67093526 340.82001,3.13405242 340.647757,3.87299672 C340.586361,4.13179749 340.628997,4.38038244 340.709154,4.61364366 L284.923344,31.54595 C284.735743,31.2547991 284.440697,31.0317537 284.079138,30.9483245 C283.538505,30.8257347 283.004694,31.0419695 282.684067,31.4506023 L233.686013,1.93028832 C233.723534,1.84685913 233.774698,1.77705103 233.795163,1.68681128 C233.969121,0.946164347 233.503528,0.207220048 232.765061,0.0352537476 C232.023184,-0.135009916 231.284717,0.328107249 231.112464,1.06534891 C231.04254,1.37182351 231.098821,1.66808228 231.218203,1.9336936 L193.322737,23.851735 C193.131725,23.5929342 192.863967,23.3852126 192.526284,23.3102965 C191.784406,23.1366276 191.044234,23.5980421 190.873687,24.3403917 C190.824229,24.5566266 190.841283,24.7660509 190.889036,24.9686646 L135.614866,45.4939493 C135.434087,45.148314 135.127103,44.8724869 134.712675,44.7754366 C133.974208,44.6051729 133.23233,45.0682901 133.061783,45.8055318 C132.971393,46.1988408 133.066899,46.5853393 133.278377,46.8901113 L119.996204,58.2603188 L63.1734702,58.3897191 C63.1018406,57.8346596 62.7044669,57.3562187 62.1263138,57.223413 C61.3844359,57.0531494 60.6459689,57.5145639 60.4737167,58.2535082 C60.4242582,58.4731483 60.4413129,58.6859779 60.4924769,58.8919969 L2.58165554,81.0296785 C2.39917062,80.6908538 2.09218665,80.4252425 1.68799108,80.3315975 C0.946113143,80.1579285 0.207646138,80.6210457 0.035394019,81.3616926 C-0.135152634,82.1006369 0.327028795,82.8378786 1.06890673,83.0115475 L1.06890673,83.0115475 Z" transform="translate(8 -201)"/>
  </g>
</svg>
