<svg xmlns="http://www.w3.org/2000/svg" width="48" height="48" viewBox="0 0 48 48">
  <g fill="none" fill-rule="evenodd" stroke-width="2" transform="translate(6 11)">
    <path stroke="#F0F0F0" d="M1.77290466,0 C0.796134547,0 -2.27387553e-13,0.798 -2.27387553e-13,1.77705882 L-2.27387553e-13,25.2141176 C-2.27387553e-13,26.1954118 0.796134547,26.9911765 1.77290466,26.9911765 L34.2270953,26.9911765 C35.2038655,26.9911765 36,26.1954118 36,25.2141176 L36,1.77705882 C36,0.798 35.2038655,0 34.2270953,0 L1.77290466,0 Z"/>
    <path stroke="#E4006D" stroke-linecap="round" stroke-linejoin="round" d="M19.1862706,22 L5.24474118,22 C4.91838824,22 4.65238824,21.7375114 4.65238824,21.4154665 L4.65238824,19.8493577 C4.65238824,18.8743999 5.22909412,17.9744388 6.12544706,17.5553393 L9.2638,15.653951 C8.24897647,14.8422214 7.62085882,13.6378617 7.56944706,12.3364474 L7.44874118,9.25275723 C7.44874118,6.89697677 9.40015294,5 11.7986235,5 L12.6256824,5 C15.0263882,5 16.9778,6.89918256 16.9778,9.23069936 L16.8570941,12.3364474 C16.8056824,13.6400675 16.1775647,14.8444271 15.1605059,15.6561567 L18.3323882,17.5707798 C19.2086235,17.9942909 19.7763882,18.8854288 19.7763882,19.8515635 L19.7763882,21.4154665 C19.7786235,21.7375114 19.5126235,22 19.1862706,22 Z"/>
    <path stroke="#D8D8D8" stroke-linecap="round" d="M31.8733529 7.01129412L24.8880588 7.01129412M31.5928235 14.1176471L24.8869412 14.1176471M29.6380588 19.1176471L24.8880588 19.1176471"/>
  </g>
</svg>
