<svg xmlns="http://www.w3.org/2000/svg" width="64" height="64" viewBox="0 0 64 64">
  <defs>
    <linearGradient id="project64-a" x1="0%" x2="100%" y1="88.927%" y2="11.073%">
      <stop offset="0%" stop-color="#0E3754"/>
      <stop offset="100%" stop-color="#5993BC"/>
    </linearGradient>
  </defs>
  <g fill="none" fill-rule="evenodd">
    <path fill="url(#project64-a)" d="M25,21 L25,18.7761111 C25,16.6932708 26.6932708,15 28.7761111,15 L35.2238889,15 C37.3067292,15 39,16.6932708 39,18.7761111 L39,21 L46.0503819,21 C47.6788403,21 49,22.3188235 49,23.9416471 L49,42.0605882 C49,43.6811765 47.6788403,45 46.0503819,45 L17.9496181,45 C16.3234028,45 15,43.6811765 15,42.0605882 L15,23.9416471 C15,22.3188235 16.3234028,21 17.9496181,21 L25,21 Z M27,21 L37,21 L37,18.7761111 C37,17.7978403 36.2021597,17 35.2238889,17 L28.7761111,17 C27.7978403,17 27,17.7978403 27,18.7761111 L27,21 Z"/>
    <path stroke="#FFF" stroke-linecap="round" stroke-width="2" d="M17,31 C17,31.8757539 17.5718475,32.36525 18.3636364,32.36525 L29,33.4125452 L29,34.2062726 C29,34.6453559 29.2848331,35 29.6818182,35 L34.3181818,35 C34.7151669,35 35,34.6453559 35,34.2062726 L35,33.4125452 L45.6363636,32.36525 C46.4259713,32.36525 47,31.8757539 47,31"/>
    <path stroke="#FFF" stroke-linecap="round" stroke-width="2" d="M35,33 L35,31.5856883 C35,31.2616905 34.6647662,31 34.2497149,31 L29.7502851,31 C29.3352338,31 29,31.2616905 29,31.5856883 L29,33"/>
  </g>
</svg>
