<svg xmlns="http://www.w3.org/2000/svg" width="10" height="10" viewBox="0 0 10 10">
  <path fill="none" stroke="#376789" stroke-linecap="round" stroke-linejoin="round" d="M7.26588293,8.5 L1.7349983,8.5 C1.60552754,8.5 1.5,8.39191644 1.5,8.25930972 L1.5,7.61444142 C1.5,7.21298819 1.7287908,6.84241599 2.08439201,6.66984559 L2.9427416,6.66984559 L3.32943963,5.88692098 C2.92683876,5.55267938 2.67765188,5.05676658 2.6572558,4.5208901 L2.60936936,3.25113533 C2.60936936,2.28110808 3.38353358,1.5 4.33505502,1.5 L4.66316586,1.5 C5.61557408,1.5 6.38973831,2.28201635 6.38973831,3.24205268 L6.34185186,4.5208901 C6.32145578,5.05767484 6.0722689,5.55358765 5.66878125,5.88782925 L6.06287335,6.67620345 L6.92713066,6.67620345 C7.27475079,6.85059037 7.49999445,7.21752952 7.49999445,7.61534968 L7.49999445,8.25930972 C7.50088124,8.39191644 7.3953537,8.5 7.26588293,8.5 Z"/>
</svg>
