<svg xmlns="http://www.w3.org/2000/svg" width="16" height="16" viewBox="0 0 16 16">
  <g fill="none" fill-rule="evenodd">
    <rect width="13" height="10" x="1.5" y="5.5" stroke="#FFF" rx="2"/>
    <path fill="#FFF" d="M7,10.7324356 C6.40219863,10.3866262 6,9.74028236 6,9 C6,7.8954305 6.8954305,7 8,7 C9.1045695,7 10,7.8954305 10,9 C10,9.74028236 9.59780137,10.3866262 9,10.7324356 L9,13 C9,13.5522847 8.55228475,14 8,14 C7.44771525,14 7,13.5522847 7,13 L7,10.7324356 Z"/>
    <path stroke="#FFF" d="M11.5,5 L11.5,4.34615385 C11.5,2.22198173 9.93299662,0.5 8,0.5 C6.06700338,0.5 4.5,2.22198173 4.5,4.34615385 L4.5,5"/>
  </g>
</svg>
