<svg xmlns="http://www.w3.org/2000/svg" width="16" height="16" viewBox="0 0 16 16">
  <path fill="#979797" fill-rule="evenodd" d="M8,13 C5.23857625,13 3,10.7614237 3,8 C3,5.23857625 5.23857625,3 8,3 C10.7614237,3 13,5.23857625 13,8 C13,10.7614237 10.7614237,13 8,13 Z M8,7.29289322 L6.35355339,5.64644661 C6.15829124,5.45118446 5.84170876,5.45118446 5.64644661,5.64644661 C5.45118446,5.84170876 5.45118446,6.15829124 5.64644661,6.35355339 L7.29289322,8 L5.64644661,9.64644661 C5.45118446,9.84170876 5.45118446,10.1582912 5.64644661,10.3535534 C5.84170876,10.5488155 6.15829124,10.5488155 6.35355339,10.3535534 L8,8.70710678 L9.64644661,10.3535534 C9.84170876,10.5488155 10.1582912,10.5488155 10.3535534,10.3535534 C10.5488155,10.1582912 10.5488155,9.84170876 10.3535534,9.64644661 L8.70710678,8 L10.3535534,6.35355339 C10.5488155,6.15829124 10.5488155,5.84170876 10.3535534,5.64644661 C10.1582912,5.45118446 9.84170876,5.45118446 9.64644661,5.64644661 L8,7.29289322 Z"/>
</svg>
