<svg xmlns="http://www.w3.org/2000/svg" width="16" height="16" viewBox="0 0 16 16">
  <path fill="#F0F0F0" fill-rule="evenodd" d="M8,15 C4.13400675,15 1,11.8659932 1,8 C1,4.13400675 4.13400675,1 8,1 C11.8659932,1 15,4.13400675 15,8 C15,11.8659932 11.8659932,15 8,15 Z M8,6.58578644 L5.79044011,4.37622655 C5.39991582,3.98570226 4.76675084,3.98570226 4.37622655,4.37622655 C3.98570226,4.76675084 3.98570226,5.39991582 4.37622655,5.79044011 L6.58578644,8 L4.37622655,10.2095599 C3.98570226,10.6000842 3.98570226,11.2332492 4.37622655,11.6237734 C4.76675084,12.0142977 5.39991582,12.0142977 5.79044011,11.6237734 L8,9.41421356 L10.2095599,11.6237734 C10.6000842,12.0142977 11.2332492,12.0142977 11.6237734,11.6237734 C12.0142977,11.2332492 12.0142977,10.6000842 11.6237734,10.2095599 L9.41421356,8 L11.6237734,5.79044011 C12.0142977,5.39991582 12.0142977,4.76675084 11.6237734,4.37622655 C11.2332492,3.98570226 10.6000842,3.98570226 10.2095599,4.37622655 L8,6.58578644 Z"/>
</svg>
