<svg xmlns="http://www.w3.org/2000/svg" width="16" height="16" viewBox="0 0 16 16">
  <g fill="none" fill-rule="evenodd">
    <path stroke="#376789" stroke-linejoin="round" stroke-width="2" d="M13.9995385,14 C14.8395385,14 15,13.854 15,13.083 L15,3.917 C15,3.147 14.8470769,3 13.9995385,3 L1.99938462,3 C1.15076923,3 1,3.147 1,3.917 L1,13.083 C1,13.854 1.15076923,14 1.99938462,14 L13.9995385,14 Z"/>
    <path stroke="#979797" stroke-linecap="square" d="M3.4996 5.50532695L3.4996 11.5302293M3.4996 5.5002L12.5193754 5.5002M3.4996 8.5002L12.5193754 8.5002M3.4996 11.5002L12.5193754 11.5002M12.4996 5.50532695L12.4996 11.5302293M9.4996 5.50532695L9.4996 11.5302293M6.4996 5.50532695L6.4996 11.5302293"/>
  </g>
</svg>
