<svg xmlns="http://www.w3.org/2000/svg" width="16" height="16" viewBox="0 0 16 16">
  <g fill="none" fill-rule="evenodd" transform="translate(1 3)">
    <path stroke="#376789" stroke-linejoin="round" stroke-width="2" d="M12.9999385,10.9998 C13.8399385,10.9998 14.0004,10.8538 14.0004,10.0828 L14.0004,0.9168 C14.0004,0.1468 13.8474769,-0.0002 12.9999385,-0.0002 L0.999784615,-0.0002 C0.151169231,-0.0002 0.0004,0.1468 0.0004,0.9168 L0.0004,10.0828 C0.0004,10.8538 0.151169231,10.9998 0.999784615,10.9998 L12.9999385,10.9998 Z"/>
    <polygon fill="#5993BC" points="11.832 5.588 8.608 6.902 6.975 5 2 6.977 2 9 12 9 12 5.948"/>
    <path fill="#3CB850" d="M4.0001,2.9998 C4.0001,3.5518 3.5521,3.9998 3.0001,3.9998 C2.4481,3.9998 2.0001,3.5518 2.0001,2.9998 C2.0001,2.4478 2.4481,1.9998 3.0001,1.9998 C3.5521,1.9998 4.0001,2.4478 4.0001,2.9998"/>
  </g>
</svg>
