<svg xmlns="http://www.w3.org/2000/svg" width="16" height="16" viewBox="0 0 16 16">
  <g fill="none" fill-rule="evenodd">
    <path stroke="#376789" d="M4.5.5L11.5.5C12.0522847.5 12.5.94771525 12.5 1.5L12.5 4.5 3.5 4.5 3.5 1.5C3.5.94771525 3.94771525.5 4.5.5zM12.5 3.5L14.5 3.5C15.0522847 3.5 15.5 3.94771525 15.5 4.5L15.5 11.5C15.5 12.0522847 15.0522847 12.5 14.5 12.5L12.5 12.5M3.5 12.5L1.5 12.5C.94771525 12.5.5 12.0522847.5 11.5L.5 4.5C.5 3.94771525.94771525 3.5 1.5 3.5L3.5 3.5M3.5 9.5L12.5 9.5 12.5 14.5C12.5 15.0522847 12.0522847 15.5 11.5 15.5L4.5 15.5C3.94771525 15.5 3.5 15.0522847 3.5 14.5L3.5 9.5z"/>
    <path stroke="#7DABCB" stroke-linecap="square" d="M5.5 11.5L10.2839648 11.5M5.5 13.5L10.2839648 13.5"/>
    <circle cx="2.5" cy="6.5" r="1" fill="#049474"/>
  </g>
</svg>
