<svg xmlns="http://www.w3.org/2000/svg" width="16" height="16" viewBox="0 0 16 16">
  <g fill="none" fill-rule="evenodd" stroke-linecap="round">
    <path stroke="#049474" d="M2.63922412,8.45998872 C4.04513088,7.69890178 5,6.21096171 5,4.5 C5,2.01471863 2.98528137,0 0.5,0" transform="matrix(0 -1 -1 0 12.5 8.5)"/>
    <path stroke="#049474" d="M14.5249652,7.61446123 L12.9209722,6.01046819" transform="rotate(90 13.243 6.974)"/>
    <path stroke="#049474" d="M12.0423242,6.89305861 L11.2403277,8.81548477" transform="rotate(90 11.641 7.854)"/>
    <path stroke="#049474" d="M3.11815739,9.95905892 L1.57606241,8.41696394" transform="rotate(90 2.784 9.02)"/>
    <path stroke="#049474" d="M4.71579681,7.20937378 L3.99124272,9.14151803" transform="rotate(90 4.354 8.175)"/>
    <path stroke="#049474" d="M2.75157653,8.39706772 C4.09576016,7.61877238 5,6.16498446 5,4.5 C5,2.01471863 2.98528137,0 0.5,0" transform="matrix(0 1 1 0 3.5 7.5)"/>
  </g>
</svg>
