<svg xmlns="http://www.w3.org/2000/svg" width="16" height="16" viewBox="0 0 16 16">
  <g fill="none" fill-rule="evenodd">
    <path fill="#5993BC" d="M13,9 C10.790861,9 9,10.790861 9,13 C9,13.7285743 9.19478857,14.4116533 9.53512878,15 L5,15 C3.8954305,15 3,14.1045695 3,13 L3,5 C3,4.25971764 3.40219863,3.61337381 4,3.26756439 L4,5 L12,5 L12,3.26756439 C12.5978014,3.61337381 13,4.25971764 13,5 L13,9 Z"/>
    <polyline stroke="#FFF" stroke-linecap="round" stroke-linejoin="round" stroke-width="2" points="6 9.5 7.333 11 10 8"/>
    <path fill="#5993BC" d="M7,1 L9,1 C10.1045695,1 11,1.8954305 11,3 L11,4 L5,4 L5,3 C5,1.8954305 5.8954305,1 7,1 Z"/>
    <circle cx="13" cy="13" r="3" fill="#3CB850"/>
  </g>
</svg>
