<svg width="18" height="16" viewBox="0 0 18 16" fill="none" xmlns="http://www.w3.org/2000/svg">
<path d="M16 14L10 11" stroke="#244358" stroke-linecap="square"/>
<path d="M16 8L10 11" stroke="#244358" stroke-linecap="square"/>
<path fill-rule="evenodd" clip-rule="evenodd" d="M16 16C17.1046 16 18 15.1046 18 14C18 12.8954 17.1046 12 16 12C14.8954 12 14 12.8954 14 14C14 15.1046 14.8954 16 16 16Z" fill="#244358"/>
<path fill-rule="evenodd" clip-rule="evenodd" d="M16 10C17.1046 10 18 9.10457 18 8C18 6.89543 17.1046 6 16 6C14.8954 6 14 6.89543 14 8C14 9.10457 14.8954 10 16 10Z" fill="#244358"/>
<path fill-rule="evenodd" clip-rule="evenodd" d="M10 13C11.1046 13 12 12.1046 12 11C12 9.89543 11.1046 9 10 9C8.89543 9 8 9.89543 8 11C8 12.1046 8.89543 13 10 13Z" fill="#244358"/>
<path d="M1.7 1.424C1.72667 1.408 1.76667 1.4 1.82 1.4H2.788C2.81467 1.4 2.836 1.41067 2.852 1.432C2.87333 1.448 2.884 1.46933 2.884 1.496V6.904C2.884 6.93067 2.87333 6.95467 2.852 6.976C2.836 6.992 2.81467 7 2.788 7H1.852C1.82533 7 1.80133 6.992 1.78 6.976C1.764 6.95467 1.756 6.93067 1.756 6.904V2.52C1.756 2.50933 1.75067 2.49867 1.74 2.488C1.72933 2.47733 1.71867 2.47467 1.708 2.48L0.916 2.696L0.884 2.704C0.836 2.704 0.812 2.67467 0.812 2.616L0.788 1.928C0.788 1.87467 0.812 1.83733 0.86 1.816L1.7 1.424ZM5.69213 5.984C5.68146 5.99467 5.67879 6.00533 5.68413 6.016C5.68946 6.02667 5.70013 6.032 5.71613 6.032H7.88413C7.91079 6.032 7.93213 6.04267 7.94813 6.064C7.96946 6.08 7.98013 6.10133 7.98013 6.128V6.904C7.98013 6.93067 7.96946 6.95467 7.94813 6.976C7.93213 6.992 7.91079 7 7.88413 7H4.28413C4.25746 7 4.23346 6.992 4.21213 6.976C4.19613 6.95467 4.18813 6.93067 4.18813 6.904V6.168C4.18813 6.12 4.20413 6.08 4.23613 6.048C4.49746 5.792 4.76413 5.51467 5.03613 5.216C5.30813 4.912 5.47879 4.72267 5.54813 4.648C5.69746 4.472 5.84946 4.304 6.00413 4.144C6.48946 3.60533 6.73213 3.20533 6.73213 2.944C6.73213 2.75733 6.66546 2.60533 6.53213 2.488C6.39879 2.36533 6.22546 2.304 6.01213 2.304C5.79879 2.304 5.62546 2.36533 5.49213 2.488C5.35879 2.60533 5.29213 2.76267 5.29213 2.96V3.16C5.29213 3.18667 5.28146 3.21067 5.26013 3.232C5.24413 3.248 5.22279 3.256 5.19613 3.256H4.25213C4.22546 3.256 4.20146 3.248 4.18013 3.232C4.16413 3.21067 4.15613 3.18667 4.15613 3.16V2.784C4.17213 2.496 4.26279 2.24267 4.42813 2.024C4.59346 1.8 4.81213 1.62933 5.08413 1.512C5.36146 1.39467 5.67079 1.336 6.01213 1.336C6.39079 1.336 6.71879 1.408 6.99613 1.552C7.27879 1.69067 7.49479 1.88 7.64413 2.12C7.79879 2.36 7.87613 2.62667 7.87613 2.92C7.87613 3.144 7.82013 3.37333 7.70813 3.608C7.59613 3.84267 7.42813 4.096 7.20413 4.368C7.03879 4.576 6.86013 4.78133 6.66813 4.984C6.47613 5.18667 6.19079 5.48 5.81213 5.864L5.69213 5.984ZM12.5113 4.328C12.618 4.57333 12.6713 4.856 12.6713 5.176C12.6713 5.464 12.6233 5.73067 12.5273 5.976C12.3993 6.31733 12.1833 6.584 11.8793 6.776C11.5806 6.968 11.226 7.064 10.8153 7.064C10.41 7.064 10.0526 6.96267 9.74331 6.76C9.43931 6.55733 9.22065 6.28267 9.08731 5.936C9.01265 5.728 8.96998 5.504 8.95931 5.264C8.95931 5.2 8.99131 5.168 9.05531 5.168H9.99931C10.0633 5.168 10.0953 5.2 10.0953 5.264C10.1166 5.44 10.146 5.57067 10.1833 5.656C10.2313 5.79467 10.3086 5.904 10.4153 5.984C10.5273 6.05867 10.658 6.096 10.8073 6.096C11.106 6.096 11.3113 5.96533 11.4233 5.704C11.498 5.544 11.5353 5.35733 11.5353 5.144C11.5353 4.89333 11.4953 4.688 11.4153 4.528C11.2926 4.27733 11.0873 4.152 10.7993 4.152C10.7406 4.152 10.6793 4.17067 10.6153 4.208C10.5513 4.24 10.474 4.288 10.3833 4.352C10.362 4.368 10.3406 4.376 10.3193 4.376C10.2873 4.376 10.2633 4.36 10.2473 4.328L9.77531 3.664C9.76465 3.648 9.75931 3.62933 9.75931 3.608C9.75931 3.576 9.76998 3.54933 9.79131 3.528L11.0633 2.416C11.074 2.40533 11.0766 2.39467 11.0713 2.384C11.0713 2.37333 11.0633 2.368 11.0473 2.368H9.16731C9.14065 2.368 9.11665 2.36 9.09531 2.344C9.07931 2.32267 9.07131 2.29867 9.07131 2.272V1.496C9.07131 1.46933 9.07931 1.448 9.09531 1.432C9.11665 1.41067 9.14065 1.4 9.16731 1.4H12.5033C12.53 1.4 12.5513 1.41067 12.5673 1.432C12.5886 1.448 12.5993 1.46933 12.5993 1.496V2.376C12.5993 2.41867 12.5806 2.45867 12.5433 2.496L11.4953 3.456C11.4846 3.46667 11.4793 3.47733 11.4793 3.488C11.4846 3.49867 11.498 3.504 11.5193 3.504C11.9833 3.59467 12.314 3.86933 12.5113 4.328Z" fill="#049474"/>
</svg>
