<svg xmlns="http://www.w3.org/2000/svg" width="16" height="16" viewBox="0 0 16 16">
  <g fill="none" fill-rule="evenodd">
    <path stroke="#376789" stroke-linecap="round" d="M7,13.5 L2.5,13.5 C1.94771525,13.5 1.5,13.0522847 1.5,12.5 L1.5,3.5 C1.5,2.94771525 1.94771525,2.5 2.5,2.5 L9.5,2.5 C10.0522847,2.5 10.5,2.94771525 10.5,3.5 L10.5,7"/>
    <path stroke="#376789" d="M5.5,2.5 L6.5,2.5 C7.05228475,2.5 7.5,2.94771525 7.5,3.5 L7.5,4.5 L4.5,4.5 L4.5,3.5 C4.5,2.94771525 4.94771525,2.5 5.5,2.5 Z" transform="matrix(1 0 0 -1 0 7)"/>
    <path stroke="#7DABCB" stroke-linecap="round" d="M8.5 6.5L6.5 6.5M7.5 8.5L6.5 8.5"/>
    <path stroke="#5993BC" stroke-linecap="round" d="M4.5 6.5L3.5 6.5M4.5 8.5L3.5 8.5M4.5 10.5L3.5 10.5"/>
    <rect width="1" height="1" x="5.5" y="1.5" fill="#D8D8D8" stroke="#376789" rx=".5"/>
    <circle cx="11.5" cy="11.5" r="3" stroke="#E40046"/>
    <polyline stroke="#B30037" stroke-linecap="round" stroke-linejoin="round" points="13 11.5 11.5 11.5 11.5 10"/>
  </g>
</svg>
