<svg xmlns="http://www.w3.org/2000/svg" width="24" height="24" viewBox="0 0 24 24">
  <g fill="none" fill-rule="evenodd" stroke-width="2" transform="translate(.5 2.5)">
    <g stroke="#244358" stroke-linecap="round" transform="translate(.5 .5)">
      <path d="M7.85714286,5.45775958 C7.85714286,2.44281584 10.3196486,9.76996262e-15 13.356638,9.76996262e-15 C16.3946371,9.76996262e-15 18.8571429,2.44281584 18.8571429,5.45775958 C18.8571429,6.40663021 18.6128106,7.29939023 18.1837147,8.07692308"/>
      <path d="M18.8885099 4.5C20.7013708 5.17496821 22 6.98390018 22 9.10910549 22 11.4243649 20.4595413 13.364078 18.3908944 13.8708948M8.73711401 1.87775833C8.24910592 1.63617857 7.69513114 1.5 7.10812895 1.5 5.14588214 1.5 3.55455381 3.02635927 3.55455381 4.90849354 3.55455381 4.96293932 3.56825529 5.01175278 3.57119132 5.06432112 1.52184228 5.56559778 3.46389584e-14 7.33320817 3.46389584e-14 9.45471613 3.46389584e-14 11.5899887 1.53535886 13.3815465 3.60483858 13.8690291"/>
    </g>
    <g stroke="#E4006D" transform="translate(2.462 5.885)">
      <circle cx="9.038" cy="8.615" r="3"/>
      <path stroke-linecap="round" d="M9.03846154 13.5955278L9.03846154 11.6153846M9.03846154 5.53846154L9.03846154 3.61538462M14.0384615 8.61538462L12.0384615 8.61538462M4.03846154 8.61538462L6.03846154 8.61538462"/>
      <path stroke-linecap="round" d="M5.98528137 10.7841878L5.98528137 9.22887112M5.98528137 2.68065663L5.98528137 1.00094906M10.976576 5.79289322L9.09751796 5.79289322M.993986779 5.79289322L2.87304479 5.79289322" transform="rotate(45 4.165 10.743)"/>
    </g>
  </g>
</svg>
