<svg xmlns="http://www.w3.org/2000/svg" width="16" height="16" viewBox="0 0 16 16">
  <g fill="none" fill-rule="evenodd" stroke-linecap="round" stroke-linejoin="round">
    <path stroke="#376789" d="M5,14.5 C4.31796227,14.5 3.29490568,14.5 1.93083023,14.5 C1.69346716,14.5 1.5,14.2992734 1.5,14.0530038 L1.5,12.8553912 C1.5,12 1.5,11.5082935 2.57138535,11.5082935 L4.34167209,11.5082935 L5.05061849,9.64713896 C4.3125169,9.02640457 3.65902845,8.10542364 3.62163564,7.11022447 L3.53384382,4.75210847 C3.53384382,2.9506293 4.9531449,1.5 6.69760087,1.5 L7.29913741,1.5 C9.04521915,1.5 10.4645202,2.95231608 10.4645202,4.73524069 L10.3767284,7.11022447 C10.3393356,8.10711042 9.68360702,9.02809135 8.94387965,9.64882574 L9.66638184,11.5201009"/>
    <polyline stroke="#049474" points="14.5 10.5 9.833 15.5 7.5 13"/>
  </g>
</svg>
