<svg xmlns="http://www.w3.org/2000/svg" width="16" height="16" viewBox="0 0 16 16">
  <g fill="none" fill-rule="evenodd">
    <path stroke="#049474" stroke-linecap="round" d="M1.57080047,5.73112298 C2.60953995,5.25988048 3.33200277,4.2137116 3.33200277,2.99880249 C3.33200277,1.34260961 1.98939316,0 0.333200277,0" transform="matrix(-1 0 0 1 12.834 8.658)"/>
    <path stroke="#049474" stroke-linecap="round" d="M12.5011975 8.65843384L11.6671718 7.82440816M12.5011975 8.65843384L12.0841847 9.65803467M13.3521923 15.5070336L12.5011975 14.6560388M12.9010378 13.5897979L12.5011975 14.6560388"/>
    <path stroke="#049474" stroke-linecap="round" d="M1.57080047,5.73112298 C2.60953995,5.25988048 3.33200277,4.2137116 3.33200277,2.99880249 C3.33200277,1.34260961 1.98939316,0 0.333200277,0" transform="matrix(1 0 0 -1 12.168 14.656)"/>
    <path stroke="#376789" stroke-linecap="round" stroke-linejoin="round" d="M13.5,6.5 C13.5,5.48155556 13.5,4.45388889 13.5,2.417 C13.5,1.647 13.358,1.5 12.571,1.5 L1.428,1.5 C0.64,1.5 0.5,1.647 0.5,2.417 L0.5,10.583 C0.5,11.354 0.64,11.5 1.428,11.5 C4.34888889,11.5 6.03955556,11.5 7.5,11.5"/>
    <path stroke="#7DABCB" stroke-linecap="square" d="M2.5 4.5L2.5 9.5M2.5 3.55439922L11.4996 3.55439922M3.4996 5.5L10.5 5.5M3.4996 9.5L7.5 9.5M11.4996 4.51757812L11.4996 5.5M8.4996 4.265825L8.4996 7.5M5.4996 4.05002592L5.4996 9.5M3.4996 7.5L9.50239502 7.5"/>
  </g>
</svg>
