<svg xmlns="http://www.w3.org/2000/svg" width="16" height="16" viewBox="0 0 16 16">
  <g fill="none" fill-rule="evenodd">
    <path stroke="#376789" stroke-linecap="round" stroke-linejoin="round" d="M7.5,14.5 C6.81796227,14.5 2.29490568,14.5 0.930830225,14.5 C0.693467158,14.5 0.5,14.2992734 0.5,14.0530038 L0.5,12.8553912 C0.5,12 0.5,11.5082935 1.57138535,11.5082935 L3.34167209,11.5082935 L4.05061849,9.64713896 C3.3125169,9.02640457 2.65902845,8.10542364 2.62163564,7.11022447 L2.53384382,4.75210847 C2.53384382,2.9506293 3.9531449,1.5 5.69760087,1.5 L6.29913741,1.5 C8.04521915,1.5 9.46452024,2.95231608 9.46452024,4.73524069 L9.37672842,7.11022447 C9.3393356,8.10711042 8.68360702,9.02809135 7.94387965,9.64882574"/>
    <rect width="6" height="5" x="9.5" y="10.5" stroke="#244358" rx="1"/>
    <path stroke="#244358" d="M10.5,10.5 L10.5,8.5 C10.5,7.94771525 10.9477153,7.5 11.5,7.5 L13.5,7.5 C14.0522847,7.5 14.5,7.94771525 14.5,8.5 L14.5,10.5"/>
    <path stroke="#5993BC" stroke-linecap="round" d="M12.5,12.5 L12.5,13.508138"/>
  </g>
</svg>
