<svg xmlns="http://www.w3.org/2000/svg" width="16" height="16" viewBox="0 0 16 16">
  <path fill="none" stroke="#376789" stroke-linecap="round" stroke-linejoin="round" d="M13.0707854,14.5 L2.93083023,14.5 C2.69346716,14.5 2.5,14.2992734 2.5,14.0530038 L2.5,12.8553912 C2.5,12.1098352 2.9194498,11.4216297 3.57138535,11.1011418 L5.14502626,11.1011418 L5.85397266,9.64713896 C5.11587107,9.02640457 4.65902845,8.10542364 4.62163564,7.11022447 L4.53384382,4.75210847 C4.53384382,2.9506293 5.9531449,1.5 7.69760087,1.5 L8.29913741,1.5 C10.0452192,1.5 11.4645202,2.95231608 11.4645202,4.73524069 L11.3767284,7.11022447 C11.3393356,8.10711042 10.882493,9.02809135 10.1427656,9.64882574 L10.8652678,11.1129493 L12.4497395,11.1129493 C13.0870431,11.4368107 13.4999898,12.1182691 13.4999898,12.857078 L13.4999898,14.0530038 C13.5016156,14.2992734 13.3081484,14.5 13.0707854,14.5 Z"/>
</svg>
