<svg width="61" height="24" viewBox="0 0 61 24" fill="none" xmlns="http://www.w3.org/2000/svg">
  <path d="M39.8234 0H0V23.5323H39.8234V0Z" fill="white"/>
  <path d="M38.5485 1.2594H1.30469V4.33028H38.5485V1.2594Z" fill="#0E3754"/>
  <path d="M30.0287 5.354H1.30469V22.2438H30.0287V5.354Z" fill="#EAF1F7"/>
  <path d="M38.5486 5.354H31.2458V22.2438H38.5486V5.354Z" fill="#EAF1F7"/>
  <path d="M15.3813 7.58685H4.25415C3.70187 7.58685 3.25415 8.03457 3.25415 8.58685C3.25415 9.13914 3.70187 9.58685 4.25415 9.58685H15.3813C15.9335 9.58685 16.3813 9.13914 16.3813 8.58685C16.3813 8.03457 15.9335 7.58685 15.3813 7.58685Z" fill="#91B4D2"/>
  <path d="M26.008 12.5155H4.25415C3.70187 12.5155 3.25415 12.9632 3.25415 13.5155C3.25415 14.0678 3.70187 14.5155 4.25415 14.5155H26.008C26.5602 14.5155 27.008 14.0678 27.008 13.5155C27.008 12.9632 26.5602 12.5155 26.008 12.5155Z" fill="#91B4D2"/>
  <path d="M20 17H4C3.44772 17 3 17.4477 3 18C3 18.5523 3.44772 19 4 19H20C20.5523 19 21 18.5523 21 18C21 17.4477 20.5523 17 20 17Z" fill="#91B4D2"/>
  <circle cx="49" cy="12" r="12" fill="#EEBA00"/>
  <path d="M46.1739 18.2331C43.9087 17.2054 42.3333 14.924 42.3333 12.2747C42.3333 8.66296 45.2611 5.73511 48.8728 5.73511" stroke="#FFF59F" stroke-width="2" stroke-linecap="round"/>
  <path d="M48.9941 5.73539L47.1753 3.91661" stroke="#FFF59F" stroke-width="2" stroke-linecap="round"/>
  <path d="M48.9943 5.73511L48.0849 7.91496" stroke="#FFF59F" stroke-width="2" stroke-linecap="round"/>
  <path d="M50.8497 20.6702L48.9939 18.8144" stroke="#FFF59F" stroke-width="2" stroke-linecap="round"/>
  <path d="M49.866 16.4893L48.994 18.8144" stroke="#FFF59F" stroke-width="2" stroke-linecap="round"/>
  <path d="M51.8261 6.31637C54.0913 7.34401 55.6667 9.62541 55.6667 12.2748C55.6667 15.8865 52.7389 18.8143 49.1272 18.8143" stroke="#FFF59F" stroke-width="2" stroke-linecap="round"/>
</svg>
