<svg width="111" height="154" viewBox="0 0 111 154" fill="none" xmlns="http://www.w3.org/2000/svg">
  <rect y="73.3411" width="86" height="86" rx="30" transform="rotate(-20.5612 0 73.3411)" fill="#FCECD9"/>
  <path d="M95 64.5H14V135.5H95V64.5Z" fill="white"/>
  <path d="M92 68.5H18V85.5H92V68.5Z" fill="#049474"/>
  <path d="M24.763 80.572C24.313 80.572 23.917 80.485 23.575 80.311C23.233 80.131 22.969 79.879 22.783 79.555C22.597 79.231 22.504 78.859 22.504 78.439V76.261C22.504 75.835 22.597 75.463 22.783 75.145C22.969 74.821 23.233 74.572 23.575 74.398C23.917 74.218 24.313 74.128 24.763 74.128C25.207 74.128 25.597 74.215 25.933 74.389C26.275 74.563 26.539 74.8 26.725 75.1C26.911 75.4 27.004 75.739 27.004 76.117V76.189C27.004 76.219 26.992 76.246 26.968 76.27C26.95 76.288 26.926 76.297 26.896 76.297H26.077C26.047 76.297 26.02 76.288 25.996 76.27C25.978 76.246 25.969 76.219 25.969 76.189V76.144C25.969 75.82 25.858 75.553 25.636 75.343C25.42 75.133 25.129 75.028 24.763 75.028C24.397 75.028 24.103 75.139 23.881 75.361C23.659 75.577 23.548 75.865 23.548 76.225V78.475C23.548 78.835 23.665 79.126 23.899 79.348C24.133 79.564 24.436 79.672 24.808 79.672C25.168 79.672 25.45 79.579 25.654 79.393C25.864 79.201 25.969 78.94 25.969 78.61V78.052C25.969 78.022 25.954 78.007 25.924 78.007H24.817C24.787 78.007 24.76 77.998 24.736 77.98C24.718 77.956 24.709 77.929 24.709 77.899V77.233C24.709 77.203 24.718 77.179 24.736 77.161C24.76 77.137 24.787 77.125 24.817 77.125H26.896C26.926 77.125 26.95 77.137 26.968 77.161C26.992 77.179 27.004 77.203 27.004 77.233V78.385C27.004 79.075 26.8 79.612 26.392 79.996C25.99 80.38 25.447 80.572 24.763 80.572ZM30.3815 80.572C29.9375 80.572 29.5445 80.485 29.2025 80.311C28.8605 80.137 28.5935 79.891 28.4015 79.573C28.2155 79.249 28.1225 78.877 28.1225 78.457V74.308C28.1225 74.278 28.1315 74.254 28.1495 74.236C28.1735 74.212 28.2005 74.2 28.2305 74.2H29.0585C29.0885 74.2 29.1125 74.212 29.1305 74.236C29.1545 74.254 29.1665 74.278 29.1665 74.308V78.475C29.1665 78.829 29.2775 79.117 29.4995 79.339C29.7215 79.561 30.0155 79.672 30.3815 79.672C30.7475 79.672 31.0415 79.561 31.2635 79.339C31.4855 79.117 31.5965 78.829 31.5965 78.475V74.308C31.5965 74.278 31.6055 74.254 31.6235 74.236C31.6475 74.212 31.6745 74.2 31.7045 74.2H32.5325C32.5625 74.2 32.5865 74.212 32.6045 74.236C32.6285 74.254 32.6405 74.278 32.6405 74.308V78.457C32.6405 78.877 32.5475 79.249 32.3615 79.573C32.1755 79.891 31.9115 80.137 31.5695 80.311C31.2275 80.485 30.8315 80.572 30.3815 80.572ZM37.4352 80.5C37.3752 80.5 37.3332 80.473 37.3092 80.419L36.1212 77.827C36.1092 77.803 36.0912 77.791 36.0672 77.791H34.9872C34.9572 77.791 34.9422 77.806 34.9422 77.836V80.392C34.9422 80.422 34.9302 80.449 34.9062 80.473C34.8882 80.491 34.8642 80.5 34.8342 80.5H34.0062C33.9762 80.5 33.9492 80.491 33.9252 80.473C33.9072 80.449 33.8982 80.422 33.8982 80.392V74.308C33.8982 74.278 33.9072 74.254 33.9252 74.236C33.9492 74.212 33.9762 74.2 34.0062 74.2H36.4812C36.8472 74.2 37.1712 74.278 37.4532 74.434C37.7352 74.584 37.9542 74.8 38.1102 75.082C38.2662 75.358 38.3442 75.676 38.3442 76.036C38.3442 76.45 38.2362 76.804 38.0202 77.098C37.8102 77.386 37.5162 77.587 37.1382 77.701C37.1262 77.701 37.1172 77.707 37.1112 77.719C37.1052 77.731 37.1052 77.743 37.1112 77.755L38.3802 80.374C38.3922 80.398 38.3982 80.416 38.3982 80.428C38.3982 80.476 38.3652 80.5 38.2992 80.5H37.4352ZM34.9872 75.1C34.9572 75.1 34.9422 75.115 34.9422 75.145V76.936C34.9422 76.966 34.9572 76.981 34.9872 76.981H36.3372C36.6252 76.981 36.8562 76.897 37.0302 76.729C37.2102 76.555 37.3002 76.327 37.3002 76.045C37.3002 75.763 37.2102 75.535 37.0302 75.361C36.8562 75.187 36.6252 75.1 36.3372 75.1H34.9872ZM41.5507 80.59C41.1007 80.59 40.7017 80.5 40.3537 80.32C40.0057 80.134 39.7357 79.873 39.5437 79.537C39.3577 79.201 39.2647 78.814 39.2647 78.376V76.324C39.2647 75.892 39.3607 75.511 39.5527 75.181C39.7447 74.845 40.0117 74.587 40.3537 74.407C40.7017 74.221 41.1007 74.128 41.5507 74.128C42.0067 74.128 42.4057 74.221 42.7477 74.407C43.0957 74.587 43.3657 74.845 43.5577 75.181C43.7497 75.511 43.8457 75.892 43.8457 76.324V78.376C43.8457 78.814 43.7497 79.201 43.5577 79.537C43.3657 79.873 43.0957 80.134 42.7477 80.32C42.4057 80.5 42.0067 80.59 41.5507 80.59ZM41.5507 79.69C41.9287 79.69 42.2317 79.573 42.4597 79.339C42.6877 79.105 42.8017 78.796 42.8017 78.412V76.315C42.8017 75.925 42.6877 75.613 42.4597 75.379C42.2317 75.145 41.9287 75.028 41.5507 75.028C41.1787 75.028 40.8787 75.145 40.6507 75.379C40.4227 75.613 40.3087 75.925 40.3087 76.315V78.412C40.3087 78.796 40.4227 79.105 40.6507 79.339C40.8787 79.573 41.1787 79.69 41.5507 79.69ZM47.1136 80.572C46.6636 80.572 46.2676 80.485 45.9256 80.311C45.5836 80.131 45.3196 79.882 45.1336 79.564C44.9476 79.246 44.8546 78.877 44.8546 78.457V76.234C44.8546 75.814 44.9476 75.445 45.1336 75.127C45.3196 74.809 45.5836 74.563 45.9256 74.389C46.2676 74.215 46.6636 74.128 47.1136 74.128C47.5576 74.128 47.9506 74.212 48.2926 74.38C48.6346 74.548 48.8986 74.785 49.0846 75.091C49.2706 75.397 49.3636 75.751 49.3636 76.153C49.3636 76.183 49.3516 76.21 49.3276 76.234C49.3096 76.252 49.2856 76.261 49.2556 76.261L48.4276 76.306C48.3556 76.306 48.3196 76.273 48.3196 76.207C48.3196 75.853 48.2086 75.568 47.9866 75.352C47.7706 75.136 47.4796 75.028 47.1136 75.028C46.7476 75.028 46.4536 75.136 46.2316 75.352C46.0096 75.568 45.8986 75.853 45.8986 76.207V78.502C45.8986 78.85 46.0096 79.132 46.2316 79.348C46.4536 79.564 46.7476 79.672 47.1136 79.672C47.4796 79.672 47.7706 79.567 47.9866 79.357C48.2086 79.141 48.3196 78.856 48.3196 78.502C48.3196 78.436 48.3556 78.403 48.4276 78.403L49.2556 78.439C49.2856 78.439 49.3096 78.448 49.3276 78.466C49.3516 78.484 49.3636 78.505 49.3636 78.529C49.3636 78.937 49.2706 79.297 49.0846 79.609C48.8986 79.915 48.6346 80.152 48.2926 80.32C47.9506 80.488 47.5576 80.572 47.1136 80.572ZM50.5912 80.5C50.5612 80.5 50.5342 80.491 50.5102 80.473C50.4922 80.449 50.4832 80.422 50.4832 80.392V74.308C50.4832 74.278 50.4922 74.254 50.5102 74.236C50.5342 74.212 50.5612 74.2 50.5912 74.2H51.4192C51.4492 74.2 51.4732 74.212 51.4912 74.236C51.5152 74.254 51.5272 74.278 51.5272 74.308V76.999C51.5272 77.017 51.5332 77.029 51.5452 77.035C51.5572 77.041 51.5692 77.038 51.5812 77.026L53.9212 74.263C53.9572 74.221 54.0022 74.2 54.0562 74.2H54.9922C55.0522 74.2 55.0822 74.221 55.0822 74.263C55.0822 74.281 55.0732 74.305 55.0552 74.335L52.9942 76.864C52.9762 76.888 52.9732 76.909 52.9852 76.927L55.1992 80.374C55.2112 80.41 55.2172 80.431 55.2172 80.437C55.2172 80.479 55.1872 80.5 55.1272 80.5H54.1822C54.1282 80.5 54.0862 80.476 54.0562 80.428L52.2742 77.656C52.2502 77.62 52.2292 77.617 52.2112 77.647L51.5452 78.421C51.5332 78.445 51.5272 78.466 51.5272 78.484V80.392C51.5272 80.422 51.5152 80.449 51.4912 80.473C51.4732 80.491 51.4492 80.5 51.4192 80.5H50.5912Z" fill="white"/>
  <path d="M92 88.5H18V132.5H92V88.5Z" fill="#EAF1F7"/>
  <path d="M71.5 95.5H26.5C25.6716 95.5 25 96.1716 25 97C25 97.8284 25.6716 98.5 26.5 98.5H71.5C72.3284 98.5 73 97.8284 73 97C73 96.1716 72.3284 95.5 71.5 95.5Z" fill="#AEAEAE"/>
  <path d="M82.5 103.5H26.5C25.6716 103.5 25 104.172 25 105C25 105.828 25.6716 106.5 26.5 106.5H82.5C83.3284 106.5 84 105.828 84 105C84 104.172 83.3284 103.5 82.5 103.5Z" fill="#AEAEAE"/>
  <path d="M60.5 111.5H26.5C25.6716 111.5 25 112.172 25 113C25 113.828 25.6716 114.5 26.5 114.5H60.5C61.3284 114.5 62 113.828 62 113C62 112.172 61.3284 111.5 60.5 111.5Z" fill="#AEAEAE"/>
  <path d="M45 119.5H27C25.8954 119.5 25 120.395 25 121.5V124.5C25 125.605 25.8954 126.5 27 126.5H45C46.1046 126.5 47 125.605 47 124.5V121.5C47 120.395 46.1046 119.5 45 119.5Z" fill="#049474"/>
  <rect x="22.5" y="21.5" width="63" height="17" rx="1.5" stroke="#EE7D00" stroke-dasharray="2 2"/>
  <rect x="22.5" y="0.5" width="63" height="17" rx="1.5" stroke="#EE7D00" stroke-dasharray="2 2"/>
  <path d="M30.862 12.072C30.418 12.072 30.025 11.985 29.683 11.811C29.341 11.637 29.074 11.391 28.882 11.073C28.696 10.749 28.603 10.377 28.603 9.957V5.808C28.603 5.778 28.612 5.754 28.63 5.736C28.654 5.712 28.681 5.7 28.711 5.7H29.539C29.569 5.7 29.593 5.712 29.611 5.736C29.635 5.754 29.647 5.778 29.647 5.808V9.975C29.647 10.329 29.758 10.617 29.98 10.839C30.202 11.061 30.496 11.172 30.862 11.172C31.228 11.172 31.522 11.061 31.744 10.839C31.966 10.617 32.077 10.329 32.077 9.975V5.808C32.077 5.778 32.086 5.754 32.104 5.736C32.128 5.712 32.155 5.7 32.185 5.7H33.013C33.043 5.7 33.067 5.712 33.085 5.736C33.109 5.754 33.121 5.778 33.121 5.808V9.957C33.121 10.377 33.028 10.749 32.842 11.073C32.656 11.391 32.392 11.637 32.05 11.811C31.708 11.985 31.312 12.072 30.862 12.072ZM36.4127 12.072C35.9447 12.072 35.5367 11.997 35.1887 11.847C34.8407 11.697 34.5707 11.487 34.3787 11.217C34.1927 10.947 34.0997 10.629 34.0997 10.263V10.038C34.0997 10.008 34.1087 9.984 34.1267 9.966C34.1507 9.942 34.1777 9.93 34.2077 9.93H35.0087C35.0387 9.93 35.0627 9.942 35.0807 9.966C35.1047 9.984 35.1167 10.008 35.1167 10.038V10.209C35.1167 10.485 35.2397 10.716 35.4857 10.902C35.7317 11.082 36.0677 11.172 36.4937 11.172C36.8597 11.172 37.1357 11.094 37.3217 10.938C37.5077 10.782 37.6007 10.581 37.6007 10.335C37.6007 10.167 37.5497 10.026 37.4477 9.912C37.3457 9.792 37.1987 9.684 37.0067 9.588C36.8207 9.492 36.5387 9.372 36.1607 9.228C35.7347 9.072 35.3897 8.925 35.1257 8.787C34.8617 8.649 34.6397 8.463 34.4597 8.229C34.2857 7.989 34.1987 7.692 34.1987 7.338C34.1987 6.81 34.3907 6.393 34.7747 6.087C35.1587 5.781 35.6717 5.628 36.3137 5.628C36.7637 5.628 37.1597 5.706 37.5017 5.862C37.8497 6.018 38.1197 6.237 38.3117 6.519C38.5037 6.795 38.5997 7.116 38.5997 7.482V7.635C38.5997 7.665 38.5877 7.692 38.5637 7.716C38.5457 7.734 38.5217 7.743 38.4917 7.743H37.6817C37.6517 7.743 37.6247 7.734 37.6007 7.716C37.5827 7.692 37.5737 7.665 37.5737 7.635V7.536C37.5737 7.254 37.4567 7.017 37.2227 6.825C36.9947 6.627 36.6767 6.528 36.2687 6.528C35.9387 6.528 35.6807 6.597 35.4947 6.735C35.3147 6.873 35.2247 7.068 35.2247 7.32C35.2247 7.5 35.2727 7.647 35.3687 7.761C35.4647 7.875 35.6087 7.98 35.8007 8.076C35.9927 8.166 36.2897 8.283 36.6917 8.427C37.1177 8.589 37.4567 8.736 37.7087 8.868C37.9667 9 38.1857 9.186 38.3657 9.426C38.5517 9.66 38.6447 9.954 38.6447 10.308C38.6447 10.848 38.4437 11.277 38.0417 11.595C37.6457 11.913 37.1027 12.072 36.4127 12.072ZM43.9621 6.492C43.9621 6.522 43.9501 6.549 43.9261 6.573C43.9081 6.591 43.8841 6.6 43.8541 6.6H40.7851C40.7551 6.6 40.7401 6.615 40.7401 6.645V8.328C40.7401 8.358 40.7551 8.373 40.7851 8.373H42.8461C42.8761 8.373 42.9001 8.385 42.9181 8.409C42.9421 8.427 42.9541 8.451 42.9541 8.481V9.165C42.9541 9.195 42.9421 9.222 42.9181 9.246C42.9001 9.264 42.8761 9.273 42.8461 9.273H40.7851C40.7551 9.273 40.7401 9.288 40.7401 9.318V11.055C40.7401 11.085 40.7551 11.1 40.7851 11.1H43.8541C43.8841 11.1 43.9081 11.112 43.9261 11.136C43.9501 11.154 43.9621 11.178 43.9621 11.208V11.892C43.9621 11.922 43.9501 11.949 43.9261 11.973C43.9081 11.991 43.8841 12 43.8541 12H39.8041C39.7741 12 39.7471 11.991 39.7231 11.973C39.7051 11.949 39.6961 11.922 39.6961 11.892V5.808C39.6961 5.778 39.7051 5.754 39.7231 5.736C39.7471 5.712 39.7741 5.7 39.8041 5.7H43.8541C43.8841 5.7 43.9081 5.712 43.9261 5.736C43.9501 5.754 43.9621 5.778 43.9621 5.808V6.492ZM48.5592 12C48.4992 12 48.4572 11.973 48.4332 11.919L47.2452 9.327C47.2332 9.303 47.2152 9.291 47.1912 9.291H46.1112C46.0812 9.291 46.0662 9.306 46.0662 9.336V11.892C46.0662 11.922 46.0542 11.949 46.0302 11.973C46.0122 11.991 45.9882 12 45.9582 12H45.1302C45.1002 12 45.0732 11.991 45.0492 11.973C45.0312 11.949 45.0222 11.922 45.0222 11.892V5.808C45.0222 5.778 45.0312 5.754 45.0492 5.736C45.0732 5.712 45.1002 5.7 45.1302 5.7H47.6052C47.9712 5.7 48.2952 5.778 48.5772 5.934C48.8592 6.084 49.0782 6.3 49.2342 6.582C49.3902 6.858 49.4682 7.176 49.4682 7.536C49.4682 7.95 49.3602 8.304 49.1442 8.598C48.9342 8.886 48.6402 9.087 48.2622 9.201C48.2502 9.201 48.2412 9.207 48.2352 9.219C48.2292 9.231 48.2292 9.243 48.2352 9.255L49.5042 11.874C49.5162 11.898 49.5222 11.916 49.5222 11.928C49.5222 11.976 49.4892 12 49.4232 12H48.5592ZM46.1112 6.6C46.0812 6.6 46.0662 6.615 46.0662 6.645V8.436C46.0662 8.466 46.0812 8.481 46.1112 8.481H47.4612C47.7492 8.481 47.9802 8.397 48.1542 8.229C48.3342 8.055 48.4242 7.827 48.4242 7.545C48.4242 7.263 48.3342 7.035 48.1542 6.861C47.9802 6.687 47.7492 6.6 47.4612 6.6H46.1112Z" fill="#EE7D00"/>
  <path d="M31.186 26.691C31.564 26.691 31.897 26.769 32.185 26.925C32.473 27.081 32.695 27.303 32.851 27.591C33.013 27.873 33.094 28.2 33.094 28.572C33.094 28.938 33.013 29.262 32.851 29.544C32.689 29.826 32.458 30.045 32.158 30.201C31.864 30.351 31.522 30.426 31.132 30.426H29.692C29.662 30.426 29.647 30.441 29.647 30.471V32.892C29.647 32.922 29.635 32.949 29.611 32.973C29.593 32.991 29.569 33 29.539 33H28.711C28.681 33 28.654 32.991 28.63 32.973C28.612 32.949 28.603 32.922 28.603 32.892V26.799C28.603 26.769 28.612 26.745 28.63 26.727C28.654 26.703 28.681 26.691 28.711 26.691H31.186ZM31.033 29.58C31.339 29.58 31.585 29.49 31.771 29.31C31.957 29.13 32.05 28.893 32.05 28.599C32.05 28.299 31.957 28.056 31.771 27.87C31.585 27.684 31.339 27.591 31.033 27.591H29.692C29.662 27.591 29.647 27.606 29.647 27.636V29.535C29.647 29.565 29.662 29.58 29.692 29.58H31.033ZM37.52 33C37.46 33 37.421 32.97 37.403 32.91L37.106 31.947C37.094 31.923 37.079 31.911 37.061 31.911H34.685C34.667 31.911 34.652 31.923 34.64 31.947L34.343 32.91C34.325 32.97 34.286 33 34.226 33H33.326C33.29 33 33.263 32.991 33.245 32.973C33.227 32.949 33.224 32.916 33.236 32.874L35.189 26.79C35.207 26.73 35.246 26.7 35.306 26.7H36.431C36.491 26.7 36.53 26.73 36.548 26.79L38.51 32.874C38.516 32.886 38.519 32.901 38.519 32.919C38.519 32.973 38.486 33 38.42 33H37.52ZM34.919 31.038C34.913 31.074 34.925 31.092 34.955 31.092H36.782C36.818 31.092 36.83 31.074 36.818 31.038L35.891 28.023C35.885 27.999 35.876 27.987 35.864 27.987C35.852 27.987 35.843 27.999 35.837 28.023L34.919 31.038ZM41.1148 33.072C40.6468 33.072 40.2388 32.997 39.8908 32.847C39.5428 32.697 39.2728 32.487 39.0808 32.217C38.8948 31.947 38.8018 31.629 38.8018 31.263V31.038C38.8018 31.008 38.8108 30.984 38.8288 30.966C38.8528 30.942 38.8798 30.93 38.9098 30.93H39.7108C39.7408 30.93 39.7648 30.942 39.7828 30.966C39.8068 30.984 39.8188 31.008 39.8188 31.038V31.209C39.8188 31.485 39.9418 31.716 40.1878 31.902C40.4338 32.082 40.7698 32.172 41.1958 32.172C41.5618 32.172 41.8378 32.094 42.0238 31.938C42.2098 31.782 42.3028 31.581 42.3028 31.335C42.3028 31.167 42.2518 31.026 42.1498 30.912C42.0478 30.792 41.9008 30.684 41.7088 30.588C41.5228 30.492 41.2408 30.372 40.8628 30.228C40.4368 30.072 40.0918 29.925 39.8278 29.787C39.5638 29.649 39.3418 29.463 39.1618 29.229C38.9878 28.989 38.9008 28.692 38.9008 28.338C38.9008 27.81 39.0928 27.393 39.4768 27.087C39.8608 26.781 40.3738 26.628 41.0158 26.628C41.4658 26.628 41.8618 26.706 42.2038 26.862C42.5518 27.018 42.8218 27.237 43.0138 27.519C43.2058 27.795 43.3018 28.116 43.3018 28.482V28.635C43.3018 28.665 43.2898 28.692 43.2658 28.716C43.2478 28.734 43.2238 28.743 43.1938 28.743H42.3838C42.3538 28.743 42.3268 28.734 42.3028 28.716C42.2848 28.692 42.2758 28.665 42.2758 28.635V28.536C42.2758 28.254 42.1588 28.017 41.9248 27.825C41.6968 27.627 41.3788 27.528 40.9708 27.528C40.6408 27.528 40.3828 27.597 40.1968 27.735C40.0168 27.873 39.9268 28.068 39.9268 28.32C39.9268 28.5 39.9748 28.647 40.0708 28.761C40.1668 28.875 40.3108 28.98 40.5028 29.076C40.6948 29.166 40.9918 29.283 41.3938 29.427C41.8198 29.589 42.1588 29.736 42.4108 29.868C42.6688 30 42.8878 30.186 43.0678 30.426C43.2538 30.66 43.3468 30.954 43.3468 31.308C43.3468 31.848 43.1458 32.277 42.7438 32.595C42.3478 32.913 41.8048 33.072 41.1148 33.072ZM46.4322 33.072C45.9642 33.072 45.5562 32.997 45.2082 32.847C44.8602 32.697 44.5902 32.487 44.3982 32.217C44.2122 31.947 44.1192 31.629 44.1192 31.263V31.038C44.1192 31.008 44.1282 30.984 44.1462 30.966C44.1702 30.942 44.1972 30.93 44.2272 30.93H45.0282C45.0582 30.93 45.0822 30.942 45.1002 30.966C45.1242 30.984 45.1362 31.008 45.1362 31.038V31.209C45.1362 31.485 45.2592 31.716 45.5052 31.902C45.7512 32.082 46.0872 32.172 46.5132 32.172C46.8792 32.172 47.1552 32.094 47.3412 31.938C47.5272 31.782 47.6202 31.581 47.6202 31.335C47.6202 31.167 47.5692 31.026 47.4672 30.912C47.3652 30.792 47.2182 30.684 47.0262 30.588C46.8402 30.492 46.5582 30.372 46.1802 30.228C45.7542 30.072 45.4092 29.925 45.1452 29.787C44.8812 29.649 44.6592 29.463 44.4792 29.229C44.3052 28.989 44.2182 28.692 44.2182 28.338C44.2182 27.81 44.4102 27.393 44.7942 27.087C45.1782 26.781 45.6912 26.628 46.3332 26.628C46.7832 26.628 47.1792 26.706 47.5212 26.862C47.8692 27.018 48.1392 27.237 48.3312 27.519C48.5232 27.795 48.6192 28.116 48.6192 28.482V28.635C48.6192 28.665 48.6072 28.692 48.5832 28.716C48.5652 28.734 48.5412 28.743 48.5112 28.743H47.7012C47.6712 28.743 47.6442 28.734 47.6202 28.716C47.6022 28.692 47.5932 28.665 47.5932 28.635V28.536C47.5932 28.254 47.4762 28.017 47.2422 27.825C47.0142 27.627 46.6962 27.528 46.2882 27.528C45.9582 27.528 45.7002 27.597 45.5142 27.735C45.3342 27.873 45.2442 28.068 45.2442 28.32C45.2442 28.5 45.2922 28.647 45.3882 28.761C45.4842 28.875 45.6282 28.98 45.8202 29.076C46.0122 29.166 46.3092 29.283 46.7112 29.427C47.1372 29.589 47.4762 29.736 47.7282 29.868C47.9862 30 48.2052 30.186 48.3852 30.426C48.5712 30.66 48.6642 30.954 48.6642 31.308C48.6642 31.848 48.4632 32.277 48.0612 32.595C47.6652 32.913 47.1222 33.072 46.4322 33.072Z" fill="#EE7D00"/>
</svg>
