<svg width="622" height="162" viewBox="0 0 622 162" fill="none" xmlns="http://www.w3.org/2000/svg">
  <rect x="100" y="60.8411" width="86" height="86" rx="30" transform="rotate(-20.5612 100 60.8411)" fill="#FCECD9"/>
  <rect x="316" y="60.8411" width="86" height="86" rx="30" transform="rotate(-20.5612 316 60.8411)" fill="#FCECD9"/>
  <path d="M411 52H330V123H411V52Z" fill="white"/>
  <path d="M408 56H334V73H408V56Z" fill="#049474"/>
  <path d="M340.763 68.072C340.313 68.072 339.917 67.985 339.575 67.811C339.233 67.631 338.969 67.379 338.783 67.055C338.597 66.731 338.504 66.359 338.504 65.939V63.761C338.504 63.335 338.597 62.963 338.783 62.645C338.969 62.321 339.233 62.072 339.575 61.898C339.917 61.718 340.313 61.628 340.763 61.628C341.207 61.628 341.597 61.715 341.933 61.889C342.275 62.063 342.539 62.3 342.725 62.6C342.911 62.9 343.004 63.239 343.004 63.617V63.689C343.004 63.719 342.992 63.746 342.968 63.77C342.95 63.788 342.926 63.797 342.896 63.797H342.077C342.047 63.797 342.02 63.788 341.996 63.77C341.978 63.746 341.969 63.719 341.969 63.689V63.644C341.969 63.32 341.858 63.053 341.636 62.843C341.42 62.633 341.129 62.528 340.763 62.528C340.397 62.528 340.103 62.639 339.881 62.861C339.659 63.077 339.548 63.365 339.548 63.725V65.975C339.548 66.335 339.665 66.626 339.899 66.848C340.133 67.064 340.436 67.172 340.808 67.172C341.168 67.172 341.45 67.079 341.654 66.893C341.864 66.701 341.969 66.44 341.969 66.11V65.552C341.969 65.522 341.954 65.507 341.924 65.507H340.817C340.787 65.507 340.76 65.498 340.736 65.48C340.718 65.456 340.709 65.429 340.709 65.399V64.733C340.709 64.703 340.718 64.679 340.736 64.661C340.76 64.637 340.787 64.625 340.817 64.625H342.896C342.926 64.625 342.95 64.637 342.968 64.661C342.992 64.679 343.004 64.703 343.004 64.733V65.885C343.004 66.575 342.8 67.112 342.392 67.496C341.99 67.88 341.447 68.072 340.763 68.072ZM346.382 68.072C345.938 68.072 345.545 67.985 345.203 67.811C344.861 67.637 344.594 67.391 344.402 67.073C344.216 66.749 344.123 66.377 344.123 65.957V61.808C344.123 61.778 344.132 61.754 344.15 61.736C344.174 61.712 344.201 61.7 344.231 61.7H345.059C345.089 61.7 345.113 61.712 345.131 61.736C345.155 61.754 345.167 61.778 345.167 61.808V65.975C345.167 66.329 345.278 66.617 345.5 66.839C345.722 67.061 346.016 67.172 346.382 67.172C346.748 67.172 347.042 67.061 347.264 66.839C347.486 66.617 347.597 66.329 347.597 65.975V61.808C347.597 61.778 347.606 61.754 347.624 61.736C347.648 61.712 347.675 61.7 347.705 61.7H348.533C348.563 61.7 348.587 61.712 348.605 61.736C348.629 61.754 348.641 61.778 348.641 61.808V65.957C348.641 66.377 348.548 66.749 348.362 67.073C348.176 67.391 347.912 67.637 347.57 67.811C347.228 67.985 346.832 68.072 346.382 68.072ZM353.435 68C353.375 68 353.333 67.973 353.309 67.919L352.121 65.327C352.109 65.303 352.091 65.291 352.067 65.291H350.987C350.957 65.291 350.942 65.306 350.942 65.336V67.892C350.942 67.922 350.93 67.949 350.906 67.973C350.888 67.991 350.864 68 350.834 68H350.006C349.976 68 349.949 67.991 349.925 67.973C349.907 67.949 349.898 67.922 349.898 67.892V61.808C349.898 61.778 349.907 61.754 349.925 61.736C349.949 61.712 349.976 61.7 350.006 61.7H352.481C352.847 61.7 353.171 61.778 353.453 61.934C353.735 62.084 353.954 62.3 354.11 62.582C354.266 62.858 354.344 63.176 354.344 63.536C354.344 63.95 354.236 64.304 354.02 64.598C353.81 64.886 353.516 65.087 353.138 65.201C353.126 65.201 353.117 65.207 353.111 65.219C353.105 65.231 353.105 65.243 353.111 65.255L354.38 67.874C354.392 67.898 354.398 67.916 354.398 67.928C354.398 67.976 354.365 68 354.299 68H353.435ZM350.987 62.6C350.957 62.6 350.942 62.615 350.942 62.645V64.436C350.942 64.466 350.957 64.481 350.987 64.481H352.337C352.625 64.481 352.856 64.397 353.03 64.229C353.21 64.055 353.3 63.827 353.3 63.545C353.3 63.263 353.21 63.035 353.03 62.861C352.856 62.687 352.625 62.6 352.337 62.6H350.987ZM357.551 68.09C357.101 68.09 356.702 68 356.354 67.82C356.006 67.634 355.736 67.373 355.544 67.037C355.358 66.701 355.265 66.314 355.265 65.876V63.824C355.265 63.392 355.361 63.011 355.553 62.681C355.745 62.345 356.012 62.087 356.354 61.907C356.702 61.721 357.101 61.628 357.551 61.628C358.007 61.628 358.406 61.721 358.748 61.907C359.096 62.087 359.366 62.345 359.558 62.681C359.75 63.011 359.846 63.392 359.846 63.824V65.876C359.846 66.314 359.75 66.701 359.558 67.037C359.366 67.373 359.096 67.634 358.748 67.82C358.406 68 358.007 68.09 357.551 68.09ZM357.551 67.19C357.929 67.19 358.232 67.073 358.46 66.839C358.688 66.605 358.802 66.296 358.802 65.912V63.815C358.802 63.425 358.688 63.113 358.46 62.879C358.232 62.645 357.929 62.528 357.551 62.528C357.179 62.528 356.879 62.645 356.651 62.879C356.423 63.113 356.309 63.425 356.309 63.815V65.912C356.309 66.296 356.423 66.605 356.651 66.839C356.879 67.073 357.179 67.19 357.551 67.19ZM363.114 68.072C362.664 68.072 362.268 67.985 361.926 67.811C361.584 67.631 361.32 67.382 361.134 67.064C360.948 66.746 360.855 66.377 360.855 65.957V63.734C360.855 63.314 360.948 62.945 361.134 62.627C361.32 62.309 361.584 62.063 361.926 61.889C362.268 61.715 362.664 61.628 363.114 61.628C363.558 61.628 363.951 61.712 364.293 61.88C364.635 62.048 364.899 62.285 365.085 62.591C365.271 62.897 365.364 63.251 365.364 63.653C365.364 63.683 365.352 63.71 365.328 63.734C365.31 63.752 365.286 63.761 365.256 63.761L364.428 63.806C364.356 63.806 364.32 63.773 364.32 63.707C364.32 63.353 364.209 63.068 363.987 62.852C363.771 62.636 363.48 62.528 363.114 62.528C362.748 62.528 362.454 62.636 362.232 62.852C362.01 63.068 361.899 63.353 361.899 63.707V66.002C361.899 66.35 362.01 66.632 362.232 66.848C362.454 67.064 362.748 67.172 363.114 67.172C363.48 67.172 363.771 67.067 363.987 66.857C364.209 66.641 364.32 66.356 364.32 66.002C364.32 65.936 364.356 65.903 364.428 65.903L365.256 65.939C365.286 65.939 365.31 65.948 365.328 65.966C365.352 65.984 365.364 66.005 365.364 66.029C365.364 66.437 365.271 66.797 365.085 67.109C364.899 67.415 364.635 67.652 364.293 67.82C363.951 67.988 363.558 68.072 363.114 68.072ZM366.591 68C366.561 68 366.534 67.991 366.51 67.973C366.492 67.949 366.483 67.922 366.483 67.892V61.808C366.483 61.778 366.492 61.754 366.51 61.736C366.534 61.712 366.561 61.7 366.591 61.7H367.419C367.449 61.7 367.473 61.712 367.491 61.736C367.515 61.754 367.527 61.778 367.527 61.808V64.499C367.527 64.517 367.533 64.529 367.545 64.535C367.557 64.541 367.569 64.538 367.581 64.526L369.921 61.763C369.957 61.721 370.002 61.7 370.056 61.7H370.992C371.052 61.7 371.082 61.721 371.082 61.763C371.082 61.781 371.073 61.805 371.055 61.835L368.994 64.364C368.976 64.388 368.973 64.409 368.985 64.427L371.199 67.874C371.211 67.91 371.217 67.931 371.217 67.937C371.217 67.979 371.187 68 371.127 68H370.182C370.128 68 370.086 67.976 370.056 67.928L368.274 65.156C368.25 65.12 368.229 65.117 368.211 65.147L367.545 65.921C367.533 65.945 367.527 65.966 367.527 65.984V67.892C367.527 67.922 367.515 67.949 367.491 67.973C367.473 67.991 367.449 68 367.419 68H366.591Z" fill="white"/>
  <path d="M408 76H334V120H408V76Z" fill="#EAF1F7"/>
  <path d="M387.5 83H342.5C341.672 83 341 83.6716 341 84.5C341 85.3284 341.672 86 342.5 86H387.5C388.328 86 389 85.3284 389 84.5C389 83.6716 388.328 83 387.5 83Z" fill="#AEAEAE"/>
  <path d="M398.5 91H342.5C341.672 91 341 91.6716 341 92.5C341 93.3284 341.672 94 342.5 94H398.5C399.328 94 400 93.3284 400 92.5C400 91.6716 399.328 91 398.5 91Z" fill="#AEAEAE"/>
  <path d="M376.5 99H342.5C341.672 99 341 99.6716 341 100.5C341 101.328 341.672 102 342.5 102H376.5C377.328 102 378 101.328 378 100.5C378 99.6716 377.328 99 376.5 99Z" fill="#AEAEAE"/>
  <path d="M361 107H343C341.895 107 341 107.895 341 109V112C341 113.105 341.895 114 343 114H361C362.105 114 363 113.105 363 112V109C363 107.895 362.105 107 361 107Z" fill="#049474"/>
  <rect x="468.363" y="60.8411" width="86" height="86" rx="30" transform="rotate(-20.5612 468.363 60.8411)" fill="#FCECD9"/>
  <path fill-rule="evenodd" clip-rule="evenodd" d="M182.136 2.5L179.786 0.5H175.344C174.877 0.5 174.5 0.89675 174.5 1.3865V10.75C174.5 11.38 174.608 11.5 175.214 11.5C175.626 11.5 175.138 11.5 175.344 11.5H176V3H182.136V2.5Z" fill="white"/>
  <path d="M215 87.5H313" stroke="#EE7D00" stroke-linecap="round" stroke-linejoin="round"/>
  <path d="M430 87.5H466" stroke="#EE7D00" stroke-linecap="round" stroke-linejoin="round"/>
  <rect x="231.5" y="121.5" width="63" height="17" rx="1.5" stroke="#EE7D00" stroke-dasharray="2 2"/>
  <rect x="231.5" y="100.5" width="63" height="17" rx="1.5" stroke="#EE7D00" stroke-dasharray="2 2"/>
  <path d="M239.862 112.072C239.418 112.072 239.025 111.985 238.683 111.811C238.341 111.637 238.074 111.391 237.882 111.073C237.696 110.749 237.603 110.377 237.603 109.957V105.808C237.603 105.778 237.612 105.754 237.63 105.736C237.654 105.712 237.681 105.7 237.711 105.7H238.539C238.569 105.7 238.593 105.712 238.611 105.736C238.635 105.754 238.647 105.778 238.647 105.808V109.975C238.647 110.329 238.758 110.617 238.98 110.839C239.202 111.061 239.496 111.172 239.862 111.172C240.228 111.172 240.522 111.061 240.744 110.839C240.966 110.617 241.077 110.329 241.077 109.975V105.808C241.077 105.778 241.086 105.754 241.104 105.736C241.128 105.712 241.155 105.7 241.185 105.7H242.013C242.043 105.7 242.067 105.712 242.085 105.736C242.109 105.754 242.121 105.778 242.121 105.808V109.957C242.121 110.377 242.028 110.749 241.842 111.073C241.656 111.391 241.392 111.637 241.05 111.811C240.708 111.985 240.312 112.072 239.862 112.072ZM245.413 112.072C244.945 112.072 244.537 111.997 244.189 111.847C243.841 111.697 243.571 111.487 243.379 111.217C243.193 110.947 243.1 110.629 243.1 110.263V110.038C243.1 110.008 243.109 109.984 243.127 109.966C243.151 109.942 243.178 109.93 243.208 109.93H244.009C244.039 109.93 244.063 109.942 244.081 109.966C244.105 109.984 244.117 110.008 244.117 110.038V110.209C244.117 110.485 244.24 110.716 244.486 110.902C244.732 111.082 245.068 111.172 245.494 111.172C245.86 111.172 246.136 111.094 246.322 110.938C246.508 110.782 246.601 110.581 246.601 110.335C246.601 110.167 246.55 110.026 246.448 109.912C246.346 109.792 246.199 109.684 246.007 109.588C245.821 109.492 245.539 109.372 245.161 109.228C244.735 109.072 244.39 108.925 244.126 108.787C243.862 108.649 243.64 108.463 243.46 108.229C243.286 107.989 243.199 107.692 243.199 107.338C243.199 106.81 243.391 106.393 243.775 106.087C244.159 105.781 244.672 105.628 245.314 105.628C245.764 105.628 246.16 105.706 246.502 105.862C246.85 106.018 247.12 106.237 247.312 106.519C247.504 106.795 247.6 107.116 247.6 107.482V107.635C247.6 107.665 247.588 107.692 247.564 107.716C247.546 107.734 247.522 107.743 247.492 107.743H246.682C246.652 107.743 246.625 107.734 246.601 107.716C246.583 107.692 246.574 107.665 246.574 107.635V107.536C246.574 107.254 246.457 107.017 246.223 106.825C245.995 106.627 245.677 106.528 245.269 106.528C244.939 106.528 244.681 106.597 244.495 106.735C244.315 106.873 244.225 107.068 244.225 107.32C244.225 107.5 244.273 107.647 244.369 107.761C244.465 107.875 244.609 107.98 244.801 108.076C244.993 108.166 245.29 108.283 245.692 108.427C246.118 108.589 246.457 108.736 246.709 108.868C246.967 109 247.186 109.186 247.366 109.426C247.552 109.66 247.645 109.954 247.645 110.308C247.645 110.848 247.444 111.277 247.042 111.595C246.646 111.913 246.103 112.072 245.413 112.072ZM252.962 106.492C252.962 106.522 252.95 106.549 252.926 106.573C252.908 106.591 252.884 106.6 252.854 106.6H249.785C249.755 106.6 249.74 106.615 249.74 106.645V108.328C249.74 108.358 249.755 108.373 249.785 108.373H251.846C251.876 108.373 251.9 108.385 251.918 108.409C251.942 108.427 251.954 108.451 251.954 108.481V109.165C251.954 109.195 251.942 109.222 251.918 109.246C251.9 109.264 251.876 109.273 251.846 109.273H249.785C249.755 109.273 249.74 109.288 249.74 109.318V111.055C249.74 111.085 249.755 111.1 249.785 111.1H252.854C252.884 111.1 252.908 111.112 252.926 111.136C252.95 111.154 252.962 111.178 252.962 111.208V111.892C252.962 111.922 252.95 111.949 252.926 111.973C252.908 111.991 252.884 112 252.854 112H248.804C248.774 112 248.747 111.991 248.723 111.973C248.705 111.949 248.696 111.922 248.696 111.892V105.808C248.696 105.778 248.705 105.754 248.723 105.736C248.747 105.712 248.774 105.7 248.804 105.7H252.854C252.884 105.7 252.908 105.712 252.926 105.736C252.95 105.754 252.962 105.778 252.962 105.808V106.492ZM257.559 112C257.499 112 257.457 111.973 257.433 111.919L256.245 109.327C256.233 109.303 256.215 109.291 256.191 109.291H255.111C255.081 109.291 255.066 109.306 255.066 109.336V111.892C255.066 111.922 255.054 111.949 255.03 111.973C255.012 111.991 254.988 112 254.958 112H254.13C254.1 112 254.073 111.991 254.049 111.973C254.031 111.949 254.022 111.922 254.022 111.892V105.808C254.022 105.778 254.031 105.754 254.049 105.736C254.073 105.712 254.1 105.7 254.13 105.7H256.605C256.971 105.7 257.295 105.778 257.577 105.934C257.859 106.084 258.078 106.3 258.234 106.582C258.39 106.858 258.468 107.176 258.468 107.536C258.468 107.95 258.36 108.304 258.144 108.598C257.934 108.886 257.64 109.087 257.262 109.201C257.25 109.201 257.241 109.207 257.235 109.219C257.229 109.231 257.229 109.243 257.235 109.255L258.504 111.874C258.516 111.898 258.522 111.916 258.522 111.928C258.522 111.976 258.489 112 258.423 112H257.559ZM255.111 106.6C255.081 106.6 255.066 106.615 255.066 106.645V108.436C255.066 108.466 255.081 108.481 255.111 108.481H256.461C256.749 108.481 256.98 108.397 257.154 108.229C257.334 108.055 257.424 107.827 257.424 107.545C257.424 107.263 257.334 107.035 257.154 106.861C256.98 106.687 256.749 106.6 256.461 106.6H255.111Z" fill="#EE7D00"/>
  <path d="M220.691 76.072C220.223 76.072 219.815 75.997 219.467 75.847C219.119 75.697 218.849 75.487 218.657 75.217C218.471 74.947 218.378 74.629 218.378 74.263V74.038C218.378 74.008 218.387 73.984 218.405 73.966C218.429 73.942 218.456 73.93 218.486 73.93H219.287C219.317 73.93 219.341 73.942 219.359 73.966C219.383 73.984 219.395 74.008 219.395 74.038V74.209C219.395 74.485 219.518 74.716 219.764 74.902C220.01 75.082 220.346 75.172 220.772 75.172C221.138 75.172 221.414 75.094 221.6 74.938C221.786 74.782 221.879 74.581 221.879 74.335C221.879 74.167 221.828 74.026 221.726 73.912C221.624 73.792 221.477 73.684 221.285 73.588C221.099 73.492 220.817 73.372 220.439 73.228C220.013 73.072 219.668 72.925 219.404 72.787C219.14 72.649 218.918 72.463 218.738 72.229C218.564 71.989 218.477 71.692 218.477 71.338C218.477 70.81 218.669 70.393 219.053 70.087C219.437 69.781 219.95 69.628 220.592 69.628C221.042 69.628 221.438 69.706 221.78 69.862C222.128 70.018 222.398 70.237 222.59 70.519C222.782 70.795 222.878 71.116 222.878 71.482V71.635C222.878 71.665 222.866 71.692 222.842 71.716C222.824 71.734 222.8 71.743 222.77 71.743H221.96C221.93 71.743 221.903 71.734 221.879 71.716C221.861 71.692 221.852 71.665 221.852 71.635V71.536C221.852 71.254 221.735 71.017 221.501 70.825C221.273 70.627 220.955 70.528 220.547 70.528C220.217 70.528 219.959 70.597 219.773 70.735C219.593 70.873 219.503 71.068 219.503 71.32C219.503 71.5 219.551 71.647 219.647 71.761C219.743 71.875 219.887 71.98 220.079 72.076C220.271 72.166 220.568 72.283 220.97 72.427C221.396 72.589 221.735 72.736 221.987 72.868C222.245 73 222.464 73.186 222.644 73.426C222.83 73.66 222.923 73.954 222.923 74.308C222.923 74.848 222.722 75.277 222.32 75.595C221.924 75.913 221.381 76.072 220.691 76.072ZM228.24 70.492C228.24 70.522 228.228 70.549 228.204 70.573C228.186 70.591 228.162 70.6 228.132 70.6H225.063C225.033 70.6 225.018 70.615 225.018 70.645V72.328C225.018 72.358 225.033 72.373 225.063 72.373H227.124C227.154 72.373 227.178 72.385 227.196 72.409C227.22 72.427 227.232 72.451 227.232 72.481V73.165C227.232 73.195 227.22 73.222 227.196 73.246C227.178 73.264 227.154 73.273 227.124 73.273H225.063C225.033 73.273 225.018 73.288 225.018 73.318V75.055C225.018 75.085 225.033 75.1 225.063 75.1H228.132C228.162 75.1 228.186 75.112 228.204 75.136C228.228 75.154 228.24 75.178 228.24 75.208V75.892C228.24 75.922 228.228 75.949 228.204 75.973C228.186 75.991 228.162 76 228.132 76H224.082C224.052 76 224.025 75.991 224.001 75.973C223.983 75.949 223.974 75.922 223.974 75.892V69.808C223.974 69.778 223.983 69.754 224.001 69.736C224.025 69.712 224.052 69.7 224.082 69.7H228.132C228.162 69.7 228.186 69.712 228.204 69.736C228.228 69.754 228.24 69.778 228.24 69.808V70.492ZM231.407 76.072C230.957 76.072 230.561 75.985 230.219 75.811C229.877 75.631 229.613 75.382 229.427 75.064C229.241 74.746 229.148 74.377 229.148 73.957V71.734C229.148 71.314 229.241 70.945 229.427 70.627C229.613 70.309 229.877 70.063 230.219 69.889C230.561 69.715 230.957 69.628 231.407 69.628C231.851 69.628 232.244 69.712 232.586 69.88C232.928 70.048 233.192 70.285 233.378 70.591C233.564 70.897 233.657 71.251 233.657 71.653C233.657 71.683 233.645 71.71 233.621 71.734C233.603 71.752 233.579 71.761 233.549 71.761L232.721 71.806C232.649 71.806 232.613 71.773 232.613 71.707C232.613 71.353 232.502 71.068 232.28 70.852C232.064 70.636 231.773 70.528 231.407 70.528C231.041 70.528 230.747 70.636 230.525 70.852C230.303 71.068 230.192 71.353 230.192 71.707V74.002C230.192 74.35 230.303 74.632 230.525 74.848C230.747 75.064 231.041 75.172 231.407 75.172C231.773 75.172 232.064 75.067 232.28 74.857C232.502 74.641 232.613 74.356 232.613 74.002C232.613 73.936 232.649 73.903 232.721 73.903L233.549 73.939C233.579 73.939 233.603 73.948 233.621 73.966C233.645 73.984 233.657 74.005 233.657 74.029C233.657 74.437 233.564 74.797 233.378 75.109C233.192 75.415 232.928 75.652 232.586 75.82C232.244 75.988 231.851 76.072 231.407 76.072ZM236.981 76.072C236.537 76.072 236.144 75.985 235.802 75.811C235.46 75.637 235.193 75.391 235.001 75.073C234.815 74.749 234.722 74.377 234.722 73.957V69.808C234.722 69.778 234.731 69.754 234.749 69.736C234.773 69.712 234.8 69.7 234.83 69.7H235.658C235.688 69.7 235.712 69.712 235.73 69.736C235.754 69.754 235.766 69.778 235.766 69.808V73.975C235.766 74.329 235.877 74.617 236.099 74.839C236.321 75.061 236.615 75.172 236.981 75.172C237.347 75.172 237.641 75.061 237.863 74.839C238.085 74.617 238.196 74.329 238.196 73.975V69.808C238.196 69.778 238.205 69.754 238.223 69.736C238.247 69.712 238.274 69.7 238.304 69.7H239.132C239.162 69.7 239.186 69.712 239.204 69.736C239.228 69.754 239.24 69.778 239.24 69.808V73.957C239.24 74.377 239.147 74.749 238.961 75.073C238.775 75.391 238.511 75.637 238.169 75.811C237.827 75.985 237.431 76.072 236.981 76.072ZM244.035 76C243.975 76 243.933 75.973 243.909 75.919L242.721 73.327C242.709 73.303 242.691 73.291 242.667 73.291H241.587C241.557 73.291 241.542 73.306 241.542 73.336V75.892C241.542 75.922 241.53 75.949 241.506 75.973C241.488 75.991 241.464 76 241.434 76H240.606C240.576 76 240.549 75.991 240.525 75.973C240.507 75.949 240.498 75.922 240.498 75.892V69.808C240.498 69.778 240.507 69.754 240.525 69.736C240.549 69.712 240.576 69.7 240.606 69.7H243.081C243.447 69.7 243.771 69.778 244.053 69.934C244.335 70.084 244.554 70.3 244.71 70.582C244.866 70.858 244.944 71.176 244.944 71.536C244.944 71.95 244.836 72.304 244.62 72.598C244.41 72.886 244.116 73.087 243.738 73.201C243.726 73.201 243.717 73.207 243.711 73.219C243.705 73.231 243.705 73.243 243.711 73.255L244.98 75.874C244.992 75.898 244.998 75.916 244.998 75.928C244.998 75.976 244.965 76 244.899 76H244.035ZM241.587 70.6C241.557 70.6 241.542 70.615 241.542 70.645V72.436C241.542 72.466 241.557 72.481 241.587 72.481H242.937C243.225 72.481 243.456 72.397 243.63 72.229C243.81 72.055 243.9 71.827 243.9 71.545C243.9 71.263 243.81 71.035 243.63 70.861C243.456 70.687 243.225 70.6 242.937 70.6H241.587ZM250.283 70.492C250.283 70.522 250.271 70.549 250.247 70.573C250.229 70.591 250.205 70.6 250.175 70.6H247.106C247.076 70.6 247.061 70.615 247.061 70.645V72.328C247.061 72.358 247.076 72.373 247.106 72.373H249.167C249.197 72.373 249.221 72.385 249.239 72.409C249.263 72.427 249.275 72.451 249.275 72.481V73.165C249.275 73.195 249.263 73.222 249.239 73.246C249.221 73.264 249.197 73.273 249.167 73.273H247.106C247.076 73.273 247.061 73.288 247.061 73.318V75.055C247.061 75.085 247.076 75.1 247.106 75.1H250.175C250.205 75.1 250.229 75.112 250.247 75.136C250.271 75.154 250.283 75.178 250.283 75.208V75.892C250.283 75.922 250.271 75.949 250.247 75.973C250.229 75.991 250.205 76 250.175 76H246.125C246.095 76 246.068 75.991 246.044 75.973C246.026 75.949 246.017 75.922 246.017 75.892V69.808C246.017 69.778 246.026 69.754 246.044 69.736C246.068 69.712 246.095 69.7 246.125 69.7H250.175C250.205 69.7 250.229 69.712 250.247 69.736C250.271 69.754 250.283 69.778 250.283 69.808V70.492ZM251.884 76.018C251.698 76.018 251.545 75.958 251.425 75.838C251.305 75.718 251.245 75.565 251.245 75.379C251.245 75.193 251.305 75.04 251.425 74.92C251.545 74.8 251.698 74.74 251.884 74.74C252.07 74.74 252.22 74.8 252.334 74.92C252.454 75.04 252.514 75.193 252.514 75.379C252.514 75.565 252.454 75.718 252.334 75.838C252.214 75.958 252.064 76.018 251.884 76.018ZM255.91 76.072C255.46 76.072 255.064 75.985 254.722 75.811C254.38 75.631 254.116 75.379 253.93 75.055C253.744 74.731 253.651 74.359 253.651 73.939V71.761C253.651 71.335 253.744 70.963 253.93 70.645C254.116 70.321 254.38 70.072 254.722 69.898C255.064 69.718 255.46 69.628 255.91 69.628C256.354 69.628 256.744 69.715 257.08 69.889C257.422 70.063 257.686 70.3 257.872 70.6C258.058 70.9 258.151 71.239 258.151 71.617V71.689C258.151 71.719 258.139 71.746 258.115 71.77C258.097 71.788 258.073 71.797 258.043 71.797H257.224C257.194 71.797 257.167 71.788 257.143 71.77C257.125 71.746 257.116 71.719 257.116 71.689V71.644C257.116 71.32 257.005 71.053 256.783 70.843C256.567 70.633 256.276 70.528 255.91 70.528C255.544 70.528 255.25 70.639 255.028 70.861C254.806 71.077 254.695 71.365 254.695 71.725V73.975C254.695 74.335 254.812 74.626 255.046 74.848C255.28 75.064 255.583 75.172 255.955 75.172C256.315 75.172 256.597 75.079 256.801 74.893C257.011 74.701 257.116 74.44 257.116 74.11V73.552C257.116 73.522 257.101 73.507 257.071 73.507H255.964C255.934 73.507 255.907 73.498 255.883 73.48C255.865 73.456 255.856 73.429 255.856 73.399V72.733C255.856 72.703 255.865 72.679 255.883 72.661C255.907 72.637 255.934 72.625 255.964 72.625H258.043C258.073 72.625 258.097 72.637 258.115 72.661C258.139 72.679 258.151 72.703 258.151 72.733V73.885C258.151 74.575 257.947 75.112 257.539 75.496C257.137 75.88 256.594 76.072 255.91 76.072ZM261.529 76.072C261.085 76.072 260.692 75.985 260.35 75.811C260.008 75.637 259.741 75.391 259.549 75.073C259.363 74.749 259.27 74.377 259.27 73.957V69.808C259.27 69.778 259.279 69.754 259.297 69.736C259.321 69.712 259.348 69.7 259.378 69.7H260.206C260.236 69.7 260.26 69.712 260.278 69.736C260.302 69.754 260.314 69.778 260.314 69.808V73.975C260.314 74.329 260.425 74.617 260.647 74.839C260.869 75.061 261.163 75.172 261.529 75.172C261.895 75.172 262.189 75.061 262.411 74.839C262.633 74.617 262.744 74.329 262.744 73.975V69.808C262.744 69.778 262.753 69.754 262.771 69.736C262.795 69.712 262.822 69.7 262.852 69.7H263.68C263.71 69.7 263.734 69.712 263.752 69.736C263.776 69.754 263.788 69.778 263.788 69.808V73.957C263.788 74.377 263.695 74.749 263.509 75.073C263.323 75.391 263.059 75.637 262.717 75.811C262.375 75.985 261.979 76.072 261.529 76.072ZM268.583 76C268.523 76 268.481 75.973 268.457 75.919L267.269 73.327C267.257 73.303 267.239 73.291 267.215 73.291H266.135C266.105 73.291 266.09 73.306 266.09 73.336V75.892C266.09 75.922 266.078 75.949 266.054 75.973C266.036 75.991 266.012 76 265.982 76H265.154C265.124 76 265.097 75.991 265.073 75.973C265.055 75.949 265.046 75.922 265.046 75.892V69.808C265.046 69.778 265.055 69.754 265.073 69.736C265.097 69.712 265.124 69.7 265.154 69.7H267.629C267.995 69.7 268.319 69.778 268.601 69.934C268.883 70.084 269.102 70.3 269.258 70.582C269.414 70.858 269.492 71.176 269.492 71.536C269.492 71.95 269.384 72.304 269.168 72.598C268.958 72.886 268.664 73.087 268.286 73.201C268.274 73.201 268.265 73.207 268.259 73.219C268.253 73.231 268.253 73.243 268.259 73.255L269.528 75.874C269.54 75.898 269.546 75.916 269.546 75.928C269.546 75.976 269.513 76 269.447 76H268.583ZM266.135 70.6C266.105 70.6 266.09 70.615 266.09 70.645V72.436C266.09 72.466 266.105 72.481 266.135 72.481H267.485C267.773 72.481 268.004 72.397 268.178 72.229C268.358 72.055 268.448 71.827 268.448 71.545C268.448 71.263 268.358 71.035 268.178 70.861C268.004 70.687 267.773 70.6 267.485 70.6H266.135ZM272.698 76.09C272.248 76.09 271.849 76 271.501 75.82C271.153 75.634 270.883 75.373 270.691 75.037C270.505 74.701 270.412 74.314 270.412 73.876V71.824C270.412 71.392 270.508 71.011 270.7 70.681C270.892 70.345 271.159 70.087 271.501 69.907C271.849 69.721 272.248 69.628 272.698 69.628C273.154 69.628 273.553 69.721 273.895 69.907C274.243 70.087 274.513 70.345 274.705 70.681C274.897 71.011 274.993 71.392 274.993 71.824V73.876C274.993 74.314 274.897 74.701 274.705 75.037C274.513 75.373 274.243 75.634 273.895 75.82C273.553 76 273.154 76.09 272.698 76.09ZM272.698 75.19C273.076 75.19 273.379 75.073 273.607 74.839C273.835 74.605 273.949 74.296 273.949 73.912V71.815C273.949 71.425 273.835 71.113 273.607 70.879C273.379 70.645 273.076 70.528 272.698 70.528C272.326 70.528 272.026 70.645 271.798 70.879C271.57 71.113 271.456 71.425 271.456 71.815V73.912C271.456 74.296 271.57 74.605 271.798 74.839C272.026 75.073 272.326 75.19 272.698 75.19ZM278.261 76.072C277.811 76.072 277.415 75.985 277.073 75.811C276.731 75.631 276.467 75.382 276.281 75.064C276.095 74.746 276.002 74.377 276.002 73.957V71.734C276.002 71.314 276.095 70.945 276.281 70.627C276.467 70.309 276.731 70.063 277.073 69.889C277.415 69.715 277.811 69.628 278.261 69.628C278.705 69.628 279.098 69.712 279.44 69.88C279.782 70.048 280.046 70.285 280.232 70.591C280.418 70.897 280.511 71.251 280.511 71.653C280.511 71.683 280.499 71.71 280.475 71.734C280.457 71.752 280.433 71.761 280.403 71.761L279.575 71.806C279.503 71.806 279.467 71.773 279.467 71.707C279.467 71.353 279.356 71.068 279.134 70.852C278.918 70.636 278.627 70.528 278.261 70.528C277.895 70.528 277.601 70.636 277.379 70.852C277.157 71.068 277.046 71.353 277.046 71.707V74.002C277.046 74.35 277.157 74.632 277.379 74.848C277.601 75.064 277.895 75.172 278.261 75.172C278.627 75.172 278.918 75.067 279.134 74.857C279.356 74.641 279.467 74.356 279.467 74.002C279.467 73.936 279.503 73.903 279.575 73.903L280.403 73.939C280.433 73.939 280.457 73.948 280.475 73.966C280.499 73.984 280.511 74.005 280.511 74.029C280.511 74.437 280.418 74.797 280.232 75.109C280.046 75.415 279.782 75.652 279.44 75.82C279.098 75.988 278.705 76.072 278.261 76.072ZM281.739 76C281.709 76 281.682 75.991 281.658 75.973C281.64 75.949 281.631 75.922 281.631 75.892V69.808C281.631 69.778 281.64 69.754 281.658 69.736C281.682 69.712 281.709 69.7 281.739 69.7H282.567C282.597 69.7 282.621 69.712 282.639 69.736C282.663 69.754 282.675 69.778 282.675 69.808V72.499C282.675 72.517 282.681 72.529 282.693 72.535C282.705 72.541 282.717 72.538 282.729 72.526L285.069 69.763C285.105 69.721 285.15 69.7 285.204 69.7H286.14C286.2 69.7 286.23 69.721 286.23 69.763C286.23 69.781 286.221 69.805 286.203 69.835L284.142 72.364C284.124 72.388 284.121 72.409 284.133 72.427L286.347 75.874C286.359 75.91 286.365 75.931 286.365 75.937C286.365 75.979 286.335 76 286.275 76H285.33C285.276 76 285.234 75.976 285.204 75.928L283.422 73.156C283.398 73.12 283.377 73.117 283.359 73.147L282.693 73.921C282.681 73.945 282.675 73.966 282.675 73.984V75.892C282.675 75.922 282.663 75.949 282.639 75.973C282.621 75.991 282.597 76 282.567 76H281.739ZM287.752 76.018C287.566 76.018 287.413 75.958 287.293 75.838C287.173 75.718 287.113 75.565 287.113 75.379C287.113 75.193 287.173 75.04 287.293 74.92C287.413 74.8 287.566 74.74 287.752 74.74C287.938 74.74 288.088 74.8 288.202 74.92C288.322 75.04 288.382 75.193 288.382 75.379C288.382 75.565 288.322 75.718 288.202 75.838C288.082 75.958 287.932 76.018 287.752 76.018ZM291.779 76.072C291.329 76.072 290.933 75.985 290.591 75.811C290.249 75.631 289.985 75.382 289.799 75.064C289.613 74.746 289.52 74.377 289.52 73.957V71.734C289.52 71.314 289.613 70.945 289.799 70.627C289.985 70.309 290.249 70.063 290.591 69.889C290.933 69.715 291.329 69.628 291.779 69.628C292.223 69.628 292.616 69.712 292.958 69.88C293.3 70.048 293.564 70.285 293.75 70.591C293.936 70.897 294.029 71.251 294.029 71.653C294.029 71.683 294.017 71.71 293.993 71.734C293.975 71.752 293.951 71.761 293.921 71.761L293.093 71.806C293.021 71.806 292.985 71.773 292.985 71.707C292.985 71.353 292.874 71.068 292.652 70.852C292.436 70.636 292.145 70.528 291.779 70.528C291.413 70.528 291.119 70.636 290.897 70.852C290.675 71.068 290.564 71.353 290.564 71.707V74.002C290.564 74.35 290.675 74.632 290.897 74.848C291.119 75.064 291.413 75.172 291.779 75.172C292.145 75.172 292.436 75.067 292.652 74.857C292.874 74.641 292.985 74.356 292.985 74.002C292.985 73.936 293.021 73.903 293.093 73.903L293.921 73.939C293.951 73.939 293.975 73.948 293.993 73.966C294.017 73.984 294.029 74.005 294.029 74.029C294.029 74.437 293.936 74.797 293.75 75.109C293.564 75.415 293.3 75.652 292.958 75.82C292.616 75.988 292.223 76.072 291.779 76.072ZM297.281 76.09C296.831 76.09 296.432 76 296.084 75.82C295.736 75.634 295.466 75.373 295.274 75.037C295.088 74.701 294.995 74.314 294.995 73.876V71.824C294.995 71.392 295.091 71.011 295.283 70.681C295.475 70.345 295.742 70.087 296.084 69.907C296.432 69.721 296.831 69.628 297.281 69.628C297.737 69.628 298.136 69.721 298.478 69.907C298.826 70.087 299.096 70.345 299.288 70.681C299.48 71.011 299.576 71.392 299.576 71.824V73.876C299.576 74.314 299.48 74.701 299.288 75.037C299.096 75.373 298.826 75.634 298.478 75.82C298.136 76 297.737 76.09 297.281 76.09ZM297.281 75.19C297.659 75.19 297.962 75.073 298.19 74.839C298.418 74.605 298.532 74.296 298.532 73.912V71.815C298.532 71.425 298.418 71.113 298.19 70.879C297.962 70.645 297.659 70.528 297.281 70.528C296.909 70.528 296.609 70.645 296.381 70.879C296.153 71.113 296.039 71.425 296.039 71.815V73.912C296.039 74.296 296.153 74.605 296.381 74.839C296.609 75.073 296.909 75.19 297.281 75.19ZM304.797 69.772C304.827 69.724 304.869 69.7 304.923 69.7H305.751C305.781 69.7 305.805 69.712 305.823 69.736C305.847 69.754 305.859 69.778 305.859 69.808V75.892C305.859 75.922 305.847 75.949 305.823 75.973C305.805 75.991 305.781 76 305.751 76H304.923C304.893 76 304.866 75.991 304.842 75.973C304.824 75.949 304.815 75.922 304.815 75.892V71.599C304.815 71.581 304.806 71.569 304.788 71.563C304.776 71.557 304.767 71.563 304.761 71.581L303.636 73.309C303.606 73.357 303.564 73.381 303.51 73.381H303.096C303.042 73.381 303 73.357 302.97 73.309L301.836 71.59C301.83 71.572 301.818 71.566 301.8 71.572C301.788 71.578 301.782 71.59 301.782 71.608V75.892C301.782 75.922 301.77 75.949 301.746 75.973C301.728 75.991 301.704 76 301.674 76H300.846C300.816 76 300.789 75.991 300.765 75.973C300.747 75.949 300.738 75.922 300.738 75.892V69.808C300.738 69.778 300.747 69.754 300.765 69.736C300.789 69.712 300.816 69.7 300.846 69.7H301.674C301.728 69.7 301.77 69.724 301.8 69.772L303.267 71.995C303.279 72.007 303.291 72.013 303.303 72.013C303.315 72.013 303.324 72.007 303.33 71.995L304.797 69.772Z" fill="#049474"/>
  <path d="M240.186 126.691C240.564 126.691 240.897 126.769 241.185 126.925C241.473 127.081 241.695 127.303 241.851 127.591C242.013 127.873 242.094 128.2 242.094 128.572C242.094 128.938 242.013 129.262 241.851 129.544C241.689 129.826 241.458 130.045 241.158 130.201C240.864 130.351 240.522 130.426 240.132 130.426H238.692C238.662 130.426 238.647 130.441 238.647 130.471V132.892C238.647 132.922 238.635 132.949 238.611 132.973C238.593 132.991 238.569 133 238.539 133H237.711C237.681 133 237.654 132.991 237.63 132.973C237.612 132.949 237.603 132.922 237.603 132.892V126.799C237.603 126.769 237.612 126.745 237.63 126.727C237.654 126.703 237.681 126.691 237.711 126.691H240.186ZM240.033 129.58C240.339 129.58 240.585 129.49 240.771 129.31C240.957 129.13 241.05 128.893 241.05 128.599C241.05 128.299 240.957 128.056 240.771 127.87C240.585 127.684 240.339 127.591 240.033 127.591H238.692C238.662 127.591 238.647 127.606 238.647 127.636V129.535C238.647 129.565 238.662 129.58 238.692 129.58H240.033ZM246.52 133C246.46 133 246.421 132.97 246.403 132.91L246.106 131.947C246.094 131.923 246.079 131.911 246.061 131.911H243.685C243.667 131.911 243.652 131.923 243.64 131.947L243.343 132.91C243.325 132.97 243.286 133 243.226 133H242.326C242.29 133 242.263 132.991 242.245 132.973C242.227 132.949 242.224 132.916 242.236 132.874L244.189 126.79C244.207 126.73 244.246 126.7 244.306 126.7H245.431C245.491 126.7 245.53 126.73 245.548 126.79L247.51 132.874C247.516 132.886 247.519 132.901 247.519 132.919C247.519 132.973 247.486 133 247.42 133H246.52ZM243.919 131.038C243.913 131.074 243.925 131.092 243.955 131.092H245.782C245.818 131.092 245.83 131.074 245.818 131.038L244.891 128.023C244.885 127.999 244.876 127.987 244.864 127.987C244.852 127.987 244.843 127.999 244.837 128.023L243.919 131.038ZM250.115 133.072C249.647 133.072 249.239 132.997 248.891 132.847C248.543 132.697 248.273 132.487 248.081 132.217C247.895 131.947 247.802 131.629 247.802 131.263V131.038C247.802 131.008 247.811 130.984 247.829 130.966C247.853 130.942 247.88 130.93 247.91 130.93H248.711C248.741 130.93 248.765 130.942 248.783 130.966C248.807 130.984 248.819 131.008 248.819 131.038V131.209C248.819 131.485 248.942 131.716 249.188 131.902C249.434 132.082 249.77 132.172 250.196 132.172C250.562 132.172 250.838 132.094 251.024 131.938C251.21 131.782 251.303 131.581 251.303 131.335C251.303 131.167 251.252 131.026 251.15 130.912C251.048 130.792 250.901 130.684 250.709 130.588C250.523 130.492 250.241 130.372 249.863 130.228C249.437 130.072 249.092 129.925 248.828 129.787C248.564 129.649 248.342 129.463 248.162 129.229C247.988 128.989 247.901 128.692 247.901 128.338C247.901 127.81 248.093 127.393 248.477 127.087C248.861 126.781 249.374 126.628 250.016 126.628C250.466 126.628 250.862 126.706 251.204 126.862C251.552 127.018 251.822 127.237 252.014 127.519C252.206 127.795 252.302 128.116 252.302 128.482V128.635C252.302 128.665 252.29 128.692 252.266 128.716C252.248 128.734 252.224 128.743 252.194 128.743H251.384C251.354 128.743 251.327 128.734 251.303 128.716C251.285 128.692 251.276 128.665 251.276 128.635V128.536C251.276 128.254 251.159 128.017 250.925 127.825C250.697 127.627 250.379 127.528 249.971 127.528C249.641 127.528 249.383 127.597 249.197 127.735C249.017 127.873 248.927 128.068 248.927 128.32C248.927 128.5 248.975 128.647 249.071 128.761C249.167 128.875 249.311 128.98 249.503 129.076C249.695 129.166 249.992 129.283 250.394 129.427C250.82 129.589 251.159 129.736 251.411 129.868C251.669 130 251.888 130.186 252.068 130.426C252.254 130.66 252.347 130.954 252.347 131.308C252.347 131.848 252.146 132.277 251.744 132.595C251.348 132.913 250.805 133.072 250.115 133.072ZM255.432 133.072C254.964 133.072 254.556 132.997 254.208 132.847C253.86 132.697 253.59 132.487 253.398 132.217C253.212 131.947 253.119 131.629 253.119 131.263V131.038C253.119 131.008 253.128 130.984 253.146 130.966C253.17 130.942 253.197 130.93 253.227 130.93H254.028C254.058 130.93 254.082 130.942 254.1 130.966C254.124 130.984 254.136 131.008 254.136 131.038V131.209C254.136 131.485 254.259 131.716 254.505 131.902C254.751 132.082 255.087 132.172 255.513 132.172C255.879 132.172 256.155 132.094 256.341 131.938C256.527 131.782 256.62 131.581 256.62 131.335C256.62 131.167 256.569 131.026 256.467 130.912C256.365 130.792 256.218 130.684 256.026 130.588C255.84 130.492 255.558 130.372 255.18 130.228C254.754 130.072 254.409 129.925 254.145 129.787C253.881 129.649 253.659 129.463 253.479 129.229C253.305 128.989 253.218 128.692 253.218 128.338C253.218 127.81 253.41 127.393 253.794 127.087C254.178 126.781 254.691 126.628 255.333 126.628C255.783 126.628 256.179 126.706 256.521 126.862C256.869 127.018 257.139 127.237 257.331 127.519C257.523 127.795 257.619 128.116 257.619 128.482V128.635C257.619 128.665 257.607 128.692 257.583 128.716C257.565 128.734 257.541 128.743 257.511 128.743H256.701C256.671 128.743 256.644 128.734 256.62 128.716C256.602 128.692 256.593 128.665 256.593 128.635V128.536C256.593 128.254 256.476 128.017 256.242 127.825C256.014 127.627 255.696 127.528 255.288 127.528C254.958 127.528 254.7 127.597 254.514 127.735C254.334 127.873 254.244 128.068 254.244 128.32C254.244 128.5 254.292 128.647 254.388 128.761C254.484 128.875 254.628 128.98 254.82 129.076C255.012 129.166 255.309 129.283 255.711 129.427C256.137 129.589 256.476 129.736 256.728 129.868C256.986 130 257.205 130.186 257.385 130.426C257.571 130.66 257.664 130.954 257.664 131.308C257.664 131.848 257.463 132.277 257.061 132.595C256.665 132.913 256.122 133.072 255.432 133.072Z" fill="#EE7D00"/>
  <path d="M33.0897 152.441H35.9338L35.426 136.7L27.9091 137.106L33.0897 152.441Z" fill="#7C501A"/>
  <path d="M32.7015 161.488C33.5599 161.88 34.279 158.706 35.0032 159.417C37.0287 161.408 39.1215 161.841 41.8252 160.972L41.8878 160.961C42.0509 160.909 42.2017 160.824 42.331 160.712C42.4604 160.599 42.5655 160.462 42.6402 160.308C42.7148 160.153 42.7573 159.985 42.7651 159.814C42.773 159.643 42.746 159.472 42.6859 159.312C42.6139 159.12 42.4963 158.948 42.3433 158.812C42.1902 158.675 42.0064 158.578 41.8074 158.528L39.6533 157.99L36.2709 152.043L32.8181 151.809C32.0483 152.791 31.5111 153.934 31.2469 155.152C30.9826 156.371 30.9982 157.634 31.2924 158.845C31.6057 160.124 32.0894 161.209 32.7015 161.488Z" fill="#2F2E41"/>
  <path d="M6.06878 150.361L8.71362 151.407L14.0323 136.582L6.89291 134.195L6.06878 150.361Z" fill="#7C501A"/>
  <path d="M2.37989 158.63C3.03409 159.31 4.87029 156.623 5.28194 157.551C6.43336 160.147 8.22007 161.319 11.0538 161.506L11.1159 161.519C11.2869 161.53 11.4584 161.506 11.6201 161.449C11.7817 161.392 11.93 161.303 12.0562 161.187C12.1823 161.071 12.2835 160.931 12.3538 160.775C12.4241 160.618 12.4619 160.45 12.4649 160.278C12.4686 160.073 12.4224 159.87 12.3303 159.687C12.2383 159.504 12.1031 159.346 11.9363 159.226L10.1313 157.934L9.17383 151.16L6.04881 149.673C4.97207 150.302 4.05207 151.168 3.35801 152.204C2.66396 153.24 2.21391 154.42 2.04173 155.655C1.86273 156.959 1.9135 158.146 2.37989 158.63Z" fill="#2F2E41"/>
  <path d="M14.7034 74.3496L19.0699 75.4722C19.4003 75.5572 19.7456 75.5671 20.0803 75.5012C20.4151 75.4353 20.7308 75.2954 21.0044 75.0916C21.278 74.8878 21.5025 74.6253 21.6614 74.3235C21.8202 74.0216 21.9095 73.688 21.9226 73.3472C21.9347 73.0338 21.8821 72.7212 21.7681 72.429C21.6541 72.1368 21.4811 71.8712 21.26 71.6487C21.0388 71.4263 20.7743 71.2517 20.4827 71.1359C20.1912 71.0201 19.8789 70.9656 19.5654 70.9757L15.7191 71.0998L8.30759 68.4015L15.3128 63.1782L14.5002 55.866L0.848106 66.8241C0.604664 67.0195 0.40419 67.2631 0.259247 67.5396C0.114305 67.816 0.0280247 68.1194 0.00578117 68.4307C-0.0316067 68.9541 0.113678 69.4742 0.416895 69.9024C0.72011 70.3306 1.16249 70.6405 1.66861 70.7791C4.86748 73.3892 9.52781 74.1886 14.7034 74.3496Z" fill="#7C501A"/>
  <path d="M24.6578 46.9294C20.7309 46.9294 17.5474 43.7466 17.5474 39.8204C17.5474 35.8941 20.7309 32.7113 24.6578 32.7113C28.5848 32.7113 31.7682 35.8941 31.7682 39.8204C31.7682 43.7466 28.5848 46.9294 24.6578 46.9294Z" fill="#7C501A"/>
  <path d="M15.9222 49.5692L25.4704 53.4284C25.1901 50.4106 25.9812 47.3905 27.7051 44.8975L19.7822 43.0695C19.8852 45.4888 18.5767 47.6514 15.9222 49.5692Z" fill="#7C501A"/>
  <path d="M14.1954 66.1235C21.8923 66.7395 26.1024 65.7175 32.5808 61.9597L30.143 56.2724C30.2653 55.4161 30.1492 54.5426 29.8072 53.748C29.4653 52.9534 28.9109 52.2684 28.2048 51.7684L25.6736 49.9758L17.9538 47.7415L17.6075 47.7588C16.5805 47.8102 15.6075 48.2341 14.8708 48.9512C14.1341 49.6683 13.6841 50.6294 13.6053 51.6544C11.9281 56.6655 11.9173 61.5093 14.1954 66.1235Z" fill="#E6E6E6"/>
  <path d="M15.7191 78.0056L32.1745 76.1776L33.3935 70.8965C36.0953 66.8187 34.916 63.0835 31.7682 59.522C26.0305 63.2037 20.7045 64.7946 13.0781 63.5844C15.1062 68.516 16.9793 73.3626 15.7191 78.0056Z" fill="#2F2E41"/>
  <path d="M2.92041 139.55L16.0238 138.839L20.29 104.919L23.7437 138.636L39.2849 137.925C34.5442 115.759 31.2507 94.716 32.1745 75.3652L15.9223 76.787C10.4142 82.5936 7.67924 91.8626 6.06929 102.887C4.45934 113.912 3.16174 126.693 2.92041 139.55Z" fill="#2F2E41"/>
  <path d="M16.8304 33.3482C15.4806 33.3482 14.3864 32.2542 14.3864 30.9047C14.3864 29.5551 15.4806 28.4611 16.8304 28.4611C18.1802 28.4611 19.2744 29.5551 19.2744 30.9047C19.2744 32.2542 18.1802 33.3482 16.8304 33.3482Z" fill="#2F2E41"/>
  <path d="M19.3488 30.3064C19.3086 29.6864 19.0336 29.1051 18.5797 28.6808C18.1259 28.2564 17.5273 28.021 16.9059 28.0225C16.9564 28.0161 17.0064 28.0083 17.0579 28.005C17.7047 27.9635 18.3416 28.1805 18.8284 28.6084C19.3152 29.0363 19.6121 29.6401 19.6537 30.2868C19.6952 30.9335 19.4782 31.5703 19.0502 32.057C18.6222 32.5437 18.0184 32.8405 17.3715 32.8821C17.32 32.8854 17.2694 32.8841 17.2186 32.8842C17.835 32.8061 18.3985 32.496 18.7943 32.0171C19.1901 31.5382 19.3884 30.9264 19.3488 30.3064Z" fill="#2F2E41"/>
  <path d="M19.3625 31.3498C21.5422 29.5419 27.794 31.8396 28.1975 33.055C31.145 33.4566 33.3766 35.176 33.3766 38.2332V38.2332C31.6242 38.951 29.6312 38.8625 27.4768 38.2332C24.0424 41.0315 23.807 44.5492 25.8956 48.5896L23.3261 48.641L20.141 43.9868L19.9887 48.7077L14.0987 48.5896V41.8242C14.0796 39.5747 14.5975 37.3532 15.6092 35.344C16.5271 33.5611 17.9515 32.5201 19.3625 31.3498Z" fill="#2F2E41"/>
  <path d="M24.8473 43.303C24.2019 43.303 23.6786 42.5706 23.6786 41.6671C23.6786 40.7636 24.2019 40.0312 24.8473 40.0312C25.4928 40.0312 26.0161 40.7636 26.0161 41.6671C26.0161 42.5706 25.4928 43.303 24.8473 43.303Z" fill="#7C501A"/>
  <path d="M32.1745 98.3172L31.7767 105.211C31.7511 105.654 31.8247 106.098 31.992 106.51C32.1594 106.922 32.4164 107.291 32.7443 107.591C33.0722 107.891 33.4629 108.115 33.8879 108.245C34.3129 108.375 34.7616 108.409 35.2014 108.345C36.9531 108.087 36.9929 106.374 36.5635 104.657L34.9274 98.1141C30.914 83.7266 29.8305 69.605 30.0336 55.8323C30.0419 55.3652 29.9554 54.9013 29.7794 54.4686C29.6034 54.0359 29.3416 53.6433 29.0096 53.3145C28.6777 52.9858 28.2826 52.7277 27.8482 52.5558C27.4137 52.3839 26.949 52.3018 26.4819 52.3144C26.0263 52.3276 25.5778 52.4308 25.1622 52.618C24.7466 52.8052 24.3722 53.0727 24.0604 53.4051C23.7487 53.7376 23.5057 54.1284 23.3456 54.5551C23.1855 54.9817 23.1113 55.4359 23.1274 55.8913C23.6955 72.064 26.0548 86.7506 32.1745 98.3172Z" fill="#7C501A"/>
  <path d="M193 49.0836H56.4249V135.692H193V49.0836Z" fill="#E6E6E6"/>
  <path d="M188.003 59.9097H60.5888V131.528H188.003V59.9097Z" fill="white"/>
  <path d="M193 49.0836H56.4249V55.7458H193V49.0836Z" fill="#2F2E41"/>
  <path d="M61.4216 54.0802C62.3415 54.0802 63.0871 53.3346 63.0871 52.4147C63.0871 51.4948 62.3415 50.7491 61.4216 50.7491C60.5017 50.7491 59.756 51.4948 59.756 52.4147C59.756 53.3346 60.5017 54.0802 61.4216 54.0802Z" fill="white"/>
  <path d="M66.4182 54.0802C67.3381 54.0802 68.0838 53.3346 68.0838 52.4147C68.0838 51.4948 67.3381 50.7491 66.4182 50.7491C65.4984 50.7491 64.7527 51.4948 64.7527 52.4147C64.7527 53.3346 65.4984 54.0802 66.4182 54.0802Z" fill="white"/>
  <path d="M71.4149 54.0802C72.3347 54.0802 73.0804 53.3346 73.0804 52.4147C73.0804 51.4948 72.3347 50.7491 71.4149 50.7491C70.495 50.7491 69.7493 51.4948 69.7493 52.4147C69.7493 53.3346 70.495 54.0802 71.4149 54.0802Z" fill="white"/>
  <path d="M183.924 63.7431H64.7628V73.0891H183.924V63.7431Z" fill="#0E3754"/>
  <path d="M156.665 76.2043H64.7628V127.607H156.665V76.2043Z" fill="#EAF1F7"/>
  <path d="M183.924 76.2043H160.559V127.607H183.924V76.2043Z" fill="#EAF1F7"/>
  <path d="M109.85 102.374H74.0536C72.3967 102.374 71.0536 103.717 71.0536 105.374V118.182C71.0536 119.839 72.3967 121.182 74.0536 121.182H109.85C111.507 121.182 112.85 119.839 112.85 118.182V105.374C112.85 103.717 111.507 102.374 109.85 102.374Z" fill="#376789"/>
  <path d="M80.4721 114.508C80.4121 114.508 80.3701 114.481 80.3461 114.427L79.1581 111.835C79.1461 111.811 79.1281 111.799 79.1041 111.799H78.0241C77.9941 111.799 77.9791 111.814 77.9791 111.844V114.4C77.9791 114.43 77.9671 114.457 77.9431 114.481C77.9251 114.499 77.9011 114.508 77.8711 114.508H77.0431C77.0131 114.508 76.9861 114.499 76.9621 114.481C76.9441 114.457 76.9351 114.43 76.9351 114.4V108.316C76.9351 108.286 76.9441 108.262 76.9621 108.244C76.9861 108.22 77.0131 108.208 77.0431 108.208H79.5181C79.8841 108.208 80.2081 108.286 80.4901 108.442C80.7721 108.592 80.9911 108.808 81.1471 109.09C81.3031 109.366 81.3811 109.684 81.3811 110.044C81.3811 110.458 81.2731 110.812 81.0571 111.106C80.8471 111.394 80.5531 111.595 80.1751 111.709C80.1631 111.709 80.1541 111.715 80.1481 111.727C80.1421 111.739 80.1421 111.751 80.1481 111.763L81.4171 114.382C81.4291 114.406 81.4351 114.424 81.4351 114.436C81.4351 114.484 81.4021 114.508 81.3361 114.508H80.4721ZM78.0241 109.108C77.9941 109.108 77.9791 109.123 77.9791 109.153V110.944C77.9791 110.974 77.9941 110.989 78.0241 110.989H79.3741C79.6621 110.989 79.8931 110.905 80.0671 110.737C80.2471 110.563 80.3371 110.335 80.3371 110.053C80.3371 109.771 80.2471 109.543 80.0671 109.369C79.8931 109.195 79.6621 109.108 79.3741 109.108H78.0241ZM86.7207 109C86.7207 109.03 86.7087 109.057 86.6847 109.081C86.6667 109.099 86.6427 109.108 86.6127 109.108H83.5437C83.5137 109.108 83.4987 109.123 83.4987 109.153V110.836C83.4987 110.866 83.5137 110.881 83.5437 110.881H85.6047C85.6347 110.881 85.6587 110.893 85.6767 110.917C85.7007 110.935 85.7127 110.959 85.7127 110.989V111.673C85.7127 111.703 85.7007 111.73 85.6767 111.754C85.6587 111.772 85.6347 111.781 85.6047 111.781H83.5437C83.5137 111.781 83.4987 111.796 83.4987 111.826V113.563C83.4987 113.593 83.5137 113.608 83.5437 113.608H86.6127C86.6427 113.608 86.6667 113.62 86.6847 113.644C86.7087 113.662 86.7207 113.686 86.7207 113.716V114.4C86.7207 114.43 86.7087 114.457 86.6847 114.481C86.6667 114.499 86.6427 114.508 86.6127 114.508H82.5627C82.5327 114.508 82.5057 114.499 82.4817 114.481C82.4637 114.457 82.4547 114.43 82.4547 114.4V108.316C82.4547 108.286 82.4637 108.262 82.4817 108.244C82.5057 108.22 82.5327 108.208 82.5627 108.208H86.6127C86.6427 108.208 86.6667 108.22 86.6847 108.244C86.7087 108.262 86.7207 108.286 86.7207 108.316V109ZM91.4438 108.316C91.4438 108.286 91.4528 108.262 91.4708 108.244C91.4948 108.22 91.5218 108.208 91.5518 108.208H92.3798C92.4098 108.208 92.4338 108.22 92.4518 108.244C92.4758 108.262 92.4878 108.286 92.4878 108.316V114.4C92.4878 114.43 92.4758 114.457 92.4518 114.481C92.4338 114.499 92.4098 114.508 92.3798 114.508H91.5788C91.5188 114.508 91.4768 114.484 91.4528 114.436L88.8608 110.188C88.8488 110.17 88.8368 110.164 88.8248 110.17C88.8128 110.17 88.8068 110.182 88.8068 110.206L88.8248 114.4C88.8248 114.43 88.8128 114.457 88.7888 114.481C88.7708 114.499 88.7468 114.508 88.7168 114.508H87.8888C87.8588 114.508 87.8318 114.499 87.8078 114.481C87.7898 114.457 87.7808 114.43 87.7808 114.4V108.316C87.7808 108.286 87.7898 108.262 87.8078 108.244C87.8318 108.22 87.8588 108.208 87.8888 108.208H88.6898C88.7498 108.208 88.7918 108.232 88.8158 108.28L91.3988 112.528C91.4108 112.546 91.4228 112.555 91.4348 112.555C91.4468 112.549 91.4528 112.534 91.4528 112.51L91.4438 108.316ZM97.9882 109C97.9882 109.03 97.9762 109.057 97.9522 109.081C97.9342 109.099 97.9102 109.108 97.8802 109.108H94.8112C94.7812 109.108 94.7662 109.123 94.7662 109.153V110.836C94.7662 110.866 94.7812 110.881 94.8112 110.881H96.8722C96.9022 110.881 96.9262 110.893 96.9442 110.917C96.9682 110.935 96.9802 110.959 96.9802 110.989V111.673C96.9802 111.703 96.9682 111.73 96.9442 111.754C96.9262 111.772 96.9022 111.781 96.8722 111.781H94.8112C94.7812 111.781 94.7662 111.796 94.7662 111.826V113.563C94.7662 113.593 94.7812 113.608 94.8112 113.608H97.8802C97.9102 113.608 97.9342 113.62 97.9522 113.644C97.9762 113.662 97.9882 113.686 97.9882 113.716V114.4C97.9882 114.43 97.9762 114.457 97.9522 114.481C97.9342 114.499 97.9102 114.508 97.8802 114.508H93.8302C93.8002 114.508 93.7732 114.499 93.7492 114.481C93.7312 114.457 93.7222 114.43 93.7222 114.4V108.316C93.7222 108.286 93.7312 108.262 93.7492 108.244C93.7732 108.22 93.8002 108.208 93.8302 108.208H97.8802C97.9102 108.208 97.9342 108.22 97.9522 108.244C97.9762 108.262 97.9882 108.286 97.9882 108.316V109ZM100.469 114.508C100.403 114.508 100.361 114.478 100.343 114.418L98.7045 108.325L98.6955 108.289C98.6955 108.235 98.7285 108.208 98.7945 108.208H99.6765C99.7425 108.208 99.7845 108.238 99.8025 108.298L100.829 112.402C100.835 112.42 100.844 112.429 100.856 112.429C100.868 112.429 100.877 112.42 100.883 112.402L101.864 108.298C101.882 108.238 101.921 108.208 101.981 108.208H102.845C102.911 108.208 102.953 108.238 102.971 108.298L104.015 112.411C104.021 112.429 104.03 112.438 104.042 112.438C104.054 112.438 104.063 112.429 104.069 112.411L105.077 108.298C105.095 108.238 105.137 108.208 105.203 108.208H106.04C106.124 108.208 106.157 108.247 106.139 108.325L104.582 114.418C104.564 114.478 104.522 114.508 104.456 114.508H103.619C103.553 114.508 103.511 114.478 103.493 114.418L102.44 110.125C102.434 110.107 102.425 110.098 102.413 110.098C102.401 110.092 102.392 110.101 102.386 110.125L101.378 114.418C101.36 114.478 101.321 114.508 101.261 114.508H100.469Z" fill="white"/>
  <path d="M621.575 49H485V135.609H621.575V49Z" fill="#E6E6E6"/>
  <path d="M616.578 59.8261H489.164V131.445H616.578V59.8261Z" fill="white"/>
  <path d="M621.575 49H485V55.6622H621.575V49Z" fill="#2F2E41"/>
  <path d="M489.997 53.9967C490.916 53.9967 491.662 53.251 491.662 52.3311C491.662 51.4113 490.916 50.6656 489.997 50.6656C489.077 50.6656 488.331 51.4113 488.331 52.3311C488.331 53.251 489.077 53.9967 489.997 53.9967Z" fill="white"/>
  <path d="M494.993 53.9967C495.913 53.9967 496.659 53.251 496.659 52.3311C496.659 51.4113 495.913 50.6656 494.993 50.6656C494.073 50.6656 493.328 51.4113 493.328 52.3311C493.328 53.251 494.073 53.9967 494.993 53.9967Z" fill="white"/>
  <path d="M499.99 53.9967C500.91 53.9967 501.656 53.251 501.656 52.3311C501.656 51.4113 500.91 50.6656 499.99 50.6656C499.07 50.6656 498.324 51.4113 498.324 52.3311C498.324 53.251 499.07 53.9967 499.99 53.9967Z" fill="white"/>
  <path d="M612.499 63.6595H493.338V73.0055H612.499V63.6595Z" fill="#0E3754"/>
  <path d="M585.24 76.1208H493.338V127.524H585.24V76.1208Z" fill="#EAF1F7"/>
  <path d="M612.499 76.1208H589.134V127.524H612.499V76.1208Z" fill="#EAF1F7"/>
  <path d="M521.235 120C521.175 120 521.133 119.973 521.109 119.919L519.921 117.327C519.909 117.303 519.891 117.291 519.867 117.291H518.787C518.757 117.291 518.742 117.306 518.742 117.336V119.892C518.742 119.922 518.73 119.949 518.706 119.973C518.688 119.991 518.664 120 518.634 120H517.806C517.776 120 517.749 119.991 517.725 119.973C517.707 119.949 517.698 119.922 517.698 119.892V113.808C517.698 113.778 517.707 113.754 517.725 113.736C517.749 113.712 517.776 113.7 517.806 113.7H520.281C520.647 113.7 520.971 113.778 521.253 113.934C521.535 114.084 521.754 114.3 521.91 114.582C522.066 114.858 522.144 115.176 522.144 115.536C522.144 115.95 522.036 116.304 521.82 116.598C521.61 116.886 521.316 117.087 520.938 117.201C520.926 117.201 520.917 117.207 520.911 117.219C520.905 117.231 520.905 117.243 520.911 117.255L522.18 119.874C522.192 119.898 522.198 119.916 522.198 119.928C522.198 119.976 522.165 120 522.099 120H521.235ZM518.787 114.6C518.757 114.6 518.742 114.615 518.742 114.645V116.436C518.742 116.466 518.757 116.481 518.787 116.481H520.137C520.425 116.481 520.656 116.397 520.83 116.229C521.01 116.055 521.1 115.827 521.1 115.545C521.1 115.263 521.01 115.035 520.83 114.861C520.656 114.687 520.425 114.6 520.137 114.6H518.787ZM527.483 114.492C527.483 114.522 527.471 114.549 527.447 114.573C527.429 114.591 527.405 114.6 527.375 114.6H524.306C524.276 114.6 524.261 114.615 524.261 114.645V116.328C524.261 116.358 524.276 116.373 524.306 116.373H526.367C526.397 116.373 526.421 116.385 526.439 116.409C526.463 116.427 526.475 116.451 526.475 116.481V117.165C526.475 117.195 526.463 117.222 526.439 117.246C526.421 117.264 526.397 117.273 526.367 117.273H524.306C524.276 117.273 524.261 117.288 524.261 117.318V119.055C524.261 119.085 524.276 119.1 524.306 119.1H527.375C527.405 119.1 527.429 119.112 527.447 119.136C527.471 119.154 527.483 119.178 527.483 119.208V119.892C527.483 119.922 527.471 119.949 527.447 119.973C527.429 119.991 527.405 120 527.375 120H523.325C523.295 120 523.268 119.991 523.244 119.973C523.226 119.949 523.217 119.922 523.217 119.892V113.808C523.217 113.778 523.226 113.754 523.244 113.736C523.268 113.712 523.295 113.7 523.325 113.7H527.375C527.405 113.7 527.429 113.712 527.447 113.736C527.471 113.754 527.483 113.778 527.483 113.808V114.492ZM532.206 113.808C532.206 113.778 532.215 113.754 532.233 113.736C532.257 113.712 532.284 113.7 532.314 113.7H533.142C533.172 113.7 533.196 113.712 533.214 113.736C533.238 113.754 533.25 113.778 533.25 113.808V119.892C533.25 119.922 533.238 119.949 533.214 119.973C533.196 119.991 533.172 120 533.142 120H532.341C532.281 120 532.239 119.976 532.215 119.928L529.623 115.68C529.611 115.662 529.599 115.656 529.587 115.662C529.575 115.662 529.569 115.674 529.569 115.698L529.587 119.892C529.587 119.922 529.575 119.949 529.551 119.973C529.533 119.991 529.509 120 529.479 120H528.651C528.621 120 528.594 119.991 528.57 119.973C528.552 119.949 528.543 119.922 528.543 119.892V113.808C528.543 113.778 528.552 113.754 528.57 113.736C528.594 113.712 528.621 113.7 528.651 113.7H529.452C529.512 113.7 529.554 113.724 529.578 113.772L532.161 118.02C532.173 118.038 532.185 118.047 532.197 118.047C532.209 118.041 532.215 118.026 532.215 118.002L532.206 113.808ZM538.751 114.492C538.751 114.522 538.739 114.549 538.715 114.573C538.697 114.591 538.673 114.6 538.643 114.6H535.574C535.544 114.6 535.529 114.615 535.529 114.645V116.328C535.529 116.358 535.544 116.373 535.574 116.373H537.635C537.665 116.373 537.689 116.385 537.707 116.409C537.731 116.427 537.743 116.451 537.743 116.481V117.165C537.743 117.195 537.731 117.222 537.707 117.246C537.689 117.264 537.665 117.273 537.635 117.273H535.574C535.544 117.273 535.529 117.288 535.529 117.318V119.055C535.529 119.085 535.544 119.1 535.574 119.1H538.643C538.673 119.1 538.697 119.112 538.715 119.136C538.739 119.154 538.751 119.178 538.751 119.208V119.892C538.751 119.922 538.739 119.949 538.715 119.973C538.697 119.991 538.673 120 538.643 120H534.593C534.563 120 534.536 119.991 534.512 119.973C534.494 119.949 534.485 119.922 534.485 119.892V113.808C534.485 113.778 534.494 113.754 534.512 113.736C534.536 113.712 534.563 113.7 534.593 113.7H538.643C538.673 113.7 538.697 113.712 538.715 113.736C538.739 113.754 538.751 113.778 538.751 113.808V114.492ZM541.231 120C541.165 120 541.123 119.97 541.105 119.91L539.467 113.817L539.458 113.781C539.458 113.727 539.491 113.7 539.557 113.7H540.439C540.505 113.7 540.547 113.73 540.565 113.79L541.591 117.894C541.597 117.912 541.606 117.921 541.618 117.921C541.63 117.921 541.639 117.912 541.645 117.894L542.626 113.79C542.644 113.73 542.683 113.7 542.743 113.7H543.607C543.673 113.7 543.715 113.73 543.733 113.79L544.777 117.903C544.783 117.921 544.792 117.93 544.804 117.93C544.816 117.93 544.825 117.921 544.831 117.903L545.839 113.79C545.857 113.73 545.899 113.7 545.965 113.7H546.802C546.886 113.7 546.919 113.739 546.901 113.817L545.344 119.91C545.326 119.97 545.284 120 545.218 120H544.381C544.315 120 544.273 119.97 544.255 119.91L543.202 115.617C543.196 115.599 543.187 115.59 543.175 115.59C543.163 115.584 543.154 115.593 543.148 115.617L542.14 119.91C542.122 119.97 542.083 120 542.023 120H541.231ZM551.978 114.492C551.978 114.522 551.966 114.549 551.942 114.573C551.924 114.591 551.9 114.6 551.87 114.6H548.801C548.771 114.6 548.756 114.615 548.756 114.645V116.328C548.756 116.358 548.771 116.373 548.801 116.373H550.862C550.892 116.373 550.916 116.385 550.934 116.409C550.958 116.427 550.97 116.451 550.97 116.481V117.165C550.97 117.195 550.958 117.222 550.934 117.246C550.916 117.264 550.892 117.273 550.862 117.273H548.801C548.771 117.273 548.756 117.288 548.756 117.318V119.055C548.756 119.085 548.771 119.1 548.801 119.1H551.87C551.9 119.1 551.924 119.112 551.942 119.136C551.966 119.154 551.978 119.178 551.978 119.208V119.892C551.978 119.922 551.966 119.949 551.942 119.973C551.924 119.991 551.9 120 551.87 120H547.82C547.79 120 547.763 119.991 547.739 119.973C547.721 119.949 547.712 119.922 547.712 119.892V113.808C547.712 113.778 547.721 113.754 547.739 113.736C547.763 113.712 547.79 113.7 547.82 113.7H551.87C551.9 113.7 551.924 113.712 551.942 113.736C551.966 113.754 551.978 113.778 551.978 113.808V114.492ZM553.146 120C553.116 120 553.089 119.991 553.065 119.973C553.047 119.949 553.038 119.922 553.038 119.892V113.808C553.038 113.778 553.047 113.754 553.065 113.736C553.089 113.712 553.116 113.7 553.146 113.7H555.342C555.768 113.7 556.143 113.775 556.467 113.925C556.791 114.075 557.04 114.291 557.214 114.573C557.394 114.849 557.484 115.173 557.484 115.545V118.155C557.484 118.527 557.394 118.854 557.214 119.136C557.04 119.412 556.791 119.625 556.467 119.775C556.143 119.925 555.768 120 555.342 120H553.146ZM554.082 119.055C554.082 119.085 554.097 119.1 554.127 119.1H555.387C555.705 119.1 555.957 119.001 556.143 118.803C556.335 118.599 556.434 118.329 556.44 117.993V115.716C556.44 115.374 556.344 115.104 556.152 114.906C555.96 114.702 555.702 114.6 555.378 114.6H554.127C554.097 114.6 554.082 114.615 554.082 114.645V119.055ZM559.151 117.876C559.121 117.876 559.094 117.867 559.07 117.849C559.052 117.825 559.043 117.798 559.043 117.768L558.944 113.808C558.944 113.778 558.953 113.754 558.971 113.736C558.995 113.712 559.022 113.7 559.052 113.7H559.88C559.91 113.7 559.934 113.712 559.952 113.736C559.976 113.754 559.988 113.778 559.988 113.808L559.889 117.768C559.889 117.798 559.877 117.825 559.853 117.849C559.835 117.867 559.811 117.876 559.781 117.876H559.151ZM559.412 119.982C559.226 119.982 559.073 119.922 558.953 119.802C558.839 119.682 558.782 119.529 558.782 119.343C558.782 119.157 558.839 119.007 558.953 118.893C559.073 118.773 559.226 118.713 559.412 118.713C559.598 118.713 559.751 118.773 559.871 118.893C559.991 119.007 560.051 119.157 560.051 119.343C560.051 119.529 559.991 119.682 559.871 119.802C559.751 119.922 559.598 119.982 559.412 119.982Z" fill="#049474"/>
  <circle cx="538.5" cy="95.5" r="13.5" fill="#049474"/>
  <path d="M535.321 102.512C532.772 101.356 531 98.7898 531 95.8093C531 91.7461 534.294 88.4523 538.357 88.4523" stroke="#6CE3C9" stroke-width="2" stroke-linecap="round"/>
  <path d="M538.493 88.4523L536.447 86.4062" stroke="#6CE3C9" stroke-width="2" stroke-linecap="round"/>
  <path d="M538.493 88.4523L537.47 90.9046" stroke="#6CE3C9" stroke-width="2" stroke-linecap="round"/>
  <path d="M540.581 105.254L538.493 103.166" stroke="#6CE3C9" stroke-width="2" stroke-linecap="round"/>
  <path d="M539.474 100.55L538.493 103.166" stroke="#6CE3C9" stroke-width="2" stroke-linecap="round"/>
  <path d="M541.679 89.1061C544.228 90.2622 546 92.8288 546 95.8093C546 99.8725 542.706 103.166 538.643 103.166" stroke="#6CE3C9" stroke-width="2" stroke-linecap="round"/>
</svg>
