<svg xmlns="http://www.w3.org/2000/svg" width="72" height="44" viewBox="0 0 72 44">
  <g fill="none" fill-rule="evenodd">
    <rect width="71" height="21" x=".5" y=".5" fill="#EAF1F7" stroke="#D2E2ED" rx="2"/>
    <rect width="49" height="20" x="19" y="1" fill="#FFF"/>
    <rect width="71" height="21" x=".5" y="22.5" fill="#EAF1F7" stroke="#D2E2ED" rx="2"/>
    <rect width="48" height="19" x="19.5" y="23.5" fill="#FFF" stroke="#AECADE"/>
    <path fill="#0E3754" fill-rule="nonzero" d="M13.44 9.852C13.44 9.98000064 13.3760006 10.044 13.248 10.044L12.42 10.044C12.3799998 10.044 12.3520001 10.0639998 12.336 10.104L12.108 11.532C12.1 11.5800002 12.1239997 11.604 12.18 11.604L12.816 11.604C12.9440006 11.604 13.008 11.6679994 13.008 11.796L13.008 12.6C13.008 12.7280006 12.9440006 12.792 12.816 12.792L11.988 12.792C11.9479998 12.792 11.9200001 12.8119998 11.904 12.852L11.64 14.544C11.6239999 14.6640006 11.5560006 14.724 11.436 14.724L10.428 14.712C10.3639997 14.712 10.3160002 14.6940002 10.284 14.658 10.2519998 14.6219998 10.2439999 14.5720003 10.26 14.508L10.512 12.864C10.5280001 12.8159998 10.5040003 12.792 10.44 12.792L9.036 12.792C8.9959998 12.792 8.96800008 12.8119998 8.952 12.852L8.688 14.544C8.67199992 14.6640006 8.6040006 14.724 8.484 14.724L7.476 14.712C7.41199968 14.712 7.36400016 14.6940002 7.332 14.658 7.29999984 14.6219998 7.29199992 14.5720003 7.308 14.508L7.56 12.864C7.57600008 12.8159998 7.55200032 12.792 7.488 12.792L6.864 12.792C6.73599936 12.792 6.672 12.7280006 6.672 12.6L6.672 11.796C6.672 11.6679994 6.73599936 11.604 6.864 11.604L7.68 11.604C7.7200002 11.604 7.74799992 11.5800002 7.764 11.532L7.98 10.116C7.99600008 10.0679998 7.97200032 10.044 7.908 10.044L7.308 10.044C7.17999936 10.044 7.116 9.98000064 7.116 9.852L7.116 9.036C7.116 8.90799936 7.17999936 8.844 7.308 8.844L8.112 8.844C8.1520002 8.844 8.17999992 8.8240002 8.196 8.784L8.46 7.092C8.47600008 6.9719994 8.5439994 6.912 8.664 6.912L9.672 6.924C9.73600032 6.924 9.78399984 6.94199982 9.816 6.978 9.84800016 7.01400018 9.85600008 7.06399968 9.84 7.128L9.588 8.772C9.57999996 8.82000024 9.60399972 8.844 9.66 8.844L11.064 8.844C11.1040002 8.844 11.1319999 8.8240002 11.148 8.784L11.412 7.092C11.4280001 6.9719994 11.4959994 6.912 11.616 6.912L12.624 6.924C12.6880003 6.924 12.7359998 6.94199982 12.768 6.978 12.8000002 7.01400018 12.8080001 7.06399968 12.792 7.128L12.54 8.772C12.532 8.82000024 12.5559997 8.844 12.612 8.844L13.26 8.844C13.3880006 8.844 13.452 8.90799936 13.452 9.036L13.44 9.852zM10.632 11.604C10.6720002 11.604 10.6999999 11.5800002 10.716 11.532L10.932 10.116C10.9480001 10.0679998 10.9240003 10.044 10.86 10.044L9.468 10.044C9.4279998 10.044 9.40000008 10.0639998 9.384 10.104L9.156 11.532C9.14799996 11.5800002 9.17199972 11.604 9.228 11.604L10.632 11.604zM13.44 31.852C13.44 31.9800006 13.3760006 32.044 13.248 32.044L12.42 32.044C12.3799998 32.044 12.3520001 32.0639998 12.336 32.104L12.108 33.532C12.1 33.5800002 12.1239997 33.604 12.18 33.604L12.816 33.604C12.9440006 33.604 13.008 33.6679994 13.008 33.796L13.008 34.6C13.008 34.7280006 12.9440006 34.792 12.816 34.792L11.988 34.792C11.9479998 34.792 11.9200001 34.8119998 11.904 34.852L11.64 36.544C11.6239999 36.6640006 11.5560006 36.724 11.436 36.724L10.428 36.712C10.3639997 36.712 10.3160002 36.6940002 10.284 36.658 10.2519998 36.6219998 10.2439999 36.5720003 10.26 36.508L10.512 34.864C10.5280001 34.8159998 10.5040003 34.792 10.44 34.792L9.036 34.792C8.9959998 34.792 8.96800008 34.8119998 8.952 34.852L8.688 36.544C8.67199992 36.6640006 8.6040006 36.724 8.484 36.724L7.476 36.712C7.41199968 36.712 7.36400016 36.6940002 7.332 36.658 7.29999984 36.6219998 7.29199992 36.5720003 7.308 36.508L7.56 34.864C7.57600008 34.8159998 7.55200032 34.792 7.488 34.792L6.864 34.792C6.73599936 34.792 6.672 34.7280006 6.672 34.6L6.672 33.796C6.672 33.6679994 6.73599936 33.604 6.864 33.604L7.68 33.604C7.7200002 33.604 7.74799992 33.5800002 7.764 33.532L7.98 32.116C7.99600008 32.0679998 7.97200032 32.044 7.908 32.044L7.308 32.044C7.17999936 32.044 7.116 31.9800006 7.116 31.852L7.116 31.036C7.116 30.9079994 7.17999936 30.844 7.308 30.844L8.112 30.844C8.1520002 30.844 8.17999992 30.8240002 8.196 30.784L8.46 29.092C8.47600008 28.9719994 8.5439994 28.912 8.664 28.912L9.672 28.924C9.73600032 28.924 9.78399984 28.9419998 9.816 28.978 9.84800016 29.0140002 9.85600008 29.0639997 9.84 29.128L9.588 30.772C9.57999996 30.8200002 9.60399972 30.844 9.66 30.844L11.064 30.844C11.1040002 30.844 11.1319999 30.8240002 11.148 30.784L11.412 29.092C11.4280001 28.9719994 11.4959994 28.912 11.616 28.912L12.624 28.924C12.6880003 28.924 12.7359998 28.9419998 12.768 28.978 12.8000002 29.0140002 12.8080001 29.0639997 12.792 29.128L12.54 30.772C12.532 30.8200002 12.5559997 30.844 12.612 30.844L13.26 30.844C13.3880006 30.844 13.452 30.9079994 13.452 31.036L13.44 31.852zM10.632 33.604C10.6720002 33.604 10.6999999 33.5800002 10.716 33.532L10.932 32.116C10.9480001 32.0679998 10.9240003 32.044 10.86 32.044L9.468 32.044C9.4279998 32.044 9.40000008 32.0639998 9.384 32.104L9.156 33.532C9.14799996 33.5800002 9.17199972 33.604 9.228 33.604L10.632 33.604z"/>
  </g>
</svg>
