<svg xmlns="http://www.w3.org/2000/svg" width="62" height="66" viewBox="0 0 62 66">
  <g fill="none" fill-rule="evenodd">
    <rect width="61" height="21" x=".5" y=".5" fill="#EAF1F7" stroke="#D2E2ED" rx="2"/>
    <rect width="29" height="20" x="21" y="1" fill="#FFF"/>
    <polyline stroke="#376789" stroke-linecap="round" stroke-linejoin="round" points="53 5 55.5 7 58 5" transform="matrix(1 0 0 -1 0 12)"/>
    <polyline stroke="#376789" stroke-linecap="round" stroke-linejoin="round" points="53 15 55.5 17 58 15"/>
    <rect width="61" height="21" x=".5" y="22.5" fill="#EAF1F7" stroke="#D2E2ED" rx="2"/>
    <rect width="28" height="19" x="21.5" y="23.5" fill="#FFF" stroke="#AECADE"/>
    <polyline stroke="#376789" stroke-linecap="round" stroke-linejoin="round" points="53 27 55.5 29 58 27" transform="matrix(1 0 0 -1 0 56)"/>
    <polyline stroke="#376789" stroke-linecap="round" stroke-linejoin="round" points="53 37 55.5 39 58 37"/>
    <rect width="61" height="21" x=".5" y="44.5" fill="#EAF1F7" stroke="#D2E2ED" rx="2"/>
    <rect width="28" height="19" x="21.5" y="45.5" fill="#FFF" stroke="#AECADE"/>
    <path fill="#AECADE" d="M50,45 L60,45 C60.5522847,45 61,45.4477153 61,46 L61,64 C61,64.5522847 60.5522847,65 60,65 L50,65 L50,45 Z"/>
    <polyline stroke="#244358" stroke-linecap="round" stroke-linejoin="round" points="53 49 55.5 51 58 49" transform="matrix(1 0 0 -1 0 100)"/>
    <polyline stroke="#244358" stroke-linecap="round" stroke-linejoin="round" points="53 59 55.5 61 58 59"/>
    <path fill="#0E3754" fill-rule="nonzero" d="M9.684 15.096C9.083997 15.096 8.55600228 14.9780012 8.1 14.742 7.64399772 14.5059988 7.29200124 14.1720022 7.044 13.74 6.79599876 13.3079978 6.672 12.8120028 6.672 12.252L6.672 9.348C6.672 8.77999716 6.79599876 8.28200214 7.044 7.854 7.29200124 7.42599786 7.64399772 7.09400118 8.1 6.858 8.55600228 6.62199882 9.083997 6.504 9.684 6.504 10.276003 6.504 10.7979977 6.61999884 11.25 6.852 11.7020023 7.08400116 12.0519988 7.399998 12.3 7.8 12.5480012 8.200002 12.672 8.65199748 12.672 9.156L12.672 9.204C12.672 9.33200064 12.6080006 9.396 12.48 9.396L11.484 9.396C11.4279997 9.396 11.3820002 9.3860001 11.346 9.366 11.3099998 9.3459999 11.292 9.32000016 11.292 9.288L11.292 9.192C11.292 8.75999784 11.1460015 8.4040014 10.854 8.124 10.5619985 7.8439986 10.1720024 7.704 9.684 7.704 9.19599756 7.704 8.80400148 7.84999854 8.508 8.142 8.21199852 8.43400146 8.064 8.8199976 8.064 9.3L8.064 12.3C8.064 12.7800024 8.21999844 13.1659985 8.532 13.458 8.84400156 13.7500015 9.24799752 13.896 9.744 13.896 10.2240024 13.896 10.6019986 13.7700013 10.878 13.518 11.1540014 13.2659987 11.292 12.9200022 11.292 12.48L11.292 11.748C11.292 11.6999998 11.2680002 11.676 11.22 11.676L9.804 11.676C9.67599936 11.676 9.612 11.6120006 9.612 11.484L9.612 10.692C9.612 10.5639994 9.67599936 10.5 9.804 10.5L12.48 10.5C12.6080006 10.5 12.672 10.5639994 12.672 10.692L12.672 12.18C12.672 13.1000046 12.4020027 13.8159974 11.862 14.328 11.3219973 14.8400026 10.5960046 15.096 9.684 15.096zM9.684 37.096C9.083997 37.096 8.55600228 36.9780012 8.1 36.742 7.64399772 36.5059988 7.29200124 36.1720022 7.044 35.74 6.79599876 35.3079978 6.672 34.8120028 6.672 34.252L6.672 31.348C6.672 30.7799972 6.79599876 30.2820021 7.044 29.854 7.29200124 29.4259979 7.64399772 29.0940012 8.1 28.858 8.55600228 28.6219988 9.083997 28.504 9.684 28.504 10.276003 28.504 10.7979977 28.6199988 11.25 28.852 11.7020023 29.0840012 12.0519988 29.399998 12.3 29.8 12.5480012 30.200002 12.672 30.6519975 12.672 31.156L12.672 31.204C12.672 31.3320006 12.6080006 31.396 12.48 31.396L11.484 31.396C11.4279997 31.396 11.3820002 31.3860001 11.346 31.366 11.3099998 31.3459999 11.292 31.3200002 11.292 31.288L11.292 31.192C11.292 30.7599978 11.1460015 30.4040014 10.854 30.124 10.5619985 29.8439986 10.1720024 29.704 9.684 29.704 9.19599756 29.704 8.80400148 29.8499985 8.508 30.142 8.21199852 30.4340015 8.064 30.8199976 8.064 31.3L8.064 34.3C8.064 34.7800024 8.21999844 35.1659985 8.532 35.458 8.84400156 35.7500015 9.24799752 35.896 9.744 35.896 10.2240024 35.896 10.6019986 35.7700013 10.878 35.518 11.1540014 35.2659987 11.292 34.9200022 11.292 34.48L11.292 33.748C11.292 33.6999998 11.2680002 33.676 11.22 33.676L9.804 33.676C9.67599936 33.676 9.612 33.6120006 9.612 33.484L9.612 32.692C9.612 32.5639994 9.67599936 32.5 9.804 32.5L12.48 32.5C12.6080006 32.5 12.672 32.5639994 12.672 32.692L12.672 34.18C12.672 35.1000046 12.4020027 35.8159974 11.862 36.328 11.3219973 36.8400026 10.5960046 37.096 9.684 37.096zM9.684 59.096C9.083997 59.096 8.55600228 58.9780012 8.1 58.742 7.64399772 58.5059988 7.29200124 58.1720022 7.044 57.74 6.79599876 57.3079978 6.672 56.8120028 6.672 56.252L6.672 53.348C6.672 52.7799972 6.79599876 52.2820021 7.044 51.854 7.29200124 51.4259979 7.64399772 51.0940012 8.1 50.858 8.55600228 50.6219988 9.083997 50.504 9.684 50.504 10.276003 50.504 10.7979977 50.6199988 11.25 50.852 11.7020023 51.0840012 12.0519988 51.399998 12.3 51.8 12.5480012 52.200002 12.672 52.6519975 12.672 53.156L12.672 53.204C12.672 53.3320006 12.6080006 53.396 12.48 53.396L11.484 53.396C11.4279997 53.396 11.3820002 53.3860001 11.346 53.366 11.3099998 53.3459999 11.292 53.3200002 11.292 53.288L11.292 53.192C11.292 52.7599978 11.1460015 52.4040014 10.854 52.124 10.5619985 51.8439986 10.1720024 51.704 9.684 51.704 9.19599756 51.704 8.80400148 51.8499985 8.508 52.142 8.21199852 52.4340015 8.064 52.8199976 8.064 53.3L8.064 56.3C8.064 56.7800024 8.21999844 57.1659985 8.532 57.458 8.84400156 57.7500015 9.24799752 57.896 9.744 57.896 10.2240024 57.896 10.6019986 57.7700013 10.878 57.518 11.1540014 57.2659987 11.292 56.9200022 11.292 56.48L11.292 55.748C11.292 55.6999998 11.2680002 55.676 11.22 55.676L9.804 55.676C9.67599936 55.676 9.612 55.6120006 9.612 55.484L9.612 54.692C9.612 54.5639994 9.67599936 54.5 9.804 54.5L12.48 54.5C12.6080006 54.5 12.672 54.5639994 12.672 54.692L12.672 56.18C12.672 57.1000046 12.4020027 57.8159974 11.862 58.328 11.3219973 58.8400026 10.5960046 59.096 9.684 59.096z"/>
  </g>
</svg>
