<svg xmlns="http://www.w3.org/2000/svg" width="48" height="48" viewBox="0 0 48 48">
  <g fill="none" fill-rule="evenodd">
    <g stroke-width="2" transform="translate(26 24)">
      <path stroke="#E4006D" stroke-linecap="round" d="M0,0 L16,0" transform="translate(0 16)"/>
      <polygon fill="#E4006D" stroke="#E4006D" stroke-linecap="round" stroke-linejoin="round" points="11 0 0 11 0 13 2.068 13 13 2"/>
      <path stroke="#EAF1F7" d="M8.92529297,2.92529297 L10.3505859,4.35058594"/>
    </g>
    <path stroke="#244358" stroke-width="2" d="M7,14 L40,14"/>
    <path stroke="#AECADE" stroke-width="2" d="M7 20L40 20M7 26L30 26M7 32L24 32M13 15.046875L13 37M20 15.046875L20 32.5M27 15.046875L27 29M34 15.046875L34 23"/>
    <path stroke="#5993BC" stroke-linecap="round" stroke-width="2" d="M22,38 L8,38 C6.8954305,38 6,37.1045695 6,36 L6,11 C6,9.8954305 6.8954305,9 8,9 L39,9 C40.1045695,9 41,9.8954305 41,11 L41,22.0234375"/>
  </g>
</svg>
