<svg xmlns="http://www.w3.org/2000/svg" width="48" height="48" viewBox="0 0 48 48">
  <g fill="none" fill-rule="evenodd">
    <path stroke="#5993BC" stroke-width="2" d="M7,32 L42,32 C42.5522847,32 43,31.5522847 43,31 L43,8 C43,7.44771525 42.5522847,7 42,7 L7,7 C6.44771525,7 6,7.44771525 6,8 L6,31 C6,31.5522847 6.44771525,32 7,32 Z"/>
    <path stroke="#0E3754" stroke-linecap="round" stroke-linejoin="round" stroke-width="2" d="M30 13L12 13M36.9782185 18L12 18M36.9782185 23.0856695L24.5 23.0856695"/>
    <g stroke="#049474" stroke-width="2" transform="translate(10 22)">
      <path d="M0,6.9672 C0,10.2807 2.6865,12.9672 6,12.9672 C9.3135,12.9672 12,10.2807 12,6.9672 C12,3.6537 9.3135,0.9672 6,0.9672 C2.6865,0.9672 0,3.6537 0,6.9672 Z"/>
      <path d="M4,7 C4,8.104 4.896,9 6,9 C7.104,9 8,8.104 8,7 C8,5.896 7.104,5 6,5 C4.896,5 4,5.896 4,7 Z"/>
      <polyline stroke-linejoin="round" points="3 12.125 3 20.465 5.476 18.729 9 21.942 9 12.125"/>
    </g>
  </g>
</svg>
